%TF.GenerationSoftware,KiCad,Pcbnew,6.0.2-378541a8eb~116~ubuntu20.04.1*%
%TF.CreationDate,2022-04-05T22:24:09-04:00*%
%TF.ProjectId,power_board,706f7765-725f-4626-9f61-72642e6b6963,rev?*%
%TF.SameCoordinates,Original*%
%TF.FileFunction,Paste,Top*%
%TF.FilePolarity,Positive*%
%FSLAX46Y46*%
G04 Gerber Fmt 4.6, Leading zero omitted, Abs format (unit mm)*
G04 Created by KiCad (PCBNEW 6.0.2-378541a8eb~116~ubuntu20.04.1) date 2022-04-05 22:24:09*
%MOMM*%
%LPD*%
G01*
G04 APERTURE LIST*
G04 Aperture macros list*
%AMRoundRect*
0 Rectangle with rounded corners*
0 $1 Rounding radius*
0 $2 $3 $4 $5 $6 $7 $8 $9 X,Y pos of 4 corners*
0 Add a 4 corners polygon primitive as box body*
4,1,4,$2,$3,$4,$5,$6,$7,$8,$9,$2,$3,0*
0 Add four circle primitives for the rounded corners*
1,1,$1+$1,$2,$3*
1,1,$1+$1,$4,$5*
1,1,$1+$1,$6,$7*
1,1,$1+$1,$8,$9*
0 Add four rect primitives between the rounded corners*
20,1,$1+$1,$2,$3,$4,$5,0*
20,1,$1+$1,$4,$5,$6,$7,0*
20,1,$1+$1,$6,$7,$8,$9,0*
20,1,$1+$1,$8,$9,$2,$3,0*%
G04 Aperture macros list end*
%ADD10C,0.010000*%
%ADD11RoundRect,0.250000X0.450000X-0.262500X0.450000X0.262500X-0.450000X0.262500X-0.450000X-0.262500X0*%
%ADD12RoundRect,0.250000X0.250000X0.475000X-0.250000X0.475000X-0.250000X-0.475000X0.250000X-0.475000X0*%
%ADD13RoundRect,0.250000X-0.475000X0.250000X-0.475000X-0.250000X0.475000X-0.250000X0.475000X0.250000X0*%
%ADD14RoundRect,0.250000X0.475000X-0.250000X0.475000X0.250000X-0.475000X0.250000X-0.475000X-0.250000X0*%
%ADD15RoundRect,0.250000X0.262500X0.450000X-0.262500X0.450000X-0.262500X-0.450000X0.262500X-0.450000X0*%
%ADD16R,1.000000X0.400000*%
%ADD17RoundRect,0.250000X-0.250000X-0.475000X0.250000X-0.475000X0.250000X0.475000X-0.250000X0.475000X0*%
%ADD18R,2.100000X2.600000*%
%ADD19RoundRect,0.250000X-0.262500X-0.450000X0.262500X-0.450000X0.262500X0.450000X-0.262500X0.450000X0*%
%ADD20RoundRect,0.250000X-0.450000X0.262500X-0.450000X-0.262500X0.450000X-0.262500X0.450000X0.262500X0*%
%ADD21RoundRect,0.250001X-0.799999X2.049999X-0.799999X-2.049999X0.799999X-2.049999X0.799999X2.049999X0*%
%ADD22R,1.400000X2.100000*%
%ADD23R,1.200000X1.300000*%
%ADD24R,3.429000X2.413000*%
%ADD25RoundRect,0.100000X-0.712500X-0.100000X0.712500X-0.100000X0.712500X0.100000X-0.712500X0.100000X0*%
%ADD26RoundRect,0.167500X0.167500X0.407500X-0.167500X0.407500X-0.167500X-0.407500X0.167500X-0.407500X0*%
%ADD27RoundRect,0.100000X0.625000X0.100000X-0.625000X0.100000X-0.625000X-0.100000X0.625000X-0.100000X0*%
%ADD28RoundRect,0.212500X-0.212500X-0.212500X0.212500X-0.212500X0.212500X0.212500X-0.212500X0.212500X0*%
%ADD29RoundRect,0.087500X-0.425000X-0.087500X0.425000X-0.087500X0.425000X0.087500X-0.425000X0.087500X0*%
%ADD30RoundRect,0.087500X-0.087500X-0.425000X0.087500X-0.425000X0.087500X0.425000X-0.087500X0.425000X0*%
%ADD31R,1.000000X1.000000*%
%ADD32R,2.300000X1.000000*%
%ADD33R,2.600000X1.000000*%
%ADD34R,1.000000X2.600000*%
%ADD35R,1.000000X2.300000*%
%ADD36RoundRect,0.250000X-0.850000X0.375000X-0.850000X-0.375000X0.850000X-0.375000X0.850000X0.375000X0*%
%ADD37R,0.500000X0.500000*%
%ADD38R,1.000000X5.100000*%
%ADD39R,5.100000X1.000000*%
G04 APERTURE END LIST*
D10*
%TO.C,C28*%
X56900000Y-63100000D02*
X55500000Y-63100000D01*
X55500000Y-63100000D02*
X55500000Y-62200000D01*
X55500000Y-62200000D02*
X56900000Y-62200000D01*
X56900000Y-62200000D02*
X56900000Y-63100000D01*
G36*
X56900000Y-63100000D02*
G01*
X55500000Y-63100000D01*
X55500000Y-62200000D01*
X56900000Y-62200000D01*
X56900000Y-63100000D01*
G37*
X56900000Y-63100000D02*
X55500000Y-63100000D01*
X55500000Y-62200000D01*
X56900000Y-62200000D01*
X56900000Y-63100000D01*
X56900000Y-61400000D02*
X55500000Y-61400000D01*
X55500000Y-61400000D02*
X55500000Y-60500000D01*
X55500000Y-60500000D02*
X56900000Y-60500000D01*
X56900000Y-60500000D02*
X56900000Y-61400000D01*
G36*
X56900000Y-61400000D02*
G01*
X55500000Y-61400000D01*
X55500000Y-60500000D01*
X56900000Y-60500000D01*
X56900000Y-61400000D01*
G37*
X56900000Y-61400000D02*
X55500000Y-61400000D01*
X55500000Y-60500000D01*
X56900000Y-60500000D01*
X56900000Y-61400000D01*
%TO.C,C8*%
X92196200Y-60700000D02*
X93596200Y-60700000D01*
X93596200Y-60700000D02*
X93596200Y-61600000D01*
X93596200Y-61600000D02*
X92196200Y-61600000D01*
X92196200Y-61600000D02*
X92196200Y-60700000D01*
G36*
X93596200Y-61600000D02*
G01*
X92196200Y-61600000D01*
X92196200Y-60700000D01*
X93596200Y-60700000D01*
X93596200Y-61600000D01*
G37*
X93596200Y-61600000D02*
X92196200Y-61600000D01*
X92196200Y-60700000D01*
X93596200Y-60700000D01*
X93596200Y-61600000D01*
X92196200Y-59000000D02*
X93596200Y-59000000D01*
X93596200Y-59000000D02*
X93596200Y-59900000D01*
X93596200Y-59900000D02*
X92196200Y-59900000D01*
X92196200Y-59900000D02*
X92196200Y-59000000D01*
G36*
X93596200Y-59900000D02*
G01*
X92196200Y-59900000D01*
X92196200Y-59000000D01*
X93596200Y-59000000D01*
X93596200Y-59900000D01*
G37*
X93596200Y-59900000D02*
X92196200Y-59900000D01*
X92196200Y-59000000D01*
X93596200Y-59000000D01*
X93596200Y-59900000D01*
%TO.C,C7*%
X70600000Y-64000000D02*
X72000000Y-64000000D01*
X72000000Y-64000000D02*
X72000000Y-64900000D01*
X72000000Y-64900000D02*
X70600000Y-64900000D01*
X70600000Y-64900000D02*
X70600000Y-64000000D01*
G36*
X72000000Y-64900000D02*
G01*
X70600000Y-64900000D01*
X70600000Y-64000000D01*
X72000000Y-64000000D01*
X72000000Y-64900000D01*
G37*
X72000000Y-64900000D02*
X70600000Y-64900000D01*
X70600000Y-64000000D01*
X72000000Y-64000000D01*
X72000000Y-64900000D01*
X70600000Y-62300000D02*
X72000000Y-62300000D01*
X72000000Y-62300000D02*
X72000000Y-63200000D01*
X72000000Y-63200000D02*
X70600000Y-63200000D01*
X70600000Y-63200000D02*
X70600000Y-62300000D01*
G36*
X72000000Y-63200000D02*
G01*
X70600000Y-63200000D01*
X70600000Y-62300000D01*
X72000000Y-62300000D01*
X72000000Y-63200000D01*
G37*
X72000000Y-63200000D02*
X70600000Y-63200000D01*
X70600000Y-62300000D01*
X72000000Y-62300000D01*
X72000000Y-63200000D01*
%TO.C,C47*%
X62800000Y-91800000D02*
X64200000Y-91800000D01*
X64200000Y-91800000D02*
X64200000Y-92700000D01*
X64200000Y-92700000D02*
X62800000Y-92700000D01*
X62800000Y-92700000D02*
X62800000Y-91800000D01*
G36*
X64200000Y-92700000D02*
G01*
X62800000Y-92700000D01*
X62800000Y-91800000D01*
X64200000Y-91800000D01*
X64200000Y-92700000D01*
G37*
X64200000Y-92700000D02*
X62800000Y-92700000D01*
X62800000Y-91800000D01*
X64200000Y-91800000D01*
X64200000Y-92700000D01*
X62800000Y-93500000D02*
X64200000Y-93500000D01*
X64200000Y-93500000D02*
X64200000Y-94400000D01*
X64200000Y-94400000D02*
X62800000Y-94400000D01*
X62800000Y-94400000D02*
X62800000Y-93500000D01*
G36*
X64200000Y-94400000D02*
G01*
X62800000Y-94400000D01*
X62800000Y-93500000D01*
X64200000Y-93500000D01*
X64200000Y-94400000D01*
G37*
X64200000Y-94400000D02*
X62800000Y-94400000D01*
X62800000Y-93500000D01*
X64200000Y-93500000D01*
X64200000Y-94400000D01*
%TO.C,C31*%
X118596200Y-54500000D02*
X119996200Y-54500000D01*
X119996200Y-54500000D02*
X119996200Y-55400000D01*
X119996200Y-55400000D02*
X118596200Y-55400000D01*
X118596200Y-55400000D02*
X118596200Y-54500000D01*
G36*
X119996200Y-55400000D02*
G01*
X118596200Y-55400000D01*
X118596200Y-54500000D01*
X119996200Y-54500000D01*
X119996200Y-55400000D01*
G37*
X119996200Y-55400000D02*
X118596200Y-55400000D01*
X118596200Y-54500000D01*
X119996200Y-54500000D01*
X119996200Y-55400000D01*
X118596200Y-52800000D02*
X119996200Y-52800000D01*
X119996200Y-52800000D02*
X119996200Y-53700000D01*
X119996200Y-53700000D02*
X118596200Y-53700000D01*
X118596200Y-53700000D02*
X118596200Y-52800000D01*
G36*
X119996200Y-53700000D02*
G01*
X118596200Y-53700000D01*
X118596200Y-52800000D01*
X119996200Y-52800000D01*
X119996200Y-53700000D01*
G37*
X119996200Y-53700000D02*
X118596200Y-53700000D01*
X118596200Y-52800000D01*
X119996200Y-52800000D01*
X119996200Y-53700000D01*
%TD*%
D11*
%TO.C,R26*%
X113296200Y-63300000D03*
X113296200Y-61475000D03*
%TD*%
D12*
%TO.C,C10*%
X73300000Y-66700000D03*
X71400000Y-66700000D03*
%TD*%
D13*
%TO.C,C33*%
X123696200Y-54116800D03*
X123696200Y-56016800D03*
%TD*%
D12*
%TO.C,C42*%
X59057800Y-104300000D03*
X57157800Y-104300000D03*
%TD*%
D14*
%TO.C,C26*%
X60600000Y-62000000D03*
X60600000Y-60100000D03*
%TD*%
D15*
%TO.C,R13*%
X73225000Y-76500000D03*
X71400000Y-76500000D03*
%TD*%
%TO.C,R45*%
X68975000Y-106200000D03*
X67150000Y-106200000D03*
%TD*%
%TO.C,R52*%
X107387500Y-39225000D03*
X105562500Y-39225000D03*
%TD*%
D12*
%TO.C,C25*%
X115775000Y-59500000D03*
X113875000Y-59500000D03*
%TD*%
D16*
%TO.C,U6*%
X61300000Y-97750000D03*
X61300000Y-98400000D03*
X61300000Y-99050000D03*
X61300000Y-99700000D03*
X61300000Y-100350000D03*
X61300000Y-101000000D03*
X61300000Y-101650000D03*
X61300000Y-102300000D03*
X61300000Y-102950000D03*
X61300000Y-103600000D03*
X67100000Y-103600000D03*
X67100000Y-102950000D03*
X67100000Y-102300000D03*
X67100000Y-101650000D03*
X67100000Y-101000000D03*
X67100000Y-100350000D03*
X67100000Y-99700000D03*
X67100000Y-99050000D03*
X67100000Y-98400000D03*
X67100000Y-97750000D03*
%TD*%
D12*
%TO.C,C5*%
X82550000Y-43000000D03*
X80650000Y-43000000D03*
%TD*%
D17*
%TO.C,C12*%
X80400000Y-68300000D03*
X82300000Y-68300000D03*
%TD*%
D18*
%TO.C,D1*%
X72070000Y-50400000D03*
X67170000Y-50400000D03*
%TD*%
D17*
%TO.C,C24*%
X117796200Y-57050600D03*
X119696200Y-57050600D03*
%TD*%
D15*
%TO.C,R51*%
X58700000Y-92118800D03*
X56875000Y-92118800D03*
%TD*%
D17*
%TO.C,C49*%
X105562500Y-41625000D03*
X107462500Y-41625000D03*
%TD*%
D13*
%TO.C,C14*%
X104696200Y-58846400D03*
X104696200Y-60746400D03*
%TD*%
D19*
%TO.C,R36*%
X48075000Y-111200000D03*
X49900000Y-111200000D03*
%TD*%
D17*
%TO.C,C16*%
X68500000Y-68800000D03*
X70400000Y-68800000D03*
%TD*%
D15*
%TO.C,R20*%
X124087500Y-68000000D03*
X122262500Y-68000000D03*
%TD*%
D20*
%TO.C,R19*%
X106452400Y-63451400D03*
X106452400Y-65276400D03*
%TD*%
D19*
%TO.C,R9*%
X97671200Y-62700000D03*
X99496200Y-62700000D03*
%TD*%
%TO.C,R28*%
X112867400Y-55300000D03*
X114692400Y-55300000D03*
%TD*%
D15*
%TO.C,R29*%
X114667000Y-53300000D03*
X112842000Y-53300000D03*
%TD*%
%TO.C,R17*%
X104321200Y-66100000D03*
X102496200Y-66100000D03*
%TD*%
D14*
%TO.C,C34*%
X96600000Y-49700000D03*
X96600000Y-47800000D03*
%TD*%
D11*
%TO.C,R1*%
X90262500Y-45550000D03*
X90262500Y-43725000D03*
%TD*%
D21*
%TO.C,C32*%
X43100000Y-74000000D03*
X43100000Y-82800000D03*
%TD*%
D22*
%TO.C,D3*%
X64400000Y-76800000D03*
X68800000Y-76800000D03*
%TD*%
D13*
%TO.C,C39*%
X52500000Y-98380600D03*
X52500000Y-100280600D03*
%TD*%
D19*
%TO.C,R4*%
X90106000Y-41726000D03*
X91931000Y-41726000D03*
%TD*%
D13*
%TO.C,C15*%
X107096200Y-58841200D03*
X107096200Y-60741200D03*
%TD*%
D17*
%TO.C,C20*%
X112796200Y-67300000D03*
X114696200Y-67300000D03*
%TD*%
D14*
%TO.C,C21*%
X116496200Y-69100000D03*
X116496200Y-67200000D03*
%TD*%
D13*
%TO.C,C17*%
X109200000Y-58866600D03*
X109200000Y-60766600D03*
%TD*%
D20*
%TO.C,R23*%
X65400000Y-65675000D03*
X65400000Y-67500000D03*
%TD*%
%TO.C,R11*%
X97384800Y-58876900D03*
X97384800Y-60701900D03*
%TD*%
D19*
%TO.C,R2*%
X80525000Y-46000000D03*
X82350000Y-46000000D03*
%TD*%
D12*
%TO.C,C22*%
X114700000Y-65300000D03*
X112800000Y-65300000D03*
%TD*%
D13*
%TO.C,C48*%
X67700000Y-93100000D03*
X67700000Y-95000000D03*
%TD*%
D23*
%TO.C,C28*%
X58050000Y-61800000D03*
X54350000Y-61800000D03*
%TD*%
D19*
%TO.C,R48*%
X63775000Y-105700000D03*
X65600000Y-105700000D03*
%TD*%
D24*
%TO.C,L3*%
X54800000Y-75496000D03*
X54800000Y-69654000D03*
%TD*%
D12*
%TO.C,C46*%
X59600000Y-96100000D03*
X57700000Y-96100000D03*
%TD*%
D17*
%TO.C,C43*%
X61600000Y-95700000D03*
X63500000Y-95700000D03*
%TD*%
D15*
%TO.C,R14*%
X100721200Y-66100000D03*
X98896200Y-66100000D03*
%TD*%
D25*
%TO.C,U5*%
X45487500Y-107225000D03*
X45487500Y-107875000D03*
X45487500Y-108525000D03*
X45487500Y-109175000D03*
X49712500Y-109175000D03*
X49712500Y-108525000D03*
X49712500Y-107875000D03*
X49712500Y-107225000D03*
%TD*%
D19*
%TO.C,R5*%
X76925000Y-46000000D03*
X78750000Y-46000000D03*
%TD*%
D16*
%TO.C,U2*%
X117300000Y-58675000D03*
X117300000Y-59325000D03*
X117300000Y-59975000D03*
X117300000Y-60625000D03*
X117300000Y-61275000D03*
X117300000Y-61925000D03*
X117300000Y-62575000D03*
X117300000Y-63225000D03*
X117300000Y-63875000D03*
X117300000Y-64525000D03*
X123100000Y-64525000D03*
X123100000Y-63875000D03*
X123100000Y-63225000D03*
X123100000Y-62575000D03*
X123100000Y-61925000D03*
X123100000Y-61275000D03*
X123100000Y-60625000D03*
X123100000Y-59975000D03*
X123100000Y-59325000D03*
X123100000Y-58675000D03*
%TD*%
D23*
%TO.C,C8*%
X91046200Y-60300000D03*
X94746200Y-60300000D03*
%TD*%
D15*
%TO.C,R46*%
X72670000Y-114765000D03*
X70845000Y-114765000D03*
%TD*%
D11*
%TO.C,R15*%
X78400000Y-70100000D03*
X78400000Y-68275000D03*
%TD*%
D12*
%TO.C,C30*%
X47400000Y-63950000D03*
X45500000Y-63950000D03*
%TD*%
D17*
%TO.C,C6*%
X91010100Y-63277800D03*
X92910100Y-63277800D03*
%TD*%
D15*
%TO.C,R10*%
X104521200Y-74500000D03*
X102696200Y-74500000D03*
%TD*%
D14*
%TO.C,C41*%
X61000000Y-107800000D03*
X61000000Y-105900000D03*
%TD*%
D13*
%TO.C,C36*%
X46200000Y-98400000D03*
X46200000Y-100300000D03*
%TD*%
D17*
%TO.C,C1*%
X80400000Y-48300000D03*
X82300000Y-48300000D03*
%TD*%
D25*
%TO.C,U1*%
X100483700Y-68225000D03*
X100483700Y-68875000D03*
X100483700Y-69525000D03*
X100483700Y-70175000D03*
X104708700Y-70175000D03*
X104708700Y-69525000D03*
X104708700Y-68875000D03*
X104708700Y-68225000D03*
%TD*%
D19*
%TO.C,R50*%
X56875000Y-94100000D03*
X58700000Y-94100000D03*
%TD*%
D20*
%TO.C,R18*%
X77800000Y-74900000D03*
X77800000Y-76725000D03*
%TD*%
D15*
%TO.C,R12*%
X100965200Y-74525400D03*
X99140200Y-74525400D03*
%TD*%
D23*
%TO.C,C7*%
X69450000Y-63600000D03*
X73150000Y-63600000D03*
%TD*%
D17*
%TO.C,C40*%
X57200000Y-106500000D03*
X59100000Y-106500000D03*
%TD*%
D20*
%TO.C,R31*%
X56000000Y-64275000D03*
X56000000Y-66100000D03*
%TD*%
D13*
%TO.C,C37*%
X48300000Y-98400000D03*
X48300000Y-100300000D03*
%TD*%
D15*
%TO.C,R6*%
X85975000Y-46000000D03*
X84150000Y-46000000D03*
%TD*%
%TO.C,R41*%
X46200000Y-113400000D03*
X44375000Y-113400000D03*
%TD*%
D13*
%TO.C,C45*%
X59500000Y-100100000D03*
X59500000Y-102000000D03*
%TD*%
D19*
%TO.C,R7*%
X102696200Y-72290200D03*
X104521200Y-72290200D03*
%TD*%
D15*
%TO.C,R24*%
X129717400Y-74315600D03*
X127892400Y-74315600D03*
%TD*%
%TO.C,R42*%
X45800000Y-105000000D03*
X43975000Y-105000000D03*
%TD*%
D12*
%TO.C,C29*%
X115800000Y-57500000D03*
X113900000Y-57500000D03*
%TD*%
D19*
%TO.C,R25*%
X118671200Y-67300000D03*
X120496200Y-67300000D03*
%TD*%
D24*
%TO.C,L2*%
X127375000Y-65371000D03*
X127375000Y-59529000D03*
%TD*%
D17*
%TO.C,C2*%
X90996200Y-67300000D03*
X92896200Y-67300000D03*
%TD*%
D26*
%TO.C,U3*%
X62890000Y-72210000D03*
X62890000Y-70790000D03*
X63710000Y-72210000D03*
X63710000Y-70790000D03*
D27*
X65450000Y-73125000D03*
X65450000Y-72475000D03*
X65450000Y-71825000D03*
X65450000Y-71175000D03*
X65450000Y-70525000D03*
X65450000Y-69875000D03*
X61150000Y-69875000D03*
X61150000Y-70525000D03*
X61150000Y-71175000D03*
X61150000Y-71825000D03*
X61150000Y-72475000D03*
X61150000Y-73125000D03*
%TD*%
D28*
%TO.C,U4*%
X101137500Y-47600000D03*
X101137500Y-48650000D03*
X102187500Y-48650000D03*
X102187500Y-47600000D03*
D29*
X99800000Y-47150000D03*
X99800000Y-47800000D03*
X99800000Y-48450000D03*
X99800000Y-49100000D03*
D30*
X100687500Y-49987500D03*
X101337500Y-49987500D03*
X101987500Y-49987500D03*
X102637500Y-49987500D03*
D29*
X103525000Y-49100000D03*
X103525000Y-48450000D03*
X103525000Y-47800000D03*
X103525000Y-47150000D03*
D30*
X102637500Y-46262500D03*
X101987500Y-46262500D03*
X101337500Y-46262500D03*
X100687500Y-46262500D03*
%TD*%
D31*
%TO.C,J9*%
X75675000Y-89750000D03*
D32*
X74025000Y-89750000D03*
D33*
X69175000Y-89750000D03*
D31*
X55175000Y-110250000D03*
D34*
X75675000Y-103750000D03*
D35*
X55175000Y-91400000D03*
D34*
X55175000Y-96250000D03*
D32*
X74025000Y-110250000D03*
D31*
X55175000Y-89750000D03*
D35*
X55175000Y-108600000D03*
X75675000Y-108600000D03*
D31*
X75675000Y-110250000D03*
D32*
X56825000Y-89750000D03*
D33*
X61675000Y-89750000D03*
D34*
X75675000Y-96250000D03*
X55175000Y-103750000D03*
D33*
X69175000Y-110250000D03*
D32*
X56825000Y-110250000D03*
D35*
X75675000Y-91400000D03*
D33*
X61675000Y-110250000D03*
%TD*%
D36*
%TO.C,L1*%
X72800000Y-69750000D03*
X72800000Y-71900000D03*
%TD*%
D37*
%TO.C,D4*%
X61410000Y-84000000D03*
X59210000Y-84000000D03*
%TD*%
D17*
%TO.C,C3*%
X90996200Y-65300000D03*
X92896200Y-65300000D03*
%TD*%
D20*
%TO.C,R40*%
X43600000Y-98275000D03*
X43600000Y-100100000D03*
%TD*%
D13*
%TO.C,C13*%
X102296200Y-58846400D03*
X102296200Y-60746400D03*
%TD*%
D17*
%TO.C,C4*%
X93887500Y-41562500D03*
X95787500Y-41562500D03*
%TD*%
D22*
%TO.C,D2*%
X69500000Y-60100000D03*
X65100000Y-60100000D03*
%TD*%
D23*
%TO.C,C47*%
X61650000Y-93100000D03*
X65350000Y-93100000D03*
%TD*%
D11*
%TO.C,R37*%
X41600000Y-100125000D03*
X41600000Y-98300000D03*
%TD*%
D12*
%TO.C,C18*%
X70400000Y-74100000D03*
X68500000Y-74100000D03*
%TD*%
D31*
%TO.C,J5*%
X131725000Y-72025000D03*
D34*
X131725000Y-65525000D03*
X131725000Y-58025000D03*
X111225000Y-65525000D03*
D31*
X111225000Y-72025000D03*
D35*
X111225000Y-70375000D03*
D33*
X125225000Y-51525000D03*
X125225000Y-72025000D03*
D31*
X131725000Y-51525000D03*
D32*
X112875000Y-72025000D03*
X130075000Y-51525000D03*
X130075000Y-72025000D03*
D35*
X131725000Y-53175000D03*
D32*
X112875000Y-51525000D03*
D35*
X111225000Y-53175000D03*
D31*
X111225000Y-51525000D03*
D33*
X117725000Y-51525000D03*
X117725000Y-72025000D03*
D35*
X131725000Y-70375000D03*
D34*
X111225000Y-58025000D03*
%TD*%
D23*
%TO.C,C31*%
X117446200Y-54100000D03*
X121146200Y-54100000D03*
%TD*%
D15*
%TO.C,R16*%
X63225000Y-67900000D03*
X61400000Y-67900000D03*
%TD*%
D19*
%TO.C,R27*%
X59900000Y-65400000D03*
X61725000Y-65400000D03*
%TD*%
D11*
%TO.C,R8*%
X99696200Y-60700000D03*
X99696200Y-58875000D03*
%TD*%
D15*
%TO.C,R38*%
X43300000Y-102000000D03*
X41475000Y-102000000D03*
%TD*%
D38*
%TO.C,J4*%
X49650000Y-67900000D03*
D35*
X49650000Y-79000000D03*
D34*
X75150000Y-61650000D03*
D32*
X73500000Y-80650000D03*
D35*
X75150000Y-79000000D03*
D33*
X68650000Y-80650000D03*
D39*
X62400000Y-80650000D03*
D32*
X73500000Y-55150000D03*
D35*
X75150000Y-56800000D03*
X49650000Y-56800000D03*
D38*
X75150000Y-67900000D03*
D31*
X49650000Y-55150000D03*
X49650000Y-80650000D03*
D33*
X56150000Y-55150000D03*
D32*
X51300000Y-80650000D03*
D34*
X49650000Y-61650000D03*
D33*
X56150000Y-80650000D03*
D32*
X51300000Y-55150000D03*
D31*
X75150000Y-55150000D03*
X75150000Y-80650000D03*
D39*
X62400000Y-55150000D03*
D33*
X68650000Y-55150000D03*
D34*
X49650000Y-74150000D03*
X75150000Y-74150000D03*
%TD*%
D20*
%TO.C,R30*%
X54000000Y-64275000D03*
X54000000Y-66100000D03*
%TD*%
D17*
%TO.C,C19*%
X68500000Y-70900000D03*
X70400000Y-70900000D03*
%TD*%
D11*
%TO.C,R3*%
X94162500Y-45550000D03*
X94162500Y-43725000D03*
%TD*%
D15*
%TO.C,R43*%
X49403000Y-105000000D03*
X47578000Y-105000000D03*
%TD*%
%TO.C,R39*%
X49900000Y-113400000D03*
X48075000Y-113400000D03*
%TD*%
%TO.C,R22*%
X129721200Y-76500000D03*
X127896200Y-76500000D03*
%TD*%
D11*
%TO.C,R49*%
X57500000Y-101925000D03*
X57500000Y-100100000D03*
%TD*%
D13*
%TO.C,C27*%
X115496200Y-61467800D03*
X115496200Y-63367800D03*
%TD*%
D15*
%TO.C,R21*%
X80212500Y-72000000D03*
X78387500Y-72000000D03*
%TD*%
D20*
%TO.C,R32*%
X58000000Y-64275000D03*
X58000000Y-66100000D03*
%TD*%
D15*
%TO.C,R47*%
X72670000Y-112665000D03*
X70845000Y-112665000D03*
%TD*%
D12*
%TO.C,C44*%
X59600000Y-98300000D03*
X57700000Y-98300000D03*
%TD*%
D24*
%TO.C,L4*%
X71375000Y-103467000D03*
X71375000Y-97625000D03*
%TD*%
D17*
%TO.C,C23*%
X60100000Y-76100000D03*
X62000000Y-76100000D03*
%TD*%
D15*
%TO.C,10mOhms1*%
X107462500Y-43925000D03*
X105637500Y-43925000D03*
%TD*%
D13*
%TO.C,C38*%
X50400000Y-98400000D03*
X50400000Y-100300000D03*
%TD*%
D20*
%TO.C,R44*%
X52878000Y-102791400D03*
X52878000Y-104616400D03*
%TD*%
M02*
