M48
; DRILL file {KiCad 6.0.2-378541a8eb~116~ubuntu20.04.1} date mar 05 abr 2022 22:24:04
; FORMAT={-:-/ absolute / inch / decimal}
; #@! TF.CreationDate,2022-04-05T22:24:04-04:00
; #@! TF.GenerationSoftware,Kicad,Pcbnew,6.0.2-378541a8eb~116~ubuntu20.04.1
; #@! TF.FileFunction,Plated,1,4,PTH
FMAT,2
INCH
; #@! TA.AperFunction,Plated,PTH,ViaDrill
T1C0.0157
; #@! TA.AperFunction,Plated,PTH,ViaDrill
T2C0.0315
; #@! TA.AperFunction,Plated,PTH,ComponentDrill
T3C0.0315
; #@! TA.AperFunction,Plated,PTH,ComponentDrill
T4C0.0394
; #@! TA.AperFunction,Plated,PTH,ViaDrill
T5C0.0472
; #@! TA.AperFunction,Plated,PTH,ComponentDrill
T6C0.0472
; #@! TA.AperFunction,Plated,PTH,ComponentDrill
T7C0.0591
; #@! TA.AperFunction,Plated,PTH,ComponentDrill
T8C0.0787
%
G90
G05
T1
X1.6969Y-4.1299
X1.7087Y-4.0591
X1.7402Y-4.0433
X1.748Y-4.2165
X1.7638Y-4.3701
X1.7795Y-4.1969
X1.842Y-4.2537
X1.8425Y-3.9843
X1.8583Y-4.378
X1.8976Y-4.2756
X1.8996Y-2.876
X1.9016Y-3.9843
X1.9843Y-3.9921
X2.0394Y-3.9961
X2.0827Y-4.1535
X2.0906Y-4.0
X2.1142Y-3.5945
X2.1142Y-4.2717
X2.1181Y-3.5315
X2.1181Y-4.3425
X2.122Y-3.7913
X2.1299Y-4.0866
X2.1457Y-2.4921
X2.2244Y-3.5
X2.2283Y-4.3661
X2.252Y-3.8346
X2.2953Y-3.815
X2.3307Y-4.0433
X2.3504Y-2.7402
X2.374Y-4.3661
X2.3898Y-2.3228
X2.4173Y-3.5039
X2.4409Y-4.3976
X2.4724Y-2.8386
X2.4744Y-2.7717
X2.4744Y-2.8031
X2.4803Y-2.2559
X2.4803Y-2.5787
X2.5039Y-2.6142
X2.5197Y-4.0325
X2.5315Y-3.7953
X2.5322Y-3.7397
X2.5346Y-2.8925
X2.5354Y-3.9734
X2.5876Y-3.9222
X2.6024Y-2.7126
X2.626Y-2.5906
X2.6378Y-3.7638
X2.6417Y-2.7638
X2.6535Y-2.8583
X2.6636Y-2.7982
X2.7008Y-3.7638
X2.7087Y-3.5
X2.7126Y-4.374
X2.7677Y-2.9961
X2.7717Y-2.626
X2.7717Y-3.6732
X2.7835Y-4.5945
X2.7913Y-2.7913
X2.8189Y-2.685
X2.9016Y-3.5
X2.9016Y-4.374
X2.9154Y-2.9665
X3.0Y-4.3425
X3.0039Y-3.7874
X3.0039Y-4.2756
X3.0079Y-3.5315
X3.0079Y-3.5984
X3.0079Y-4.0827
X3.122Y-1.9055
X3.126Y-3.0118
X3.1339Y-1.9409
X3.1417Y-2.9567
X3.3296Y-1.753
X3.4016Y-1.878
X3.4646Y-2.5709
X3.5118Y-1.9291
X3.6969Y-2.4921
X3.7008Y-2.5709
X3.7008Y-2.6496
X3.7323Y-1.689
X3.7323Y-2.4528
X3.8071Y-2.4961
X3.8189Y-1.8465
X3.8346Y-2.0197
X3.841Y-1.6068
X3.8425Y-2.5118
X3.8504Y-2.6024
X3.8661Y-1.811
X3.878Y-2.5591
X3.8809Y-4.5236
X3.8819Y-1.8858
X3.8855Y-1.9272
X3.8898Y-2.6811
X3.8898Y-2.7126
X3.8937Y-3.1299
X3.9055Y-2.0
X3.9134Y-3.063
X3.937Y-2.8228
X3.9713Y-1.7176
X3.9713Y-1.7598
X3.9724Y-2.0354
X3.9724Y-2.4213
X3.9803Y-2.9882
X4.0118Y-2.8583
X4.0157Y-2.0354
X4.0276Y-2.7047
X4.0348Y-2.7513
X4.1102Y-1.7677
X4.1369Y-1.8428
X4.1417Y-1.8819
X4.1614Y-2.5984
X4.2087Y-3.8504
X4.2185Y-2.6024
X4.252Y-2.1339
X4.2835Y-1.752
X4.2874Y-1.9173
X4.3031Y-2.6654
X4.3228Y-2.7598
X4.3307Y-2.5709
X4.3346Y-2.0197
X4.3346Y-2.8346
X4.3386Y-2.1102
X4.3701Y-1.9764
X4.4055Y-2.4173
X4.4291Y-2.4961
X4.4331Y-2.7047
X4.437Y-1.9803
X4.4409Y-2.8661
X4.4685Y-2.5433
X4.4803Y-2.2205
X4.5064Y-2.4584
X4.5197Y-2.5
X4.5551Y-2.0984
X4.5787Y-2.5827
X4.6024Y-2.8701
X4.6299Y-1.8504
X4.6299Y-1.9764
X4.6575Y-2.5906
X4.6673Y-2.8888
X4.6793Y-2.5194
X4.685Y-2.4409
X4.7244Y-2.2126
X4.7923Y-2.3829
X4.8583Y-2.5827
X4.9134Y-2.8622
X4.9173Y-2.2205
X4.9213Y-1.9803
X4.9291Y-2.6614
X4.9331Y-2.1535
X5.0236Y-3.1614
X5.1102Y-1.9724
X5.1142Y-2.8583
X5.1772Y-1.9724
X5.2165Y-2.7559
X5.2165Y-2.8268
X5.2205Y-2.0827
X5.2205Y-2.2717
X5.2205Y-2.5669
T2
X1.7992Y-2.4567
X1.811Y-4.0236
X1.8701Y-4.2205
X1.9055Y-2.2362
X1.9055Y-2.4291
X1.9094Y-3.1024
X1.9147Y-3.1641
X1.9213Y-2.6063
X1.9213Y-2.6732
X1.9252Y-2.1417
X1.9252Y-2.7402
X2.0157Y-3.2126
X2.0197Y-2.1299
X2.1614Y-2.6457
X2.2087Y-2.122
X2.2087Y-3.2087
X2.3307Y-3.5984
X2.3465Y-2.6457
X2.3976Y-2.1339
X2.4409Y-3.2126
X2.5Y-2.1339
X2.5Y-3.2047
X2.7047Y-2.1299
X2.7047Y-3.2165
X2.7166Y-2.8976
X2.7992Y-2.9429
X2.878Y-2.8956
X2.8937Y-2.1299
X2.8937Y-3.2087
X2.977Y-2.9663
X2.9882Y-3.1102
X2.9882Y-3.1929
X2.9921Y-2.1378
X3.0Y-2.6299
X3.0Y-2.7126
X3.0039Y-2.4055
X3.0079Y-2.2185
X3.1732Y-2.874
X4.0382Y-2.4342
X4.122Y-2.4291
X4.2126Y-2.4291
X4.2894Y-2.4247
X4.315Y-2.248
X4.8543Y-1.7953
T3
X3.1063Y-2.5
X3.2047Y-2.5
X3.292Y-2.8622
X3.3905Y-2.8622
T4
X2.4772Y-4.4685
X2.4772Y-4.5685
X2.5772Y-4.4685
X2.5772Y-4.5685
X2.6772Y-4.4685
X2.6772Y-4.5685
X3.0339Y-4.5276
X3.1339Y-4.5276
X3.4394Y-4.5276
X3.4449Y-2.2622
X3.4449Y-2.3622
X3.5394Y-4.5276
X3.9418Y-1.623
X4.0418Y-1.623
X4.5699Y-1.6811
X4.6699Y-1.6811
X4.7075Y-2.9541
X4.7075Y-3.0541
X4.7699Y-1.6811
X4.8075Y-2.9541
X4.8075Y-3.0541
X4.9075Y-2.9541
X4.9075Y-3.0541
X4.9321Y-1.6811
X5.0321Y-1.6811
X5.1321Y-1.6811
T5
X1.685Y-3.3898
X1.7677Y-3.374
X2.1063Y-2.8661
X2.1181Y-3.2717
X2.125Y-3.8868
X2.3701Y-3.0551
X2.3898Y-3.2559
X2.4882Y-3.9193
X2.5669Y-1.9843
X2.6378Y-2.0591
X2.7559Y-3.0984
X2.9882Y-1.9961
X3.2362Y-1.9724
X3.2677Y-2.6496
X4.2992Y-2.3176
X4.7008Y-2.375
T6
X2.2303Y-1.0512
X2.3681Y-1.0512
T7
X3.5709Y-4.2441
X3.8228Y-4.2441
X4.0906Y-4.248
X4.2323Y-4.4567
X4.3425Y-4.248
X4.5984Y-4.252
X4.8701Y-4.252
T8
X3.126Y-1.1063
X3.126Y-3.9409
X4.026Y-1.1063
X4.026Y-3.9409
X4.926Y-1.1063
X4.926Y-3.9409
T0
M30
