%TF.GenerationSoftware,KiCad,Pcbnew,6.0.2-378541a8eb~116~ubuntu20.04.1*%
%TF.CreationDate,2022-04-05T22:24:09-04:00*%
%TF.ProjectId,power_board,706f7765-725f-4626-9f61-72642e6b6963,rev?*%
%TF.SameCoordinates,Original*%
%TF.FileFunction,Legend,Bot*%
%TF.FilePolarity,Positive*%
%FSLAX46Y46*%
G04 Gerber Fmt 4.6, Leading zero omitted, Abs format (unit mm)*
G04 Created by KiCad (PCBNEW 6.0.2-378541a8eb~116~ubuntu20.04.1) date 2022-04-05 22:24:09*
%MOMM*%
%LPD*%
G01*
G04 APERTURE LIST*
%ADD10C,0.150000*%
%ADD11C,0.120000*%
G04 APERTURE END LIST*
D10*
%TO.C,BT2*%
X126048571Y-63314285D02*
X126096190Y-63457142D01*
X126143809Y-63504761D01*
X126239047Y-63552380D01*
X126381904Y-63552380D01*
X126477142Y-63504761D01*
X126524761Y-63457142D01*
X126572380Y-63361904D01*
X126572380Y-62980952D01*
X125572380Y-62980952D01*
X125572380Y-63314285D01*
X125620000Y-63409523D01*
X125667619Y-63457142D01*
X125762857Y-63504761D01*
X125858095Y-63504761D01*
X125953333Y-63457142D01*
X126000952Y-63409523D01*
X126048571Y-63314285D01*
X126048571Y-62980952D01*
X125572380Y-63838095D02*
X125572380Y-64409523D01*
X126572380Y-64123809D02*
X125572380Y-64123809D01*
X125667619Y-64695238D02*
X125620000Y-64742857D01*
X125572380Y-64838095D01*
X125572380Y-65076190D01*
X125620000Y-65171428D01*
X125667619Y-65219047D01*
X125762857Y-65266666D01*
X125858095Y-65266666D01*
X126000952Y-65219047D01*
X126572380Y-64647619D01*
X126572380Y-65266666D01*
%TO.C,BT1*%
X103188571Y-63314285D02*
X103236190Y-63457142D01*
X103283809Y-63504761D01*
X103379047Y-63552380D01*
X103521904Y-63552380D01*
X103617142Y-63504761D01*
X103664761Y-63457142D01*
X103712380Y-63361904D01*
X103712380Y-62980952D01*
X102712380Y-62980952D01*
X102712380Y-63314285D01*
X102760000Y-63409523D01*
X102807619Y-63457142D01*
X102902857Y-63504761D01*
X102998095Y-63504761D01*
X103093333Y-63457142D01*
X103140952Y-63409523D01*
X103188571Y-63314285D01*
X103188571Y-62980952D01*
X102712380Y-63838095D02*
X102712380Y-64409523D01*
X103712380Y-64123809D02*
X102712380Y-64123809D01*
X103712380Y-65266666D02*
X103712380Y-64695238D01*
X103712380Y-64980952D02*
X102712380Y-64980952D01*
X102855238Y-64885714D01*
X102950476Y-64790476D01*
X102998095Y-64695238D01*
%TO.C,BT3*%
X80328571Y-63314285D02*
X80376190Y-63457142D01*
X80423809Y-63504761D01*
X80519047Y-63552380D01*
X80661904Y-63552380D01*
X80757142Y-63504761D01*
X80804761Y-63457142D01*
X80852380Y-63361904D01*
X80852380Y-62980952D01*
X79852380Y-62980952D01*
X79852380Y-63314285D01*
X79900000Y-63409523D01*
X79947619Y-63457142D01*
X80042857Y-63504761D01*
X80138095Y-63504761D01*
X80233333Y-63457142D01*
X80280952Y-63409523D01*
X80328571Y-63314285D01*
X80328571Y-62980952D01*
X79852380Y-63838095D02*
X79852380Y-64409523D01*
X80852380Y-64123809D02*
X79852380Y-64123809D01*
X79852380Y-64647619D02*
X79852380Y-65266666D01*
X80233333Y-64933333D01*
X80233333Y-65076190D01*
X80280952Y-65171428D01*
X80328571Y-65219047D01*
X80423809Y-65266666D01*
X80661904Y-65266666D01*
X80757142Y-65219047D01*
X80804761Y-65171428D01*
X80852380Y-65076190D01*
X80852380Y-64790476D01*
X80804761Y-64695238D01*
X80757142Y-64647619D01*
D11*
%TO.C,BT2*%
X115070000Y-25100000D02*
X115070000Y-103100000D01*
X115070000Y-103100000D02*
X135170000Y-103100000D01*
X135170000Y-25100000D02*
X115070000Y-25100000D01*
X135170000Y-103100000D02*
X135170000Y-25100000D01*
%TO.C,BT1*%
X92210000Y-25100000D02*
X92210000Y-103100000D01*
X92210000Y-103100000D02*
X112310000Y-103100000D01*
X112310000Y-25100000D02*
X92210000Y-25100000D01*
X112310000Y-103100000D02*
X112310000Y-25100000D01*
%TO.C,BT3*%
X69350000Y-103100000D02*
X89450000Y-103100000D01*
X89450000Y-25100000D02*
X69350000Y-25100000D01*
X89450000Y-103100000D02*
X89450000Y-25100000D01*
X69350000Y-25100000D02*
X69350000Y-103100000D01*
%TD*%
M02*
