M48
; DRILL file {KiCad 6.0.4-6f826c9f35~116~ubuntu18.04.1} date Mon 28 Mar 2022 12:00:19 PM -03
; FORMAT={-:-/ absolute / metric / decimal}
; #@! TF.CreationDate,2022-03-28T12:00:19-03:00
; #@! TF.GenerationSoftware,Kicad,Pcbnew,6.0.4-6f826c9f35~116~ubuntu18.04.1
; #@! TF.FileFunction,Plated,1,2,PTH
FMAT,2
METRIC
; #@! TA.AperFunction,Plated,PTH,ViaDrill
T1C0.300
; #@! TA.AperFunction,Plated,PTH,ViaDrill
T2C0.400
; #@! TA.AperFunction,Plated,PTH,ComponentDrill
T3C1.000
%
G90
G05
T1
X86.175Y-77.026
X86.275Y-68.426
X91.772Y-61.517
X95.875Y-61.926
X95.875Y-63.526
X99.675Y-81.826
X99.975Y-81.226
X100.075Y-79.026
X100.075Y-79.826
X100.275Y-65.926
X100.275Y-69.726
X100.375Y-66.826
X100.575Y-65.126
X100.975Y-69.626
X100.975Y-79.226
X101.475Y-65.126
X101.575Y-79.626
X101.875Y-69.326
X101.975Y-67.226
X101.975Y-68.626
X101.975Y-79.026
X101.976Y-67.964
X102.175Y-66.426
X102.375Y-81.426
X102.475Y-65.126
X102.575Y-79.626
X102.975Y-66.326
X102.975Y-78.726
X103.475Y-61.826
X103.475Y-77.726
X103.475Y-81.426
X103.575Y-65.126
X103.575Y-79.626
X103.775Y-66.326
X103.875Y-72.226
X103.875Y-73.026
X103.975Y-78.826
X104.275Y-68.126
X104.375Y-78.126
X104.375Y-81.326
X104.575Y-79.626
X104.675Y-65.126
X104.775Y-66.326
X104.975Y-69.226
X105.175Y-75.926
X105.175Y-78.626
X105.275Y-73.226
X105.375Y-72.126
X105.375Y-81.226
X105.575Y-66.326
X105.575Y-79.626
X105.775Y-65.226
X105.775Y-69.426
X105.775Y-71.326
X105.975Y-74.026
X106.115Y-78.694
X106.275Y-75.726
X106.375Y-81.326
X106.475Y-66.326
X106.575Y-79.626
X106.675Y-69.226
X106.875Y-65.226
X106.975Y-78.726
X107.075Y-71.526
X107.175Y-73.026
X107.175Y-75.826
X107.175Y-81.426
X107.375Y-69.226
X107.475Y-66.326
X107.775Y-79.526
X107.875Y-63.626
X107.875Y-64.926
X107.975Y-78.726
X108.075Y-70.526
X108.075Y-75.826
X108.175Y-81.426
X108.275Y-69.326
X108.375Y-66.326
X108.575Y-79.526
X108.675Y-63.626
X108.675Y-64.926
X108.775Y-72.026
X108.775Y-73.826
X108.975Y-61.926
X108.975Y-78.726
X109.175Y-69.426
X109.175Y-81.426
X109.275Y-75.726
X109.375Y-66.326
X109.375Y-70.626
X109.375Y-79.726
X109.475Y-63.626
X109.475Y-64.926
X109.775Y-72.526
X109.975Y-69.226
X109.975Y-81.226
X110.175Y-78.726
X110.275Y-63.626
X110.275Y-64.926
X110.275Y-66.326
X110.275Y-75.826
X110.275Y-79.826
X110.575Y-71.326
X110.775Y-69.226
X110.775Y-73.226
X110.775Y-81.226
X111.075Y-63.626
X111.075Y-65.026
X111.075Y-75.826
X111.175Y-79.826
X111.375Y-66.426
X111.475Y-78.726
X111.575Y-81.226
X111.775Y-74.026
X111.875Y-63.826
X111.875Y-65.326
X111.875Y-69.526
X111.875Y-72.026
X111.975Y-79.726
X112.175Y-66.426
X112.275Y-75.726
X112.375Y-81.126
X112.475Y-78.626
X112.575Y-65.826
X112.575Y-79.326
X112.675Y-64.226
X112.675Y-69.426
X112.875Y-73.826
X112.975Y-70.826
X113.075Y-68.026
X113.075Y-80.826
X113.175Y-68.826
X113.275Y-62.326
X113.275Y-75.926
X113.375Y-64.726
X113.375Y-72.426
X113.475Y-76.926
X113.575Y-81.726
X113.775Y-68.126
X113.775Y-80.326
X114.175Y-76.226
X114.375Y-77.026
X116.475Y-77.726
X116.575Y-65.926
X116.575Y-67.326
X116.575Y-80.326
X116.675Y-64.726
X116.975Y-61.826
X117.175Y-80.626
X117.175Y-82.926
X117.275Y-81.426
X117.375Y-77.726
X117.475Y-64.526
X117.575Y-67.426
X117.975Y-78.526
X118.075Y-81.526
X118.175Y-63.926
X118.675Y-81.926
X118.775Y-63.326
X119.475Y-63.026
X119.875Y-81.026
X120.375Y-64.226
X120.575Y-81.226
X120.675Y-62.826
X120.975Y-82.726
X121.075Y-64.226
X121.175Y-83.626
X121.175Y-84.526
X121.275Y-81.426
X121.275Y-85.326
X121.375Y-60.926
X121.375Y-61.826
X121.375Y-62.826
X121.575Y-60.126
X121.875Y-64.326
X121.875Y-86.026
X122.175Y-59.426
X122.275Y-81.126
X122.575Y-86.426
X122.675Y-64.726
X122.975Y-59.126
X122.975Y-83.326
X123.175Y-83.926
X123.275Y-80.926
X123.375Y-62.226
X123.375Y-86.826
X123.675Y-58.726
X123.975Y-61.626
X123.975Y-64.726
X123.975Y-83.626
X123.975Y-87.726
X124.075Y-82.926
X124.075Y-84.326
X124.275Y-82.026
X124.475Y-62.826
X124.675Y-63.926
T2
X33.125Y-70.076
X37.975Y-73.126
X39.275Y-76.666
X39.375Y-84.826
X39.375Y-75.061
X39.725Y-73.026
X40.075Y-48.126
X40.075Y-77.626
X42.625Y-41.876
X42.625Y-95.576
X42.775Y-93.726
X43.925Y-96.276
X44.109Y-89.077
X44.162Y-83.414
X44.175Y-40.476
X44.625Y-32.476
X44.675Y-36.976
X44.925Y-96.976
X44.975Y-92.126
X45.475Y-37.976
X45.575Y-93.376
X45.975Y-97.626
X46.375Y-48.726
X46.675Y-77.926
X47.825Y-34.826
X48.275Y-113.326
X48.325Y-32.076
X48.375Y-87.576
X48.725Y-93.276
X49.125Y-119.026
X49.325Y-97.176
X49.975Y-41.926
X50.425Y-97.076
X53.375Y-79.026
X54.275Y-80.476
X55.325Y-81.376
X55.875Y-82.577
X56.875Y-37.876
X56.875Y-41.526
X57.775Y-47.225
X57.875Y-41.526
X57.975Y-37.876
X58.375Y-42.626
X58.458Y-81.569
X58.475Y-82.577
X58.575Y-80.576
X58.625Y-79.226
X58.975Y-48.026
X59.375Y-59.776
X59.695Y-75.796
X60.317Y-56.697
X60.625Y-55.176
X61.425Y-53.826
X61.425Y-63.476
X63.375Y-38.526
X67.025Y-120.826
X70.125Y-97.226
X70.275Y-95.076
X71.975Y-48.126
X75.725Y-113.626
X76.575Y-114.526
X76.975Y-117.126
X80.975Y-91.776
X81.075Y-118.776
X81.725Y-120.876
X85.925Y-120.026
X87.475Y-120.026
X87.755Y-118.937
X89.025Y-70.026
X90.081Y-115.576
X90.255Y-75.796
X90.448Y-116.505
X91.275Y-81.276
X94.475Y-109.626
X96.525Y-78.776
X96.975Y-115.626
X97.025Y-72.526
X97.275Y-83.026
X97.675Y-68.676
X98.475Y-65.626
X98.975Y-81.126
X101.225Y-118.626
X101.623Y-71.413
X101.775Y-75.276
X104.025Y-74.026
X104.525Y-71.276
X107.375Y-114.876
X111.475Y-115.276
X111.575Y-113.776
X114.025Y-75.026
X114.525Y-64.776
X114.775Y-80.276
X115.775Y-68.276
X120.175Y-108.576
T3
X34.935Y-35.966
X34.935Y-38.506
X34.935Y-41.046
X34.935Y-43.586
X34.935Y-46.126
X34.935Y-48.666
X34.935Y-53.466
X34.935Y-56.006
X34.935Y-58.546
X34.935Y-61.086
X34.935Y-63.626
X34.935Y-66.166
X34.935Y-102.086
X34.935Y-104.626
X34.935Y-107.166
X34.975Y-83.666
X34.975Y-86.166
X34.975Y-90.576
X34.975Y-93.116
X34.975Y-95.656
X34.975Y-98.196
X37.475Y-35.966
X37.475Y-38.506
X37.475Y-41.046
X37.475Y-43.586
X37.475Y-46.126
X37.475Y-48.666
X37.475Y-53.466
X37.475Y-56.006
X37.475Y-58.546
X37.475Y-61.086
X37.475Y-63.626
X37.475Y-66.166
X37.475Y-102.086
X37.475Y-104.626
X37.475Y-107.166
X37.515Y-83.666
X37.515Y-86.166
X37.515Y-90.576
X37.515Y-93.116
X37.515Y-95.656
X37.515Y-98.196
X40.975Y-25.796
X40.975Y-28.336
X44.725Y-25.836
X44.725Y-28.376
T0
M30
