%TF.GenerationSoftware,KiCad,Pcbnew,6.0.4-6f826c9f35~116~ubuntu18.04.1*%
%TF.CreationDate,2022-03-28T11:59:59-03:00*%
%TF.ProjectId,CommBoard,436f6d6d-426f-4617-9264-2e6b69636164,rev?*%
%TF.SameCoordinates,Original*%
%TF.FileFunction,Legend,Top*%
%TF.FilePolarity,Positive*%
%FSLAX46Y46*%
G04 Gerber Fmt 4.6, Leading zero omitted, Abs format (unit mm)*
G04 Created by KiCad (PCBNEW 6.0.4-6f826c9f35~116~ubuntu18.04.1) date 2022-03-28 11:59:59*
%MOMM*%
%LPD*%
G01*
G04 APERTURE LIST*
G04 Aperture macros list*
%AMRoundRect*
0 Rectangle with rounded corners*
0 $1 Rounding radius*
0 $2 $3 $4 $5 $6 $7 $8 $9 X,Y pos of 4 corners*
0 Add a 4 corners polygon primitive as box body*
4,1,4,$2,$3,$4,$5,$6,$7,$8,$9,$2,$3,0*
0 Add four circle primitives for the rounded corners*
1,1,$1+$1,$2,$3*
1,1,$1+$1,$4,$5*
1,1,$1+$1,$6,$7*
1,1,$1+$1,$8,$9*
0 Add four rect primitives between the rounded corners*
20,1,$1+$1,$2,$3,$4,$5,0*
20,1,$1+$1,$4,$5,$6,$7,0*
20,1,$1+$1,$6,$7,$8,$9,0*
20,1,$1+$1,$8,$9,$2,$3,0*%
G04 Aperture macros list end*
%ADD10C,0.300000*%
%ADD11C,0.050000*%
%ADD12C,0.150000*%
%ADD13C,0.120000*%
%ADD14RoundRect,0.140000X0.170000X-0.140000X0.170000X0.140000X-0.170000X0.140000X-0.170000X-0.140000X0*%
%ADD15R,0.900000X0.900000*%
%ADD16RoundRect,0.147500X-0.172500X0.147500X-0.172500X-0.147500X0.172500X-0.147500X0.172500X0.147500X0*%
%ADD17RoundRect,0.250000X1.500000X0.550000X-1.500000X0.550000X-1.500000X-0.550000X1.500000X-0.550000X0*%
%ADD18RoundRect,0.140000X-0.170000X0.140000X-0.170000X-0.140000X0.170000X-0.140000X0.170000X0.140000X0*%
%ADD19RoundRect,0.250000X0.550000X-1.500000X0.550000X1.500000X-0.550000X1.500000X-0.550000X-1.500000X0*%
%ADD20O,0.750000X2.400000*%
%ADD21O,2.400000X0.750000*%
%ADD22RoundRect,0.250000X-0.550000X1.500000X-0.550000X-1.500000X0.550000X-1.500000X0.550000X1.500000X0*%
%ADD23RoundRect,0.135000X0.185000X-0.135000X0.185000X0.135000X-0.185000X0.135000X-0.185000X-0.135000X0*%
%ADD24RoundRect,0.150000X0.512500X0.150000X-0.512500X0.150000X-0.512500X-0.150000X0.512500X-0.150000X0*%
%ADD25RoundRect,0.140000X-0.140000X-0.170000X0.140000X-0.170000X0.140000X0.170000X-0.140000X0.170000X0*%
%ADD26RoundRect,0.135000X-0.135000X-0.185000X0.135000X-0.185000X0.135000X0.185000X-0.135000X0.185000X0*%
%ADD27RoundRect,0.250000X0.262500X0.450000X-0.262500X0.450000X-0.262500X-0.450000X0.262500X-0.450000X0*%
%ADD28RoundRect,0.150000X-0.150000X0.587500X-0.150000X-0.587500X0.150000X-0.587500X0.150000X0.587500X0*%
%ADD29RoundRect,0.250000X-1.500000X-0.550000X1.500000X-0.550000X1.500000X0.550000X-1.500000X0.550000X0*%
%ADD30RoundRect,0.147500X-0.147500X-0.172500X0.147500X-0.172500X0.147500X0.172500X-0.147500X0.172500X0*%
%ADD31RoundRect,0.150000X-0.587500X-0.150000X0.587500X-0.150000X0.587500X0.150000X-0.587500X0.150000X0*%
%ADD32R,1.200000X0.400000*%
%ADD33R,1.380000X0.450000*%
%ADD34R,1.550000X1.425000*%
%ADD35R,1.300000X1.650000*%
%ADD36R,1.900000X1.000000*%
%ADD37R,1.900000X1.800000*%
%ADD38R,1.700000X1.700000*%
%ADD39O,1.700000X1.700000*%
%ADD40RoundRect,0.140000X0.140000X0.170000X-0.140000X0.170000X-0.140000X-0.170000X0.140000X-0.170000X0*%
%ADD41RoundRect,0.135000X0.135000X0.185000X-0.135000X0.185000X-0.135000X-0.185000X0.135000X-0.185000X0*%
%ADD42RoundRect,0.147500X0.172500X-0.147500X0.172500X0.147500X-0.172500X0.147500X-0.172500X-0.147500X0*%
%ADD43R,0.700000X0.400000*%
%ADD44RoundRect,0.147500X0.147500X0.172500X-0.147500X0.172500X-0.147500X-0.172500X0.147500X-0.172500X0*%
%ADD45R,1.050000X1.000000*%
%ADD46R,2.200000X1.050000*%
%ADD47RoundRect,0.150000X-0.512500X-0.150000X0.512500X-0.150000X0.512500X0.150000X-0.512500X0.150000X0*%
%ADD48C,1.600000*%
%ADD49C,1.100000*%
%ADD50R,2.000000X0.600000*%
%ADD51R,3.200000X2.300000*%
%ADD52C,2.500000*%
%ADD53R,0.750000X0.250000*%
%ADD54R,0.650000X0.400000*%
%ADD55RoundRect,0.135000X-0.185000X0.135000X-0.185000X-0.135000X0.185000X-0.135000X0.185000X0.135000X0*%
%ADD56R,0.650000X1.150000*%
%ADD57R,0.540000X0.800000*%
%ADD58R,0.450000X1.300000*%
%ADD59R,1.400000X1.700000*%
%ADD60RoundRect,0.075000X-0.075000X0.312500X-0.075000X-0.312500X0.075000X-0.312500X0.075000X0.312500X0*%
%ADD61RoundRect,0.075000X-0.312500X0.075000X-0.312500X-0.075000X0.312500X-0.075000X0.312500X0.075000X0*%
%ADD62R,4.800000X4.800000*%
%ADD63RoundRect,0.250000X-0.262500X-0.450000X0.262500X-0.450000X0.262500X0.450000X-0.262500X0.450000X0*%
%ADD64R,1.200000X1.300000*%
%ADD65R,1.400000X1.300000*%
%ADD66R,4.600000X1.100000*%
%ADD67R,9.400000X10.800000*%
%ADD68RoundRect,0.243750X0.243750X0.456250X-0.243750X0.456250X-0.243750X-0.456250X0.243750X-0.456250X0*%
%ADD69R,1.000000X1.750000*%
%ADD70R,3.300000X1.000000*%
%ADD71R,1.000000X1.000000*%
%ADD72R,1.000000X3.300000*%
%ADD73R,2.100000X1.000000*%
%ADD74R,1.200000X1.400000*%
%ADD75RoundRect,0.100000X-0.217500X-0.100000X0.217500X-0.100000X0.217500X0.100000X-0.217500X0.100000X0*%
%ADD76RoundRect,0.100000X-0.130000X-0.100000X0.130000X-0.100000X0.130000X0.100000X-0.130000X0.100000X0*%
G04 APERTURE END LIST*
D10*
X87781886Y-37946947D02*
X87710458Y-38018375D01*
X87496172Y-38089804D01*
X87353315Y-38089804D01*
X87139029Y-38018375D01*
X86996172Y-37875518D01*
X86924743Y-37732661D01*
X86853315Y-37446947D01*
X86853315Y-37232661D01*
X86924743Y-36946947D01*
X86996172Y-36804090D01*
X87139029Y-36661233D01*
X87353315Y-36589804D01*
X87496172Y-36589804D01*
X87710458Y-36661233D01*
X87781886Y-36732661D01*
X88639029Y-38089804D02*
X88496172Y-38018375D01*
X88424743Y-37946947D01*
X88353315Y-37804090D01*
X88353315Y-37375518D01*
X88424743Y-37232661D01*
X88496172Y-37161233D01*
X88639029Y-37089804D01*
X88853315Y-37089804D01*
X88996172Y-37161233D01*
X89067601Y-37232661D01*
X89139029Y-37375518D01*
X89139029Y-37804090D01*
X89067601Y-37946947D01*
X88996172Y-38018375D01*
X88853315Y-38089804D01*
X88639029Y-38089804D01*
X89781886Y-38089804D02*
X89781886Y-37089804D01*
X89781886Y-37232661D02*
X89853315Y-37161233D01*
X89996172Y-37089804D01*
X90210458Y-37089804D01*
X90353315Y-37161233D01*
X90424743Y-37304090D01*
X90424743Y-38089804D01*
X90424743Y-37304090D02*
X90496172Y-37161233D01*
X90639029Y-37089804D01*
X90853315Y-37089804D01*
X90996172Y-37161233D01*
X91067601Y-37304090D01*
X91067601Y-38089804D01*
X91781886Y-38089804D02*
X91781886Y-37089804D01*
X91781886Y-37232661D02*
X91853315Y-37161233D01*
X91996172Y-37089804D01*
X92210458Y-37089804D01*
X92353315Y-37161233D01*
X92424743Y-37304090D01*
X92424743Y-38089804D01*
X92424743Y-37304090D02*
X92496172Y-37161233D01*
X92639029Y-37089804D01*
X92853315Y-37089804D01*
X92996172Y-37161233D01*
X93067601Y-37304090D01*
X93067601Y-38089804D01*
X94424743Y-37089804D02*
X94424743Y-38089804D01*
X93781886Y-37089804D02*
X93781886Y-37875518D01*
X93853315Y-38018375D01*
X93996172Y-38089804D01*
X94210458Y-38089804D01*
X94353315Y-38018375D01*
X94424743Y-37946947D01*
X95139029Y-37089804D02*
X95139029Y-38089804D01*
X95139029Y-37232661D02*
X95210458Y-37161233D01*
X95353315Y-37089804D01*
X95567601Y-37089804D01*
X95710458Y-37161233D01*
X95781886Y-37304090D01*
X95781886Y-38089804D01*
X96496172Y-38089804D02*
X96496172Y-37089804D01*
X96496172Y-36589804D02*
X96424743Y-36661233D01*
X96496172Y-36732661D01*
X96567601Y-36661233D01*
X96496172Y-36589804D01*
X96496172Y-36732661D01*
X97853315Y-38018375D02*
X97710458Y-38089804D01*
X97424743Y-38089804D01*
X97281886Y-38018375D01*
X97210458Y-37946947D01*
X97139029Y-37804090D01*
X97139029Y-37375518D01*
X97210458Y-37232661D01*
X97281886Y-37161233D01*
X97424743Y-37089804D01*
X97710458Y-37089804D01*
X97853315Y-37161233D01*
X99139029Y-38089804D02*
X99139029Y-37304090D01*
X99067601Y-37161233D01*
X98924743Y-37089804D01*
X98639029Y-37089804D01*
X98496172Y-37161233D01*
X99139029Y-38018375D02*
X98996172Y-38089804D01*
X98639029Y-38089804D01*
X98496172Y-38018375D01*
X98424743Y-37875518D01*
X98424743Y-37732661D01*
X98496172Y-37589804D01*
X98639029Y-37518375D01*
X98996172Y-37518375D01*
X99139029Y-37446947D01*
X99639029Y-37089804D02*
X100210458Y-37089804D01*
X99853315Y-36589804D02*
X99853315Y-37875518D01*
X99924743Y-38018375D01*
X100067601Y-38089804D01*
X100210458Y-38089804D01*
X100710458Y-38089804D02*
X100710458Y-37089804D01*
X100710458Y-36589804D02*
X100639029Y-36661233D01*
X100710458Y-36732661D01*
X100781886Y-36661233D01*
X100710458Y-36589804D01*
X100710458Y-36732661D01*
X101639029Y-38089804D02*
X101496172Y-38018375D01*
X101424743Y-37946947D01*
X101353315Y-37804090D01*
X101353315Y-37375518D01*
X101424743Y-37232661D01*
X101496172Y-37161233D01*
X101639029Y-37089804D01*
X101853315Y-37089804D01*
X101996172Y-37161233D01*
X102067601Y-37232661D01*
X102139029Y-37375518D01*
X102139029Y-37804090D01*
X102067601Y-37946947D01*
X101996172Y-38018375D01*
X101853315Y-38089804D01*
X101639029Y-38089804D01*
X102781886Y-37089804D02*
X102781886Y-38089804D01*
X102781886Y-37232661D02*
X102853315Y-37161233D01*
X102996172Y-37089804D01*
X103210458Y-37089804D01*
X103353315Y-37161233D01*
X103424743Y-37304090D01*
X103424743Y-38089804D01*
X105281886Y-38089804D02*
X105281886Y-36589804D01*
X105781886Y-37661233D01*
X106281886Y-36589804D01*
X106281886Y-38089804D01*
X107210458Y-38089804D02*
X107067601Y-38018375D01*
X106996172Y-37946947D01*
X106924743Y-37804090D01*
X106924743Y-37375518D01*
X106996172Y-37232661D01*
X107067601Y-37161233D01*
X107210458Y-37089804D01*
X107424743Y-37089804D01*
X107567601Y-37161233D01*
X107639029Y-37232661D01*
X107710458Y-37375518D01*
X107710458Y-37804090D01*
X107639029Y-37946947D01*
X107567601Y-38018375D01*
X107424743Y-38089804D01*
X107210458Y-38089804D01*
X108996172Y-38089804D02*
X108996172Y-36589804D01*
X108996172Y-38018375D02*
X108853315Y-38089804D01*
X108567601Y-38089804D01*
X108424743Y-38018375D01*
X108353315Y-37946947D01*
X108281886Y-37804090D01*
X108281886Y-37375518D01*
X108353315Y-37232661D01*
X108424743Y-37161233D01*
X108567601Y-37089804D01*
X108853315Y-37089804D01*
X108996172Y-37161233D01*
X110353315Y-37089804D02*
X110353315Y-38089804D01*
X109710458Y-37089804D02*
X109710458Y-37875518D01*
X109781886Y-38018375D01*
X109924743Y-38089804D01*
X110139029Y-38089804D01*
X110281886Y-38018375D01*
X110353315Y-37946947D01*
X111281886Y-38089804D02*
X111139029Y-38018375D01*
X111067601Y-37875518D01*
X111067601Y-36589804D01*
X112424744Y-38018375D02*
X112281886Y-38089804D01*
X111996172Y-38089804D01*
X111853315Y-38018375D01*
X111781886Y-37875518D01*
X111781886Y-37304090D01*
X111853315Y-37161233D01*
X111996172Y-37089804D01*
X112281886Y-37089804D01*
X112424744Y-37161233D01*
X112496172Y-37304090D01*
X112496172Y-37446947D01*
X111781886Y-37589804D01*
X84853315Y-40504804D02*
X84853315Y-39004804D01*
X85710458Y-40504804D02*
X85067601Y-39647661D01*
X85710458Y-39004804D02*
X84853315Y-39861947D01*
X86353315Y-40504804D02*
X86353315Y-39504804D01*
X86353315Y-39790518D02*
X86424744Y-39647661D01*
X86496172Y-39576233D01*
X86639029Y-39504804D01*
X86781886Y-39504804D01*
X87139029Y-39504804D02*
X87924744Y-39504804D01*
X87139029Y-40504804D01*
X87924744Y-40504804D01*
X88353315Y-39504804D02*
X88710458Y-40504804D01*
X89067601Y-39504804D02*
X88710458Y-40504804D01*
X88567601Y-40861947D01*
X88496172Y-40933375D01*
X88353315Y-41004804D01*
X89567601Y-40433375D02*
X89710458Y-40504804D01*
X89996172Y-40504804D01*
X90139029Y-40433375D01*
X90210458Y-40290518D01*
X90210458Y-40219090D01*
X90139029Y-40076233D01*
X89996172Y-40004804D01*
X89781886Y-40004804D01*
X89639029Y-39933375D01*
X89567601Y-39790518D01*
X89567601Y-39719090D01*
X89639029Y-39576233D01*
X89781886Y-39504804D01*
X89996172Y-39504804D01*
X90139029Y-39576233D01*
X90710458Y-39504804D02*
X91496172Y-39504804D01*
X90710458Y-40504804D01*
X91496172Y-40504804D01*
X91853315Y-39504804D02*
X92424744Y-39504804D01*
X92067601Y-39004804D02*
X92067601Y-40290518D01*
X92139029Y-40433375D01*
X92281886Y-40504804D01*
X92424744Y-40504804D01*
X93139029Y-40504804D02*
X92996172Y-40433375D01*
X92924744Y-40361947D01*
X92853315Y-40219090D01*
X92853315Y-39790518D01*
X92924744Y-39647661D01*
X92996172Y-39576233D01*
X93139029Y-39504804D01*
X93353315Y-39504804D01*
X93496172Y-39576233D01*
X93567601Y-39647661D01*
X93639029Y-39790518D01*
X93639029Y-40219090D01*
X93567601Y-40361947D01*
X93496172Y-40433375D01*
X93353315Y-40504804D01*
X93139029Y-40504804D01*
X94067601Y-39504804D02*
X94639029Y-39504804D01*
X94281886Y-40504804D02*
X94281886Y-39219090D01*
X94353315Y-39076233D01*
X94496172Y-39004804D01*
X94639029Y-39004804D01*
X95139029Y-40361947D02*
X95210458Y-40433375D01*
X95139029Y-40504804D01*
X95067601Y-40433375D01*
X95139029Y-40361947D01*
X95139029Y-40504804D01*
X95853315Y-40504804D02*
X95853315Y-39004804D01*
X95853315Y-39719090D02*
X96710458Y-39719090D01*
X96710458Y-40504804D02*
X96710458Y-39004804D01*
X97996172Y-40433375D02*
X97853315Y-40504804D01*
X97567601Y-40504804D01*
X97424744Y-40433375D01*
X97353315Y-40290518D01*
X97353315Y-39719090D01*
X97424744Y-39576233D01*
X97567601Y-39504804D01*
X97853315Y-39504804D01*
X97996172Y-39576233D01*
X98067601Y-39719090D01*
X98067601Y-39861947D01*
X97353315Y-40004804D01*
X98710458Y-40504804D02*
X98710458Y-39504804D01*
X98710458Y-39790518D02*
X98781886Y-39647661D01*
X98853315Y-39576233D01*
X98996172Y-39504804D01*
X99139029Y-39504804D01*
X99639029Y-40504804D02*
X99639029Y-39504804D01*
X99639029Y-39647661D02*
X99710458Y-39576233D01*
X99853315Y-39504804D01*
X100067601Y-39504804D01*
X100210458Y-39576233D01*
X100281886Y-39719090D01*
X100281886Y-40504804D01*
X100281886Y-39719090D02*
X100353315Y-39576233D01*
X100496172Y-39504804D01*
X100710458Y-39504804D01*
X100853315Y-39576233D01*
X100924744Y-39719090D01*
X100924744Y-40504804D01*
X102281886Y-40504804D02*
X102281886Y-39719090D01*
X102210458Y-39576233D01*
X102067601Y-39504804D01*
X101781886Y-39504804D01*
X101639029Y-39576233D01*
X102281886Y-40433375D02*
X102139029Y-40504804D01*
X101781886Y-40504804D01*
X101639029Y-40433375D01*
X101567601Y-40290518D01*
X101567601Y-40147661D01*
X101639029Y-40004804D01*
X101781886Y-39933375D01*
X102139029Y-39933375D01*
X102281886Y-39861947D01*
X102996172Y-39504804D02*
X102996172Y-40504804D01*
X102996172Y-39647661D02*
X103067601Y-39576233D01*
X103210458Y-39504804D01*
X103424744Y-39504804D01*
X103567601Y-39576233D01*
X103639029Y-39719090D01*
X103639029Y-40504804D01*
X105281886Y-39790518D02*
X105210458Y-39719090D01*
X105067601Y-39647661D01*
X104924744Y-39647661D01*
X104781886Y-39719090D01*
X104710458Y-39790518D01*
X104639029Y-39933375D01*
X104639029Y-40076233D01*
X104710458Y-40219090D01*
X104781886Y-40290518D01*
X104924744Y-40361947D01*
X105067601Y-40361947D01*
X105210458Y-40290518D01*
X105281886Y-40219090D01*
X105281886Y-39647661D02*
X105281886Y-40219090D01*
X105353315Y-40290518D01*
X105424744Y-40290518D01*
X105567601Y-40219090D01*
X105639029Y-40076233D01*
X105639029Y-39719090D01*
X105496172Y-39504804D01*
X105281886Y-39361947D01*
X104996172Y-39290518D01*
X104710458Y-39361947D01*
X104496172Y-39504804D01*
X104353315Y-39719090D01*
X104281886Y-40004804D01*
X104353315Y-40290518D01*
X104496172Y-40504804D01*
X104710458Y-40647661D01*
X104996172Y-40719090D01*
X105281886Y-40647661D01*
X105496172Y-40504804D01*
X106281886Y-40504804D02*
X106281886Y-39504804D01*
X106281886Y-39004804D02*
X106210458Y-39076233D01*
X106281886Y-39147661D01*
X106353315Y-39076233D01*
X106281886Y-39004804D01*
X106281886Y-39147661D01*
X107567601Y-40433375D02*
X107424744Y-40504804D01*
X107139029Y-40504804D01*
X106996172Y-40433375D01*
X106924744Y-40290518D01*
X106924744Y-39719090D01*
X106996172Y-39576233D01*
X107139029Y-39504804D01*
X107424744Y-39504804D01*
X107567601Y-39576233D01*
X107639029Y-39719090D01*
X107639029Y-39861947D01*
X106924744Y-40004804D01*
X108853315Y-40433375D02*
X108710458Y-40504804D01*
X108424744Y-40504804D01*
X108281886Y-40433375D01*
X108210458Y-40290518D01*
X108210458Y-39719090D01*
X108281886Y-39576233D01*
X108424744Y-39504804D01*
X108710458Y-39504804D01*
X108853315Y-39576233D01*
X108924744Y-39719090D01*
X108924744Y-39861947D01*
X108210458Y-40004804D01*
X110139029Y-40433375D02*
X109996172Y-40504804D01*
X109710458Y-40504804D01*
X109567601Y-40433375D01*
X109496172Y-40290518D01*
X109496172Y-39719090D01*
X109567601Y-39576233D01*
X109710458Y-39504804D01*
X109996172Y-39504804D01*
X110139029Y-39576233D01*
X110210458Y-39719090D01*
X110210458Y-39861947D01*
X109496172Y-40004804D01*
X110853315Y-40361947D02*
X110924744Y-40433375D01*
X110853315Y-40504804D01*
X110781886Y-40433375D01*
X110853315Y-40361947D01*
X110853315Y-40504804D01*
X111781886Y-40504804D02*
X111639029Y-40433375D01*
X111567601Y-40361947D01*
X111496172Y-40219090D01*
X111496172Y-39790518D01*
X111567601Y-39647661D01*
X111639029Y-39576233D01*
X111781886Y-39504804D01*
X111996172Y-39504804D01*
X112139029Y-39576233D01*
X112210458Y-39647661D01*
X112281886Y-39790518D01*
X112281886Y-40219090D01*
X112210458Y-40361947D01*
X112139029Y-40433375D01*
X111996172Y-40504804D01*
X111781886Y-40504804D01*
X112924744Y-40504804D02*
X112924744Y-39504804D01*
X112924744Y-39790518D02*
X112996172Y-39647661D01*
X113067601Y-39576233D01*
X113210458Y-39504804D01*
X113353315Y-39504804D01*
X114496172Y-39504804D02*
X114496172Y-40719090D01*
X114424744Y-40861947D01*
X114353315Y-40933375D01*
X114210458Y-41004804D01*
X113996172Y-41004804D01*
X113853315Y-40933375D01*
X114496172Y-40433375D02*
X114353315Y-40504804D01*
X114067601Y-40504804D01*
X113924744Y-40433375D01*
X113853315Y-40361947D01*
X113781886Y-40219090D01*
X113781886Y-39790518D01*
X113853315Y-39647661D01*
X113924744Y-39576233D01*
X114067601Y-39504804D01*
X114353315Y-39504804D01*
X114496172Y-39576233D01*
X92781886Y-42919804D02*
X92281886Y-42205518D01*
X91924744Y-42919804D02*
X91924744Y-41419804D01*
X92496172Y-41419804D01*
X92639029Y-41491233D01*
X92710458Y-41562661D01*
X92781886Y-41705518D01*
X92781886Y-41919804D01*
X92710458Y-42062661D01*
X92639029Y-42134090D01*
X92496172Y-42205518D01*
X91924744Y-42205518D01*
X93996172Y-42848375D02*
X93853315Y-42919804D01*
X93567601Y-42919804D01*
X93424744Y-42848375D01*
X93353315Y-42705518D01*
X93353315Y-42134090D01*
X93424744Y-41991233D01*
X93567601Y-41919804D01*
X93853315Y-41919804D01*
X93996172Y-41991233D01*
X94067601Y-42134090D01*
X94067601Y-42276947D01*
X93353315Y-42419804D01*
X94567601Y-41919804D02*
X94924744Y-42919804D01*
X95281886Y-41919804D01*
X95853315Y-42776947D02*
X95924744Y-42848375D01*
X95853315Y-42919804D01*
X95781886Y-42848375D01*
X95853315Y-42776947D01*
X95853315Y-42919804D01*
X98496172Y-42919804D02*
X97639029Y-42919804D01*
X98067601Y-42919804D02*
X98067601Y-41419804D01*
X97924744Y-41634090D01*
X97781886Y-41776947D01*
X97639029Y-41848375D01*
X99139029Y-42776947D02*
X99210458Y-42848375D01*
X99139029Y-42919804D01*
X99067601Y-42848375D01*
X99139029Y-42776947D01*
X99139029Y-42919804D01*
X100139029Y-41419804D02*
X100281886Y-41419804D01*
X100424744Y-41491233D01*
X100496172Y-41562661D01*
X100567601Y-41705518D01*
X100639029Y-41991233D01*
X100639029Y-42348375D01*
X100567601Y-42634090D01*
X100496172Y-42776947D01*
X100424744Y-42848375D01*
X100281886Y-42919804D01*
X100139029Y-42919804D01*
X99996172Y-42848375D01*
X99924744Y-42776947D01*
X99853315Y-42634090D01*
X99781886Y-42348375D01*
X99781886Y-41991233D01*
X99853315Y-41705518D01*
X99924744Y-41562661D01*
X99996172Y-41491233D01*
X100139029Y-41419804D01*
X102353315Y-41562661D02*
X102424744Y-41491233D01*
X102567601Y-41419804D01*
X102924744Y-41419804D01*
X103067601Y-41491233D01*
X103139029Y-41562661D01*
X103210458Y-41705518D01*
X103210458Y-41848375D01*
X103139029Y-42062661D01*
X102281886Y-42919804D01*
X103210458Y-42919804D01*
X104139029Y-41419804D02*
X104281886Y-41419804D01*
X104424744Y-41491233D01*
X104496172Y-41562661D01*
X104567601Y-41705518D01*
X104639029Y-41991233D01*
X104639029Y-42348375D01*
X104567601Y-42634090D01*
X104496172Y-42776947D01*
X104424744Y-42848375D01*
X104281886Y-42919804D01*
X104139029Y-42919804D01*
X103996172Y-42848375D01*
X103924744Y-42776947D01*
X103853315Y-42634090D01*
X103781886Y-42348375D01*
X103781886Y-41991233D01*
X103853315Y-41705518D01*
X103924744Y-41562661D01*
X103996172Y-41491233D01*
X104139029Y-41419804D01*
X105210458Y-41562661D02*
X105281886Y-41491233D01*
X105424744Y-41419804D01*
X105781886Y-41419804D01*
X105924744Y-41491233D01*
X105996172Y-41562661D01*
X106067601Y-41705518D01*
X106067601Y-41848375D01*
X105996172Y-42062661D01*
X105139029Y-42919804D01*
X106067601Y-42919804D01*
X106639029Y-41562661D02*
X106710458Y-41491233D01*
X106853315Y-41419804D01*
X107210458Y-41419804D01*
X107353315Y-41491233D01*
X107424744Y-41562661D01*
X107496172Y-41705518D01*
X107496172Y-41848375D01*
X107424744Y-42062661D01*
X106567601Y-42919804D01*
X107496172Y-42919804D01*
D11*
%TO.C,C26*%
X87796172Y-115534804D02*
X87772363Y-115510994D01*
X87748553Y-115439566D01*
X87748553Y-115391947D01*
X87772363Y-115320518D01*
X87819982Y-115272899D01*
X87867601Y-115249090D01*
X87962839Y-115225280D01*
X88034267Y-115225280D01*
X88129505Y-115249090D01*
X88177124Y-115272899D01*
X88224744Y-115320518D01*
X88248553Y-115391947D01*
X88248553Y-115439566D01*
X88224744Y-115510994D01*
X88200934Y-115534804D01*
X88200934Y-115725280D02*
X88224744Y-115749090D01*
X88248553Y-115796709D01*
X88248553Y-115915756D01*
X88224744Y-115963375D01*
X88200934Y-115987185D01*
X88153315Y-116010994D01*
X88105696Y-116010994D01*
X88034267Y-115987185D01*
X87748553Y-115701471D01*
X87748553Y-116010994D01*
X88248553Y-116439566D02*
X88248553Y-116344328D01*
X88224744Y-116296709D01*
X88200934Y-116272899D01*
X88129505Y-116225280D01*
X88034267Y-116201471D01*
X87843791Y-116201471D01*
X87796172Y-116225280D01*
X87772363Y-116249090D01*
X87748553Y-116296709D01*
X87748553Y-116391947D01*
X87772363Y-116439566D01*
X87796172Y-116463375D01*
X87843791Y-116487185D01*
X87962839Y-116487185D01*
X88010458Y-116463375D01*
X88034267Y-116439566D01*
X88058077Y-116391947D01*
X88058077Y-116296709D01*
X88034267Y-116249090D01*
X88010458Y-116225280D01*
X87962839Y-116201471D01*
%TO.C,RN1*%
X85679505Y-60752423D02*
X85512839Y-60514328D01*
X85393791Y-60752423D02*
X85393791Y-60252423D01*
X85584267Y-60252423D01*
X85631886Y-60276233D01*
X85655696Y-60300042D01*
X85679505Y-60347661D01*
X85679505Y-60419090D01*
X85655696Y-60466709D01*
X85631886Y-60490518D01*
X85584267Y-60514328D01*
X85393791Y-60514328D01*
X85893791Y-60752423D02*
X85893791Y-60252423D01*
X86179505Y-60752423D01*
X86179505Y-60252423D01*
X86679505Y-60752423D02*
X86393791Y-60752423D01*
X86536648Y-60752423D02*
X86536648Y-60252423D01*
X86489029Y-60323852D01*
X86441410Y-60371471D01*
X86393791Y-60395280D01*
%TO.C,L9*%
X105500934Y-78859566D02*
X105500934Y-79097661D01*
X105000934Y-79097661D01*
X105500934Y-78669090D02*
X105500934Y-78573852D01*
X105477124Y-78526233D01*
X105453315Y-78502423D01*
X105381886Y-78454804D01*
X105286648Y-78430994D01*
X105096172Y-78430994D01*
X105048553Y-78454804D01*
X105024744Y-78478613D01*
X105000934Y-78526233D01*
X105000934Y-78621471D01*
X105024744Y-78669090D01*
X105048553Y-78692899D01*
X105096172Y-78716709D01*
X105215220Y-78716709D01*
X105262839Y-78692899D01*
X105286648Y-78669090D01*
X105310458Y-78621471D01*
X105310458Y-78526233D01*
X105286648Y-78478613D01*
X105262839Y-78454804D01*
X105215220Y-78430994D01*
%TO.C,C21*%
X44296172Y-122047661D02*
X44319982Y-122023852D01*
X44391410Y-122000042D01*
X44439029Y-122000042D01*
X44510458Y-122023852D01*
X44558077Y-122071471D01*
X44581886Y-122119090D01*
X44605696Y-122214328D01*
X44605696Y-122285756D01*
X44581886Y-122380994D01*
X44558077Y-122428613D01*
X44510458Y-122476233D01*
X44439029Y-122500042D01*
X44391410Y-122500042D01*
X44319982Y-122476233D01*
X44296172Y-122452423D01*
X44105696Y-122452423D02*
X44081886Y-122476233D01*
X44034267Y-122500042D01*
X43915220Y-122500042D01*
X43867601Y-122476233D01*
X43843791Y-122452423D01*
X43819982Y-122404804D01*
X43819982Y-122357185D01*
X43843791Y-122285756D01*
X44129505Y-122000042D01*
X43819982Y-122000042D01*
X43343791Y-122000042D02*
X43629505Y-122000042D01*
X43486648Y-122000042D02*
X43486648Y-122500042D01*
X43534267Y-122428613D01*
X43581886Y-122380994D01*
X43629505Y-122357185D01*
%TO.C,C43*%
X96953315Y-81367661D02*
X96977124Y-81391471D01*
X97000934Y-81462899D01*
X97000934Y-81510518D01*
X96977124Y-81581947D01*
X96929505Y-81629566D01*
X96881886Y-81653375D01*
X96786648Y-81677185D01*
X96715220Y-81677185D01*
X96619982Y-81653375D01*
X96572363Y-81629566D01*
X96524744Y-81581947D01*
X96500934Y-81510518D01*
X96500934Y-81462899D01*
X96524744Y-81391471D01*
X96548553Y-81367661D01*
X96667601Y-80939090D02*
X97000934Y-80939090D01*
X96477124Y-81058137D02*
X96834267Y-81177185D01*
X96834267Y-80867661D01*
X96500934Y-80724804D02*
X96500934Y-80415280D01*
X96691410Y-80581947D01*
X96691410Y-80510518D01*
X96715220Y-80462899D01*
X96739029Y-80439090D01*
X96786648Y-80415280D01*
X96905696Y-80415280D01*
X96953315Y-80439090D01*
X96977124Y-80462899D01*
X97000934Y-80510518D01*
X97000934Y-80653375D01*
X96977124Y-80700994D01*
X96953315Y-80724804D01*
D12*
%TO.C,C14*%
X47631886Y-50519090D02*
X47679505Y-50566709D01*
X47727124Y-50709566D01*
X47727124Y-50804804D01*
X47679505Y-50947661D01*
X47584267Y-51042899D01*
X47489029Y-51090518D01*
X47298553Y-51138137D01*
X47155696Y-51138137D01*
X46965220Y-51090518D01*
X46869982Y-51042899D01*
X46774744Y-50947661D01*
X46727124Y-50804804D01*
X46727124Y-50709566D01*
X46774744Y-50566709D01*
X46822363Y-50519090D01*
X47727124Y-49566709D02*
X47727124Y-50138137D01*
X47727124Y-49852423D02*
X46727124Y-49852423D01*
X46869982Y-49947661D01*
X46965220Y-50042899D01*
X47012839Y-50138137D01*
X47060458Y-48709566D02*
X47727124Y-48709566D01*
X46679505Y-48947661D02*
X47393791Y-49185756D01*
X47393791Y-48566709D01*
D11*
%TO.C,U8*%
X119200934Y-94307185D02*
X119605696Y-94307185D01*
X119653315Y-94283375D01*
X119677124Y-94259566D01*
X119700934Y-94211947D01*
X119700934Y-94116709D01*
X119677124Y-94069090D01*
X119653315Y-94045280D01*
X119605696Y-94021471D01*
X119200934Y-94021471D01*
X119415220Y-93711947D02*
X119391410Y-93759566D01*
X119367601Y-93783375D01*
X119319982Y-93807185D01*
X119296172Y-93807185D01*
X119248553Y-93783375D01*
X119224744Y-93759566D01*
X119200934Y-93711947D01*
X119200934Y-93616709D01*
X119224744Y-93569090D01*
X119248553Y-93545280D01*
X119296172Y-93521471D01*
X119319982Y-93521471D01*
X119367601Y-93545280D01*
X119391410Y-93569090D01*
X119415220Y-93616709D01*
X119415220Y-93711947D01*
X119439029Y-93759566D01*
X119462839Y-93783375D01*
X119510458Y-93807185D01*
X119605696Y-93807185D01*
X119653315Y-93783375D01*
X119677124Y-93759566D01*
X119700934Y-93711947D01*
X119700934Y-93616709D01*
X119677124Y-93569090D01*
X119653315Y-93545280D01*
X119605696Y-93521471D01*
X119510458Y-93521471D01*
X119462839Y-93545280D01*
X119439029Y-93569090D01*
X119415220Y-93616709D01*
D12*
%TO.C,C16*%
X56381886Y-60469090D02*
X56429505Y-60516709D01*
X56477124Y-60659566D01*
X56477124Y-60754804D01*
X56429505Y-60897661D01*
X56334267Y-60992899D01*
X56239029Y-61040518D01*
X56048553Y-61088137D01*
X55905696Y-61088137D01*
X55715220Y-61040518D01*
X55619982Y-60992899D01*
X55524744Y-60897661D01*
X55477124Y-60754804D01*
X55477124Y-60659566D01*
X55524744Y-60516709D01*
X55572363Y-60469090D01*
X56477124Y-59516709D02*
X56477124Y-60088137D01*
X56477124Y-59802423D02*
X55477124Y-59802423D01*
X55619982Y-59897661D01*
X55715220Y-59992899D01*
X55762839Y-60088137D01*
X55477124Y-58659566D02*
X55477124Y-58850042D01*
X55524744Y-58945280D01*
X55572363Y-58992899D01*
X55715220Y-59088137D01*
X55905696Y-59135756D01*
X56286648Y-59135756D01*
X56381886Y-59088137D01*
X56429505Y-59040518D01*
X56477124Y-58945280D01*
X56477124Y-58754804D01*
X56429505Y-58659566D01*
X56381886Y-58611947D01*
X56286648Y-58564328D01*
X56048553Y-58564328D01*
X55953315Y-58611947D01*
X55905696Y-58659566D01*
X55858077Y-58754804D01*
X55858077Y-58945280D01*
X55905696Y-59040518D01*
X55953315Y-59088137D01*
X56048553Y-59135756D01*
D11*
%TO.C,C39*%
X98703315Y-62617661D02*
X98727124Y-62641471D01*
X98750934Y-62712899D01*
X98750934Y-62760518D01*
X98727124Y-62831947D01*
X98679505Y-62879566D01*
X98631886Y-62903375D01*
X98536648Y-62927185D01*
X98465220Y-62927185D01*
X98369982Y-62903375D01*
X98322363Y-62879566D01*
X98274744Y-62831947D01*
X98250934Y-62760518D01*
X98250934Y-62712899D01*
X98274744Y-62641471D01*
X98298553Y-62617661D01*
X98250934Y-62450994D02*
X98250934Y-62141471D01*
X98441410Y-62308137D01*
X98441410Y-62236709D01*
X98465220Y-62189090D01*
X98489029Y-62165280D01*
X98536648Y-62141471D01*
X98655696Y-62141471D01*
X98703315Y-62165280D01*
X98727124Y-62189090D01*
X98750934Y-62236709D01*
X98750934Y-62379566D01*
X98727124Y-62427185D01*
X98703315Y-62450994D01*
X98750934Y-61903375D02*
X98750934Y-61808137D01*
X98727124Y-61760518D01*
X98703315Y-61736709D01*
X98631886Y-61689090D01*
X98536648Y-61665280D01*
X98346172Y-61665280D01*
X98298553Y-61689090D01*
X98274744Y-61712899D01*
X98250934Y-61760518D01*
X98250934Y-61855756D01*
X98274744Y-61903375D01*
X98298553Y-61927185D01*
X98346172Y-61950994D01*
X98465220Y-61950994D01*
X98512839Y-61927185D01*
X98536648Y-61903375D01*
X98560458Y-61855756D01*
X98560458Y-61760518D01*
X98536648Y-61712899D01*
X98512839Y-61689090D01*
X98465220Y-61665280D01*
%TO.C,R3*%
X46200934Y-31609566D02*
X45962839Y-31776233D01*
X46200934Y-31895280D02*
X45700934Y-31895280D01*
X45700934Y-31704804D01*
X45724744Y-31657185D01*
X45748553Y-31633375D01*
X45796172Y-31609566D01*
X45867601Y-31609566D01*
X45915220Y-31633375D01*
X45939029Y-31657185D01*
X45962839Y-31704804D01*
X45962839Y-31895280D01*
X45700934Y-31442899D02*
X45700934Y-31133375D01*
X45891410Y-31300042D01*
X45891410Y-31228613D01*
X45915220Y-31180994D01*
X45939029Y-31157185D01*
X45986648Y-31133375D01*
X46105696Y-31133375D01*
X46153315Y-31157185D01*
X46177124Y-31180994D01*
X46200934Y-31228613D01*
X46200934Y-31371471D01*
X46177124Y-31419090D01*
X46153315Y-31442899D01*
%TO.C,U4*%
X43293791Y-36852423D02*
X43293791Y-37257185D01*
X43317601Y-37304804D01*
X43341410Y-37328613D01*
X43389029Y-37352423D01*
X43484267Y-37352423D01*
X43531886Y-37328613D01*
X43555696Y-37304804D01*
X43579505Y-37257185D01*
X43579505Y-36852423D01*
X44031886Y-37019090D02*
X44031886Y-37352423D01*
X43912839Y-36828613D02*
X43793791Y-37185756D01*
X44103315Y-37185756D01*
%TO.C,C60*%
X107803315Y-81454804D02*
X107779505Y-81478613D01*
X107708077Y-81502423D01*
X107660458Y-81502423D01*
X107589029Y-81478613D01*
X107541410Y-81430994D01*
X107517601Y-81383375D01*
X107493791Y-81288137D01*
X107493791Y-81216709D01*
X107517601Y-81121471D01*
X107541410Y-81073852D01*
X107589029Y-81026233D01*
X107660458Y-81002423D01*
X107708077Y-81002423D01*
X107779505Y-81026233D01*
X107803315Y-81050042D01*
X108231886Y-81002423D02*
X108136648Y-81002423D01*
X108089029Y-81026233D01*
X108065220Y-81050042D01*
X108017601Y-81121471D01*
X107993791Y-81216709D01*
X107993791Y-81407185D01*
X108017601Y-81454804D01*
X108041410Y-81478613D01*
X108089029Y-81502423D01*
X108184267Y-81502423D01*
X108231886Y-81478613D01*
X108255696Y-81454804D01*
X108279505Y-81407185D01*
X108279505Y-81288137D01*
X108255696Y-81240518D01*
X108231886Y-81216709D01*
X108184267Y-81192899D01*
X108089029Y-81192899D01*
X108041410Y-81216709D01*
X108017601Y-81240518D01*
X107993791Y-81288137D01*
X108589029Y-81002423D02*
X108636648Y-81002423D01*
X108684267Y-81026233D01*
X108708077Y-81050042D01*
X108731886Y-81097661D01*
X108755696Y-81192899D01*
X108755696Y-81311947D01*
X108731886Y-81407185D01*
X108708077Y-81454804D01*
X108684267Y-81478613D01*
X108636648Y-81502423D01*
X108589029Y-81502423D01*
X108541410Y-81478613D01*
X108517601Y-81454804D01*
X108493791Y-81407185D01*
X108469982Y-81311947D01*
X108469982Y-81192899D01*
X108493791Y-81097661D01*
X108517601Y-81050042D01*
X108541410Y-81026233D01*
X108589029Y-81002423D01*
%TO.C,R2*%
X42891410Y-104702423D02*
X42724744Y-104464328D01*
X42605696Y-104702423D02*
X42605696Y-104202423D01*
X42796172Y-104202423D01*
X42843791Y-104226233D01*
X42867601Y-104250042D01*
X42891410Y-104297661D01*
X42891410Y-104369090D01*
X42867601Y-104416709D01*
X42843791Y-104440518D01*
X42796172Y-104464328D01*
X42605696Y-104464328D01*
X43081886Y-104250042D02*
X43105696Y-104226233D01*
X43153315Y-104202423D01*
X43272363Y-104202423D01*
X43319982Y-104226233D01*
X43343791Y-104250042D01*
X43367601Y-104297661D01*
X43367601Y-104345280D01*
X43343791Y-104416709D01*
X43058077Y-104702423D01*
X43367601Y-104702423D01*
%TO.C,C6*%
X37596172Y-71507899D02*
X37572363Y-71484090D01*
X37548553Y-71412661D01*
X37548553Y-71365042D01*
X37572363Y-71293613D01*
X37619982Y-71245994D01*
X37667601Y-71222185D01*
X37762839Y-71198375D01*
X37834267Y-71198375D01*
X37929505Y-71222185D01*
X37977124Y-71245994D01*
X38024744Y-71293613D01*
X38048553Y-71365042D01*
X38048553Y-71412661D01*
X38024744Y-71484090D01*
X38000934Y-71507899D01*
X38048553Y-71936471D02*
X38048553Y-71841233D01*
X38024744Y-71793613D01*
X38000934Y-71769804D01*
X37929505Y-71722185D01*
X37834267Y-71698375D01*
X37643791Y-71698375D01*
X37596172Y-71722185D01*
X37572363Y-71745994D01*
X37548553Y-71793613D01*
X37548553Y-71888852D01*
X37572363Y-71936471D01*
X37596172Y-71960280D01*
X37643791Y-71984090D01*
X37762839Y-71984090D01*
X37810458Y-71960280D01*
X37834267Y-71936471D01*
X37858077Y-71888852D01*
X37858077Y-71793613D01*
X37834267Y-71745994D01*
X37810458Y-71722185D01*
X37762839Y-71698375D01*
%TO.C,C5*%
X38746172Y-71657899D02*
X38722363Y-71634090D01*
X38698553Y-71562661D01*
X38698553Y-71515042D01*
X38722363Y-71443613D01*
X38769982Y-71395994D01*
X38817601Y-71372185D01*
X38912839Y-71348375D01*
X38984267Y-71348375D01*
X39079505Y-71372185D01*
X39127124Y-71395994D01*
X39174744Y-71443613D01*
X39198553Y-71515042D01*
X39198553Y-71562661D01*
X39174744Y-71634090D01*
X39150934Y-71657899D01*
X39198553Y-72110280D02*
X39198553Y-71872185D01*
X38960458Y-71848375D01*
X38984267Y-71872185D01*
X39008077Y-71919804D01*
X39008077Y-72038852D01*
X38984267Y-72086471D01*
X38960458Y-72110280D01*
X38912839Y-72134090D01*
X38793791Y-72134090D01*
X38746172Y-72110280D01*
X38722363Y-72086471D01*
X38698553Y-72038852D01*
X38698553Y-71919804D01*
X38722363Y-71872185D01*
X38746172Y-71848375D01*
%TO.C,C49*%
X102283315Y-63704804D02*
X102259505Y-63728613D01*
X102188077Y-63752423D01*
X102140458Y-63752423D01*
X102069029Y-63728613D01*
X102021410Y-63680994D01*
X101997601Y-63633375D01*
X101973791Y-63538137D01*
X101973791Y-63466709D01*
X101997601Y-63371471D01*
X102021410Y-63323852D01*
X102069029Y-63276233D01*
X102140458Y-63252423D01*
X102188077Y-63252423D01*
X102259505Y-63276233D01*
X102283315Y-63300042D01*
X102711886Y-63419090D02*
X102711886Y-63752423D01*
X102592839Y-63228613D02*
X102473791Y-63585756D01*
X102783315Y-63585756D01*
X102997601Y-63752423D02*
X103092839Y-63752423D01*
X103140458Y-63728613D01*
X103164267Y-63704804D01*
X103211886Y-63633375D01*
X103235696Y-63538137D01*
X103235696Y-63347661D01*
X103211886Y-63300042D01*
X103188077Y-63276233D01*
X103140458Y-63252423D01*
X103045220Y-63252423D01*
X102997601Y-63276233D01*
X102973791Y-63300042D01*
X102949982Y-63347661D01*
X102949982Y-63466709D01*
X102973791Y-63514328D01*
X102997601Y-63538137D01*
X103045220Y-63561947D01*
X103140458Y-63561947D01*
X103188077Y-63538137D01*
X103211886Y-63514328D01*
X103235696Y-63466709D01*
%TO.C,C25*%
X122653315Y-107404804D02*
X122629505Y-107428613D01*
X122558077Y-107452423D01*
X122510458Y-107452423D01*
X122439029Y-107428613D01*
X122391410Y-107380994D01*
X122367601Y-107333375D01*
X122343791Y-107238137D01*
X122343791Y-107166709D01*
X122367601Y-107071471D01*
X122391410Y-107023852D01*
X122439029Y-106976233D01*
X122510458Y-106952423D01*
X122558077Y-106952423D01*
X122629505Y-106976233D01*
X122653315Y-107000042D01*
X122843791Y-107000042D02*
X122867601Y-106976233D01*
X122915220Y-106952423D01*
X123034267Y-106952423D01*
X123081886Y-106976233D01*
X123105696Y-107000042D01*
X123129505Y-107047661D01*
X123129505Y-107095280D01*
X123105696Y-107166709D01*
X122819982Y-107452423D01*
X123129505Y-107452423D01*
X123581886Y-106952423D02*
X123343791Y-106952423D01*
X123319982Y-107190518D01*
X123343791Y-107166709D01*
X123391410Y-107142899D01*
X123510458Y-107142899D01*
X123558077Y-107166709D01*
X123581886Y-107190518D01*
X123605696Y-107238137D01*
X123605696Y-107357185D01*
X123581886Y-107404804D01*
X123558077Y-107428613D01*
X123510458Y-107452423D01*
X123391410Y-107452423D01*
X123343791Y-107428613D01*
X123319982Y-107404804D01*
%TO.C,R7*%
X38691410Y-75652423D02*
X38524744Y-75414328D01*
X38405696Y-75652423D02*
X38405696Y-75152423D01*
X38596172Y-75152423D01*
X38643791Y-75176233D01*
X38667601Y-75200042D01*
X38691410Y-75247661D01*
X38691410Y-75319090D01*
X38667601Y-75366709D01*
X38643791Y-75390518D01*
X38596172Y-75414328D01*
X38405696Y-75414328D01*
X38858077Y-75152423D02*
X39191410Y-75152423D01*
X38977124Y-75652423D01*
%TO.C,R17*%
X101546172Y-117050042D02*
X101712839Y-117288137D01*
X101831886Y-117050042D02*
X101831886Y-117550042D01*
X101641410Y-117550042D01*
X101593791Y-117526233D01*
X101569982Y-117502423D01*
X101546172Y-117454804D01*
X101546172Y-117383375D01*
X101569982Y-117335756D01*
X101593791Y-117311947D01*
X101641410Y-117288137D01*
X101831886Y-117288137D01*
X101069982Y-117050042D02*
X101355696Y-117050042D01*
X101212839Y-117050042D02*
X101212839Y-117550042D01*
X101260458Y-117478613D01*
X101308077Y-117430994D01*
X101355696Y-117407185D01*
X100903315Y-117550042D02*
X100569982Y-117550042D01*
X100784267Y-117050042D01*
%TO.C,Q2*%
X70689624Y-100137542D02*
X70642005Y-100113733D01*
X70594386Y-100066113D01*
X70522958Y-99994685D01*
X70475339Y-99970875D01*
X70427720Y-99970875D01*
X70451529Y-100089923D02*
X70403910Y-100066113D01*
X70356291Y-100018494D01*
X70332482Y-99923256D01*
X70332482Y-99756590D01*
X70356291Y-99661352D01*
X70403910Y-99613733D01*
X70451529Y-99589923D01*
X70546767Y-99589923D01*
X70594386Y-99613733D01*
X70642005Y-99661352D01*
X70665815Y-99756590D01*
X70665815Y-99923256D01*
X70642005Y-100018494D01*
X70594386Y-100066113D01*
X70546767Y-100089923D01*
X70451529Y-100089923D01*
X70856291Y-99637542D02*
X70880101Y-99613733D01*
X70927720Y-99589923D01*
X71046767Y-99589923D01*
X71094386Y-99613733D01*
X71118196Y-99637542D01*
X71142005Y-99685161D01*
X71142005Y-99732780D01*
X71118196Y-99804209D01*
X70832482Y-100089923D01*
X71142005Y-100089923D01*
%TO.C,C8*%
X40246172Y-69242899D02*
X40222363Y-69219090D01*
X40198553Y-69147661D01*
X40198553Y-69100042D01*
X40222363Y-69028613D01*
X40269982Y-68980994D01*
X40317601Y-68957185D01*
X40412839Y-68933375D01*
X40484267Y-68933375D01*
X40579505Y-68957185D01*
X40627124Y-68980994D01*
X40674744Y-69028613D01*
X40698553Y-69100042D01*
X40698553Y-69147661D01*
X40674744Y-69219090D01*
X40650934Y-69242899D01*
X40484267Y-69528613D02*
X40508077Y-69480994D01*
X40531886Y-69457185D01*
X40579505Y-69433375D01*
X40603315Y-69433375D01*
X40650934Y-69457185D01*
X40674744Y-69480994D01*
X40698553Y-69528613D01*
X40698553Y-69623852D01*
X40674744Y-69671471D01*
X40650934Y-69695280D01*
X40603315Y-69719090D01*
X40579505Y-69719090D01*
X40531886Y-69695280D01*
X40508077Y-69671471D01*
X40484267Y-69623852D01*
X40484267Y-69528613D01*
X40460458Y-69480994D01*
X40436648Y-69457185D01*
X40389029Y-69433375D01*
X40293791Y-69433375D01*
X40246172Y-69457185D01*
X40222363Y-69480994D01*
X40198553Y-69528613D01*
X40198553Y-69623852D01*
X40222363Y-69671471D01*
X40246172Y-69695280D01*
X40293791Y-69719090D01*
X40389029Y-69719090D01*
X40436648Y-69695280D01*
X40460458Y-69671471D01*
X40484267Y-69623852D01*
%TO.C,L8*%
X104291410Y-66752423D02*
X104053315Y-66752423D01*
X104053315Y-66252423D01*
X104529505Y-66466709D02*
X104481886Y-66442899D01*
X104458077Y-66419090D01*
X104434267Y-66371471D01*
X104434267Y-66347661D01*
X104458077Y-66300042D01*
X104481886Y-66276233D01*
X104529505Y-66252423D01*
X104624744Y-66252423D01*
X104672363Y-66276233D01*
X104696172Y-66300042D01*
X104719982Y-66347661D01*
X104719982Y-66371471D01*
X104696172Y-66419090D01*
X104672363Y-66442899D01*
X104624744Y-66466709D01*
X104529505Y-66466709D01*
X104481886Y-66490518D01*
X104458077Y-66514328D01*
X104434267Y-66561947D01*
X104434267Y-66657185D01*
X104458077Y-66704804D01*
X104481886Y-66728613D01*
X104529505Y-66752423D01*
X104624744Y-66752423D01*
X104672363Y-66728613D01*
X104696172Y-66704804D01*
X104719982Y-66657185D01*
X104719982Y-66561947D01*
X104696172Y-66514328D01*
X104672363Y-66490518D01*
X104624744Y-66466709D01*
%TO.C,C7*%
X36303315Y-73937402D02*
X36327124Y-73961211D01*
X36350934Y-74032640D01*
X36350934Y-74080259D01*
X36327124Y-74151688D01*
X36279505Y-74199307D01*
X36231886Y-74223116D01*
X36136648Y-74246926D01*
X36065220Y-74246926D01*
X35969982Y-74223116D01*
X35922363Y-74199307D01*
X35874744Y-74151688D01*
X35850934Y-74080259D01*
X35850934Y-74032640D01*
X35874744Y-73961211D01*
X35898553Y-73937402D01*
X35850934Y-73770735D02*
X35850934Y-73437402D01*
X36350934Y-73651688D01*
%TO.C,R26*%
X62495815Y-106277423D02*
X62329148Y-106039328D01*
X62210101Y-106277423D02*
X62210101Y-105777423D01*
X62400577Y-105777423D01*
X62448196Y-105801233D01*
X62472005Y-105825042D01*
X62495815Y-105872661D01*
X62495815Y-105944090D01*
X62472005Y-105991709D01*
X62448196Y-106015518D01*
X62400577Y-106039328D01*
X62210101Y-106039328D01*
X62686291Y-105825042D02*
X62710101Y-105801233D01*
X62757720Y-105777423D01*
X62876767Y-105777423D01*
X62924386Y-105801233D01*
X62948196Y-105825042D01*
X62972005Y-105872661D01*
X62972005Y-105920280D01*
X62948196Y-105991709D01*
X62662482Y-106277423D01*
X62972005Y-106277423D01*
X63400577Y-105777423D02*
X63305339Y-105777423D01*
X63257720Y-105801233D01*
X63233910Y-105825042D01*
X63186291Y-105896471D01*
X63162482Y-105991709D01*
X63162482Y-106182185D01*
X63186291Y-106229804D01*
X63210101Y-106253613D01*
X63257720Y-106277423D01*
X63352958Y-106277423D01*
X63400577Y-106253613D01*
X63424386Y-106229804D01*
X63448196Y-106182185D01*
X63448196Y-106063137D01*
X63424386Y-106015518D01*
X63400577Y-105991709D01*
X63352958Y-105967899D01*
X63257720Y-105967899D01*
X63210101Y-105991709D01*
X63186291Y-106015518D01*
X63162482Y-106063137D01*
%TO.C,C70*%
X117626172Y-78744804D02*
X117602363Y-78720994D01*
X117578553Y-78649566D01*
X117578553Y-78601947D01*
X117602363Y-78530518D01*
X117649982Y-78482899D01*
X117697601Y-78459090D01*
X117792839Y-78435280D01*
X117864267Y-78435280D01*
X117959505Y-78459090D01*
X118007124Y-78482899D01*
X118054744Y-78530518D01*
X118078553Y-78601947D01*
X118078553Y-78649566D01*
X118054744Y-78720994D01*
X118030934Y-78744804D01*
X118078553Y-78911471D02*
X118078553Y-79244804D01*
X117578553Y-79030518D01*
X118078553Y-79530518D02*
X118078553Y-79578137D01*
X118054744Y-79625756D01*
X118030934Y-79649566D01*
X117983315Y-79673375D01*
X117888077Y-79697185D01*
X117769029Y-79697185D01*
X117673791Y-79673375D01*
X117626172Y-79649566D01*
X117602363Y-79625756D01*
X117578553Y-79578137D01*
X117578553Y-79530518D01*
X117602363Y-79482899D01*
X117626172Y-79459090D01*
X117673791Y-79435280D01*
X117769029Y-79411471D01*
X117888077Y-79411471D01*
X117983315Y-79435280D01*
X118030934Y-79459090D01*
X118054744Y-79482899D01*
X118078553Y-79530518D01*
%TO.C,C58*%
X106013315Y-63704804D02*
X105989505Y-63728613D01*
X105918077Y-63752423D01*
X105870458Y-63752423D01*
X105799029Y-63728613D01*
X105751410Y-63680994D01*
X105727601Y-63633375D01*
X105703791Y-63538137D01*
X105703791Y-63466709D01*
X105727601Y-63371471D01*
X105751410Y-63323852D01*
X105799029Y-63276233D01*
X105870458Y-63252423D01*
X105918077Y-63252423D01*
X105989505Y-63276233D01*
X106013315Y-63300042D01*
X106465696Y-63252423D02*
X106227601Y-63252423D01*
X106203791Y-63490518D01*
X106227601Y-63466709D01*
X106275220Y-63442899D01*
X106394267Y-63442899D01*
X106441886Y-63466709D01*
X106465696Y-63490518D01*
X106489505Y-63538137D01*
X106489505Y-63657185D01*
X106465696Y-63704804D01*
X106441886Y-63728613D01*
X106394267Y-63752423D01*
X106275220Y-63752423D01*
X106227601Y-63728613D01*
X106203791Y-63704804D01*
X106775220Y-63466709D02*
X106727601Y-63442899D01*
X106703791Y-63419090D01*
X106679982Y-63371471D01*
X106679982Y-63347661D01*
X106703791Y-63300042D01*
X106727601Y-63276233D01*
X106775220Y-63252423D01*
X106870458Y-63252423D01*
X106918077Y-63276233D01*
X106941886Y-63300042D01*
X106965696Y-63347661D01*
X106965696Y-63371471D01*
X106941886Y-63419090D01*
X106918077Y-63442899D01*
X106870458Y-63466709D01*
X106775220Y-63466709D01*
X106727601Y-63490518D01*
X106703791Y-63514328D01*
X106679982Y-63561947D01*
X106679982Y-63657185D01*
X106703791Y-63704804D01*
X106727601Y-63728613D01*
X106775220Y-63752423D01*
X106870458Y-63752423D01*
X106918077Y-63728613D01*
X106941886Y-63704804D01*
X106965696Y-63657185D01*
X106965696Y-63561947D01*
X106941886Y-63514328D01*
X106918077Y-63490518D01*
X106870458Y-63466709D01*
%TO.C,C28*%
X114323315Y-115354804D02*
X114299505Y-115378613D01*
X114228077Y-115402423D01*
X114180458Y-115402423D01*
X114109029Y-115378613D01*
X114061410Y-115330994D01*
X114037601Y-115283375D01*
X114013791Y-115188137D01*
X114013791Y-115116709D01*
X114037601Y-115021471D01*
X114061410Y-114973852D01*
X114109029Y-114926233D01*
X114180458Y-114902423D01*
X114228077Y-114902423D01*
X114299505Y-114926233D01*
X114323315Y-114950042D01*
X114513791Y-114950042D02*
X114537601Y-114926233D01*
X114585220Y-114902423D01*
X114704267Y-114902423D01*
X114751886Y-114926233D01*
X114775696Y-114950042D01*
X114799505Y-114997661D01*
X114799505Y-115045280D01*
X114775696Y-115116709D01*
X114489982Y-115402423D01*
X114799505Y-115402423D01*
X115085220Y-115116709D02*
X115037601Y-115092899D01*
X115013791Y-115069090D01*
X114989982Y-115021471D01*
X114989982Y-114997661D01*
X115013791Y-114950042D01*
X115037601Y-114926233D01*
X115085220Y-114902423D01*
X115180458Y-114902423D01*
X115228077Y-114926233D01*
X115251886Y-114950042D01*
X115275696Y-114997661D01*
X115275696Y-115021471D01*
X115251886Y-115069090D01*
X115228077Y-115092899D01*
X115180458Y-115116709D01*
X115085220Y-115116709D01*
X115037601Y-115140518D01*
X115013791Y-115164328D01*
X114989982Y-115211947D01*
X114989982Y-115307185D01*
X115013791Y-115354804D01*
X115037601Y-115378613D01*
X115085220Y-115402423D01*
X115180458Y-115402423D01*
X115228077Y-115378613D01*
X115251886Y-115354804D01*
X115275696Y-115307185D01*
X115275696Y-115211947D01*
X115251886Y-115164328D01*
X115228077Y-115140518D01*
X115180458Y-115116709D01*
%TO.C,Q1*%
X84927124Y-91000042D02*
X84879505Y-90976233D01*
X84831886Y-90928613D01*
X84760458Y-90857185D01*
X84712839Y-90833375D01*
X84665220Y-90833375D01*
X84689029Y-90952423D02*
X84641410Y-90928613D01*
X84593791Y-90880994D01*
X84569982Y-90785756D01*
X84569982Y-90619090D01*
X84593791Y-90523852D01*
X84641410Y-90476233D01*
X84689029Y-90452423D01*
X84784267Y-90452423D01*
X84831886Y-90476233D01*
X84879505Y-90523852D01*
X84903315Y-90619090D01*
X84903315Y-90785756D01*
X84879505Y-90880994D01*
X84831886Y-90928613D01*
X84784267Y-90952423D01*
X84689029Y-90952423D01*
X85379505Y-90952423D02*
X85093791Y-90952423D01*
X85236648Y-90952423D02*
X85236648Y-90452423D01*
X85189029Y-90523852D01*
X85141410Y-90571471D01*
X85093791Y-90595280D01*
%TO.C,C67*%
X112476172Y-67454804D02*
X112452363Y-67430994D01*
X112428553Y-67359566D01*
X112428553Y-67311947D01*
X112452363Y-67240518D01*
X112499982Y-67192899D01*
X112547601Y-67169090D01*
X112642839Y-67145280D01*
X112714267Y-67145280D01*
X112809505Y-67169090D01*
X112857124Y-67192899D01*
X112904744Y-67240518D01*
X112928553Y-67311947D01*
X112928553Y-67359566D01*
X112904744Y-67430994D01*
X112880934Y-67454804D01*
X112928553Y-67883375D02*
X112928553Y-67788137D01*
X112904744Y-67740518D01*
X112880934Y-67716709D01*
X112809505Y-67669090D01*
X112714267Y-67645280D01*
X112523791Y-67645280D01*
X112476172Y-67669090D01*
X112452363Y-67692899D01*
X112428553Y-67740518D01*
X112428553Y-67835756D01*
X112452363Y-67883375D01*
X112476172Y-67907185D01*
X112523791Y-67930994D01*
X112642839Y-67930994D01*
X112690458Y-67907185D01*
X112714267Y-67883375D01*
X112738077Y-67835756D01*
X112738077Y-67740518D01*
X112714267Y-67692899D01*
X112690458Y-67669090D01*
X112642839Y-67645280D01*
X112928553Y-68097661D02*
X112928553Y-68430994D01*
X112428553Y-68216709D01*
%TO.C,U5*%
X43743791Y-71252423D02*
X43743791Y-71657185D01*
X43767601Y-71704804D01*
X43791410Y-71728613D01*
X43839029Y-71752423D01*
X43934267Y-71752423D01*
X43981886Y-71728613D01*
X44005696Y-71704804D01*
X44029505Y-71657185D01*
X44029505Y-71252423D01*
X44505696Y-71252423D02*
X44267601Y-71252423D01*
X44243791Y-71490518D01*
X44267601Y-71466709D01*
X44315220Y-71442899D01*
X44434267Y-71442899D01*
X44481886Y-71466709D01*
X44505696Y-71490518D01*
X44529505Y-71538137D01*
X44529505Y-71657185D01*
X44505696Y-71704804D01*
X44481886Y-71728613D01*
X44434267Y-71752423D01*
X44315220Y-71752423D01*
X44267601Y-71728613D01*
X44243791Y-71704804D01*
%TO.C,C19*%
X123046172Y-94534804D02*
X123022363Y-94510994D01*
X122998553Y-94439566D01*
X122998553Y-94391947D01*
X123022363Y-94320518D01*
X123069982Y-94272899D01*
X123117601Y-94249090D01*
X123212839Y-94225280D01*
X123284267Y-94225280D01*
X123379505Y-94249090D01*
X123427124Y-94272899D01*
X123474744Y-94320518D01*
X123498553Y-94391947D01*
X123498553Y-94439566D01*
X123474744Y-94510994D01*
X123450934Y-94534804D01*
X122998553Y-95010994D02*
X122998553Y-94725280D01*
X122998553Y-94868137D02*
X123498553Y-94868137D01*
X123427124Y-94820518D01*
X123379505Y-94772899D01*
X123355696Y-94725280D01*
X122998553Y-95249090D02*
X122998553Y-95344328D01*
X123022363Y-95391947D01*
X123046172Y-95415756D01*
X123117601Y-95463375D01*
X123212839Y-95487185D01*
X123403315Y-95487185D01*
X123450934Y-95463375D01*
X123474744Y-95439566D01*
X123498553Y-95391947D01*
X123498553Y-95296709D01*
X123474744Y-95249090D01*
X123450934Y-95225280D01*
X123403315Y-95201471D01*
X123284267Y-95201471D01*
X123236648Y-95225280D01*
X123212839Y-95249090D01*
X123189029Y-95296709D01*
X123189029Y-95391947D01*
X123212839Y-95439566D01*
X123236648Y-95463375D01*
X123284267Y-95487185D01*
%TO.C,R24*%
X64515815Y-98027423D02*
X64349148Y-97789328D01*
X64230101Y-98027423D02*
X64230101Y-97527423D01*
X64420577Y-97527423D01*
X64468196Y-97551233D01*
X64492005Y-97575042D01*
X64515815Y-97622661D01*
X64515815Y-97694090D01*
X64492005Y-97741709D01*
X64468196Y-97765518D01*
X64420577Y-97789328D01*
X64230101Y-97789328D01*
X64706291Y-97575042D02*
X64730101Y-97551233D01*
X64777720Y-97527423D01*
X64896767Y-97527423D01*
X64944386Y-97551233D01*
X64968196Y-97575042D01*
X64992005Y-97622661D01*
X64992005Y-97670280D01*
X64968196Y-97741709D01*
X64682482Y-98027423D01*
X64992005Y-98027423D01*
X65420577Y-97694090D02*
X65420577Y-98027423D01*
X65301529Y-97503613D02*
X65182482Y-97860756D01*
X65492005Y-97860756D01*
%TO.C,C22*%
X122653315Y-104404804D02*
X122629505Y-104428613D01*
X122558077Y-104452423D01*
X122510458Y-104452423D01*
X122439029Y-104428613D01*
X122391410Y-104380994D01*
X122367601Y-104333375D01*
X122343791Y-104238137D01*
X122343791Y-104166709D01*
X122367601Y-104071471D01*
X122391410Y-104023852D01*
X122439029Y-103976233D01*
X122510458Y-103952423D01*
X122558077Y-103952423D01*
X122629505Y-103976233D01*
X122653315Y-104000042D01*
X122843791Y-104000042D02*
X122867601Y-103976233D01*
X122915220Y-103952423D01*
X123034267Y-103952423D01*
X123081886Y-103976233D01*
X123105696Y-104000042D01*
X123129505Y-104047661D01*
X123129505Y-104095280D01*
X123105696Y-104166709D01*
X122819982Y-104452423D01*
X123129505Y-104452423D01*
X123319982Y-104000042D02*
X123343791Y-103976233D01*
X123391410Y-103952423D01*
X123510458Y-103952423D01*
X123558077Y-103976233D01*
X123581886Y-104000042D01*
X123605696Y-104047661D01*
X123605696Y-104095280D01*
X123581886Y-104166709D01*
X123296172Y-104452423D01*
X123605696Y-104452423D01*
%TO.C,J2*%
X33700934Y-71192899D02*
X34058077Y-71192899D01*
X34129505Y-71216709D01*
X34177124Y-71264328D01*
X34200934Y-71335756D01*
X34200934Y-71383375D01*
X33748553Y-70978613D02*
X33724744Y-70954804D01*
X33700934Y-70907185D01*
X33700934Y-70788137D01*
X33724744Y-70740518D01*
X33748553Y-70716709D01*
X33796172Y-70692899D01*
X33843791Y-70692899D01*
X33915220Y-70716709D01*
X34200934Y-71002423D01*
X34200934Y-70692899D01*
%TO.C,C34*%
X114953315Y-63847661D02*
X114977124Y-63871471D01*
X115000934Y-63942899D01*
X115000934Y-63990518D01*
X114977124Y-64061947D01*
X114929505Y-64109566D01*
X114881886Y-64133375D01*
X114786648Y-64157185D01*
X114715220Y-64157185D01*
X114619982Y-64133375D01*
X114572363Y-64109566D01*
X114524744Y-64061947D01*
X114500934Y-63990518D01*
X114500934Y-63942899D01*
X114524744Y-63871471D01*
X114548553Y-63847661D01*
X114500934Y-63680994D02*
X114500934Y-63371471D01*
X114691410Y-63538137D01*
X114691410Y-63466709D01*
X114715220Y-63419090D01*
X114739029Y-63395280D01*
X114786648Y-63371471D01*
X114905696Y-63371471D01*
X114953315Y-63395280D01*
X114977124Y-63419090D01*
X115000934Y-63466709D01*
X115000934Y-63609566D01*
X114977124Y-63657185D01*
X114953315Y-63680994D01*
X114667601Y-62942899D02*
X115000934Y-62942899D01*
X114477124Y-63061947D02*
X114834267Y-63180994D01*
X114834267Y-62871471D01*
%TO.C,J6*%
X36078077Y-81062423D02*
X36078077Y-81419566D01*
X36054267Y-81490994D01*
X36006648Y-81538613D01*
X35935220Y-81562423D01*
X35887601Y-81562423D01*
X36530458Y-81062423D02*
X36435220Y-81062423D01*
X36387601Y-81086233D01*
X36363791Y-81110042D01*
X36316172Y-81181471D01*
X36292363Y-81276709D01*
X36292363Y-81467185D01*
X36316172Y-81514804D01*
X36339982Y-81538613D01*
X36387601Y-81562423D01*
X36482839Y-81562423D01*
X36530458Y-81538613D01*
X36554267Y-81514804D01*
X36578077Y-81467185D01*
X36578077Y-81348137D01*
X36554267Y-81300518D01*
X36530458Y-81276709D01*
X36482839Y-81252899D01*
X36387601Y-81252899D01*
X36339982Y-81276709D01*
X36316172Y-81300518D01*
X36292363Y-81348137D01*
%TO.C,C65*%
X110083315Y-69204804D02*
X110059505Y-69228613D01*
X109988077Y-69252423D01*
X109940458Y-69252423D01*
X109869029Y-69228613D01*
X109821410Y-69180994D01*
X109797601Y-69133375D01*
X109773791Y-69038137D01*
X109773791Y-68966709D01*
X109797601Y-68871471D01*
X109821410Y-68823852D01*
X109869029Y-68776233D01*
X109940458Y-68752423D01*
X109988077Y-68752423D01*
X110059505Y-68776233D01*
X110083315Y-68800042D01*
X110511886Y-68752423D02*
X110416648Y-68752423D01*
X110369029Y-68776233D01*
X110345220Y-68800042D01*
X110297601Y-68871471D01*
X110273791Y-68966709D01*
X110273791Y-69157185D01*
X110297601Y-69204804D01*
X110321410Y-69228613D01*
X110369029Y-69252423D01*
X110464267Y-69252423D01*
X110511886Y-69228613D01*
X110535696Y-69204804D01*
X110559505Y-69157185D01*
X110559505Y-69038137D01*
X110535696Y-68990518D01*
X110511886Y-68966709D01*
X110464267Y-68942899D01*
X110369029Y-68942899D01*
X110321410Y-68966709D01*
X110297601Y-68990518D01*
X110273791Y-69038137D01*
X111011886Y-68752423D02*
X110773791Y-68752423D01*
X110749982Y-68990518D01*
X110773791Y-68966709D01*
X110821410Y-68942899D01*
X110940458Y-68942899D01*
X110988077Y-68966709D01*
X111011886Y-68990518D01*
X111035696Y-69038137D01*
X111035696Y-69157185D01*
X111011886Y-69204804D01*
X110988077Y-69228613D01*
X110940458Y-69252423D01*
X110821410Y-69252423D01*
X110773791Y-69228613D01*
X110749982Y-69204804D01*
%TO.C,C4*%
X55746172Y-27942899D02*
X55722363Y-27919090D01*
X55698553Y-27847661D01*
X55698553Y-27800042D01*
X55722363Y-27728613D01*
X55769982Y-27680994D01*
X55817601Y-27657185D01*
X55912839Y-27633375D01*
X55984267Y-27633375D01*
X56079505Y-27657185D01*
X56127124Y-27680994D01*
X56174744Y-27728613D01*
X56198553Y-27800042D01*
X56198553Y-27847661D01*
X56174744Y-27919090D01*
X56150934Y-27942899D01*
X56031886Y-28371471D02*
X55698553Y-28371471D01*
X56222363Y-28252423D02*
X55865220Y-28133375D01*
X55865220Y-28442899D01*
%TO.C,C62*%
X107453315Y-76204804D02*
X107429505Y-76228613D01*
X107358077Y-76252423D01*
X107310458Y-76252423D01*
X107239029Y-76228613D01*
X107191410Y-76180994D01*
X107167601Y-76133375D01*
X107143791Y-76038137D01*
X107143791Y-75966709D01*
X107167601Y-75871471D01*
X107191410Y-75823852D01*
X107239029Y-75776233D01*
X107310458Y-75752423D01*
X107358077Y-75752423D01*
X107429505Y-75776233D01*
X107453315Y-75800042D01*
X107881886Y-75752423D02*
X107786648Y-75752423D01*
X107739029Y-75776233D01*
X107715220Y-75800042D01*
X107667601Y-75871471D01*
X107643791Y-75966709D01*
X107643791Y-76157185D01*
X107667601Y-76204804D01*
X107691410Y-76228613D01*
X107739029Y-76252423D01*
X107834267Y-76252423D01*
X107881886Y-76228613D01*
X107905696Y-76204804D01*
X107929505Y-76157185D01*
X107929505Y-76038137D01*
X107905696Y-75990518D01*
X107881886Y-75966709D01*
X107834267Y-75942899D01*
X107739029Y-75942899D01*
X107691410Y-75966709D01*
X107667601Y-75990518D01*
X107643791Y-76038137D01*
X108119982Y-75800042D02*
X108143791Y-75776233D01*
X108191410Y-75752423D01*
X108310458Y-75752423D01*
X108358077Y-75776233D01*
X108381886Y-75800042D01*
X108405696Y-75847661D01*
X108405696Y-75895280D01*
X108381886Y-75966709D01*
X108096172Y-76252423D01*
X108405696Y-76252423D01*
%TO.C,C2*%
X42891410Y-105804804D02*
X42867601Y-105828613D01*
X42796172Y-105852423D01*
X42748553Y-105852423D01*
X42677124Y-105828613D01*
X42629505Y-105780994D01*
X42605696Y-105733375D01*
X42581886Y-105638137D01*
X42581886Y-105566709D01*
X42605696Y-105471471D01*
X42629505Y-105423852D01*
X42677124Y-105376233D01*
X42748553Y-105352423D01*
X42796172Y-105352423D01*
X42867601Y-105376233D01*
X42891410Y-105400042D01*
X43081886Y-105400042D02*
X43105696Y-105376233D01*
X43153315Y-105352423D01*
X43272363Y-105352423D01*
X43319982Y-105376233D01*
X43343791Y-105400042D01*
X43367601Y-105447661D01*
X43367601Y-105495280D01*
X43343791Y-105566709D01*
X43058077Y-105852423D01*
X43367601Y-105852423D01*
%TO.C,R1*%
X42941410Y-102302423D02*
X42774744Y-102064328D01*
X42655696Y-102302423D02*
X42655696Y-101802423D01*
X42846172Y-101802423D01*
X42893791Y-101826233D01*
X42917601Y-101850042D01*
X42941410Y-101897661D01*
X42941410Y-101969090D01*
X42917601Y-102016709D01*
X42893791Y-102040518D01*
X42846172Y-102064328D01*
X42655696Y-102064328D01*
X43417601Y-102302423D02*
X43131886Y-102302423D01*
X43274744Y-102302423D02*
X43274744Y-101802423D01*
X43227124Y-101873852D01*
X43179505Y-101921471D01*
X43131886Y-101945280D01*
%TO.C,R8*%
X38691410Y-76602423D02*
X38524744Y-76364328D01*
X38405696Y-76602423D02*
X38405696Y-76102423D01*
X38596172Y-76102423D01*
X38643791Y-76126233D01*
X38667601Y-76150042D01*
X38691410Y-76197661D01*
X38691410Y-76269090D01*
X38667601Y-76316709D01*
X38643791Y-76340518D01*
X38596172Y-76364328D01*
X38405696Y-76364328D01*
X38977124Y-76316709D02*
X38929505Y-76292899D01*
X38905696Y-76269090D01*
X38881886Y-76221471D01*
X38881886Y-76197661D01*
X38905696Y-76150042D01*
X38929505Y-76126233D01*
X38977124Y-76102423D01*
X39072363Y-76102423D01*
X39119982Y-76126233D01*
X39143791Y-76150042D01*
X39167601Y-76197661D01*
X39167601Y-76221471D01*
X39143791Y-76269090D01*
X39119982Y-76292899D01*
X39072363Y-76316709D01*
X38977124Y-76316709D01*
X38929505Y-76340518D01*
X38905696Y-76364328D01*
X38881886Y-76411947D01*
X38881886Y-76507185D01*
X38905696Y-76554804D01*
X38929505Y-76578613D01*
X38977124Y-76602423D01*
X39072363Y-76602423D01*
X39119982Y-76578613D01*
X39143791Y-76554804D01*
X39167601Y-76507185D01*
X39167601Y-76411947D01*
X39143791Y-76364328D01*
X39119982Y-76340518D01*
X39072363Y-76316709D01*
%TO.C,L4*%
X100500934Y-66609566D02*
X100500934Y-66847661D01*
X100000934Y-66847661D01*
X100167601Y-66228613D02*
X100500934Y-66228613D01*
X99977124Y-66347661D02*
X100334267Y-66466709D01*
X100334267Y-66157185D01*
%TO.C,R4*%
X42400934Y-31599566D02*
X42162839Y-31766233D01*
X42400934Y-31885280D02*
X41900934Y-31885280D01*
X41900934Y-31694804D01*
X41924744Y-31647185D01*
X41948553Y-31623375D01*
X41996172Y-31599566D01*
X42067601Y-31599566D01*
X42115220Y-31623375D01*
X42139029Y-31647185D01*
X42162839Y-31694804D01*
X42162839Y-31885280D01*
X42067601Y-31170994D02*
X42400934Y-31170994D01*
X41877124Y-31290042D02*
X42234267Y-31409090D01*
X42234267Y-31099566D01*
%TO.C,C63*%
X109053315Y-66367661D02*
X109077124Y-66391471D01*
X109100934Y-66462899D01*
X109100934Y-66510518D01*
X109077124Y-66581947D01*
X109029505Y-66629566D01*
X108981886Y-66653375D01*
X108886648Y-66677185D01*
X108815220Y-66677185D01*
X108719982Y-66653375D01*
X108672363Y-66629566D01*
X108624744Y-66581947D01*
X108600934Y-66510518D01*
X108600934Y-66462899D01*
X108624744Y-66391471D01*
X108648553Y-66367661D01*
X108600934Y-65939090D02*
X108600934Y-66034328D01*
X108624744Y-66081947D01*
X108648553Y-66105756D01*
X108719982Y-66153375D01*
X108815220Y-66177185D01*
X109005696Y-66177185D01*
X109053315Y-66153375D01*
X109077124Y-66129566D01*
X109100934Y-66081947D01*
X109100934Y-65986709D01*
X109077124Y-65939090D01*
X109053315Y-65915280D01*
X109005696Y-65891471D01*
X108886648Y-65891471D01*
X108839029Y-65915280D01*
X108815220Y-65939090D01*
X108791410Y-65986709D01*
X108791410Y-66081947D01*
X108815220Y-66129566D01*
X108839029Y-66153375D01*
X108886648Y-66177185D01*
X108600934Y-65724804D02*
X108600934Y-65415280D01*
X108791410Y-65581947D01*
X108791410Y-65510518D01*
X108815220Y-65462899D01*
X108839029Y-65439090D01*
X108886648Y-65415280D01*
X109005696Y-65415280D01*
X109053315Y-65439090D01*
X109077124Y-65462899D01*
X109100934Y-65510518D01*
X109100934Y-65653375D01*
X109077124Y-65700994D01*
X109053315Y-65724804D01*
%TO.C,R14*%
X96153315Y-116602423D02*
X95986648Y-116364328D01*
X95867601Y-116602423D02*
X95867601Y-116102423D01*
X96058077Y-116102423D01*
X96105696Y-116126233D01*
X96129505Y-116150042D01*
X96153315Y-116197661D01*
X96153315Y-116269090D01*
X96129505Y-116316709D01*
X96105696Y-116340518D01*
X96058077Y-116364328D01*
X95867601Y-116364328D01*
X96629505Y-116602423D02*
X96343791Y-116602423D01*
X96486648Y-116602423D02*
X96486648Y-116102423D01*
X96439029Y-116173852D01*
X96391410Y-116221471D01*
X96343791Y-116245280D01*
X97058077Y-116269090D02*
X97058077Y-116602423D01*
X96939029Y-116078613D02*
X96819982Y-116435756D01*
X97129505Y-116435756D01*
%TO.C,J7*%
X36078077Y-83562423D02*
X36078077Y-83919566D01*
X36054267Y-83990994D01*
X36006648Y-84038613D01*
X35935220Y-84062423D01*
X35887601Y-84062423D01*
X36268553Y-83562423D02*
X36601886Y-83562423D01*
X36387601Y-84062423D01*
%TO.C,C17*%
X48953315Y-87047661D02*
X48977124Y-87071471D01*
X49000934Y-87142899D01*
X49000934Y-87190518D01*
X48977124Y-87261947D01*
X48929505Y-87309566D01*
X48881886Y-87333375D01*
X48786648Y-87357185D01*
X48715220Y-87357185D01*
X48619982Y-87333375D01*
X48572363Y-87309566D01*
X48524744Y-87261947D01*
X48500934Y-87190518D01*
X48500934Y-87142899D01*
X48524744Y-87071471D01*
X48548553Y-87047661D01*
X49000934Y-86571471D02*
X49000934Y-86857185D01*
X49000934Y-86714328D02*
X48500934Y-86714328D01*
X48572363Y-86761947D01*
X48619982Y-86809566D01*
X48643791Y-86857185D01*
X48500934Y-86404804D02*
X48500934Y-86071471D01*
X49000934Y-86285756D01*
%TO.C,C50*%
X106033315Y-69704804D02*
X106009505Y-69728613D01*
X105938077Y-69752423D01*
X105890458Y-69752423D01*
X105819029Y-69728613D01*
X105771410Y-69680994D01*
X105747601Y-69633375D01*
X105723791Y-69538137D01*
X105723791Y-69466709D01*
X105747601Y-69371471D01*
X105771410Y-69323852D01*
X105819029Y-69276233D01*
X105890458Y-69252423D01*
X105938077Y-69252423D01*
X106009505Y-69276233D01*
X106033315Y-69300042D01*
X106485696Y-69252423D02*
X106247601Y-69252423D01*
X106223791Y-69490518D01*
X106247601Y-69466709D01*
X106295220Y-69442899D01*
X106414267Y-69442899D01*
X106461886Y-69466709D01*
X106485696Y-69490518D01*
X106509505Y-69538137D01*
X106509505Y-69657185D01*
X106485696Y-69704804D01*
X106461886Y-69728613D01*
X106414267Y-69752423D01*
X106295220Y-69752423D01*
X106247601Y-69728613D01*
X106223791Y-69704804D01*
X106819029Y-69252423D02*
X106866648Y-69252423D01*
X106914267Y-69276233D01*
X106938077Y-69300042D01*
X106961886Y-69347661D01*
X106985696Y-69442899D01*
X106985696Y-69561947D01*
X106961886Y-69657185D01*
X106938077Y-69704804D01*
X106914267Y-69728613D01*
X106866648Y-69752423D01*
X106819029Y-69752423D01*
X106771410Y-69728613D01*
X106747601Y-69704804D01*
X106723791Y-69657185D01*
X106699982Y-69561947D01*
X106699982Y-69442899D01*
X106723791Y-69347661D01*
X106747601Y-69300042D01*
X106771410Y-69276233D01*
X106819029Y-69252423D01*
%TO.C,L13*%
X110453315Y-79002423D02*
X110215220Y-79002423D01*
X110215220Y-78502423D01*
X110881886Y-79002423D02*
X110596172Y-79002423D01*
X110739029Y-79002423D02*
X110739029Y-78502423D01*
X110691410Y-78573852D01*
X110643791Y-78621471D01*
X110596172Y-78645280D01*
X111048553Y-78502423D02*
X111358077Y-78502423D01*
X111191410Y-78692899D01*
X111262839Y-78692899D01*
X111310458Y-78716709D01*
X111334267Y-78740518D01*
X111358077Y-78788137D01*
X111358077Y-78907185D01*
X111334267Y-78954804D01*
X111310458Y-78978613D01*
X111262839Y-79002423D01*
X111119982Y-79002423D01*
X111072363Y-78978613D01*
X111048553Y-78954804D01*
%TO.C,J4*%
X44300934Y-30992899D02*
X44658077Y-30992899D01*
X44729505Y-31016709D01*
X44777124Y-31064328D01*
X44800934Y-31135756D01*
X44800934Y-31183375D01*
X44467601Y-30540518D02*
X44800934Y-30540518D01*
X44277124Y-30659566D02*
X44634267Y-30778613D01*
X44634267Y-30469090D01*
%TO.C,C13*%
X39073315Y-79104804D02*
X39049505Y-79128613D01*
X38978077Y-79152423D01*
X38930458Y-79152423D01*
X38859029Y-79128613D01*
X38811410Y-79080994D01*
X38787601Y-79033375D01*
X38763791Y-78938137D01*
X38763791Y-78866709D01*
X38787601Y-78771471D01*
X38811410Y-78723852D01*
X38859029Y-78676233D01*
X38930458Y-78652423D01*
X38978077Y-78652423D01*
X39049505Y-78676233D01*
X39073315Y-78700042D01*
X39549505Y-79152423D02*
X39263791Y-79152423D01*
X39406648Y-79152423D02*
X39406648Y-78652423D01*
X39359029Y-78723852D01*
X39311410Y-78771471D01*
X39263791Y-78795280D01*
X39716172Y-78652423D02*
X40025696Y-78652423D01*
X39859029Y-78842899D01*
X39930458Y-78842899D01*
X39978077Y-78866709D01*
X40001886Y-78890518D01*
X40025696Y-78938137D01*
X40025696Y-79057185D01*
X40001886Y-79104804D01*
X39978077Y-79128613D01*
X39930458Y-79152423D01*
X39787601Y-79152423D01*
X39739982Y-79128613D01*
X39716172Y-79104804D01*
%TO.C,C72*%
X120503315Y-82279804D02*
X120479505Y-82303613D01*
X120408077Y-82327423D01*
X120360458Y-82327423D01*
X120289029Y-82303613D01*
X120241410Y-82255994D01*
X120217601Y-82208375D01*
X120193791Y-82113137D01*
X120193791Y-82041709D01*
X120217601Y-81946471D01*
X120241410Y-81898852D01*
X120289029Y-81851233D01*
X120360458Y-81827423D01*
X120408077Y-81827423D01*
X120479505Y-81851233D01*
X120503315Y-81875042D01*
X120669982Y-81827423D02*
X121003315Y-81827423D01*
X120789029Y-82327423D01*
X121169982Y-81875042D02*
X121193791Y-81851233D01*
X121241410Y-81827423D01*
X121360458Y-81827423D01*
X121408077Y-81851233D01*
X121431886Y-81875042D01*
X121455696Y-81922661D01*
X121455696Y-81970280D01*
X121431886Y-82041709D01*
X121146172Y-82327423D01*
X121455696Y-82327423D01*
%TO.C,C30*%
X98453315Y-65847661D02*
X98477124Y-65871471D01*
X98500934Y-65942899D01*
X98500934Y-65990518D01*
X98477124Y-66061947D01*
X98429505Y-66109566D01*
X98381886Y-66133375D01*
X98286648Y-66157185D01*
X98215220Y-66157185D01*
X98119982Y-66133375D01*
X98072363Y-66109566D01*
X98024744Y-66061947D01*
X98000934Y-65990518D01*
X98000934Y-65942899D01*
X98024744Y-65871471D01*
X98048553Y-65847661D01*
X98000934Y-65680994D02*
X98000934Y-65371471D01*
X98191410Y-65538137D01*
X98191410Y-65466709D01*
X98215220Y-65419090D01*
X98239029Y-65395280D01*
X98286648Y-65371471D01*
X98405696Y-65371471D01*
X98453315Y-65395280D01*
X98477124Y-65419090D01*
X98500934Y-65466709D01*
X98500934Y-65609566D01*
X98477124Y-65657185D01*
X98453315Y-65680994D01*
X98000934Y-65061947D02*
X98000934Y-65014328D01*
X98024744Y-64966709D01*
X98048553Y-64942899D01*
X98096172Y-64919090D01*
X98191410Y-64895280D01*
X98310458Y-64895280D01*
X98405696Y-64919090D01*
X98453315Y-64942899D01*
X98477124Y-64966709D01*
X98500934Y-65014328D01*
X98500934Y-65061947D01*
X98477124Y-65109566D01*
X98453315Y-65133375D01*
X98405696Y-65157185D01*
X98310458Y-65180994D01*
X98191410Y-65180994D01*
X98096172Y-65157185D01*
X98048553Y-65133375D01*
X98024744Y-65109566D01*
X98000934Y-65061947D01*
%TO.C,L7*%
X105191410Y-76002423D02*
X104953315Y-76002423D01*
X104953315Y-75502423D01*
X105310458Y-75502423D02*
X105643791Y-75502423D01*
X105429505Y-76002423D01*
%TO.C,J13*%
X125919982Y-56077423D02*
X125919982Y-56434566D01*
X125896172Y-56505994D01*
X125848553Y-56553613D01*
X125777124Y-56577423D01*
X125729505Y-56577423D01*
X126419982Y-56577423D02*
X126134267Y-56577423D01*
X126277124Y-56577423D02*
X126277124Y-56077423D01*
X126229505Y-56148852D01*
X126181886Y-56196471D01*
X126134267Y-56220280D01*
X126586648Y-56077423D02*
X126896172Y-56077423D01*
X126729505Y-56267899D01*
X126800934Y-56267899D01*
X126848553Y-56291709D01*
X126872363Y-56315518D01*
X126896172Y-56363137D01*
X126896172Y-56482185D01*
X126872363Y-56529804D01*
X126848553Y-56553613D01*
X126800934Y-56577423D01*
X126658077Y-56577423D01*
X126610458Y-56553613D01*
X126586648Y-56529804D01*
%TO.C,D2*%
X74993196Y-119802423D02*
X74993196Y-119302423D01*
X75112244Y-119302423D01*
X75183672Y-119326233D01*
X75231291Y-119373852D01*
X75255101Y-119421471D01*
X75278910Y-119516709D01*
X75278910Y-119588137D01*
X75255101Y-119683375D01*
X75231291Y-119730994D01*
X75183672Y-119778613D01*
X75112244Y-119802423D01*
X74993196Y-119802423D01*
X75469386Y-119350042D02*
X75493196Y-119326233D01*
X75540815Y-119302423D01*
X75659863Y-119302423D01*
X75707482Y-119326233D01*
X75731291Y-119350042D01*
X75755101Y-119397661D01*
X75755101Y-119445280D01*
X75731291Y-119516709D01*
X75445577Y-119802423D01*
X75755101Y-119802423D01*
%TO.C,C47*%
X100553315Y-64117661D02*
X100577124Y-64141471D01*
X100600934Y-64212899D01*
X100600934Y-64260518D01*
X100577124Y-64331947D01*
X100529505Y-64379566D01*
X100481886Y-64403375D01*
X100386648Y-64427185D01*
X100315220Y-64427185D01*
X100219982Y-64403375D01*
X100172363Y-64379566D01*
X100124744Y-64331947D01*
X100100934Y-64260518D01*
X100100934Y-64212899D01*
X100124744Y-64141471D01*
X100148553Y-64117661D01*
X100267601Y-63689090D02*
X100600934Y-63689090D01*
X100077124Y-63808137D02*
X100434267Y-63927185D01*
X100434267Y-63617661D01*
X100100934Y-63474804D02*
X100100934Y-63141471D01*
X100600934Y-63355756D01*
%TO.C,C48*%
X100553315Y-81239825D02*
X100577124Y-81263635D01*
X100600934Y-81335063D01*
X100600934Y-81382682D01*
X100577124Y-81454111D01*
X100529505Y-81501730D01*
X100481886Y-81525539D01*
X100386648Y-81549349D01*
X100315220Y-81549349D01*
X100219982Y-81525539D01*
X100172363Y-81501730D01*
X100124744Y-81454111D01*
X100100934Y-81382682D01*
X100100934Y-81335063D01*
X100124744Y-81263635D01*
X100148553Y-81239825D01*
X100267601Y-80811254D02*
X100600934Y-80811254D01*
X100077124Y-80930301D02*
X100434267Y-81049349D01*
X100434267Y-80739825D01*
X100315220Y-80477920D02*
X100291410Y-80525539D01*
X100267601Y-80549349D01*
X100219982Y-80573158D01*
X100196172Y-80573158D01*
X100148553Y-80549349D01*
X100124744Y-80525539D01*
X100100934Y-80477920D01*
X100100934Y-80382682D01*
X100124744Y-80335063D01*
X100148553Y-80311254D01*
X100196172Y-80287444D01*
X100219982Y-80287444D01*
X100267601Y-80311254D01*
X100291410Y-80335063D01*
X100315220Y-80382682D01*
X100315220Y-80477920D01*
X100339029Y-80525539D01*
X100362839Y-80549349D01*
X100410458Y-80573158D01*
X100505696Y-80573158D01*
X100553315Y-80549349D01*
X100577124Y-80525539D01*
X100600934Y-80477920D01*
X100600934Y-80382682D01*
X100577124Y-80335063D01*
X100553315Y-80311254D01*
X100505696Y-80287444D01*
X100410458Y-80287444D01*
X100362839Y-80311254D01*
X100339029Y-80335063D01*
X100315220Y-80382682D01*
%TO.C,U2*%
X63425934Y-28357185D02*
X63830696Y-28357185D01*
X63878315Y-28333375D01*
X63902124Y-28309566D01*
X63925934Y-28261947D01*
X63925934Y-28166709D01*
X63902124Y-28119090D01*
X63878315Y-28095280D01*
X63830696Y-28071471D01*
X63425934Y-28071471D01*
X63473553Y-27857185D02*
X63449744Y-27833375D01*
X63425934Y-27785756D01*
X63425934Y-27666709D01*
X63449744Y-27619090D01*
X63473553Y-27595280D01*
X63521172Y-27571471D01*
X63568791Y-27571471D01*
X63640220Y-27595280D01*
X63925934Y-27880994D01*
X63925934Y-27571471D01*
%TO.C,C57*%
X105671172Y-65704804D02*
X105647363Y-65680994D01*
X105623553Y-65609566D01*
X105623553Y-65561947D01*
X105647363Y-65490518D01*
X105694982Y-65442899D01*
X105742601Y-65419090D01*
X105837839Y-65395280D01*
X105909267Y-65395280D01*
X106004505Y-65419090D01*
X106052124Y-65442899D01*
X106099744Y-65490518D01*
X106123553Y-65561947D01*
X106123553Y-65609566D01*
X106099744Y-65680994D01*
X106075934Y-65704804D01*
X106123553Y-66157185D02*
X106123553Y-65919090D01*
X105885458Y-65895280D01*
X105909267Y-65919090D01*
X105933077Y-65966709D01*
X105933077Y-66085756D01*
X105909267Y-66133375D01*
X105885458Y-66157185D01*
X105837839Y-66180994D01*
X105718791Y-66180994D01*
X105671172Y-66157185D01*
X105647363Y-66133375D01*
X105623553Y-66085756D01*
X105623553Y-65966709D01*
X105647363Y-65919090D01*
X105671172Y-65895280D01*
X106123553Y-66347661D02*
X106123553Y-66680994D01*
X105623553Y-66466709D01*
%TO.C,R19*%
X105403315Y-120852423D02*
X105236648Y-120614328D01*
X105117601Y-120852423D02*
X105117601Y-120352423D01*
X105308077Y-120352423D01*
X105355696Y-120376233D01*
X105379505Y-120400042D01*
X105403315Y-120447661D01*
X105403315Y-120519090D01*
X105379505Y-120566709D01*
X105355696Y-120590518D01*
X105308077Y-120614328D01*
X105117601Y-120614328D01*
X105879505Y-120852423D02*
X105593791Y-120852423D01*
X105736648Y-120852423D02*
X105736648Y-120352423D01*
X105689029Y-120423852D01*
X105641410Y-120471471D01*
X105593791Y-120495280D01*
X106117601Y-120852423D02*
X106212839Y-120852423D01*
X106260458Y-120828613D01*
X106284267Y-120804804D01*
X106331886Y-120733375D01*
X106355696Y-120638137D01*
X106355696Y-120447661D01*
X106331886Y-120400042D01*
X106308077Y-120376233D01*
X106260458Y-120352423D01*
X106165220Y-120352423D01*
X106117601Y-120376233D01*
X106093791Y-120400042D01*
X106069982Y-120447661D01*
X106069982Y-120566709D01*
X106093791Y-120614328D01*
X106117601Y-120638137D01*
X106165220Y-120661947D01*
X106260458Y-120661947D01*
X106308077Y-120638137D01*
X106331886Y-120614328D01*
X106355696Y-120566709D01*
%TO.C,RN2*%
X84179505Y-69502423D02*
X84012839Y-69264328D01*
X83893791Y-69502423D02*
X83893791Y-69002423D01*
X84084267Y-69002423D01*
X84131886Y-69026233D01*
X84155696Y-69050042D01*
X84179505Y-69097661D01*
X84179505Y-69169090D01*
X84155696Y-69216709D01*
X84131886Y-69240518D01*
X84084267Y-69264328D01*
X83893791Y-69264328D01*
X84393791Y-69502423D02*
X84393791Y-69002423D01*
X84679505Y-69502423D01*
X84679505Y-69002423D01*
X84893791Y-69050042D02*
X84917601Y-69026233D01*
X84965220Y-69002423D01*
X85084267Y-69002423D01*
X85131886Y-69026233D01*
X85155696Y-69050042D01*
X85179505Y-69097661D01*
X85179505Y-69145280D01*
X85155696Y-69216709D01*
X84869982Y-69502423D01*
X85179505Y-69502423D01*
%TO.C,C74*%
X120548315Y-85229804D02*
X120524505Y-85253613D01*
X120453077Y-85277423D01*
X120405458Y-85277423D01*
X120334029Y-85253613D01*
X120286410Y-85205994D01*
X120262601Y-85158375D01*
X120238791Y-85063137D01*
X120238791Y-84991709D01*
X120262601Y-84896471D01*
X120286410Y-84848852D01*
X120334029Y-84801233D01*
X120405458Y-84777423D01*
X120453077Y-84777423D01*
X120524505Y-84801233D01*
X120548315Y-84825042D01*
X120714982Y-84777423D02*
X121048315Y-84777423D01*
X120834029Y-85277423D01*
X121453077Y-84944090D02*
X121453077Y-85277423D01*
X121334029Y-84753613D02*
X121214982Y-85110756D01*
X121524505Y-85110756D01*
%TO.C,C51*%
X103803315Y-68704804D02*
X103779505Y-68728613D01*
X103708077Y-68752423D01*
X103660458Y-68752423D01*
X103589029Y-68728613D01*
X103541410Y-68680994D01*
X103517601Y-68633375D01*
X103493791Y-68538137D01*
X103493791Y-68466709D01*
X103517601Y-68371471D01*
X103541410Y-68323852D01*
X103589029Y-68276233D01*
X103660458Y-68252423D01*
X103708077Y-68252423D01*
X103779505Y-68276233D01*
X103803315Y-68300042D01*
X104255696Y-68252423D02*
X104017601Y-68252423D01*
X103993791Y-68490518D01*
X104017601Y-68466709D01*
X104065220Y-68442899D01*
X104184267Y-68442899D01*
X104231886Y-68466709D01*
X104255696Y-68490518D01*
X104279505Y-68538137D01*
X104279505Y-68657185D01*
X104255696Y-68704804D01*
X104231886Y-68728613D01*
X104184267Y-68752423D01*
X104065220Y-68752423D01*
X104017601Y-68728613D01*
X103993791Y-68704804D01*
X104755696Y-68752423D02*
X104469982Y-68752423D01*
X104612839Y-68752423D02*
X104612839Y-68252423D01*
X104565220Y-68323852D01*
X104517601Y-68371471D01*
X104469982Y-68395280D01*
%TO.C,L12*%
X110083315Y-66752423D02*
X109845220Y-66752423D01*
X109845220Y-66252423D01*
X110511886Y-66752423D02*
X110226172Y-66752423D01*
X110369029Y-66752423D02*
X110369029Y-66252423D01*
X110321410Y-66323852D01*
X110273791Y-66371471D01*
X110226172Y-66395280D01*
X110702363Y-66300042D02*
X110726172Y-66276233D01*
X110773791Y-66252423D01*
X110892839Y-66252423D01*
X110940458Y-66276233D01*
X110964267Y-66300042D01*
X110988077Y-66347661D01*
X110988077Y-66395280D01*
X110964267Y-66466709D01*
X110678553Y-66752423D01*
X110988077Y-66752423D01*
%TO.C,C61*%
X107278315Y-69204804D02*
X107254505Y-69228613D01*
X107183077Y-69252423D01*
X107135458Y-69252423D01*
X107064029Y-69228613D01*
X107016410Y-69180994D01*
X106992601Y-69133375D01*
X106968791Y-69038137D01*
X106968791Y-68966709D01*
X106992601Y-68871471D01*
X107016410Y-68823852D01*
X107064029Y-68776233D01*
X107135458Y-68752423D01*
X107183077Y-68752423D01*
X107254505Y-68776233D01*
X107278315Y-68800042D01*
X107706886Y-68752423D02*
X107611648Y-68752423D01*
X107564029Y-68776233D01*
X107540220Y-68800042D01*
X107492601Y-68871471D01*
X107468791Y-68966709D01*
X107468791Y-69157185D01*
X107492601Y-69204804D01*
X107516410Y-69228613D01*
X107564029Y-69252423D01*
X107659267Y-69252423D01*
X107706886Y-69228613D01*
X107730696Y-69204804D01*
X107754505Y-69157185D01*
X107754505Y-69038137D01*
X107730696Y-68990518D01*
X107706886Y-68966709D01*
X107659267Y-68942899D01*
X107564029Y-68942899D01*
X107516410Y-68966709D01*
X107492601Y-68990518D01*
X107468791Y-69038137D01*
X108230696Y-69252423D02*
X107944982Y-69252423D01*
X108087839Y-69252423D02*
X108087839Y-68752423D01*
X108040220Y-68823852D01*
X107992601Y-68871471D01*
X107944982Y-68895280D01*
%TO.C,C24*%
X122653315Y-106404804D02*
X122629505Y-106428613D01*
X122558077Y-106452423D01*
X122510458Y-106452423D01*
X122439029Y-106428613D01*
X122391410Y-106380994D01*
X122367601Y-106333375D01*
X122343791Y-106238137D01*
X122343791Y-106166709D01*
X122367601Y-106071471D01*
X122391410Y-106023852D01*
X122439029Y-105976233D01*
X122510458Y-105952423D01*
X122558077Y-105952423D01*
X122629505Y-105976233D01*
X122653315Y-106000042D01*
X122843791Y-106000042D02*
X122867601Y-105976233D01*
X122915220Y-105952423D01*
X123034267Y-105952423D01*
X123081886Y-105976233D01*
X123105696Y-106000042D01*
X123129505Y-106047661D01*
X123129505Y-106095280D01*
X123105696Y-106166709D01*
X122819982Y-106452423D01*
X123129505Y-106452423D01*
X123558077Y-106119090D02*
X123558077Y-106452423D01*
X123439029Y-105928613D02*
X123319982Y-106285756D01*
X123629505Y-106285756D01*
%TO.C,H1*%
X124593791Y-25352423D02*
X124593791Y-24852423D01*
X124593791Y-25090518D02*
X124879505Y-25090518D01*
X124879505Y-25352423D02*
X124879505Y-24852423D01*
X125379505Y-25352423D02*
X125093791Y-25352423D01*
X125236648Y-25352423D02*
X125236648Y-24852423D01*
X125189029Y-24923852D01*
X125141410Y-24971471D01*
X125093791Y-24995280D01*
%TO.C,U7*%
X47193791Y-92412423D02*
X47193791Y-92817185D01*
X47217601Y-92864804D01*
X47241410Y-92888613D01*
X47289029Y-92912423D01*
X47384267Y-92912423D01*
X47431886Y-92888613D01*
X47455696Y-92864804D01*
X47479505Y-92817185D01*
X47479505Y-92412423D01*
X47669982Y-92412423D02*
X48003315Y-92412423D01*
X47789029Y-92912423D01*
%TO.C,R20*%
X105413315Y-119852423D02*
X105246648Y-119614328D01*
X105127601Y-119852423D02*
X105127601Y-119352423D01*
X105318077Y-119352423D01*
X105365696Y-119376233D01*
X105389505Y-119400042D01*
X105413315Y-119447661D01*
X105413315Y-119519090D01*
X105389505Y-119566709D01*
X105365696Y-119590518D01*
X105318077Y-119614328D01*
X105127601Y-119614328D01*
X105603791Y-119400042D02*
X105627601Y-119376233D01*
X105675220Y-119352423D01*
X105794267Y-119352423D01*
X105841886Y-119376233D01*
X105865696Y-119400042D01*
X105889505Y-119447661D01*
X105889505Y-119495280D01*
X105865696Y-119566709D01*
X105579982Y-119852423D01*
X105889505Y-119852423D01*
X106199029Y-119352423D02*
X106246648Y-119352423D01*
X106294267Y-119376233D01*
X106318077Y-119400042D01*
X106341886Y-119447661D01*
X106365696Y-119542899D01*
X106365696Y-119661947D01*
X106341886Y-119757185D01*
X106318077Y-119804804D01*
X106294267Y-119828613D01*
X106246648Y-119852423D01*
X106199029Y-119852423D01*
X106151410Y-119828613D01*
X106127601Y-119804804D01*
X106103791Y-119757185D01*
X106079982Y-119661947D01*
X106079982Y-119542899D01*
X106103791Y-119447661D01*
X106127601Y-119400042D01*
X106151410Y-119376233D01*
X106199029Y-119352423D01*
%TO.C,C45*%
X95953315Y-82954804D02*
X95929505Y-82978613D01*
X95858077Y-83002423D01*
X95810458Y-83002423D01*
X95739029Y-82978613D01*
X95691410Y-82930994D01*
X95667601Y-82883375D01*
X95643791Y-82788137D01*
X95643791Y-82716709D01*
X95667601Y-82621471D01*
X95691410Y-82573852D01*
X95739029Y-82526233D01*
X95810458Y-82502423D01*
X95858077Y-82502423D01*
X95929505Y-82526233D01*
X95953315Y-82550042D01*
X96381886Y-82669090D02*
X96381886Y-83002423D01*
X96262839Y-82478613D02*
X96143791Y-82835756D01*
X96453315Y-82835756D01*
X96881886Y-82502423D02*
X96643791Y-82502423D01*
X96619982Y-82740518D01*
X96643791Y-82716709D01*
X96691410Y-82692899D01*
X96810458Y-82692899D01*
X96858077Y-82716709D01*
X96881886Y-82740518D01*
X96905696Y-82788137D01*
X96905696Y-82907185D01*
X96881886Y-82954804D01*
X96858077Y-82978613D01*
X96810458Y-83002423D01*
X96691410Y-83002423D01*
X96643791Y-82978613D01*
X96619982Y-82954804D01*
%TO.C,C53*%
X102453315Y-79347661D02*
X102477124Y-79371471D01*
X102500934Y-79442899D01*
X102500934Y-79490518D01*
X102477124Y-79561947D01*
X102429505Y-79609566D01*
X102381886Y-79633375D01*
X102286648Y-79657185D01*
X102215220Y-79657185D01*
X102119982Y-79633375D01*
X102072363Y-79609566D01*
X102024744Y-79561947D01*
X102000934Y-79490518D01*
X102000934Y-79442899D01*
X102024744Y-79371471D01*
X102048553Y-79347661D01*
X102000934Y-78895280D02*
X102000934Y-79133375D01*
X102239029Y-79157185D01*
X102215220Y-79133375D01*
X102191410Y-79085756D01*
X102191410Y-78966709D01*
X102215220Y-78919090D01*
X102239029Y-78895280D01*
X102286648Y-78871471D01*
X102405696Y-78871471D01*
X102453315Y-78895280D01*
X102477124Y-78919090D01*
X102500934Y-78966709D01*
X102500934Y-79085756D01*
X102477124Y-79133375D01*
X102453315Y-79157185D01*
X102000934Y-78704804D02*
X102000934Y-78395280D01*
X102191410Y-78561947D01*
X102191410Y-78490518D01*
X102215220Y-78442899D01*
X102239029Y-78419090D01*
X102286648Y-78395280D01*
X102405696Y-78395280D01*
X102453315Y-78419090D01*
X102477124Y-78442899D01*
X102500934Y-78490518D01*
X102500934Y-78633375D01*
X102477124Y-78680994D01*
X102453315Y-78704804D01*
%TO.C,C46*%
X100203315Y-77454804D02*
X100179505Y-77478613D01*
X100108077Y-77502423D01*
X100060458Y-77502423D01*
X99989029Y-77478613D01*
X99941410Y-77430994D01*
X99917601Y-77383375D01*
X99893791Y-77288137D01*
X99893791Y-77216709D01*
X99917601Y-77121471D01*
X99941410Y-77073852D01*
X99989029Y-77026233D01*
X100060458Y-77002423D01*
X100108077Y-77002423D01*
X100179505Y-77026233D01*
X100203315Y-77050042D01*
X100631886Y-77169090D02*
X100631886Y-77502423D01*
X100512839Y-76978613D02*
X100393791Y-77335756D01*
X100703315Y-77335756D01*
X101108077Y-77002423D02*
X101012839Y-77002423D01*
X100965220Y-77026233D01*
X100941410Y-77050042D01*
X100893791Y-77121471D01*
X100869982Y-77216709D01*
X100869982Y-77407185D01*
X100893791Y-77454804D01*
X100917601Y-77478613D01*
X100965220Y-77502423D01*
X101060458Y-77502423D01*
X101108077Y-77478613D01*
X101131886Y-77454804D01*
X101155696Y-77407185D01*
X101155696Y-77288137D01*
X101131886Y-77240518D01*
X101108077Y-77216709D01*
X101060458Y-77192899D01*
X100965220Y-77192899D01*
X100917601Y-77216709D01*
X100893791Y-77240518D01*
X100869982Y-77288137D01*
%TO.C,J10*%
X126069982Y-92627423D02*
X126069982Y-92984566D01*
X126046172Y-93055994D01*
X125998553Y-93103613D01*
X125927124Y-93127423D01*
X125879505Y-93127423D01*
X126569982Y-93127423D02*
X126284267Y-93127423D01*
X126427124Y-93127423D02*
X126427124Y-92627423D01*
X126379505Y-92698852D01*
X126331886Y-92746471D01*
X126284267Y-92770280D01*
X126879505Y-92627423D02*
X126927124Y-92627423D01*
X126974744Y-92651233D01*
X126998553Y-92675042D01*
X127022363Y-92722661D01*
X127046172Y-92817899D01*
X127046172Y-92936947D01*
X127022363Y-93032185D01*
X126998553Y-93079804D01*
X126974744Y-93103613D01*
X126927124Y-93127423D01*
X126879505Y-93127423D01*
X126831886Y-93103613D01*
X126808077Y-93079804D01*
X126784267Y-93032185D01*
X126760458Y-92936947D01*
X126760458Y-92817899D01*
X126784267Y-92722661D01*
X126808077Y-92675042D01*
X126831886Y-92651233D01*
X126879505Y-92627423D01*
%TO.C,U10*%
X93905696Y-78502423D02*
X93905696Y-78907185D01*
X93929505Y-78954804D01*
X93953315Y-78978613D01*
X94000934Y-79002423D01*
X94096172Y-79002423D01*
X94143791Y-78978613D01*
X94167601Y-78954804D01*
X94191410Y-78907185D01*
X94191410Y-78502423D01*
X94691410Y-79002423D02*
X94405696Y-79002423D01*
X94548553Y-79002423D02*
X94548553Y-78502423D01*
X94500934Y-78573852D01*
X94453315Y-78621471D01*
X94405696Y-78645280D01*
X95000934Y-78502423D02*
X95048553Y-78502423D01*
X95096172Y-78526233D01*
X95119982Y-78550042D01*
X95143791Y-78597661D01*
X95167601Y-78692899D01*
X95167601Y-78811947D01*
X95143791Y-78907185D01*
X95119982Y-78954804D01*
X95096172Y-78978613D01*
X95048553Y-79002423D01*
X95000934Y-79002423D01*
X94953315Y-78978613D01*
X94929505Y-78954804D01*
X94905696Y-78907185D01*
X94881886Y-78811947D01*
X94881886Y-78692899D01*
X94905696Y-78597661D01*
X94929505Y-78550042D01*
X94953315Y-78526233D01*
X95000934Y-78502423D01*
%TO.C,C27*%
X86796172Y-115554804D02*
X86772363Y-115530994D01*
X86748553Y-115459566D01*
X86748553Y-115411947D01*
X86772363Y-115340518D01*
X86819982Y-115292899D01*
X86867601Y-115269090D01*
X86962839Y-115245280D01*
X87034267Y-115245280D01*
X87129505Y-115269090D01*
X87177124Y-115292899D01*
X87224744Y-115340518D01*
X87248553Y-115411947D01*
X87248553Y-115459566D01*
X87224744Y-115530994D01*
X87200934Y-115554804D01*
X87200934Y-115745280D02*
X87224744Y-115769090D01*
X87248553Y-115816709D01*
X87248553Y-115935756D01*
X87224744Y-115983375D01*
X87200934Y-116007185D01*
X87153315Y-116030994D01*
X87105696Y-116030994D01*
X87034267Y-116007185D01*
X86748553Y-115721471D01*
X86748553Y-116030994D01*
X87248553Y-116197661D02*
X87248553Y-116530994D01*
X86748553Y-116316709D01*
%TO.C,R5*%
X44500934Y-41245925D02*
X44262839Y-41412592D01*
X44500934Y-41531639D02*
X44000934Y-41531639D01*
X44000934Y-41341163D01*
X44024744Y-41293544D01*
X44048553Y-41269734D01*
X44096172Y-41245925D01*
X44167601Y-41245925D01*
X44215220Y-41269734D01*
X44239029Y-41293544D01*
X44262839Y-41341163D01*
X44262839Y-41531639D01*
X44000934Y-40793544D02*
X44000934Y-41031639D01*
X44239029Y-41055449D01*
X44215220Y-41031639D01*
X44191410Y-40984020D01*
X44191410Y-40864972D01*
X44215220Y-40817353D01*
X44239029Y-40793544D01*
X44286648Y-40769734D01*
X44405696Y-40769734D01*
X44453315Y-40793544D01*
X44477124Y-40817353D01*
X44500934Y-40864972D01*
X44500934Y-40984020D01*
X44477124Y-41031639D01*
X44453315Y-41055449D01*
%TO.C,C73*%
X121753315Y-60597661D02*
X121777124Y-60621471D01*
X121800934Y-60692899D01*
X121800934Y-60740518D01*
X121777124Y-60811947D01*
X121729505Y-60859566D01*
X121681886Y-60883375D01*
X121586648Y-60907185D01*
X121515220Y-60907185D01*
X121419982Y-60883375D01*
X121372363Y-60859566D01*
X121324744Y-60811947D01*
X121300934Y-60740518D01*
X121300934Y-60692899D01*
X121324744Y-60621471D01*
X121348553Y-60597661D01*
X121300934Y-60430994D02*
X121300934Y-60097661D01*
X121800934Y-60311947D01*
X121300934Y-59954804D02*
X121300934Y-59645280D01*
X121491410Y-59811947D01*
X121491410Y-59740518D01*
X121515220Y-59692899D01*
X121539029Y-59669090D01*
X121586648Y-59645280D01*
X121705696Y-59645280D01*
X121753315Y-59669090D01*
X121777124Y-59692899D01*
X121800934Y-59740518D01*
X121800934Y-59883375D01*
X121777124Y-59930994D01*
X121753315Y-59954804D01*
%TO.C,C29*%
X85796172Y-115534804D02*
X85772363Y-115510994D01*
X85748553Y-115439566D01*
X85748553Y-115391947D01*
X85772363Y-115320518D01*
X85819982Y-115272899D01*
X85867601Y-115249090D01*
X85962839Y-115225280D01*
X86034267Y-115225280D01*
X86129505Y-115249090D01*
X86177124Y-115272899D01*
X86224744Y-115320518D01*
X86248553Y-115391947D01*
X86248553Y-115439566D01*
X86224744Y-115510994D01*
X86200934Y-115534804D01*
X86200934Y-115725280D02*
X86224744Y-115749090D01*
X86248553Y-115796709D01*
X86248553Y-115915756D01*
X86224744Y-115963375D01*
X86200934Y-115987185D01*
X86153315Y-116010994D01*
X86105696Y-116010994D01*
X86034267Y-115987185D01*
X85748553Y-115701471D01*
X85748553Y-116010994D01*
X85748553Y-116249090D02*
X85748553Y-116344328D01*
X85772363Y-116391947D01*
X85796172Y-116415756D01*
X85867601Y-116463375D01*
X85962839Y-116487185D01*
X86153315Y-116487185D01*
X86200934Y-116463375D01*
X86224744Y-116439566D01*
X86248553Y-116391947D01*
X86248553Y-116296709D01*
X86224744Y-116249090D01*
X86200934Y-116225280D01*
X86153315Y-116201471D01*
X86034267Y-116201471D01*
X85986648Y-116225280D01*
X85962839Y-116249090D01*
X85939029Y-116296709D01*
X85939029Y-116391947D01*
X85962839Y-116439566D01*
X85986648Y-116463375D01*
X86034267Y-116487185D01*
%TO.C,L11*%
X107453315Y-79002423D02*
X107215220Y-79002423D01*
X107215220Y-78502423D01*
X107881886Y-79002423D02*
X107596172Y-79002423D01*
X107739029Y-79002423D02*
X107739029Y-78502423D01*
X107691410Y-78573852D01*
X107643791Y-78621471D01*
X107596172Y-78645280D01*
X108358077Y-79002423D02*
X108072363Y-79002423D01*
X108215220Y-79002423D02*
X108215220Y-78502423D01*
X108167601Y-78573852D01*
X108119982Y-78621471D01*
X108072363Y-78645280D01*
%TO.C,R25*%
X62515815Y-97977423D02*
X62349148Y-97739328D01*
X62230101Y-97977423D02*
X62230101Y-97477423D01*
X62420577Y-97477423D01*
X62468196Y-97501233D01*
X62492005Y-97525042D01*
X62515815Y-97572661D01*
X62515815Y-97644090D01*
X62492005Y-97691709D01*
X62468196Y-97715518D01*
X62420577Y-97739328D01*
X62230101Y-97739328D01*
X62706291Y-97525042D02*
X62730101Y-97501233D01*
X62777720Y-97477423D01*
X62896767Y-97477423D01*
X62944386Y-97501233D01*
X62968196Y-97525042D01*
X62992005Y-97572661D01*
X62992005Y-97620280D01*
X62968196Y-97691709D01*
X62682482Y-97977423D01*
X62992005Y-97977423D01*
X63444386Y-97477423D02*
X63206291Y-97477423D01*
X63182482Y-97715518D01*
X63206291Y-97691709D01*
X63253910Y-97667899D01*
X63372958Y-97667899D01*
X63420577Y-97691709D01*
X63444386Y-97715518D01*
X63468196Y-97763137D01*
X63468196Y-97882185D01*
X63444386Y-97929804D01*
X63420577Y-97953613D01*
X63372958Y-97977423D01*
X63253910Y-97977423D01*
X63206291Y-97953613D01*
X63182482Y-97929804D01*
%TO.C,J11*%
X79569982Y-113352423D02*
X79569982Y-113709566D01*
X79546172Y-113780994D01*
X79498553Y-113828613D01*
X79427124Y-113852423D01*
X79379505Y-113852423D01*
X80069982Y-113852423D02*
X79784267Y-113852423D01*
X79927124Y-113852423D02*
X79927124Y-113352423D01*
X79879505Y-113423852D01*
X79831886Y-113471471D01*
X79784267Y-113495280D01*
X80546172Y-113852423D02*
X80260458Y-113852423D01*
X80403315Y-113852423D02*
X80403315Y-113352423D01*
X80355696Y-113423852D01*
X80308077Y-113471471D01*
X80260458Y-113495280D01*
%TO.C,L2*%
X101191410Y-68502423D02*
X100953315Y-68502423D01*
X100953315Y-68002423D01*
X101334267Y-68050042D02*
X101358077Y-68026233D01*
X101405696Y-68002423D01*
X101524744Y-68002423D01*
X101572363Y-68026233D01*
X101596172Y-68050042D01*
X101619982Y-68097661D01*
X101619982Y-68145280D01*
X101596172Y-68216709D01*
X101310458Y-68502423D01*
X101619982Y-68502423D01*
%TO.C,L10*%
X107028315Y-66752423D02*
X106790220Y-66752423D01*
X106790220Y-66252423D01*
X107456886Y-66752423D02*
X107171172Y-66752423D01*
X107314029Y-66752423D02*
X107314029Y-66252423D01*
X107266410Y-66323852D01*
X107218791Y-66371471D01*
X107171172Y-66395280D01*
X107766410Y-66252423D02*
X107814029Y-66252423D01*
X107861648Y-66276233D01*
X107885458Y-66300042D01*
X107909267Y-66347661D01*
X107933077Y-66442899D01*
X107933077Y-66561947D01*
X107909267Y-66657185D01*
X107885458Y-66704804D01*
X107861648Y-66728613D01*
X107814029Y-66752423D01*
X107766410Y-66752423D01*
X107718791Y-66728613D01*
X107694982Y-66704804D01*
X107671172Y-66657185D01*
X107647363Y-66561947D01*
X107647363Y-66442899D01*
X107671172Y-66347661D01*
X107694982Y-66300042D01*
X107718791Y-66276233D01*
X107766410Y-66252423D01*
%TO.C,U9*%
X92600934Y-72907185D02*
X93005696Y-72907185D01*
X93053315Y-72883375D01*
X93077124Y-72859566D01*
X93100934Y-72811947D01*
X93100934Y-72716709D01*
X93077124Y-72669090D01*
X93053315Y-72645280D01*
X93005696Y-72621471D01*
X92600934Y-72621471D01*
X93100934Y-72359566D02*
X93100934Y-72264328D01*
X93077124Y-72216709D01*
X93053315Y-72192899D01*
X92981886Y-72145280D01*
X92886648Y-72121471D01*
X92696172Y-72121471D01*
X92648553Y-72145280D01*
X92624744Y-72169090D01*
X92600934Y-72216709D01*
X92600934Y-72311947D01*
X92624744Y-72359566D01*
X92648553Y-72383375D01*
X92696172Y-72407185D01*
X92815220Y-72407185D01*
X92862839Y-72383375D01*
X92886648Y-72359566D01*
X92910458Y-72311947D01*
X92910458Y-72216709D01*
X92886648Y-72169090D01*
X92862839Y-72145280D01*
X92815220Y-72121471D01*
%TO.C,R10*%
X81700934Y-92507661D02*
X81462839Y-92674328D01*
X81700934Y-92793375D02*
X81200934Y-92793375D01*
X81200934Y-92602899D01*
X81224744Y-92555280D01*
X81248553Y-92531471D01*
X81296172Y-92507661D01*
X81367601Y-92507661D01*
X81415220Y-92531471D01*
X81439029Y-92555280D01*
X81462839Y-92602899D01*
X81462839Y-92793375D01*
X81700934Y-92031471D02*
X81700934Y-92317185D01*
X81700934Y-92174328D02*
X81200934Y-92174328D01*
X81272363Y-92221947D01*
X81319982Y-92269566D01*
X81343791Y-92317185D01*
X81200934Y-91721947D02*
X81200934Y-91674328D01*
X81224744Y-91626709D01*
X81248553Y-91602899D01*
X81296172Y-91579090D01*
X81391410Y-91555280D01*
X81510458Y-91555280D01*
X81605696Y-91579090D01*
X81653315Y-91602899D01*
X81677124Y-91626709D01*
X81700934Y-91674328D01*
X81700934Y-91721947D01*
X81677124Y-91769566D01*
X81653315Y-91793375D01*
X81605696Y-91817185D01*
X81510458Y-91840994D01*
X81391410Y-91840994D01*
X81296172Y-91817185D01*
X81248553Y-91793375D01*
X81224744Y-91769566D01*
X81200934Y-91721947D01*
%TO.C,J14*%
X125919982Y-82552423D02*
X125919982Y-82909566D01*
X125896172Y-82980994D01*
X125848553Y-83028613D01*
X125777124Y-83052423D01*
X125729505Y-83052423D01*
X126419982Y-83052423D02*
X126134267Y-83052423D01*
X126277124Y-83052423D02*
X126277124Y-82552423D01*
X126229505Y-82623852D01*
X126181886Y-82671471D01*
X126134267Y-82695280D01*
X126848553Y-82719090D02*
X126848553Y-83052423D01*
X126729505Y-82528613D02*
X126610458Y-82885756D01*
X126919982Y-82885756D01*
%TO.C,L1*%
X40048553Y-71557899D02*
X40048553Y-71319804D01*
X40548553Y-71319804D01*
X40048553Y-71986471D02*
X40048553Y-71700756D01*
X40048553Y-71843613D02*
X40548553Y-71843613D01*
X40477124Y-71795994D01*
X40429505Y-71748375D01*
X40405696Y-71700756D01*
%TO.C,R18*%
X105413315Y-118852423D02*
X105246648Y-118614328D01*
X105127601Y-118852423D02*
X105127601Y-118352423D01*
X105318077Y-118352423D01*
X105365696Y-118376233D01*
X105389505Y-118400042D01*
X105413315Y-118447661D01*
X105413315Y-118519090D01*
X105389505Y-118566709D01*
X105365696Y-118590518D01*
X105318077Y-118614328D01*
X105127601Y-118614328D01*
X105889505Y-118852423D02*
X105603791Y-118852423D01*
X105746648Y-118852423D02*
X105746648Y-118352423D01*
X105699029Y-118423852D01*
X105651410Y-118471471D01*
X105603791Y-118495280D01*
X106175220Y-118566709D02*
X106127601Y-118542899D01*
X106103791Y-118519090D01*
X106079982Y-118471471D01*
X106079982Y-118447661D01*
X106103791Y-118400042D01*
X106127601Y-118376233D01*
X106175220Y-118352423D01*
X106270458Y-118352423D01*
X106318077Y-118376233D01*
X106341886Y-118400042D01*
X106365696Y-118447661D01*
X106365696Y-118471471D01*
X106341886Y-118519090D01*
X106318077Y-118542899D01*
X106270458Y-118566709D01*
X106175220Y-118566709D01*
X106127601Y-118590518D01*
X106103791Y-118614328D01*
X106079982Y-118661947D01*
X106079982Y-118757185D01*
X106103791Y-118804804D01*
X106127601Y-118828613D01*
X106175220Y-118852423D01*
X106270458Y-118852423D01*
X106318077Y-118828613D01*
X106341886Y-118804804D01*
X106365696Y-118757185D01*
X106365696Y-118661947D01*
X106341886Y-118614328D01*
X106318077Y-118590518D01*
X106270458Y-118566709D01*
%TO.C,C9*%
X36253315Y-78009566D02*
X36277124Y-78033375D01*
X36300934Y-78104804D01*
X36300934Y-78152423D01*
X36277124Y-78223852D01*
X36229505Y-78271471D01*
X36181886Y-78295280D01*
X36086648Y-78319090D01*
X36015220Y-78319090D01*
X35919982Y-78295280D01*
X35872363Y-78271471D01*
X35824744Y-78223852D01*
X35800934Y-78152423D01*
X35800934Y-78104804D01*
X35824744Y-78033375D01*
X35848553Y-78009566D01*
X36300934Y-77771471D02*
X36300934Y-77676233D01*
X36277124Y-77628613D01*
X36253315Y-77604804D01*
X36181886Y-77557185D01*
X36086648Y-77533375D01*
X35896172Y-77533375D01*
X35848553Y-77557185D01*
X35824744Y-77580994D01*
X35800934Y-77628613D01*
X35800934Y-77723852D01*
X35824744Y-77771471D01*
X35848553Y-77795280D01*
X35896172Y-77819090D01*
X36015220Y-77819090D01*
X36062839Y-77795280D01*
X36086648Y-77771471D01*
X36110458Y-77723852D01*
X36110458Y-77628613D01*
X36086648Y-77580994D01*
X36062839Y-77557185D01*
X36015220Y-77533375D01*
%TO.C,R11*%
X90903315Y-115352423D02*
X90736648Y-115114328D01*
X90617601Y-115352423D02*
X90617601Y-114852423D01*
X90808077Y-114852423D01*
X90855696Y-114876233D01*
X90879505Y-114900042D01*
X90903315Y-114947661D01*
X90903315Y-115019090D01*
X90879505Y-115066709D01*
X90855696Y-115090518D01*
X90808077Y-115114328D01*
X90617601Y-115114328D01*
X91379505Y-115352423D02*
X91093791Y-115352423D01*
X91236648Y-115352423D02*
X91236648Y-114852423D01*
X91189029Y-114923852D01*
X91141410Y-114971471D01*
X91093791Y-114995280D01*
X91855696Y-115352423D02*
X91569982Y-115352423D01*
X91712839Y-115352423D02*
X91712839Y-114852423D01*
X91665220Y-114923852D01*
X91617601Y-114971471D01*
X91569982Y-114995280D01*
%TO.C,H3*%
X34593791Y-25352423D02*
X34593791Y-24852423D01*
X34593791Y-25090518D02*
X34879505Y-25090518D01*
X34879505Y-25352423D02*
X34879505Y-24852423D01*
X35069982Y-24852423D02*
X35379505Y-24852423D01*
X35212839Y-25042899D01*
X35284267Y-25042899D01*
X35331886Y-25066709D01*
X35355696Y-25090518D01*
X35379505Y-25138137D01*
X35379505Y-25257185D01*
X35355696Y-25304804D01*
X35331886Y-25328613D01*
X35284267Y-25352423D01*
X35141410Y-25352423D01*
X35093791Y-25328613D01*
X35069982Y-25304804D01*
%TO.C,C56*%
X105803315Y-74954804D02*
X105779505Y-74978613D01*
X105708077Y-75002423D01*
X105660458Y-75002423D01*
X105589029Y-74978613D01*
X105541410Y-74930994D01*
X105517601Y-74883375D01*
X105493791Y-74788137D01*
X105493791Y-74716709D01*
X105517601Y-74621471D01*
X105541410Y-74573852D01*
X105589029Y-74526233D01*
X105660458Y-74502423D01*
X105708077Y-74502423D01*
X105779505Y-74526233D01*
X105803315Y-74550042D01*
X106255696Y-74502423D02*
X106017601Y-74502423D01*
X105993791Y-74740518D01*
X106017601Y-74716709D01*
X106065220Y-74692899D01*
X106184267Y-74692899D01*
X106231886Y-74716709D01*
X106255696Y-74740518D01*
X106279505Y-74788137D01*
X106279505Y-74907185D01*
X106255696Y-74954804D01*
X106231886Y-74978613D01*
X106184267Y-75002423D01*
X106065220Y-75002423D01*
X106017601Y-74978613D01*
X105993791Y-74954804D01*
X106708077Y-74502423D02*
X106612839Y-74502423D01*
X106565220Y-74526233D01*
X106541410Y-74550042D01*
X106493791Y-74621471D01*
X106469982Y-74716709D01*
X106469982Y-74907185D01*
X106493791Y-74954804D01*
X106517601Y-74978613D01*
X106565220Y-75002423D01*
X106660458Y-75002423D01*
X106708077Y-74978613D01*
X106731886Y-74954804D01*
X106755696Y-74907185D01*
X106755696Y-74788137D01*
X106731886Y-74740518D01*
X106708077Y-74716709D01*
X106660458Y-74692899D01*
X106565220Y-74692899D01*
X106517601Y-74716709D01*
X106493791Y-74740518D01*
X106469982Y-74788137D01*
%TO.C,C71*%
X122503315Y-64454804D02*
X122479505Y-64478613D01*
X122408077Y-64502423D01*
X122360458Y-64502423D01*
X122289029Y-64478613D01*
X122241410Y-64430994D01*
X122217601Y-64383375D01*
X122193791Y-64288137D01*
X122193791Y-64216709D01*
X122217601Y-64121471D01*
X122241410Y-64073852D01*
X122289029Y-64026233D01*
X122360458Y-64002423D01*
X122408077Y-64002423D01*
X122479505Y-64026233D01*
X122503315Y-64050042D01*
X122669982Y-64002423D02*
X123003315Y-64002423D01*
X122789029Y-64502423D01*
X123455696Y-64502423D02*
X123169982Y-64502423D01*
X123312839Y-64502423D02*
X123312839Y-64002423D01*
X123265220Y-64073852D01*
X123217601Y-64121471D01*
X123169982Y-64145280D01*
%TO.C,C32*%
X93033315Y-62704804D02*
X93009505Y-62728613D01*
X92938077Y-62752423D01*
X92890458Y-62752423D01*
X92819029Y-62728613D01*
X92771410Y-62680994D01*
X92747601Y-62633375D01*
X92723791Y-62538137D01*
X92723791Y-62466709D01*
X92747601Y-62371471D01*
X92771410Y-62323852D01*
X92819029Y-62276233D01*
X92890458Y-62252423D01*
X92938077Y-62252423D01*
X93009505Y-62276233D01*
X93033315Y-62300042D01*
X93199982Y-62252423D02*
X93509505Y-62252423D01*
X93342839Y-62442899D01*
X93414267Y-62442899D01*
X93461886Y-62466709D01*
X93485696Y-62490518D01*
X93509505Y-62538137D01*
X93509505Y-62657185D01*
X93485696Y-62704804D01*
X93461886Y-62728613D01*
X93414267Y-62752423D01*
X93271410Y-62752423D01*
X93223791Y-62728613D01*
X93199982Y-62704804D01*
X93699982Y-62300042D02*
X93723791Y-62276233D01*
X93771410Y-62252423D01*
X93890458Y-62252423D01*
X93938077Y-62276233D01*
X93961886Y-62300042D01*
X93985696Y-62347661D01*
X93985696Y-62395280D01*
X93961886Y-62466709D01*
X93676172Y-62752423D01*
X93985696Y-62752423D01*
%TO.C,R15*%
X49403315Y-121602423D02*
X49236648Y-121364328D01*
X49117601Y-121602423D02*
X49117601Y-121102423D01*
X49308077Y-121102423D01*
X49355696Y-121126233D01*
X49379505Y-121150042D01*
X49403315Y-121197661D01*
X49403315Y-121269090D01*
X49379505Y-121316709D01*
X49355696Y-121340518D01*
X49308077Y-121364328D01*
X49117601Y-121364328D01*
X49879505Y-121602423D02*
X49593791Y-121602423D01*
X49736648Y-121602423D02*
X49736648Y-121102423D01*
X49689029Y-121173852D01*
X49641410Y-121221471D01*
X49593791Y-121245280D01*
X50331886Y-121102423D02*
X50093791Y-121102423D01*
X50069982Y-121340518D01*
X50093791Y-121316709D01*
X50141410Y-121292899D01*
X50260458Y-121292899D01*
X50308077Y-121316709D01*
X50331886Y-121340518D01*
X50355696Y-121388137D01*
X50355696Y-121507185D01*
X50331886Y-121554804D01*
X50308077Y-121578613D01*
X50260458Y-121602423D01*
X50141410Y-121602423D01*
X50093791Y-121578613D01*
X50069982Y-121554804D01*
%TO.C,C18*%
X44296172Y-114547661D02*
X44319982Y-114523852D01*
X44391410Y-114500042D01*
X44439029Y-114500042D01*
X44510458Y-114523852D01*
X44558077Y-114571471D01*
X44581886Y-114619090D01*
X44605696Y-114714328D01*
X44605696Y-114785756D01*
X44581886Y-114880994D01*
X44558077Y-114928613D01*
X44510458Y-114976233D01*
X44439029Y-115000042D01*
X44391410Y-115000042D01*
X44319982Y-114976233D01*
X44296172Y-114952423D01*
X43819982Y-114500042D02*
X44105696Y-114500042D01*
X43962839Y-114500042D02*
X43962839Y-115000042D01*
X44010458Y-114928613D01*
X44058077Y-114880994D01*
X44105696Y-114857185D01*
X43534267Y-114785756D02*
X43581886Y-114809566D01*
X43605696Y-114833375D01*
X43629505Y-114880994D01*
X43629505Y-114904804D01*
X43605696Y-114952423D01*
X43581886Y-114976233D01*
X43534267Y-115000042D01*
X43439029Y-115000042D01*
X43391410Y-114976233D01*
X43367601Y-114952423D01*
X43343791Y-114904804D01*
X43343791Y-114880994D01*
X43367601Y-114833375D01*
X43391410Y-114809566D01*
X43439029Y-114785756D01*
X43534267Y-114785756D01*
X43581886Y-114761947D01*
X43605696Y-114738137D01*
X43629505Y-114690518D01*
X43629505Y-114595280D01*
X43605696Y-114547661D01*
X43581886Y-114523852D01*
X43534267Y-114500042D01*
X43439029Y-114500042D01*
X43391410Y-114523852D01*
X43367601Y-114547661D01*
X43343791Y-114595280D01*
X43343791Y-114690518D01*
X43367601Y-114738137D01*
X43391410Y-114761947D01*
X43439029Y-114785756D01*
%TO.C,U3*%
X43393791Y-46352423D02*
X43393791Y-46757185D01*
X43417601Y-46804804D01*
X43441410Y-46828613D01*
X43489029Y-46852423D01*
X43584267Y-46852423D01*
X43631886Y-46828613D01*
X43655696Y-46804804D01*
X43679505Y-46757185D01*
X43679505Y-46352423D01*
X43869982Y-46352423D02*
X44179505Y-46352423D01*
X44012839Y-46542899D01*
X44084267Y-46542899D01*
X44131886Y-46566709D01*
X44155696Y-46590518D01*
X44179505Y-46638137D01*
X44179505Y-46757185D01*
X44155696Y-46804804D01*
X44131886Y-46828613D01*
X44084267Y-46852423D01*
X43941410Y-46852423D01*
X43893791Y-46828613D01*
X43869982Y-46804804D01*
%TO.C,R27*%
X97000934Y-78684020D02*
X96762839Y-78850687D01*
X97000934Y-78969734D02*
X96500934Y-78969734D01*
X96500934Y-78779258D01*
X96524744Y-78731639D01*
X96548553Y-78707830D01*
X96596172Y-78684020D01*
X96667601Y-78684020D01*
X96715220Y-78707830D01*
X96739029Y-78731639D01*
X96762839Y-78779258D01*
X96762839Y-78969734D01*
X96548553Y-78493544D02*
X96524744Y-78469734D01*
X96500934Y-78422115D01*
X96500934Y-78303068D01*
X96524744Y-78255449D01*
X96548553Y-78231639D01*
X96596172Y-78207830D01*
X96643791Y-78207830D01*
X96715220Y-78231639D01*
X97000934Y-78517353D01*
X97000934Y-78207830D01*
X96500934Y-78041163D02*
X96500934Y-77707830D01*
X97000934Y-77922115D01*
%TO.C,J5*%
X40900934Y-30792899D02*
X41258077Y-30792899D01*
X41329505Y-30816709D01*
X41377124Y-30864328D01*
X41400934Y-30935756D01*
X41400934Y-30983375D01*
X40900934Y-30316709D02*
X40900934Y-30554804D01*
X41139029Y-30578613D01*
X41115220Y-30554804D01*
X41091410Y-30507185D01*
X41091410Y-30388137D01*
X41115220Y-30340518D01*
X41139029Y-30316709D01*
X41186648Y-30292899D01*
X41305696Y-30292899D01*
X41353315Y-30316709D01*
X41377124Y-30340518D01*
X41400934Y-30388137D01*
X41400934Y-30507185D01*
X41377124Y-30554804D01*
X41353315Y-30578613D01*
%TO.C,R23*%
X68315815Y-106252423D02*
X68149148Y-106014328D01*
X68030101Y-106252423D02*
X68030101Y-105752423D01*
X68220577Y-105752423D01*
X68268196Y-105776233D01*
X68292005Y-105800042D01*
X68315815Y-105847661D01*
X68315815Y-105919090D01*
X68292005Y-105966709D01*
X68268196Y-105990518D01*
X68220577Y-106014328D01*
X68030101Y-106014328D01*
X68506291Y-105800042D02*
X68530101Y-105776233D01*
X68577720Y-105752423D01*
X68696767Y-105752423D01*
X68744386Y-105776233D01*
X68768196Y-105800042D01*
X68792005Y-105847661D01*
X68792005Y-105895280D01*
X68768196Y-105966709D01*
X68482482Y-106252423D01*
X68792005Y-106252423D01*
X68958672Y-105752423D02*
X69268196Y-105752423D01*
X69101529Y-105942899D01*
X69172958Y-105942899D01*
X69220577Y-105966709D01*
X69244386Y-105990518D01*
X69268196Y-106038137D01*
X69268196Y-106157185D01*
X69244386Y-106204804D01*
X69220577Y-106228613D01*
X69172958Y-106252423D01*
X69030101Y-106252423D01*
X68982482Y-106228613D01*
X68958672Y-106204804D01*
%TO.C,C10*%
X44013315Y-48054804D02*
X43989505Y-48078613D01*
X43918077Y-48102423D01*
X43870458Y-48102423D01*
X43799029Y-48078613D01*
X43751410Y-48030994D01*
X43727601Y-47983375D01*
X43703791Y-47888137D01*
X43703791Y-47816709D01*
X43727601Y-47721471D01*
X43751410Y-47673852D01*
X43799029Y-47626233D01*
X43870458Y-47602423D01*
X43918077Y-47602423D01*
X43989505Y-47626233D01*
X44013315Y-47650042D01*
X44489505Y-48102423D02*
X44203791Y-48102423D01*
X44346648Y-48102423D02*
X44346648Y-47602423D01*
X44299029Y-47673852D01*
X44251410Y-47721471D01*
X44203791Y-47745280D01*
X44799029Y-47602423D02*
X44846648Y-47602423D01*
X44894267Y-47626233D01*
X44918077Y-47650042D01*
X44941886Y-47697661D01*
X44965696Y-47792899D01*
X44965696Y-47911947D01*
X44941886Y-48007185D01*
X44918077Y-48054804D01*
X44894267Y-48078613D01*
X44846648Y-48102423D01*
X44799029Y-48102423D01*
X44751410Y-48078613D01*
X44727601Y-48054804D01*
X44703791Y-48007185D01*
X44679982Y-47911947D01*
X44679982Y-47792899D01*
X44703791Y-47697661D01*
X44727601Y-47650042D01*
X44751410Y-47626233D01*
X44799029Y-47602423D01*
%TO.C,C36*%
X103303315Y-73204804D02*
X103279505Y-73228613D01*
X103208077Y-73252423D01*
X103160458Y-73252423D01*
X103089029Y-73228613D01*
X103041410Y-73180994D01*
X103017601Y-73133375D01*
X102993791Y-73038137D01*
X102993791Y-72966709D01*
X103017601Y-72871471D01*
X103041410Y-72823852D01*
X103089029Y-72776233D01*
X103160458Y-72752423D01*
X103208077Y-72752423D01*
X103279505Y-72776233D01*
X103303315Y-72800042D01*
X103469982Y-72752423D02*
X103779505Y-72752423D01*
X103612839Y-72942899D01*
X103684267Y-72942899D01*
X103731886Y-72966709D01*
X103755696Y-72990518D01*
X103779505Y-73038137D01*
X103779505Y-73157185D01*
X103755696Y-73204804D01*
X103731886Y-73228613D01*
X103684267Y-73252423D01*
X103541410Y-73252423D01*
X103493791Y-73228613D01*
X103469982Y-73204804D01*
X104208077Y-72752423D02*
X104112839Y-72752423D01*
X104065220Y-72776233D01*
X104041410Y-72800042D01*
X103993791Y-72871471D01*
X103969982Y-72966709D01*
X103969982Y-73157185D01*
X103993791Y-73204804D01*
X104017601Y-73228613D01*
X104065220Y-73252423D01*
X104160458Y-73252423D01*
X104208077Y-73228613D01*
X104231886Y-73204804D01*
X104255696Y-73157185D01*
X104255696Y-73038137D01*
X104231886Y-72990518D01*
X104208077Y-72966709D01*
X104160458Y-72942899D01*
X104065220Y-72942899D01*
X104017601Y-72966709D01*
X103993791Y-72990518D01*
X103969982Y-73038137D01*
%TO.C,R21*%
X69105815Y-98027423D02*
X68939148Y-97789328D01*
X68820101Y-98027423D02*
X68820101Y-97527423D01*
X69010577Y-97527423D01*
X69058196Y-97551233D01*
X69082005Y-97575042D01*
X69105815Y-97622661D01*
X69105815Y-97694090D01*
X69082005Y-97741709D01*
X69058196Y-97765518D01*
X69010577Y-97789328D01*
X68820101Y-97789328D01*
X69296291Y-97575042D02*
X69320101Y-97551233D01*
X69367720Y-97527423D01*
X69486767Y-97527423D01*
X69534386Y-97551233D01*
X69558196Y-97575042D01*
X69582005Y-97622661D01*
X69582005Y-97670280D01*
X69558196Y-97741709D01*
X69272482Y-98027423D01*
X69582005Y-98027423D01*
X70058196Y-98027423D02*
X69772482Y-98027423D01*
X69915339Y-98027423D02*
X69915339Y-97527423D01*
X69867720Y-97598852D01*
X69820101Y-97646471D01*
X69772482Y-97670280D01*
%TO.C,C64*%
X109453315Y-79387661D02*
X109477124Y-79411471D01*
X109500934Y-79482899D01*
X109500934Y-79530518D01*
X109477124Y-79601947D01*
X109429505Y-79649566D01*
X109381886Y-79673375D01*
X109286648Y-79697185D01*
X109215220Y-79697185D01*
X109119982Y-79673375D01*
X109072363Y-79649566D01*
X109024744Y-79601947D01*
X109000934Y-79530518D01*
X109000934Y-79482899D01*
X109024744Y-79411471D01*
X109048553Y-79387661D01*
X109000934Y-78959090D02*
X109000934Y-79054328D01*
X109024744Y-79101947D01*
X109048553Y-79125756D01*
X109119982Y-79173375D01*
X109215220Y-79197185D01*
X109405696Y-79197185D01*
X109453315Y-79173375D01*
X109477124Y-79149566D01*
X109500934Y-79101947D01*
X109500934Y-79006709D01*
X109477124Y-78959090D01*
X109453315Y-78935280D01*
X109405696Y-78911471D01*
X109286648Y-78911471D01*
X109239029Y-78935280D01*
X109215220Y-78959090D01*
X109191410Y-79006709D01*
X109191410Y-79101947D01*
X109215220Y-79149566D01*
X109239029Y-79173375D01*
X109286648Y-79197185D01*
X109167601Y-78482899D02*
X109500934Y-78482899D01*
X108977124Y-78601947D02*
X109334267Y-78720994D01*
X109334267Y-78411471D01*
%TO.C,C12*%
X41913315Y-49754804D02*
X41889505Y-49778613D01*
X41818077Y-49802423D01*
X41770458Y-49802423D01*
X41699029Y-49778613D01*
X41651410Y-49730994D01*
X41627601Y-49683375D01*
X41603791Y-49588137D01*
X41603791Y-49516709D01*
X41627601Y-49421471D01*
X41651410Y-49373852D01*
X41699029Y-49326233D01*
X41770458Y-49302423D01*
X41818077Y-49302423D01*
X41889505Y-49326233D01*
X41913315Y-49350042D01*
X42389505Y-49802423D02*
X42103791Y-49802423D01*
X42246648Y-49802423D02*
X42246648Y-49302423D01*
X42199029Y-49373852D01*
X42151410Y-49421471D01*
X42103791Y-49445280D01*
X42579982Y-49350042D02*
X42603791Y-49326233D01*
X42651410Y-49302423D01*
X42770458Y-49302423D01*
X42818077Y-49326233D01*
X42841886Y-49350042D01*
X42865696Y-49397661D01*
X42865696Y-49445280D01*
X42841886Y-49516709D01*
X42556172Y-49802423D01*
X42865696Y-49802423D01*
%TO.C,C59*%
X106453315Y-79347661D02*
X106477124Y-79371471D01*
X106500934Y-79442899D01*
X106500934Y-79490518D01*
X106477124Y-79561947D01*
X106429505Y-79609566D01*
X106381886Y-79633375D01*
X106286648Y-79657185D01*
X106215220Y-79657185D01*
X106119982Y-79633375D01*
X106072363Y-79609566D01*
X106024744Y-79561947D01*
X106000934Y-79490518D01*
X106000934Y-79442899D01*
X106024744Y-79371471D01*
X106048553Y-79347661D01*
X106000934Y-78895280D02*
X106000934Y-79133375D01*
X106239029Y-79157185D01*
X106215220Y-79133375D01*
X106191410Y-79085756D01*
X106191410Y-78966709D01*
X106215220Y-78919090D01*
X106239029Y-78895280D01*
X106286648Y-78871471D01*
X106405696Y-78871471D01*
X106453315Y-78895280D01*
X106477124Y-78919090D01*
X106500934Y-78966709D01*
X106500934Y-79085756D01*
X106477124Y-79133375D01*
X106453315Y-79157185D01*
X106500934Y-78633375D02*
X106500934Y-78538137D01*
X106477124Y-78490518D01*
X106453315Y-78466709D01*
X106381886Y-78419090D01*
X106286648Y-78395280D01*
X106096172Y-78395280D01*
X106048553Y-78419090D01*
X106024744Y-78442899D01*
X106000934Y-78490518D01*
X106000934Y-78585756D01*
X106024744Y-78633375D01*
X106048553Y-78657185D01*
X106096172Y-78680994D01*
X106215220Y-78680994D01*
X106262839Y-78657185D01*
X106286648Y-78633375D01*
X106310458Y-78585756D01*
X106310458Y-78490518D01*
X106286648Y-78442899D01*
X106262839Y-78419090D01*
X106215220Y-78395280D01*
%TO.C,U6*%
X57843791Y-107202423D02*
X57843791Y-107607185D01*
X57867601Y-107654804D01*
X57891410Y-107678613D01*
X57939029Y-107702423D01*
X58034267Y-107702423D01*
X58081886Y-107678613D01*
X58105696Y-107654804D01*
X58129505Y-107607185D01*
X58129505Y-107202423D01*
X58581886Y-107202423D02*
X58486648Y-107202423D01*
X58439029Y-107226233D01*
X58415220Y-107250042D01*
X58367601Y-107321471D01*
X58343791Y-107416709D01*
X58343791Y-107607185D01*
X58367601Y-107654804D01*
X58391410Y-107678613D01*
X58439029Y-107702423D01*
X58534267Y-107702423D01*
X58581886Y-107678613D01*
X58605696Y-107654804D01*
X58629505Y-107607185D01*
X58629505Y-107488137D01*
X58605696Y-107440518D01*
X58581886Y-107416709D01*
X58534267Y-107392899D01*
X58439029Y-107392899D01*
X58391410Y-107416709D01*
X58367601Y-107440518D01*
X58343791Y-107488137D01*
%TO.C,R22*%
X67115815Y-98027423D02*
X66949148Y-97789328D01*
X66830101Y-98027423D02*
X66830101Y-97527423D01*
X67020577Y-97527423D01*
X67068196Y-97551233D01*
X67092005Y-97575042D01*
X67115815Y-97622661D01*
X67115815Y-97694090D01*
X67092005Y-97741709D01*
X67068196Y-97765518D01*
X67020577Y-97789328D01*
X66830101Y-97789328D01*
X67306291Y-97575042D02*
X67330101Y-97551233D01*
X67377720Y-97527423D01*
X67496767Y-97527423D01*
X67544386Y-97551233D01*
X67568196Y-97575042D01*
X67592005Y-97622661D01*
X67592005Y-97670280D01*
X67568196Y-97741709D01*
X67282482Y-98027423D01*
X67592005Y-98027423D01*
X67782482Y-97575042D02*
X67806291Y-97551233D01*
X67853910Y-97527423D01*
X67972958Y-97527423D01*
X68020577Y-97551233D01*
X68044386Y-97575042D01*
X68068196Y-97622661D01*
X68068196Y-97670280D01*
X68044386Y-97741709D01*
X67758672Y-98027423D01*
X68068196Y-98027423D01*
%TO.C,C38*%
X97703315Y-62597661D02*
X97727124Y-62621471D01*
X97750934Y-62692899D01*
X97750934Y-62740518D01*
X97727124Y-62811947D01*
X97679505Y-62859566D01*
X97631886Y-62883375D01*
X97536648Y-62907185D01*
X97465220Y-62907185D01*
X97369982Y-62883375D01*
X97322363Y-62859566D01*
X97274744Y-62811947D01*
X97250934Y-62740518D01*
X97250934Y-62692899D01*
X97274744Y-62621471D01*
X97298553Y-62597661D01*
X97250934Y-62430994D02*
X97250934Y-62121471D01*
X97441410Y-62288137D01*
X97441410Y-62216709D01*
X97465220Y-62169090D01*
X97489029Y-62145280D01*
X97536648Y-62121471D01*
X97655696Y-62121471D01*
X97703315Y-62145280D01*
X97727124Y-62169090D01*
X97750934Y-62216709D01*
X97750934Y-62359566D01*
X97727124Y-62407185D01*
X97703315Y-62430994D01*
X97465220Y-61835756D02*
X97441410Y-61883375D01*
X97417601Y-61907185D01*
X97369982Y-61930994D01*
X97346172Y-61930994D01*
X97298553Y-61907185D01*
X97274744Y-61883375D01*
X97250934Y-61835756D01*
X97250934Y-61740518D01*
X97274744Y-61692899D01*
X97298553Y-61669090D01*
X97346172Y-61645280D01*
X97369982Y-61645280D01*
X97417601Y-61669090D01*
X97441410Y-61692899D01*
X97465220Y-61740518D01*
X97465220Y-61835756D01*
X97489029Y-61883375D01*
X97512839Y-61907185D01*
X97560458Y-61930994D01*
X97655696Y-61930994D01*
X97703315Y-61907185D01*
X97727124Y-61883375D01*
X97750934Y-61835756D01*
X97750934Y-61740518D01*
X97727124Y-61692899D01*
X97703315Y-61669090D01*
X97655696Y-61645280D01*
X97560458Y-61645280D01*
X97512839Y-61669090D01*
X97489029Y-61692899D01*
X97465220Y-61740518D01*
%TO.C,R6*%
X47091410Y-33152423D02*
X46924744Y-32914328D01*
X46805696Y-33152423D02*
X46805696Y-32652423D01*
X46996172Y-32652423D01*
X47043791Y-32676233D01*
X47067601Y-32700042D01*
X47091410Y-32747661D01*
X47091410Y-32819090D01*
X47067601Y-32866709D01*
X47043791Y-32890518D01*
X46996172Y-32914328D01*
X46805696Y-32914328D01*
X47519982Y-32652423D02*
X47424744Y-32652423D01*
X47377124Y-32676233D01*
X47353315Y-32700042D01*
X47305696Y-32771471D01*
X47281886Y-32866709D01*
X47281886Y-33057185D01*
X47305696Y-33104804D01*
X47329505Y-33128613D01*
X47377124Y-33152423D01*
X47472363Y-33152423D01*
X47519982Y-33128613D01*
X47543791Y-33104804D01*
X47567601Y-33057185D01*
X47567601Y-32938137D01*
X47543791Y-32890518D01*
X47519982Y-32866709D01*
X47472363Y-32842899D01*
X47377124Y-32842899D01*
X47329505Y-32866709D01*
X47305696Y-32890518D01*
X47281886Y-32938137D01*
%TO.C,C55*%
X103453315Y-77704804D02*
X103429505Y-77728613D01*
X103358077Y-77752423D01*
X103310458Y-77752423D01*
X103239029Y-77728613D01*
X103191410Y-77680994D01*
X103167601Y-77633375D01*
X103143791Y-77538137D01*
X103143791Y-77466709D01*
X103167601Y-77371471D01*
X103191410Y-77323852D01*
X103239029Y-77276233D01*
X103310458Y-77252423D01*
X103358077Y-77252423D01*
X103429505Y-77276233D01*
X103453315Y-77300042D01*
X103905696Y-77252423D02*
X103667601Y-77252423D01*
X103643791Y-77490518D01*
X103667601Y-77466709D01*
X103715220Y-77442899D01*
X103834267Y-77442899D01*
X103881886Y-77466709D01*
X103905696Y-77490518D01*
X103929505Y-77538137D01*
X103929505Y-77657185D01*
X103905696Y-77704804D01*
X103881886Y-77728613D01*
X103834267Y-77752423D01*
X103715220Y-77752423D01*
X103667601Y-77728613D01*
X103643791Y-77704804D01*
X104381886Y-77252423D02*
X104143791Y-77252423D01*
X104119982Y-77490518D01*
X104143791Y-77466709D01*
X104191410Y-77442899D01*
X104310458Y-77442899D01*
X104358077Y-77466709D01*
X104381886Y-77490518D01*
X104405696Y-77538137D01*
X104405696Y-77657185D01*
X104381886Y-77704804D01*
X104358077Y-77728613D01*
X104310458Y-77752423D01*
X104191410Y-77752423D01*
X104143791Y-77728613D01*
X104119982Y-77704804D01*
%TO.C,R16*%
X58653315Y-121602423D02*
X58486648Y-121364328D01*
X58367601Y-121602423D02*
X58367601Y-121102423D01*
X58558077Y-121102423D01*
X58605696Y-121126233D01*
X58629505Y-121150042D01*
X58653315Y-121197661D01*
X58653315Y-121269090D01*
X58629505Y-121316709D01*
X58605696Y-121340518D01*
X58558077Y-121364328D01*
X58367601Y-121364328D01*
X59129505Y-121602423D02*
X58843791Y-121602423D01*
X58986648Y-121602423D02*
X58986648Y-121102423D01*
X58939029Y-121173852D01*
X58891410Y-121221471D01*
X58843791Y-121245280D01*
X59558077Y-121102423D02*
X59462839Y-121102423D01*
X59415220Y-121126233D01*
X59391410Y-121150042D01*
X59343791Y-121221471D01*
X59319982Y-121316709D01*
X59319982Y-121507185D01*
X59343791Y-121554804D01*
X59367601Y-121578613D01*
X59415220Y-121602423D01*
X59510458Y-121602423D01*
X59558077Y-121578613D01*
X59581886Y-121554804D01*
X59605696Y-121507185D01*
X59605696Y-121388137D01*
X59581886Y-121340518D01*
X59558077Y-121316709D01*
X59510458Y-121292899D01*
X59415220Y-121292899D01*
X59367601Y-121316709D01*
X59343791Y-121340518D01*
X59319982Y-121388137D01*
%TO.C,C54*%
X102303315Y-68097661D02*
X102327124Y-68121471D01*
X102350934Y-68192899D01*
X102350934Y-68240518D01*
X102327124Y-68311947D01*
X102279505Y-68359566D01*
X102231886Y-68383375D01*
X102136648Y-68407185D01*
X102065220Y-68407185D01*
X101969982Y-68383375D01*
X101922363Y-68359566D01*
X101874744Y-68311947D01*
X101850934Y-68240518D01*
X101850934Y-68192899D01*
X101874744Y-68121471D01*
X101898553Y-68097661D01*
X101850934Y-67645280D02*
X101850934Y-67883375D01*
X102089029Y-67907185D01*
X102065220Y-67883375D01*
X102041410Y-67835756D01*
X102041410Y-67716709D01*
X102065220Y-67669090D01*
X102089029Y-67645280D01*
X102136648Y-67621471D01*
X102255696Y-67621471D01*
X102303315Y-67645280D01*
X102327124Y-67669090D01*
X102350934Y-67716709D01*
X102350934Y-67835756D01*
X102327124Y-67883375D01*
X102303315Y-67907185D01*
X102017601Y-67192899D02*
X102350934Y-67192899D01*
X101827124Y-67311947D02*
X102184267Y-67430994D01*
X102184267Y-67121471D01*
%TO.C,R12*%
X81700934Y-94487661D02*
X81462839Y-94654328D01*
X81700934Y-94773375D02*
X81200934Y-94773375D01*
X81200934Y-94582899D01*
X81224744Y-94535280D01*
X81248553Y-94511471D01*
X81296172Y-94487661D01*
X81367601Y-94487661D01*
X81415220Y-94511471D01*
X81439029Y-94535280D01*
X81462839Y-94582899D01*
X81462839Y-94773375D01*
X81700934Y-94011471D02*
X81700934Y-94297185D01*
X81700934Y-94154328D02*
X81200934Y-94154328D01*
X81272363Y-94201947D01*
X81319982Y-94249566D01*
X81343791Y-94297185D01*
X81248553Y-93820994D02*
X81224744Y-93797185D01*
X81200934Y-93749566D01*
X81200934Y-93630518D01*
X81224744Y-93582899D01*
X81248553Y-93559090D01*
X81296172Y-93535280D01*
X81343791Y-93535280D01*
X81415220Y-93559090D01*
X81700934Y-93844804D01*
X81700934Y-93535280D01*
%TO.C,H2*%
X124593791Y-115852423D02*
X124593791Y-115352423D01*
X124593791Y-115590518D02*
X124879505Y-115590518D01*
X124879505Y-115852423D02*
X124879505Y-115352423D01*
X125093791Y-115400042D02*
X125117601Y-115376233D01*
X125165220Y-115352423D01*
X125284267Y-115352423D01*
X125331886Y-115376233D01*
X125355696Y-115400042D01*
X125379505Y-115447661D01*
X125379505Y-115495280D01*
X125355696Y-115566709D01*
X125069982Y-115852423D01*
X125379505Y-115852423D01*
%TO.C,C41*%
X115028315Y-76367661D02*
X115052124Y-76391471D01*
X115075934Y-76462899D01*
X115075934Y-76510518D01*
X115052124Y-76581947D01*
X115004505Y-76629566D01*
X114956886Y-76653375D01*
X114861648Y-76677185D01*
X114790220Y-76677185D01*
X114694982Y-76653375D01*
X114647363Y-76629566D01*
X114599744Y-76581947D01*
X114575934Y-76510518D01*
X114575934Y-76462899D01*
X114599744Y-76391471D01*
X114623553Y-76367661D01*
X114742601Y-75939090D02*
X115075934Y-75939090D01*
X114552124Y-76058137D02*
X114909267Y-76177185D01*
X114909267Y-75867661D01*
X115075934Y-75415280D02*
X115075934Y-75700994D01*
X115075934Y-75558137D02*
X114575934Y-75558137D01*
X114647363Y-75605756D01*
X114694982Y-75653375D01*
X114718791Y-75700994D01*
%TO.C,L15*%
X121325934Y-83897661D02*
X121325934Y-84135756D01*
X120825934Y-84135756D01*
X121325934Y-83469090D02*
X121325934Y-83754804D01*
X121325934Y-83611947D02*
X120825934Y-83611947D01*
X120897363Y-83659566D01*
X120944982Y-83707185D01*
X120968791Y-83754804D01*
X120825934Y-83016709D02*
X120825934Y-83254804D01*
X121064029Y-83278613D01*
X121040220Y-83254804D01*
X121016410Y-83207185D01*
X121016410Y-83088137D01*
X121040220Y-83040518D01*
X121064029Y-83016709D01*
X121111648Y-82992899D01*
X121230696Y-82992899D01*
X121278315Y-83016709D01*
X121302124Y-83040518D01*
X121325934Y-83088137D01*
X121325934Y-83207185D01*
X121302124Y-83254804D01*
X121278315Y-83278613D01*
%TO.C,C23*%
X122653315Y-105404804D02*
X122629505Y-105428613D01*
X122558077Y-105452423D01*
X122510458Y-105452423D01*
X122439029Y-105428613D01*
X122391410Y-105380994D01*
X122367601Y-105333375D01*
X122343791Y-105238137D01*
X122343791Y-105166709D01*
X122367601Y-105071471D01*
X122391410Y-105023852D01*
X122439029Y-104976233D01*
X122510458Y-104952423D01*
X122558077Y-104952423D01*
X122629505Y-104976233D01*
X122653315Y-105000042D01*
X122843791Y-105000042D02*
X122867601Y-104976233D01*
X122915220Y-104952423D01*
X123034267Y-104952423D01*
X123081886Y-104976233D01*
X123105696Y-105000042D01*
X123129505Y-105047661D01*
X123129505Y-105095280D01*
X123105696Y-105166709D01*
X122819982Y-105452423D01*
X123129505Y-105452423D01*
X123296172Y-104952423D02*
X123605696Y-104952423D01*
X123439029Y-105142899D01*
X123510458Y-105142899D01*
X123558077Y-105166709D01*
X123581886Y-105190518D01*
X123605696Y-105238137D01*
X123605696Y-105357185D01*
X123581886Y-105404804D01*
X123558077Y-105428613D01*
X123510458Y-105452423D01*
X123367601Y-105452423D01*
X123319982Y-105428613D01*
X123296172Y-105404804D01*
%TO.C,C1*%
X42891410Y-103254804D02*
X42867601Y-103278613D01*
X42796172Y-103302423D01*
X42748553Y-103302423D01*
X42677124Y-103278613D01*
X42629505Y-103230994D01*
X42605696Y-103183375D01*
X42581886Y-103088137D01*
X42581886Y-103016709D01*
X42605696Y-102921471D01*
X42629505Y-102873852D01*
X42677124Y-102826233D01*
X42748553Y-102802423D01*
X42796172Y-102802423D01*
X42867601Y-102826233D01*
X42891410Y-102850042D01*
X43367601Y-103302423D02*
X43081886Y-103302423D01*
X43224744Y-103302423D02*
X43224744Y-102802423D01*
X43177124Y-102873852D01*
X43129505Y-102921471D01*
X43081886Y-102945280D01*
%TO.C,L5*%
X98941410Y-77502423D02*
X98703315Y-77502423D01*
X98703315Y-77002423D01*
X99346172Y-77002423D02*
X99108077Y-77002423D01*
X99084267Y-77240518D01*
X99108077Y-77216709D01*
X99155696Y-77192899D01*
X99274744Y-77192899D01*
X99322363Y-77216709D01*
X99346172Y-77240518D01*
X99369982Y-77288137D01*
X99369982Y-77407185D01*
X99346172Y-77454804D01*
X99322363Y-77478613D01*
X99274744Y-77502423D01*
X99155696Y-77502423D01*
X99108077Y-77478613D01*
X99084267Y-77454804D01*
%TO.C,C66*%
X110453315Y-76204804D02*
X110429505Y-76228613D01*
X110358077Y-76252423D01*
X110310458Y-76252423D01*
X110239029Y-76228613D01*
X110191410Y-76180994D01*
X110167601Y-76133375D01*
X110143791Y-76038137D01*
X110143791Y-75966709D01*
X110167601Y-75871471D01*
X110191410Y-75823852D01*
X110239029Y-75776233D01*
X110310458Y-75752423D01*
X110358077Y-75752423D01*
X110429505Y-75776233D01*
X110453315Y-75800042D01*
X110881886Y-75752423D02*
X110786648Y-75752423D01*
X110739029Y-75776233D01*
X110715220Y-75800042D01*
X110667601Y-75871471D01*
X110643791Y-75966709D01*
X110643791Y-76157185D01*
X110667601Y-76204804D01*
X110691410Y-76228613D01*
X110739029Y-76252423D01*
X110834267Y-76252423D01*
X110881886Y-76228613D01*
X110905696Y-76204804D01*
X110929505Y-76157185D01*
X110929505Y-76038137D01*
X110905696Y-75990518D01*
X110881886Y-75966709D01*
X110834267Y-75942899D01*
X110739029Y-75942899D01*
X110691410Y-75966709D01*
X110667601Y-75990518D01*
X110643791Y-76038137D01*
X111358077Y-75752423D02*
X111262839Y-75752423D01*
X111215220Y-75776233D01*
X111191410Y-75800042D01*
X111143791Y-75871471D01*
X111119982Y-75966709D01*
X111119982Y-76157185D01*
X111143791Y-76204804D01*
X111167601Y-76228613D01*
X111215220Y-76252423D01*
X111310458Y-76252423D01*
X111358077Y-76228613D01*
X111381886Y-76204804D01*
X111405696Y-76157185D01*
X111405696Y-76038137D01*
X111381886Y-75990518D01*
X111358077Y-75966709D01*
X111310458Y-75942899D01*
X111215220Y-75942899D01*
X111167601Y-75966709D01*
X111143791Y-75990518D01*
X111119982Y-76038137D01*
%TO.C,H4*%
X34593791Y-115352423D02*
X34593791Y-114852423D01*
X34593791Y-115090518D02*
X34879505Y-115090518D01*
X34879505Y-115352423D02*
X34879505Y-114852423D01*
X35331886Y-115019090D02*
X35331886Y-115352423D01*
X35212839Y-114828613D02*
X35093791Y-115185756D01*
X35403315Y-115185756D01*
%TO.C,C69*%
X116953315Y-65847661D02*
X116977124Y-65871471D01*
X117000934Y-65942899D01*
X117000934Y-65990518D01*
X116977124Y-66061947D01*
X116929505Y-66109566D01*
X116881886Y-66133375D01*
X116786648Y-66157185D01*
X116715220Y-66157185D01*
X116619982Y-66133375D01*
X116572363Y-66109566D01*
X116524744Y-66061947D01*
X116500934Y-65990518D01*
X116500934Y-65942899D01*
X116524744Y-65871471D01*
X116548553Y-65847661D01*
X116500934Y-65419090D02*
X116500934Y-65514328D01*
X116524744Y-65561947D01*
X116548553Y-65585756D01*
X116619982Y-65633375D01*
X116715220Y-65657185D01*
X116905696Y-65657185D01*
X116953315Y-65633375D01*
X116977124Y-65609566D01*
X117000934Y-65561947D01*
X117000934Y-65466709D01*
X116977124Y-65419090D01*
X116953315Y-65395280D01*
X116905696Y-65371471D01*
X116786648Y-65371471D01*
X116739029Y-65395280D01*
X116715220Y-65419090D01*
X116691410Y-65466709D01*
X116691410Y-65561947D01*
X116715220Y-65609566D01*
X116739029Y-65633375D01*
X116786648Y-65657185D01*
X117000934Y-65133375D02*
X117000934Y-65038137D01*
X116977124Y-64990518D01*
X116953315Y-64966709D01*
X116881886Y-64919090D01*
X116786648Y-64895280D01*
X116596172Y-64895280D01*
X116548553Y-64919090D01*
X116524744Y-64942899D01*
X116500934Y-64990518D01*
X116500934Y-65085756D01*
X116524744Y-65133375D01*
X116548553Y-65157185D01*
X116596172Y-65180994D01*
X116715220Y-65180994D01*
X116762839Y-65157185D01*
X116786648Y-65133375D01*
X116810458Y-65085756D01*
X116810458Y-64990518D01*
X116786648Y-64942899D01*
X116762839Y-64919090D01*
X116715220Y-64895280D01*
%TO.C,C52*%
X102303315Y-81454804D02*
X102279505Y-81478613D01*
X102208077Y-81502423D01*
X102160458Y-81502423D01*
X102089029Y-81478613D01*
X102041410Y-81430994D01*
X102017601Y-81383375D01*
X101993791Y-81288137D01*
X101993791Y-81216709D01*
X102017601Y-81121471D01*
X102041410Y-81073852D01*
X102089029Y-81026233D01*
X102160458Y-81002423D01*
X102208077Y-81002423D01*
X102279505Y-81026233D01*
X102303315Y-81050042D01*
X102755696Y-81002423D02*
X102517601Y-81002423D01*
X102493791Y-81240518D01*
X102517601Y-81216709D01*
X102565220Y-81192899D01*
X102684267Y-81192899D01*
X102731886Y-81216709D01*
X102755696Y-81240518D01*
X102779505Y-81288137D01*
X102779505Y-81407185D01*
X102755696Y-81454804D01*
X102731886Y-81478613D01*
X102684267Y-81502423D01*
X102565220Y-81502423D01*
X102517601Y-81478613D01*
X102493791Y-81454804D01*
X102969982Y-81050042D02*
X102993791Y-81026233D01*
X103041410Y-81002423D01*
X103160458Y-81002423D01*
X103208077Y-81026233D01*
X103231886Y-81050042D01*
X103255696Y-81097661D01*
X103255696Y-81145280D01*
X103231886Y-81216709D01*
X102946172Y-81502423D01*
X103255696Y-81502423D01*
%TO.C,D3*%
X65468196Y-104277423D02*
X65468196Y-103777423D01*
X65587244Y-103777423D01*
X65658672Y-103801233D01*
X65706291Y-103848852D01*
X65730101Y-103896471D01*
X65753910Y-103991709D01*
X65753910Y-104063137D01*
X65730101Y-104158375D01*
X65706291Y-104205994D01*
X65658672Y-104253613D01*
X65587244Y-104277423D01*
X65468196Y-104277423D01*
X65920577Y-103777423D02*
X66230101Y-103777423D01*
X66063434Y-103967899D01*
X66134863Y-103967899D01*
X66182482Y-103991709D01*
X66206291Y-104015518D01*
X66230101Y-104063137D01*
X66230101Y-104182185D01*
X66206291Y-104229804D01*
X66182482Y-104253613D01*
X66134863Y-104277423D01*
X65992005Y-104277423D01*
X65944386Y-104253613D01*
X65920577Y-104229804D01*
%TO.C,D1*%
X70068196Y-104452423D02*
X70068196Y-103952423D01*
X70187244Y-103952423D01*
X70258672Y-103976233D01*
X70306291Y-104023852D01*
X70330101Y-104071471D01*
X70353910Y-104166709D01*
X70353910Y-104238137D01*
X70330101Y-104333375D01*
X70306291Y-104380994D01*
X70258672Y-104428613D01*
X70187244Y-104452423D01*
X70068196Y-104452423D01*
X70830101Y-104452423D02*
X70544386Y-104452423D01*
X70687244Y-104452423D02*
X70687244Y-103952423D01*
X70639624Y-104023852D01*
X70592005Y-104071471D01*
X70544386Y-104095280D01*
%TO.C,U1*%
X47243791Y-88002423D02*
X47243791Y-88407185D01*
X47267601Y-88454804D01*
X47291410Y-88478613D01*
X47339029Y-88502423D01*
X47434267Y-88502423D01*
X47481886Y-88478613D01*
X47505696Y-88454804D01*
X47529505Y-88407185D01*
X47529505Y-88002423D01*
X48029505Y-88502423D02*
X47743791Y-88502423D01*
X47886648Y-88502423D02*
X47886648Y-88002423D01*
X47839029Y-88073852D01*
X47791410Y-88121471D01*
X47743791Y-88145280D01*
%TO.C,J15*%
X99919982Y-58152423D02*
X99919982Y-58509566D01*
X99896172Y-58580994D01*
X99848553Y-58628613D01*
X99777124Y-58652423D01*
X99729505Y-58652423D01*
X100419982Y-58652423D02*
X100134267Y-58652423D01*
X100277124Y-58652423D02*
X100277124Y-58152423D01*
X100229505Y-58223852D01*
X100181886Y-58271471D01*
X100134267Y-58295280D01*
X100872363Y-58152423D02*
X100634267Y-58152423D01*
X100610458Y-58390518D01*
X100634267Y-58366709D01*
X100681886Y-58342899D01*
X100800934Y-58342899D01*
X100848553Y-58366709D01*
X100872363Y-58390518D01*
X100896172Y-58438137D01*
X100896172Y-58557185D01*
X100872363Y-58604804D01*
X100848553Y-58628613D01*
X100800934Y-58652423D01*
X100681886Y-58652423D01*
X100634267Y-58628613D01*
X100610458Y-58604804D01*
%TO.C,C68*%
X112453315Y-79347661D02*
X112477124Y-79371471D01*
X112500934Y-79442899D01*
X112500934Y-79490518D01*
X112477124Y-79561947D01*
X112429505Y-79609566D01*
X112381886Y-79633375D01*
X112286648Y-79657185D01*
X112215220Y-79657185D01*
X112119982Y-79633375D01*
X112072363Y-79609566D01*
X112024744Y-79561947D01*
X112000934Y-79490518D01*
X112000934Y-79442899D01*
X112024744Y-79371471D01*
X112048553Y-79347661D01*
X112000934Y-78919090D02*
X112000934Y-79014328D01*
X112024744Y-79061947D01*
X112048553Y-79085756D01*
X112119982Y-79133375D01*
X112215220Y-79157185D01*
X112405696Y-79157185D01*
X112453315Y-79133375D01*
X112477124Y-79109566D01*
X112500934Y-79061947D01*
X112500934Y-78966709D01*
X112477124Y-78919090D01*
X112453315Y-78895280D01*
X112405696Y-78871471D01*
X112286648Y-78871471D01*
X112239029Y-78895280D01*
X112215220Y-78919090D01*
X112191410Y-78966709D01*
X112191410Y-79061947D01*
X112215220Y-79109566D01*
X112239029Y-79133375D01*
X112286648Y-79157185D01*
X112215220Y-78585756D02*
X112191410Y-78633375D01*
X112167601Y-78657185D01*
X112119982Y-78680994D01*
X112096172Y-78680994D01*
X112048553Y-78657185D01*
X112024744Y-78633375D01*
X112000934Y-78585756D01*
X112000934Y-78490518D01*
X112024744Y-78442899D01*
X112048553Y-78419090D01*
X112096172Y-78395280D01*
X112119982Y-78395280D01*
X112167601Y-78419090D01*
X112191410Y-78442899D01*
X112215220Y-78490518D01*
X112215220Y-78585756D01*
X112239029Y-78633375D01*
X112262839Y-78657185D01*
X112310458Y-78680994D01*
X112405696Y-78680994D01*
X112453315Y-78657185D01*
X112477124Y-78633375D01*
X112500934Y-78585756D01*
X112500934Y-78490518D01*
X112477124Y-78442899D01*
X112453315Y-78419090D01*
X112405696Y-78395280D01*
X112310458Y-78395280D01*
X112262839Y-78419090D01*
X112239029Y-78442899D01*
X112215220Y-78490518D01*
%TO.C,C20*%
X120046172Y-94554804D02*
X120022363Y-94530994D01*
X119998553Y-94459566D01*
X119998553Y-94411947D01*
X120022363Y-94340518D01*
X120069982Y-94292899D01*
X120117601Y-94269090D01*
X120212839Y-94245280D01*
X120284267Y-94245280D01*
X120379505Y-94269090D01*
X120427124Y-94292899D01*
X120474744Y-94340518D01*
X120498553Y-94411947D01*
X120498553Y-94459566D01*
X120474744Y-94530994D01*
X120450934Y-94554804D01*
X120450934Y-94745280D02*
X120474744Y-94769090D01*
X120498553Y-94816709D01*
X120498553Y-94935756D01*
X120474744Y-94983375D01*
X120450934Y-95007185D01*
X120403315Y-95030994D01*
X120355696Y-95030994D01*
X120284267Y-95007185D01*
X119998553Y-94721471D01*
X119998553Y-95030994D01*
X120498553Y-95340518D02*
X120498553Y-95388137D01*
X120474744Y-95435756D01*
X120450934Y-95459566D01*
X120403315Y-95483375D01*
X120308077Y-95507185D01*
X120189029Y-95507185D01*
X120093791Y-95483375D01*
X120046172Y-95459566D01*
X120022363Y-95435756D01*
X119998553Y-95388137D01*
X119998553Y-95340518D01*
X120022363Y-95292899D01*
X120046172Y-95269090D01*
X120093791Y-95245280D01*
X120189029Y-95221471D01*
X120308077Y-95221471D01*
X120403315Y-95245280D01*
X120450934Y-95269090D01*
X120474744Y-95292899D01*
X120498553Y-95340518D01*
%TO.C,C3*%
X53091410Y-43504804D02*
X53067601Y-43528613D01*
X52996172Y-43552423D01*
X52948553Y-43552423D01*
X52877124Y-43528613D01*
X52829505Y-43480994D01*
X52805696Y-43433375D01*
X52781886Y-43338137D01*
X52781886Y-43266709D01*
X52805696Y-43171471D01*
X52829505Y-43123852D01*
X52877124Y-43076233D01*
X52948553Y-43052423D01*
X52996172Y-43052423D01*
X53067601Y-43076233D01*
X53091410Y-43100042D01*
X53258077Y-43052423D02*
X53567601Y-43052423D01*
X53400934Y-43242899D01*
X53472363Y-43242899D01*
X53519982Y-43266709D01*
X53543791Y-43290518D01*
X53567601Y-43338137D01*
X53567601Y-43457185D01*
X53543791Y-43504804D01*
X53519982Y-43528613D01*
X53472363Y-43552423D01*
X53329505Y-43552423D01*
X53281886Y-43528613D01*
X53258077Y-43504804D01*
%TO.C,C42*%
X92703315Y-75097661D02*
X92727124Y-75121471D01*
X92750934Y-75192899D01*
X92750934Y-75240518D01*
X92727124Y-75311947D01*
X92679505Y-75359566D01*
X92631886Y-75383375D01*
X92536648Y-75407185D01*
X92465220Y-75407185D01*
X92369982Y-75383375D01*
X92322363Y-75359566D01*
X92274744Y-75311947D01*
X92250934Y-75240518D01*
X92250934Y-75192899D01*
X92274744Y-75121471D01*
X92298553Y-75097661D01*
X92417601Y-74669090D02*
X92750934Y-74669090D01*
X92227124Y-74788137D02*
X92584267Y-74907185D01*
X92584267Y-74597661D01*
X92298553Y-74430994D02*
X92274744Y-74407185D01*
X92250934Y-74359566D01*
X92250934Y-74240518D01*
X92274744Y-74192899D01*
X92298553Y-74169090D01*
X92346172Y-74145280D01*
X92393791Y-74145280D01*
X92465220Y-74169090D01*
X92750934Y-74454804D01*
X92750934Y-74145280D01*
%TO.C,Y1*%
X93136648Y-68514328D02*
X93136648Y-68752423D01*
X92969982Y-68252423D02*
X93136648Y-68514328D01*
X93303315Y-68252423D01*
X93731886Y-68752423D02*
X93446172Y-68752423D01*
X93589029Y-68752423D02*
X93589029Y-68252423D01*
X93541410Y-68323852D01*
X93493791Y-68371471D01*
X93446172Y-68395280D01*
%TO.C,J1*%
X36038077Y-99482423D02*
X36038077Y-99839566D01*
X36014267Y-99910994D01*
X35966648Y-99958613D01*
X35895220Y-99982423D01*
X35847601Y-99982423D01*
X36538077Y-99982423D02*
X36252363Y-99982423D01*
X36395220Y-99982423D02*
X36395220Y-99482423D01*
X36347601Y-99553852D01*
X36299982Y-99601471D01*
X36252363Y-99625280D01*
%TO.C,L6*%
X104791410Y-69752423D02*
X104553315Y-69752423D01*
X104553315Y-69252423D01*
X105172363Y-69252423D02*
X105077124Y-69252423D01*
X105029505Y-69276233D01*
X105005696Y-69300042D01*
X104958077Y-69371471D01*
X104934267Y-69466709D01*
X104934267Y-69657185D01*
X104958077Y-69704804D01*
X104981886Y-69728613D01*
X105029505Y-69752423D01*
X105124744Y-69752423D01*
X105172363Y-69728613D01*
X105196172Y-69704804D01*
X105219982Y-69657185D01*
X105219982Y-69538137D01*
X105196172Y-69490518D01*
X105172363Y-69466709D01*
X105124744Y-69442899D01*
X105029505Y-69442899D01*
X104981886Y-69466709D01*
X104958077Y-69490518D01*
X104934267Y-69538137D01*
%TO.C,J9*%
X36038077Y-50862423D02*
X36038077Y-51219566D01*
X36014267Y-51290994D01*
X35966648Y-51338613D01*
X35895220Y-51362423D01*
X35847601Y-51362423D01*
X36299982Y-51362423D02*
X36395220Y-51362423D01*
X36442839Y-51338613D01*
X36466648Y-51314804D01*
X36514267Y-51243375D01*
X36538077Y-51148137D01*
X36538077Y-50957661D01*
X36514267Y-50910042D01*
X36490458Y-50886233D01*
X36442839Y-50862423D01*
X36347601Y-50862423D01*
X36299982Y-50886233D01*
X36276172Y-50910042D01*
X36252363Y-50957661D01*
X36252363Y-51076709D01*
X36276172Y-51124328D01*
X36299982Y-51148137D01*
X36347601Y-51171947D01*
X36442839Y-51171947D01*
X36490458Y-51148137D01*
X36514267Y-51124328D01*
X36538077Y-51076709D01*
%TO.C,R29*%
X105073315Y-81502423D02*
X104906648Y-81264328D01*
X104787601Y-81502423D02*
X104787601Y-81002423D01*
X104978077Y-81002423D01*
X105025696Y-81026233D01*
X105049505Y-81050042D01*
X105073315Y-81097661D01*
X105073315Y-81169090D01*
X105049505Y-81216709D01*
X105025696Y-81240518D01*
X104978077Y-81264328D01*
X104787601Y-81264328D01*
X105263791Y-81050042D02*
X105287601Y-81026233D01*
X105335220Y-81002423D01*
X105454267Y-81002423D01*
X105501886Y-81026233D01*
X105525696Y-81050042D01*
X105549505Y-81097661D01*
X105549505Y-81145280D01*
X105525696Y-81216709D01*
X105239982Y-81502423D01*
X105549505Y-81502423D01*
X105787601Y-81502423D02*
X105882839Y-81502423D01*
X105930458Y-81478613D01*
X105954267Y-81454804D01*
X106001886Y-81383375D01*
X106025696Y-81288137D01*
X106025696Y-81097661D01*
X106001886Y-81050042D01*
X105978077Y-81026233D01*
X105930458Y-81002423D01*
X105835220Y-81002423D01*
X105787601Y-81026233D01*
X105763791Y-81050042D01*
X105739982Y-81097661D01*
X105739982Y-81216709D01*
X105763791Y-81264328D01*
X105787601Y-81288137D01*
X105835220Y-81311947D01*
X105930458Y-81311947D01*
X105978077Y-81288137D01*
X106001886Y-81264328D01*
X106025696Y-81216709D01*
%TO.C,L3*%
X101791410Y-69752423D02*
X101553315Y-69752423D01*
X101553315Y-69252423D01*
X101910458Y-69252423D02*
X102219982Y-69252423D01*
X102053315Y-69442899D01*
X102124744Y-69442899D01*
X102172363Y-69466709D01*
X102196172Y-69490518D01*
X102219982Y-69538137D01*
X102219982Y-69657185D01*
X102196172Y-69704804D01*
X102172363Y-69728613D01*
X102124744Y-69752423D01*
X101981886Y-69752423D01*
X101934267Y-69728613D01*
X101910458Y-69704804D01*
%TO.C,C35*%
X103283315Y-74204804D02*
X103259505Y-74228613D01*
X103188077Y-74252423D01*
X103140458Y-74252423D01*
X103069029Y-74228613D01*
X103021410Y-74180994D01*
X102997601Y-74133375D01*
X102973791Y-74038137D01*
X102973791Y-73966709D01*
X102997601Y-73871471D01*
X103021410Y-73823852D01*
X103069029Y-73776233D01*
X103140458Y-73752423D01*
X103188077Y-73752423D01*
X103259505Y-73776233D01*
X103283315Y-73800042D01*
X103449982Y-73752423D02*
X103759505Y-73752423D01*
X103592839Y-73942899D01*
X103664267Y-73942899D01*
X103711886Y-73966709D01*
X103735696Y-73990518D01*
X103759505Y-74038137D01*
X103759505Y-74157185D01*
X103735696Y-74204804D01*
X103711886Y-74228613D01*
X103664267Y-74252423D01*
X103521410Y-74252423D01*
X103473791Y-74228613D01*
X103449982Y-74204804D01*
X104211886Y-73752423D02*
X103973791Y-73752423D01*
X103949982Y-73990518D01*
X103973791Y-73966709D01*
X104021410Y-73942899D01*
X104140458Y-73942899D01*
X104188077Y-73966709D01*
X104211886Y-73990518D01*
X104235696Y-74038137D01*
X104235696Y-74157185D01*
X104211886Y-74204804D01*
X104188077Y-74228613D01*
X104140458Y-74252423D01*
X104021410Y-74252423D01*
X103973791Y-74228613D01*
X103949982Y-74204804D01*
%TO.C,Q3*%
X65989624Y-99925042D02*
X65942005Y-99901233D01*
X65894386Y-99853613D01*
X65822958Y-99782185D01*
X65775339Y-99758375D01*
X65727720Y-99758375D01*
X65751529Y-99877423D02*
X65703910Y-99853613D01*
X65656291Y-99805994D01*
X65632482Y-99710756D01*
X65632482Y-99544090D01*
X65656291Y-99448852D01*
X65703910Y-99401233D01*
X65751529Y-99377423D01*
X65846767Y-99377423D01*
X65894386Y-99401233D01*
X65942005Y-99448852D01*
X65965815Y-99544090D01*
X65965815Y-99710756D01*
X65942005Y-99805994D01*
X65894386Y-99853613D01*
X65846767Y-99877423D01*
X65751529Y-99877423D01*
X66132482Y-99377423D02*
X66442005Y-99377423D01*
X66275339Y-99567899D01*
X66346767Y-99567899D01*
X66394386Y-99591709D01*
X66418196Y-99615518D01*
X66442005Y-99663137D01*
X66442005Y-99782185D01*
X66418196Y-99829804D01*
X66394386Y-99853613D01*
X66346767Y-99877423D01*
X66203910Y-99877423D01*
X66156291Y-99853613D01*
X66132482Y-99829804D01*
%TO.C,J3*%
X36078077Y-87972423D02*
X36078077Y-88329566D01*
X36054267Y-88400994D01*
X36006648Y-88448613D01*
X35935220Y-88472423D01*
X35887601Y-88472423D01*
X36268553Y-87972423D02*
X36578077Y-87972423D01*
X36411410Y-88162899D01*
X36482839Y-88162899D01*
X36530458Y-88186709D01*
X36554267Y-88210518D01*
X36578077Y-88258137D01*
X36578077Y-88377185D01*
X36554267Y-88424804D01*
X36530458Y-88448613D01*
X36482839Y-88472423D01*
X36339982Y-88472423D01*
X36292363Y-88448613D01*
X36268553Y-88424804D01*
%TO.C,R9*%
X121641410Y-95332423D02*
X121474744Y-95094328D01*
X121355696Y-95332423D02*
X121355696Y-94832423D01*
X121546172Y-94832423D01*
X121593791Y-94856233D01*
X121617601Y-94880042D01*
X121641410Y-94927661D01*
X121641410Y-94999090D01*
X121617601Y-95046709D01*
X121593791Y-95070518D01*
X121546172Y-95094328D01*
X121355696Y-95094328D01*
X121879505Y-95332423D02*
X121974744Y-95332423D01*
X122022363Y-95308613D01*
X122046172Y-95284804D01*
X122093791Y-95213375D01*
X122117601Y-95118137D01*
X122117601Y-94927661D01*
X122093791Y-94880042D01*
X122069982Y-94856233D01*
X122022363Y-94832423D01*
X121927124Y-94832423D01*
X121879505Y-94856233D01*
X121855696Y-94880042D01*
X121831886Y-94927661D01*
X121831886Y-95046709D01*
X121855696Y-95094328D01*
X121879505Y-95118137D01*
X121927124Y-95141947D01*
X122022363Y-95141947D01*
X122069982Y-95118137D01*
X122093791Y-95094328D01*
X122117601Y-95046709D01*
%TO.C,C44*%
X103303315Y-72204804D02*
X103279505Y-72228613D01*
X103208077Y-72252423D01*
X103160458Y-72252423D01*
X103089029Y-72228613D01*
X103041410Y-72180994D01*
X103017601Y-72133375D01*
X102993791Y-72038137D01*
X102993791Y-71966709D01*
X103017601Y-71871471D01*
X103041410Y-71823852D01*
X103089029Y-71776233D01*
X103160458Y-71752423D01*
X103208077Y-71752423D01*
X103279505Y-71776233D01*
X103303315Y-71800042D01*
X103731886Y-71919090D02*
X103731886Y-72252423D01*
X103612839Y-71728613D02*
X103493791Y-72085756D01*
X103803315Y-72085756D01*
X104208077Y-71919090D02*
X104208077Y-72252423D01*
X104089029Y-71728613D02*
X103969982Y-72085756D01*
X104279505Y-72085756D01*
%TO.C,RN3*%
X85679505Y-77502423D02*
X85512839Y-77264328D01*
X85393791Y-77502423D02*
X85393791Y-77002423D01*
X85584267Y-77002423D01*
X85631886Y-77026233D01*
X85655696Y-77050042D01*
X85679505Y-77097661D01*
X85679505Y-77169090D01*
X85655696Y-77216709D01*
X85631886Y-77240518D01*
X85584267Y-77264328D01*
X85393791Y-77264328D01*
X85893791Y-77502423D02*
X85893791Y-77002423D01*
X86179505Y-77502423D01*
X86179505Y-77002423D01*
X86369982Y-77002423D02*
X86679505Y-77002423D01*
X86512839Y-77192899D01*
X86584267Y-77192899D01*
X86631886Y-77216709D01*
X86655696Y-77240518D01*
X86679505Y-77288137D01*
X86679505Y-77407185D01*
X86655696Y-77454804D01*
X86631886Y-77478613D01*
X86584267Y-77502423D01*
X86441410Y-77502423D01*
X86393791Y-77478613D01*
X86369982Y-77454804D01*
%TO.C,L14*%
X121800934Y-62347661D02*
X121800934Y-62585756D01*
X121300934Y-62585756D01*
X121800934Y-61919090D02*
X121800934Y-62204804D01*
X121800934Y-62061947D02*
X121300934Y-62061947D01*
X121372363Y-62109566D01*
X121419982Y-62157185D01*
X121443791Y-62204804D01*
X121467601Y-61490518D02*
X121800934Y-61490518D01*
X121277124Y-61609566D02*
X121634267Y-61728613D01*
X121634267Y-61419090D01*
%TO.C,C11*%
X62876172Y-49857661D02*
X62899982Y-49833852D01*
X62971410Y-49810042D01*
X63019029Y-49810042D01*
X63090458Y-49833852D01*
X63138077Y-49881471D01*
X63161886Y-49929090D01*
X63185696Y-50024328D01*
X63185696Y-50095756D01*
X63161886Y-50190994D01*
X63138077Y-50238613D01*
X63090458Y-50286233D01*
X63019029Y-50310042D01*
X62971410Y-50310042D01*
X62899982Y-50286233D01*
X62876172Y-50262423D01*
X62399982Y-49810042D02*
X62685696Y-49810042D01*
X62542839Y-49810042D02*
X62542839Y-50310042D01*
X62590458Y-50238613D01*
X62638077Y-50190994D01*
X62685696Y-50167185D01*
X61923791Y-49810042D02*
X62209505Y-49810042D01*
X62066648Y-49810042D02*
X62066648Y-50310042D01*
X62114267Y-50238613D01*
X62161886Y-50190994D01*
X62209505Y-50167185D01*
%TO.C,R28*%
X104123315Y-63752423D02*
X103956648Y-63514328D01*
X103837601Y-63752423D02*
X103837601Y-63252423D01*
X104028077Y-63252423D01*
X104075696Y-63276233D01*
X104099505Y-63300042D01*
X104123315Y-63347661D01*
X104123315Y-63419090D01*
X104099505Y-63466709D01*
X104075696Y-63490518D01*
X104028077Y-63514328D01*
X103837601Y-63514328D01*
X104313791Y-63300042D02*
X104337601Y-63276233D01*
X104385220Y-63252423D01*
X104504267Y-63252423D01*
X104551886Y-63276233D01*
X104575696Y-63300042D01*
X104599505Y-63347661D01*
X104599505Y-63395280D01*
X104575696Y-63466709D01*
X104289982Y-63752423D01*
X104599505Y-63752423D01*
X104885220Y-63466709D02*
X104837601Y-63442899D01*
X104813791Y-63419090D01*
X104789982Y-63371471D01*
X104789982Y-63347661D01*
X104813791Y-63300042D01*
X104837601Y-63276233D01*
X104885220Y-63252423D01*
X104980458Y-63252423D01*
X105028077Y-63276233D01*
X105051886Y-63300042D01*
X105075696Y-63347661D01*
X105075696Y-63371471D01*
X105051886Y-63419090D01*
X105028077Y-63442899D01*
X104980458Y-63466709D01*
X104885220Y-63466709D01*
X104837601Y-63490518D01*
X104813791Y-63514328D01*
X104789982Y-63561947D01*
X104789982Y-63657185D01*
X104813791Y-63704804D01*
X104837601Y-63728613D01*
X104885220Y-63752423D01*
X104980458Y-63752423D01*
X105028077Y-63728613D01*
X105051886Y-63704804D01*
X105075696Y-63657185D01*
X105075696Y-63561947D01*
X105051886Y-63514328D01*
X105028077Y-63490518D01*
X104980458Y-63466709D01*
%TO.C,J8*%
X36038077Y-33362423D02*
X36038077Y-33719566D01*
X36014267Y-33790994D01*
X35966648Y-33838613D01*
X35895220Y-33862423D01*
X35847601Y-33862423D01*
X36347601Y-33576709D02*
X36299982Y-33552899D01*
X36276172Y-33529090D01*
X36252363Y-33481471D01*
X36252363Y-33457661D01*
X36276172Y-33410042D01*
X36299982Y-33386233D01*
X36347601Y-33362423D01*
X36442839Y-33362423D01*
X36490458Y-33386233D01*
X36514267Y-33410042D01*
X36538077Y-33457661D01*
X36538077Y-33481471D01*
X36514267Y-33529090D01*
X36490458Y-33552899D01*
X36442839Y-33576709D01*
X36347601Y-33576709D01*
X36299982Y-33600518D01*
X36276172Y-33624328D01*
X36252363Y-33671947D01*
X36252363Y-33767185D01*
X36276172Y-33814804D01*
X36299982Y-33838613D01*
X36347601Y-33862423D01*
X36442839Y-33862423D01*
X36490458Y-33838613D01*
X36514267Y-33814804D01*
X36538077Y-33767185D01*
X36538077Y-33671947D01*
X36514267Y-33624328D01*
X36490458Y-33600518D01*
X36442839Y-33576709D01*
%TO.C,C40*%
X91703315Y-82097661D02*
X91727124Y-82121471D01*
X91750934Y-82192899D01*
X91750934Y-82240518D01*
X91727124Y-82311947D01*
X91679505Y-82359566D01*
X91631886Y-82383375D01*
X91536648Y-82407185D01*
X91465220Y-82407185D01*
X91369982Y-82383375D01*
X91322363Y-82359566D01*
X91274744Y-82311947D01*
X91250934Y-82240518D01*
X91250934Y-82192899D01*
X91274744Y-82121471D01*
X91298553Y-82097661D01*
X91417601Y-81669090D02*
X91750934Y-81669090D01*
X91227124Y-81788137D02*
X91584267Y-81907185D01*
X91584267Y-81597661D01*
X91250934Y-81311947D02*
X91250934Y-81264328D01*
X91274744Y-81216709D01*
X91298553Y-81192899D01*
X91346172Y-81169090D01*
X91441410Y-81145280D01*
X91560458Y-81145280D01*
X91655696Y-81169090D01*
X91703315Y-81192899D01*
X91727124Y-81216709D01*
X91750934Y-81264328D01*
X91750934Y-81311947D01*
X91727124Y-81359566D01*
X91703315Y-81383375D01*
X91655696Y-81407185D01*
X91560458Y-81430994D01*
X91441410Y-81430994D01*
X91346172Y-81407185D01*
X91298553Y-81383375D01*
X91274744Y-81359566D01*
X91250934Y-81311947D01*
%TO.C,C31*%
X95953315Y-65847661D02*
X95977124Y-65871471D01*
X96000934Y-65942899D01*
X96000934Y-65990518D01*
X95977124Y-66061947D01*
X95929505Y-66109566D01*
X95881886Y-66133375D01*
X95786648Y-66157185D01*
X95715220Y-66157185D01*
X95619982Y-66133375D01*
X95572363Y-66109566D01*
X95524744Y-66061947D01*
X95500934Y-65990518D01*
X95500934Y-65942899D01*
X95524744Y-65871471D01*
X95548553Y-65847661D01*
X95500934Y-65680994D02*
X95500934Y-65371471D01*
X95691410Y-65538137D01*
X95691410Y-65466709D01*
X95715220Y-65419090D01*
X95739029Y-65395280D01*
X95786648Y-65371471D01*
X95905696Y-65371471D01*
X95953315Y-65395280D01*
X95977124Y-65419090D01*
X96000934Y-65466709D01*
X96000934Y-65609566D01*
X95977124Y-65657185D01*
X95953315Y-65680994D01*
X96000934Y-64895280D02*
X96000934Y-65180994D01*
X96000934Y-65038137D02*
X95500934Y-65038137D01*
X95572363Y-65085756D01*
X95619982Y-65133375D01*
X95643791Y-65180994D01*
%TO.C,R13*%
X96153315Y-115352423D02*
X95986648Y-115114328D01*
X95867601Y-115352423D02*
X95867601Y-114852423D01*
X96058077Y-114852423D01*
X96105696Y-114876233D01*
X96129505Y-114900042D01*
X96153315Y-114947661D01*
X96153315Y-115019090D01*
X96129505Y-115066709D01*
X96105696Y-115090518D01*
X96058077Y-115114328D01*
X95867601Y-115114328D01*
X96629505Y-115352423D02*
X96343791Y-115352423D01*
X96486648Y-115352423D02*
X96486648Y-114852423D01*
X96439029Y-114923852D01*
X96391410Y-114971471D01*
X96343791Y-114995280D01*
X96796172Y-114852423D02*
X97105696Y-114852423D01*
X96939029Y-115042899D01*
X97010458Y-115042899D01*
X97058077Y-115066709D01*
X97081886Y-115090518D01*
X97105696Y-115138137D01*
X97105696Y-115257185D01*
X97081886Y-115304804D01*
X97058077Y-115328613D01*
X97010458Y-115352423D01*
X96867601Y-115352423D01*
X96819982Y-115328613D01*
X96796172Y-115304804D01*
%TO.C,C33*%
X96953315Y-65847661D02*
X96977124Y-65871471D01*
X97000934Y-65942899D01*
X97000934Y-65990518D01*
X96977124Y-66061947D01*
X96929505Y-66109566D01*
X96881886Y-66133375D01*
X96786648Y-66157185D01*
X96715220Y-66157185D01*
X96619982Y-66133375D01*
X96572363Y-66109566D01*
X96524744Y-66061947D01*
X96500934Y-65990518D01*
X96500934Y-65942899D01*
X96524744Y-65871471D01*
X96548553Y-65847661D01*
X96500934Y-65680994D02*
X96500934Y-65371471D01*
X96691410Y-65538137D01*
X96691410Y-65466709D01*
X96715220Y-65419090D01*
X96739029Y-65395280D01*
X96786648Y-65371471D01*
X96905696Y-65371471D01*
X96953315Y-65395280D01*
X96977124Y-65419090D01*
X97000934Y-65466709D01*
X97000934Y-65609566D01*
X96977124Y-65657185D01*
X96953315Y-65680994D01*
X96500934Y-65204804D02*
X96500934Y-64895280D01*
X96691410Y-65061947D01*
X96691410Y-64990518D01*
X96715220Y-64942899D01*
X96739029Y-64919090D01*
X96786648Y-64895280D01*
X96905696Y-64895280D01*
X96953315Y-64919090D01*
X96977124Y-64942899D01*
X97000934Y-64990518D01*
X97000934Y-65133375D01*
X96977124Y-65180994D01*
X96953315Y-65204804D01*
%TO.C,C37*%
X91703315Y-75097661D02*
X91727124Y-75121471D01*
X91750934Y-75192899D01*
X91750934Y-75240518D01*
X91727124Y-75311947D01*
X91679505Y-75359566D01*
X91631886Y-75383375D01*
X91536648Y-75407185D01*
X91465220Y-75407185D01*
X91369982Y-75383375D01*
X91322363Y-75359566D01*
X91274744Y-75311947D01*
X91250934Y-75240518D01*
X91250934Y-75192899D01*
X91274744Y-75121471D01*
X91298553Y-75097661D01*
X91250934Y-74930994D02*
X91250934Y-74621471D01*
X91441410Y-74788137D01*
X91441410Y-74716709D01*
X91465220Y-74669090D01*
X91489029Y-74645280D01*
X91536648Y-74621471D01*
X91655696Y-74621471D01*
X91703315Y-74645280D01*
X91727124Y-74669090D01*
X91750934Y-74716709D01*
X91750934Y-74859566D01*
X91727124Y-74907185D01*
X91703315Y-74930994D01*
X91250934Y-74454804D02*
X91250934Y-74121471D01*
X91750934Y-74335756D01*
D13*
%TO.C,C26*%
X87614744Y-117734069D02*
X87614744Y-117518397D01*
X88334744Y-117734069D02*
X88334744Y-117518397D01*
%TO.C,RN1*%
X87074744Y-66696233D02*
X84974744Y-66696233D01*
X87074744Y-61356233D02*
X84974744Y-61356233D01*
%TO.C,C21*%
X47384744Y-115530670D02*
X47384744Y-116816233D01*
X48018494Y-120117483D02*
X48018494Y-119329983D01*
X46320307Y-114466233D02*
X40564744Y-114466233D01*
X40564744Y-114466233D02*
X40564744Y-116816233D01*
X46320307Y-121286233D02*
X40564744Y-121286233D01*
X48412244Y-119723733D02*
X47624744Y-119723733D01*
X47384744Y-120221796D02*
X47384744Y-118936233D01*
X40564744Y-121286233D02*
X40564744Y-118936233D01*
X47384744Y-120221796D02*
X46320307Y-121286233D01*
X47384744Y-115530670D02*
X46320307Y-114466233D01*
%TO.C,C43*%
X97164744Y-80938397D02*
X97164744Y-81154069D01*
X97884744Y-80938397D02*
X97884744Y-81154069D01*
%TO.C,C14*%
X49279181Y-53286233D02*
X50564744Y-53286233D01*
X48214744Y-46466233D02*
X50564744Y-46466233D01*
X53970307Y-53286233D02*
X52684744Y-53286233D01*
X49383494Y-53919983D02*
X50170994Y-53919983D01*
X53970307Y-53286233D02*
X55034744Y-52221796D01*
X49279181Y-53286233D02*
X48214744Y-52221796D01*
X48214744Y-52221796D02*
X48214744Y-46466233D01*
X55034744Y-46466233D02*
X52684744Y-46466233D01*
X55034744Y-52221796D02*
X55034744Y-46466233D01*
X49777244Y-54313733D02*
X49777244Y-53526233D01*
%TO.C,U8*%
X116134744Y-98716233D02*
X116134744Y-102136233D01*
X92314744Y-91066233D02*
X96184744Y-91066233D01*
X116134744Y-107816233D02*
X116134744Y-111186233D01*
X106684744Y-111186233D02*
X102964744Y-111186233D01*
X116134744Y-91066233D02*
X116134744Y-94136233D01*
X106684744Y-91066233D02*
X102964744Y-91066233D01*
X112364744Y-91066233D02*
X112364744Y-90226233D01*
X92314744Y-107816233D02*
X92314744Y-111186233D01*
X112364744Y-91066233D02*
X116134744Y-91066233D01*
X112364744Y-111186233D02*
X116134744Y-111186233D01*
X92314744Y-91066233D02*
X92314744Y-94136233D01*
X92314744Y-111186233D02*
X96184744Y-111186233D01*
%TO.C,C16*%
X54020307Y-56416233D02*
X55084744Y-57480670D01*
X49329181Y-56416233D02*
X48264744Y-57480670D01*
X55084744Y-63236233D02*
X52734744Y-63236233D01*
X55084744Y-57480670D02*
X55084744Y-63236233D01*
X53915994Y-55782483D02*
X53128494Y-55782483D01*
X48264744Y-63236233D02*
X50614744Y-63236233D01*
X49329181Y-56416233D02*
X50614744Y-56416233D01*
X54020307Y-56416233D02*
X52734744Y-56416233D01*
X53522244Y-55388733D02*
X53522244Y-56176233D01*
X48264744Y-57480670D02*
X48264744Y-63236233D01*
%TO.C,C39*%
X98164744Y-63904069D02*
X98164744Y-63688397D01*
X98884744Y-63904069D02*
X98884744Y-63688397D01*
%TO.C,R3*%
X46494744Y-31679874D02*
X46494744Y-31372592D01*
X47254744Y-31679874D02*
X47254744Y-31372592D01*
%TO.C,U4*%
X43674744Y-33166233D02*
X44474744Y-33166233D01*
X43674744Y-33166233D02*
X42874744Y-33166233D01*
X43674744Y-36286233D02*
X42874744Y-36286233D01*
X43674744Y-36286233D02*
X45474744Y-36286233D01*
%TO.C,C60*%
X108016908Y-80886233D02*
X108232580Y-80886233D01*
X108016908Y-80166233D02*
X108232580Y-80166233D01*
%TO.C,R2*%
X41371103Y-104856233D02*
X41678385Y-104856233D01*
X41371103Y-104096233D02*
X41678385Y-104096233D01*
%TO.C,C6*%
X37414744Y-70163397D02*
X37414744Y-70379069D01*
X38134744Y-70163397D02*
X38134744Y-70379069D01*
%TO.C,C5*%
X38614744Y-70183397D02*
X38614744Y-70399069D01*
X39334744Y-70183397D02*
X39334744Y-70399069D01*
%TO.C,C49*%
X102496908Y-63916233D02*
X102712580Y-63916233D01*
X102496908Y-64636233D02*
X102712580Y-64636233D01*
%TO.C,C25*%
X121266908Y-106866233D02*
X121482580Y-106866233D01*
X121266908Y-107586233D02*
X121482580Y-107586233D01*
%TO.C,R7*%
X37221103Y-74946233D02*
X37528385Y-74946233D01*
X37221103Y-75706233D02*
X37528385Y-75706233D01*
%TO.C,R17*%
X101451808Y-116361233D02*
X100997680Y-116361233D01*
X101451808Y-114891233D02*
X100997680Y-114891233D01*
%TO.C,Q2*%
X66877244Y-101051233D02*
X66877244Y-101701233D01*
X69997244Y-101051233D02*
X69997244Y-101701233D01*
X66877244Y-101051233D02*
X66877244Y-100401233D01*
X69997244Y-101051233D02*
X69997244Y-99376233D01*
%TO.C,C8*%
X41214744Y-65180670D02*
X42279181Y-64116233D01*
X41214744Y-65180670D02*
X41214744Y-66466233D01*
X41214744Y-69871796D02*
X42279181Y-70936233D01*
X41214744Y-69871796D02*
X41214744Y-68586233D01*
X42279181Y-70936233D02*
X48034744Y-70936233D01*
X40580994Y-65284983D02*
X40580994Y-66072483D01*
X48034744Y-64116233D02*
X48034744Y-66466233D01*
X48034744Y-70936233D02*
X48034744Y-68586233D01*
X42279181Y-64116233D02*
X48034744Y-64116233D01*
X40187244Y-65678733D02*
X40974744Y-65678733D01*
%TO.C,C7*%
X37184744Y-73854069D02*
X37184744Y-73638397D01*
X36464744Y-73854069D02*
X36464744Y-73638397D01*
%TO.C,R26*%
X64373603Y-105671233D02*
X64680885Y-105671233D01*
X64373603Y-106431233D02*
X64680885Y-106431233D01*
%TO.C,C70*%
X116694744Y-79154069D02*
X116694744Y-78938397D01*
X117414744Y-79154069D02*
X117414744Y-78938397D01*
%TO.C,C58*%
X106246908Y-64636233D02*
X106462580Y-64636233D01*
X106246908Y-63916233D02*
X106462580Y-63916233D01*
%TO.C,C28*%
X112786908Y-115536233D02*
X113002580Y-115536233D01*
X112786908Y-114816233D02*
X113002580Y-114816233D01*
%TO.C,Q1*%
X84974744Y-91566233D02*
X85624744Y-91566233D01*
X84974744Y-94686233D02*
X84324744Y-94686233D01*
X84974744Y-91566233D02*
X83299744Y-91566233D01*
X84974744Y-94686233D02*
X85624744Y-94686233D01*
%TO.C,C67*%
X111544744Y-67688397D02*
X111544744Y-67904069D01*
X112264744Y-67688397D02*
X112264744Y-67904069D01*
D12*
%TO.C,U5*%
X40849744Y-72301233D02*
X46124744Y-72301233D01*
X42124744Y-77701233D02*
X46124744Y-77701233D01*
D13*
%TO.C,C19*%
X123584744Y-96518397D02*
X123584744Y-96734069D01*
X122864744Y-96518397D02*
X122864744Y-96734069D01*
%TO.C,R24*%
X64683603Y-98931233D02*
X64990885Y-98931233D01*
X64683603Y-98171233D02*
X64990885Y-98171233D01*
%TO.C,C22*%
X121266908Y-104586233D02*
X121482580Y-104586233D01*
X121266908Y-103866233D02*
X121482580Y-103866233D01*
%TO.C,J2*%
X34184744Y-79936233D02*
X32414744Y-79936233D01*
X32414744Y-72316233D02*
X34184744Y-72316233D01*
X30134744Y-79936233D02*
X29874744Y-79936233D01*
X34184744Y-72316233D02*
X34184744Y-72696233D01*
X34184744Y-79936233D02*
X34184744Y-79556233D01*
X29874744Y-72316233D02*
X30134744Y-72316233D01*
%TO.C,C34*%
X115264744Y-64109069D02*
X115264744Y-63893397D01*
X115984744Y-64109069D02*
X115984744Y-63893397D01*
%TO.C,J6*%
X38844744Y-82336233D02*
X38844744Y-84996233D01*
X36244744Y-84936233D02*
X36244744Y-82336233D01*
X36244744Y-82336233D02*
X38844744Y-82336233D01*
X33644744Y-84996233D02*
X38844744Y-84996233D01*
X33644744Y-82336233D02*
X34974744Y-82336233D01*
X33644744Y-84936233D02*
X33644744Y-84996233D01*
X33644744Y-83666233D02*
X33644744Y-82336233D01*
X33644744Y-84936233D02*
X36244744Y-84936233D01*
%TO.C,C65*%
X110296908Y-68636233D02*
X110512580Y-68636233D01*
X110296908Y-67916233D02*
X110512580Y-67916233D01*
%TO.C,C4*%
X48164744Y-31436233D02*
X50514744Y-31436233D01*
X54984744Y-25680670D02*
X54984744Y-31436233D01*
X48164744Y-25680670D02*
X48164744Y-31436233D01*
X53920307Y-24616233D02*
X52634744Y-24616233D01*
X53815994Y-23982483D02*
X53028494Y-23982483D01*
X53920307Y-24616233D02*
X54984744Y-25680670D01*
X53422244Y-23588733D02*
X53422244Y-24376233D01*
X49229181Y-24616233D02*
X48164744Y-25680670D01*
X54984744Y-31436233D02*
X52634744Y-31436233D01*
X49229181Y-24616233D02*
X50514744Y-24616233D01*
%TO.C,C62*%
X107666908Y-76416233D02*
X107882580Y-76416233D01*
X107666908Y-77136233D02*
X107882580Y-77136233D01*
%TO.C,C2*%
X41612580Y-105936233D02*
X41396908Y-105936233D01*
X41612580Y-105216233D02*
X41396908Y-105216233D01*
%TO.C,R1*%
X41668385Y-102456233D02*
X41361103Y-102456233D01*
X41668385Y-101696233D02*
X41361103Y-101696233D01*
%TO.C,R8*%
X37231103Y-76756233D02*
X37538385Y-76756233D01*
X37231103Y-75996233D02*
X37538385Y-75996233D01*
%TO.C,R4*%
X43354744Y-31669874D02*
X43354744Y-31362592D01*
X42594744Y-31669874D02*
X42594744Y-31362592D01*
%TO.C,C63*%
X108514744Y-67668397D02*
X108514744Y-67884069D01*
X109234744Y-67668397D02*
X109234744Y-67884069D01*
%TO.C,R14*%
X94888385Y-116756233D02*
X94581103Y-116756233D01*
X94888385Y-115996233D02*
X94581103Y-115996233D01*
%TO.C,J7*%
X38844744Y-84836233D02*
X38844744Y-87496233D01*
X33644744Y-87496233D02*
X38844744Y-87496233D01*
X33644744Y-87436233D02*
X33644744Y-87496233D01*
X33644744Y-87436233D02*
X36244744Y-87436233D01*
X36244744Y-84836233D02*
X38844744Y-84836233D01*
X36244744Y-87436233D02*
X36244744Y-84836233D01*
X33644744Y-84836233D02*
X34974744Y-84836233D01*
X33644744Y-86166233D02*
X33644744Y-84836233D01*
%TO.C,C17*%
X49984744Y-86834069D02*
X49984744Y-86618397D01*
X49264744Y-86834069D02*
X49264744Y-86618397D01*
%TO.C,C50*%
X106246908Y-69916233D02*
X106462580Y-69916233D01*
X106246908Y-70636233D02*
X106462580Y-70636233D01*
%TO.C,J4*%
X46054744Y-27106233D02*
X46054744Y-29706233D01*
X43454744Y-24506233D02*
X43394744Y-24506233D01*
X43454744Y-27106233D02*
X46054744Y-27106233D01*
X43394744Y-24506233D02*
X43394744Y-29706233D01*
X46054744Y-24506233D02*
X46054744Y-25836233D01*
X44724744Y-24506233D02*
X46054744Y-24506233D01*
X46054744Y-29706233D02*
X43394744Y-29706233D01*
X43454744Y-24506233D02*
X43454744Y-27106233D01*
%TO.C,C13*%
X41132580Y-79186233D02*
X40916908Y-79186233D01*
X41132580Y-78466233D02*
X40916908Y-78466233D01*
%TO.C,C72*%
X122486908Y-82461233D02*
X122702580Y-82461233D01*
X122486908Y-81741233D02*
X122702580Y-81741233D01*
%TO.C,C30*%
X97914744Y-67404069D02*
X97914744Y-67188397D01*
X98634744Y-67404069D02*
X98634744Y-67188397D01*
%TO.C,J13*%
X124964744Y-58151233D02*
X124964744Y-58791233D01*
X127684744Y-58201233D02*
X127684744Y-60901233D01*
X124964744Y-58791233D02*
X124334744Y-58791233D01*
X124964744Y-60951233D02*
X124964744Y-60311233D01*
%TO.C,D2*%
X78112244Y-118016233D02*
X78912244Y-118016233D01*
X78112244Y-121136233D02*
X78912244Y-121136233D01*
X78112244Y-118016233D02*
X76312244Y-118016233D01*
X78112244Y-121136233D02*
X77312244Y-121136233D01*
%TO.C,C47*%
X100764744Y-63904069D02*
X100764744Y-63688397D01*
X101484744Y-63904069D02*
X101484744Y-63688397D01*
%TO.C,C48*%
X100764744Y-80918397D02*
X100764744Y-81134069D01*
X101484744Y-80918397D02*
X101484744Y-81134069D01*
%TO.C,U2*%
X74749744Y-52876233D02*
X74749744Y-55676233D01*
X74749744Y-25276233D02*
X68449744Y-25276233D01*
X65349744Y-52476233D02*
X65349744Y-53676233D01*
X65349744Y-34876233D02*
X65349744Y-37676233D01*
X74749744Y-35276233D02*
X74749744Y-38076233D01*
X74749744Y-28476233D02*
X74749744Y-25276233D01*
X65349744Y-27276233D02*
X65349744Y-28076233D01*
X68449744Y-55676233D02*
X74749744Y-55676233D01*
%TO.C,C57*%
X105489744Y-67648397D02*
X105489744Y-67864069D01*
X106209744Y-67648397D02*
X106209744Y-67864069D01*
%TO.C,R19*%
X104128385Y-121006233D02*
X103821103Y-121006233D01*
X104128385Y-120246233D02*
X103821103Y-120246233D01*
%TO.C,RN2*%
X87074744Y-75196233D02*
X84974744Y-75196233D01*
X87074744Y-69856233D02*
X84974744Y-69856233D01*
%TO.C,C74*%
X122511908Y-85411233D02*
X122727580Y-85411233D01*
X122511908Y-84691233D02*
X122727580Y-84691233D01*
%TO.C,C51*%
X103266908Y-69636233D02*
X103482580Y-69636233D01*
X103266908Y-68916233D02*
X103482580Y-68916233D01*
%TO.C,C61*%
X107261908Y-67916233D02*
X107477580Y-67916233D01*
X107261908Y-68636233D02*
X107477580Y-68636233D01*
%TO.C,C24*%
X121266908Y-106586233D02*
X121482580Y-106586233D01*
X121266908Y-105866233D02*
X121482580Y-105866233D01*
%TO.C,U7*%
X48874744Y-94226233D02*
X48874744Y-94026233D01*
X48874744Y-96426233D02*
X48874744Y-96226233D01*
X46274744Y-94126233D02*
X45874744Y-94126233D01*
X48874744Y-94026233D02*
X46274744Y-94026233D01*
X46274744Y-94026233D02*
X46274744Y-94126233D01*
X46274744Y-96426233D02*
X46274744Y-96226233D01*
X46274744Y-96426233D02*
X48874744Y-96426233D01*
%TO.C,R20*%
X104138385Y-120006233D02*
X103831103Y-120006233D01*
X104138385Y-119246233D02*
X103831103Y-119246233D01*
%TO.C,C45*%
X94632580Y-83136233D02*
X94416908Y-83136233D01*
X94632580Y-82416233D02*
X94416908Y-82416233D01*
%TO.C,C53*%
X102534744Y-77168397D02*
X102534744Y-77384069D01*
X101814744Y-77168397D02*
X101814744Y-77384069D01*
%TO.C,C46*%
X100416908Y-78386233D02*
X100632580Y-78386233D01*
X100416908Y-77666233D02*
X100632580Y-77666233D01*
%TO.C,J10*%
X127834744Y-94751233D02*
X127834744Y-97451233D01*
X125114744Y-95341233D02*
X124484744Y-95341233D01*
X125114744Y-97501233D02*
X125114744Y-96861233D01*
X125114744Y-94701233D02*
X125114744Y-95341233D01*
%TO.C,U10*%
X95224744Y-79616233D02*
X93324744Y-79616233D01*
X93824744Y-81936233D02*
X95224744Y-81936233D01*
%TO.C,C27*%
X87334744Y-117714069D02*
X87334744Y-117498397D01*
X86614744Y-117714069D02*
X86614744Y-117498397D01*
%TO.C,R5*%
X44694744Y-41162592D02*
X44694744Y-41469874D01*
X45454744Y-41162592D02*
X45454744Y-41469874D01*
%TO.C,C73*%
X122736908Y-60886233D02*
X122952580Y-60886233D01*
X122736908Y-60166233D02*
X122952580Y-60166233D01*
%TO.C,C29*%
X85614744Y-117734069D02*
X85614744Y-117518397D01*
X86334744Y-117734069D02*
X86334744Y-117518397D01*
%TO.C,R25*%
X62683603Y-98171233D02*
X62990885Y-98171233D01*
X62683603Y-98931233D02*
X62990885Y-98931233D01*
%TO.C,J11*%
X86534744Y-99026233D02*
X86534744Y-106726233D01*
X73414744Y-97026233D02*
X73414744Y-96616233D01*
X86534744Y-110426233D02*
X86534744Y-112286233D01*
X86534744Y-96616233D02*
X73414744Y-96616233D01*
X75524744Y-112286233D02*
X73414744Y-112286233D01*
X73414744Y-99026233D02*
X73414744Y-106726233D01*
X86534744Y-97026233D02*
X86534744Y-96616233D01*
X86534744Y-112286233D02*
X82774744Y-112286233D01*
X73414744Y-110426233D02*
X73414744Y-112286233D01*
%TO.C,U9*%
X93914744Y-75636233D02*
X94664744Y-75636233D01*
X93914744Y-74886233D02*
X93914744Y-75636233D01*
X100134744Y-74886233D02*
X100134744Y-75636233D01*
X100134744Y-70166233D02*
X100134744Y-69416233D01*
X93914744Y-69416233D02*
X94664744Y-69416233D01*
X93914744Y-70166233D02*
X93914744Y-69416233D01*
X100134744Y-75636233D02*
X99384744Y-75636233D01*
%TO.C,R10*%
X81907244Y-92339874D02*
X81907244Y-92032592D01*
X82667244Y-92339874D02*
X82667244Y-92032592D01*
%TO.C,J14*%
X124964744Y-85266233D02*
X124334744Y-85266233D01*
X124964744Y-84626233D02*
X124964744Y-85266233D01*
X127684744Y-84676233D02*
X127684744Y-87376233D01*
X124964744Y-87426233D02*
X124964744Y-86786233D01*
%TO.C,R18*%
X104138385Y-119006233D02*
X103831103Y-119006233D01*
X104138385Y-118246233D02*
X103831103Y-118246233D01*
%TO.C,C9*%
X36514744Y-77768397D02*
X36514744Y-77984069D01*
X37234744Y-77768397D02*
X37234744Y-77984069D01*
%TO.C,R11*%
X92868385Y-114746233D02*
X92561103Y-114746233D01*
X92868385Y-115506233D02*
X92561103Y-115506233D01*
%TO.C,C56*%
X104266908Y-74416233D02*
X104482580Y-74416233D01*
X104266908Y-75136233D02*
X104482580Y-75136233D01*
%TO.C,C71*%
X122736908Y-63886233D02*
X122952580Y-63886233D01*
X122736908Y-63166233D02*
X122952580Y-63166233D01*
%TO.C,C32*%
X93482580Y-62916233D02*
X93266908Y-62916233D01*
X93482580Y-63636233D02*
X93266908Y-63636233D01*
%TO.C,R15*%
X52085180Y-122111233D02*
X52539308Y-122111233D01*
X52085180Y-120641233D02*
X52539308Y-120641233D01*
%TO.C,C18*%
X40564744Y-113786233D02*
X40564744Y-111436233D01*
X47384744Y-108030670D02*
X47384744Y-109316233D01*
X46320307Y-113786233D02*
X40564744Y-113786233D01*
X47384744Y-112721796D02*
X47384744Y-111436233D01*
X48018494Y-112617483D02*
X48018494Y-111829983D01*
X47384744Y-112721796D02*
X46320307Y-113786233D01*
X40564744Y-106966233D02*
X40564744Y-109316233D01*
X46320307Y-106966233D02*
X40564744Y-106966233D01*
X48412244Y-112223733D02*
X47624744Y-112223733D01*
X47384744Y-108030670D02*
X46320307Y-106966233D01*
%TO.C,U3*%
X43774744Y-42666233D02*
X44574744Y-42666233D01*
X43774744Y-42666233D02*
X42974744Y-42666233D01*
X43774744Y-45786233D02*
X45574744Y-45786233D01*
X43774744Y-45786233D02*
X42974744Y-45786233D01*
%TO.C,R27*%
X97394744Y-78362592D02*
X97394744Y-78669874D01*
X98154744Y-78362592D02*
X98154744Y-78669874D01*
%TO.C,J5*%
X40974744Y-24466233D02*
X42304744Y-24466233D01*
X42304744Y-27066233D02*
X42304744Y-29666233D01*
X39644744Y-24466233D02*
X39644744Y-29666233D01*
X39704744Y-24466233D02*
X39704744Y-27066233D01*
X42304744Y-24466233D02*
X42304744Y-25796233D01*
X39704744Y-24466233D02*
X39644744Y-24466233D01*
X42304744Y-29666233D02*
X39644744Y-29666233D01*
X39704744Y-27066233D02*
X42304744Y-27066233D01*
%TO.C,R23*%
X67100885Y-106406233D02*
X66793603Y-106406233D01*
X67100885Y-105646233D02*
X66793603Y-105646233D01*
%TO.C,C10*%
X44562580Y-49036233D02*
X44346908Y-49036233D01*
X44562580Y-48316233D02*
X44346908Y-48316233D01*
%TO.C,C36*%
X101766908Y-72666233D02*
X101982580Y-72666233D01*
X101766908Y-73386233D02*
X101982580Y-73386233D01*
%TO.C,R21*%
X69283603Y-98171233D02*
X69590885Y-98171233D01*
X69283603Y-98931233D02*
X69590885Y-98931233D01*
%TO.C,C64*%
X109634744Y-77404069D02*
X109634744Y-77188397D01*
X108914744Y-77404069D02*
X108914744Y-77188397D01*
%TO.C,C12*%
X45534744Y-51771233D02*
X42334744Y-51771233D01*
X42334744Y-51771233D02*
X42334744Y-50161233D01*
X42334744Y-50161233D02*
X45534744Y-50161233D01*
X45534744Y-50161233D02*
X45534744Y-51771233D01*
%TO.C,C59*%
X106634744Y-77404069D02*
X106634744Y-77188397D01*
X105914744Y-77404069D02*
X105914744Y-77188397D01*
%TO.C,U6*%
X56774744Y-108926233D02*
X55274744Y-108926233D01*
X55274744Y-109876233D02*
X50149744Y-109876233D01*
X56774744Y-119326233D02*
X55274744Y-119326233D01*
X55274744Y-108926233D02*
X55274744Y-109876233D01*
X55274744Y-118376233D02*
X54174744Y-118376233D01*
X55274744Y-119326233D02*
X55274744Y-118376233D01*
%TO.C,R22*%
X67283603Y-98931233D02*
X67590885Y-98931233D01*
X67283603Y-98171233D02*
X67590885Y-98171233D01*
%TO.C,C38*%
X97884744Y-63884069D02*
X97884744Y-63668397D01*
X97164744Y-63884069D02*
X97164744Y-63668397D01*
%TO.C,R6*%
X47428385Y-33346233D02*
X47121103Y-33346233D01*
X47428385Y-34106233D02*
X47121103Y-34106233D01*
%TO.C,C55*%
X103666908Y-76416233D02*
X103882580Y-76416233D01*
X103666908Y-77136233D02*
X103882580Y-77136233D01*
%TO.C,R16*%
X56247680Y-122111233D02*
X56701808Y-122111233D01*
X56247680Y-120641233D02*
X56701808Y-120641233D01*
%TO.C,C54*%
X102514744Y-67884069D02*
X102514744Y-67668397D01*
X103234744Y-67884069D02*
X103234744Y-67668397D01*
%TO.C,R12*%
X82667244Y-94319874D02*
X82667244Y-94012592D01*
X81907244Y-94319874D02*
X81907244Y-94012592D01*
%TO.C,C41*%
X115959744Y-76154069D02*
X115959744Y-75938397D01*
X115239744Y-76154069D02*
X115239744Y-75938397D01*
%TO.C,C23*%
X121266908Y-105586233D02*
X121482580Y-105586233D01*
X121266908Y-104866233D02*
X121482580Y-104866233D01*
%TO.C,C1*%
X41436908Y-102716233D02*
X41652580Y-102716233D01*
X41436908Y-103436233D02*
X41652580Y-103436233D01*
%TO.C,C66*%
X110666908Y-77136233D02*
X110882580Y-77136233D01*
X110666908Y-76416233D02*
X110882580Y-76416233D01*
%TO.C,C69*%
X117164744Y-65938397D02*
X117164744Y-66154069D01*
X117884744Y-65938397D02*
X117884744Y-66154069D01*
%TO.C,C52*%
X102516908Y-80886233D02*
X102732580Y-80886233D01*
X102516908Y-80166233D02*
X102732580Y-80166233D01*
%TO.C,D3*%
X62674744Y-105111233D02*
X65359744Y-105111233D01*
X65359744Y-103191233D02*
X62674744Y-103191233D01*
X65359744Y-105111233D02*
X65359744Y-103191233D01*
%TO.C,D1*%
X70059744Y-105186233D02*
X70059744Y-103266233D01*
X70059744Y-103266233D02*
X67374744Y-103266233D01*
X67374744Y-105186233D02*
X70059744Y-105186233D01*
%TO.C,U1*%
X48874744Y-88826233D02*
X46274744Y-88826233D01*
X46274744Y-88926233D02*
X45874744Y-88926233D01*
X46274744Y-88826233D02*
X46274744Y-88926233D01*
X48874744Y-91226233D02*
X48874744Y-91026233D01*
X48874744Y-89026233D02*
X48874744Y-88826233D01*
X46274744Y-91226233D02*
X46274744Y-91026233D01*
X46274744Y-91226233D02*
X48874744Y-91226233D01*
%TO.C,J15*%
X90274744Y-59676233D02*
X92374744Y-59676233D01*
X108274744Y-59676233D02*
X110374744Y-59676233D01*
X119524744Y-74476233D02*
X119524744Y-76576233D01*
X102274744Y-59676233D02*
X104374744Y-59676233D01*
X119524744Y-62476233D02*
X119524744Y-64576233D01*
X96274744Y-85376233D02*
X98374744Y-85376233D01*
X81124744Y-80476233D02*
X81124744Y-82576233D01*
X108274744Y-85376233D02*
X110374744Y-85376233D01*
X119524744Y-80476233D02*
X119524744Y-82576233D01*
X90274744Y-85376233D02*
X92374744Y-85376233D01*
X81124744Y-68476233D02*
X81124744Y-70576233D01*
X114274744Y-59676233D02*
X116374744Y-59676233D01*
X81124744Y-74476233D02*
X81124744Y-76576233D01*
X84274744Y-59676233D02*
X86374744Y-59676233D01*
X96274744Y-59676233D02*
X98374744Y-59676233D01*
X81124744Y-62476233D02*
X81124744Y-64576233D01*
X114274744Y-85376233D02*
X116374744Y-85376233D01*
X119524744Y-68476233D02*
X119524744Y-70576233D01*
X102274744Y-85376233D02*
X104374744Y-85376233D01*
X84274744Y-85376233D02*
X86374744Y-85376233D01*
%TO.C,C68*%
X112634744Y-77384069D02*
X112634744Y-77168397D01*
X111914744Y-77384069D02*
X111914744Y-77168397D01*
%TO.C,C20*%
X120584744Y-96518397D02*
X120584744Y-96734069D01*
X119864744Y-96518397D02*
X119864744Y-96734069D01*
%TO.C,C3*%
X54984744Y-35816233D02*
X52634744Y-35816233D01*
X49333494Y-43269983D02*
X50120994Y-43269983D01*
X49229181Y-42636233D02*
X48164744Y-41571796D01*
X53920307Y-42636233D02*
X54984744Y-41571796D01*
X48164744Y-41571796D02*
X48164744Y-35816233D01*
X53920307Y-42636233D02*
X52634744Y-42636233D01*
X54984744Y-41571796D02*
X54984744Y-35816233D01*
X49229181Y-42636233D02*
X50514744Y-42636233D01*
X49727244Y-43663733D02*
X49727244Y-42876233D01*
X48164744Y-35816233D02*
X50514744Y-35816233D01*
%TO.C,C42*%
X92164744Y-76168397D02*
X92164744Y-76384069D01*
X92884744Y-76168397D02*
X92884744Y-76384069D01*
%TO.C,Y1*%
X94924744Y-63926233D02*
X91624744Y-63926233D01*
X91624744Y-63926233D02*
X91624744Y-67926233D01*
%TO.C,J1*%
X33604744Y-103356233D02*
X33604744Y-108496233D01*
X38804744Y-100756233D02*
X38804744Y-108496233D01*
X36204744Y-103356233D02*
X36204744Y-100756233D01*
X33604744Y-108496233D02*
X38804744Y-108496233D01*
X33604744Y-102086233D02*
X33604744Y-100756233D01*
X36204744Y-100756233D02*
X38804744Y-100756233D01*
X33604744Y-100756233D02*
X34934744Y-100756233D01*
X33604744Y-103356233D02*
X36204744Y-103356233D01*
%TO.C,J9*%
X36204744Y-52136233D02*
X38804744Y-52136233D01*
X36204744Y-54736233D02*
X36204744Y-52136233D01*
X38804744Y-52136233D02*
X38804744Y-67496233D01*
X33604744Y-54736233D02*
X33604744Y-67496233D01*
X33604744Y-53466233D02*
X33604744Y-52136233D01*
X33604744Y-54736233D02*
X36204744Y-54736233D01*
X33604744Y-67496233D02*
X38804744Y-67496233D01*
X33604744Y-52136233D02*
X34934744Y-52136233D01*
%TO.C,C35*%
X101766908Y-73666233D02*
X101982580Y-73666233D01*
X101766908Y-74386233D02*
X101982580Y-74386233D01*
%TO.C,Q3*%
X65397244Y-101051233D02*
X65397244Y-101701233D01*
X65397244Y-101051233D02*
X65397244Y-99376233D01*
X62277244Y-101051233D02*
X62277244Y-101701233D01*
X62277244Y-101051233D02*
X62277244Y-100401233D01*
%TO.C,J3*%
X36244744Y-91846233D02*
X36244744Y-89246233D01*
X33644744Y-89246233D02*
X34974744Y-89246233D01*
X36244744Y-89246233D02*
X38844744Y-89246233D01*
X33644744Y-99526233D02*
X38844744Y-99526233D01*
X38844744Y-89246233D02*
X38844744Y-99526233D01*
X33644744Y-91846233D02*
X33644744Y-99526233D01*
X33644744Y-91846233D02*
X36244744Y-91846233D01*
X33644744Y-90576233D02*
X33644744Y-89246233D01*
%TO.C,R9*%
X121571103Y-95746233D02*
X121878385Y-95746233D01*
X121571103Y-96506233D02*
X121878385Y-96506233D01*
%TO.C,C44*%
X101766908Y-72386233D02*
X101982580Y-72386233D01*
X101766908Y-71666233D02*
X101982580Y-71666233D01*
%TO.C,RN3*%
X87074744Y-78106233D02*
X84974744Y-78106233D01*
X87074744Y-83446233D02*
X84974744Y-83446233D01*
%TO.C,C11*%
X62662580Y-49236233D02*
X62446908Y-49236233D01*
X62662580Y-48516233D02*
X62446908Y-48516233D01*
%TO.C,J8*%
X33604744Y-37236233D02*
X36204744Y-37236233D01*
X38804744Y-34636233D02*
X38804744Y-49996233D01*
X33604744Y-35966233D02*
X33604744Y-34636233D01*
X36204744Y-34636233D02*
X38804744Y-34636233D01*
X33604744Y-37236233D02*
X33604744Y-49996233D01*
X33604744Y-34636233D02*
X34934744Y-34636233D01*
X36204744Y-37236233D02*
X36204744Y-34636233D01*
X33604744Y-49996233D02*
X38804744Y-49996233D01*
%TO.C,C40*%
X92634744Y-81688397D02*
X92634744Y-81904069D01*
X91914744Y-81688397D02*
X91914744Y-81904069D01*
%TO.C,C31*%
X96134744Y-67168397D02*
X96134744Y-67384069D01*
X95414744Y-67168397D02*
X95414744Y-67384069D01*
%TO.C,R13*%
X94888385Y-114746233D02*
X94581103Y-114746233D01*
X94888385Y-115506233D02*
X94581103Y-115506233D01*
%TO.C,C33*%
X97134744Y-67404069D02*
X97134744Y-67188397D01*
X96414744Y-67404069D02*
X96414744Y-67188397D01*
%TO.C,C37*%
X91884744Y-76168397D02*
X91884744Y-76384069D01*
X91164744Y-76168397D02*
X91164744Y-76384069D01*
%TD*%
%LPC*%
D14*
%TO.C,C26*%
X87974744Y-118106233D03*
X87974744Y-117146233D03*
%TD*%
D15*
%TO.C,RN1*%
X84524744Y-62026233D03*
X84524744Y-63366233D03*
X84524744Y-64686233D03*
X84524744Y-66026233D03*
X87524744Y-66026233D03*
X87524744Y-64686233D03*
X87524744Y-63366233D03*
X87524744Y-62026233D03*
%TD*%
D16*
%TO.C,L9*%
X105274744Y-76806233D03*
X105274744Y-77776233D03*
%TD*%
D17*
%TO.C,C21*%
X46774744Y-117876233D03*
X41174744Y-117876233D03*
%TD*%
D18*
%TO.C,C43*%
X97524744Y-80566233D03*
X97524744Y-81526233D03*
%TD*%
D19*
%TO.C,C14*%
X51624744Y-52676233D03*
X51624744Y-47076233D03*
%TD*%
D20*
%TO.C,U8*%
X111724744Y-91326233D03*
X110624744Y-91326233D03*
X109524744Y-91326233D03*
X108424744Y-91326233D03*
X107324744Y-91326233D03*
X102324744Y-91326233D03*
X101224744Y-91326233D03*
X100124744Y-91326233D03*
X99024744Y-91326233D03*
X97924744Y-91326233D03*
X96824744Y-91326233D03*
D21*
X92574744Y-94776233D03*
X92574744Y-95876233D03*
X92574744Y-96976233D03*
X92574744Y-98076233D03*
X92574744Y-102776233D03*
X92574744Y-103876233D03*
X92574744Y-104976233D03*
X92574744Y-106076233D03*
X92574744Y-107176233D03*
D20*
X96824744Y-110926233D03*
X97924744Y-110926233D03*
X99024744Y-110926233D03*
X100124744Y-110926233D03*
X101224744Y-110926233D03*
X102324744Y-110926233D03*
X107324744Y-110926233D03*
X108424744Y-110926233D03*
X109524744Y-110926233D03*
X110624744Y-110926233D03*
X111724744Y-110926233D03*
D21*
X115874744Y-107176233D03*
X115874744Y-106076233D03*
X115874744Y-104976233D03*
X115874744Y-103876233D03*
X115874744Y-102776233D03*
X115874744Y-98076233D03*
X115874744Y-96976233D03*
X115874744Y-95876233D03*
X115874744Y-94776233D03*
X92574744Y-99776233D03*
X92574744Y-101076233D03*
%TD*%
D22*
%TO.C,C16*%
X51674744Y-57026233D03*
X51674744Y-62626233D03*
%TD*%
D14*
%TO.C,C39*%
X98524744Y-64276233D03*
X98524744Y-63316233D03*
%TD*%
D23*
%TO.C,R3*%
X46874744Y-32036233D03*
X46874744Y-31016233D03*
%TD*%
D24*
%TO.C,U4*%
X44812244Y-35676233D03*
X44812244Y-34726233D03*
X44812244Y-33776233D03*
X42537244Y-33776233D03*
X42537244Y-34726233D03*
X42537244Y-35676233D03*
%TD*%
D25*
%TO.C,C60*%
X107644744Y-80526233D03*
X108604744Y-80526233D03*
%TD*%
D26*
%TO.C,R2*%
X41014744Y-104476233D03*
X42034744Y-104476233D03*
%TD*%
D18*
%TO.C,C6*%
X37774744Y-69791233D03*
X37774744Y-70751233D03*
%TD*%
%TO.C,C5*%
X38974744Y-69811233D03*
X38974744Y-70771233D03*
%TD*%
D25*
%TO.C,C49*%
X102124744Y-64276233D03*
X103084744Y-64276233D03*
%TD*%
%TO.C,C25*%
X120894744Y-107226233D03*
X121854744Y-107226233D03*
%TD*%
D26*
%TO.C,R7*%
X36864744Y-75326233D03*
X37884744Y-75326233D03*
%TD*%
D27*
%TO.C,R17*%
X102137244Y-115626233D03*
X100312244Y-115626233D03*
%TD*%
D28*
%TO.C,Q2*%
X69387244Y-100113733D03*
X67487244Y-100113733D03*
X68437244Y-101988733D03*
%TD*%
D29*
%TO.C,C8*%
X41824744Y-67526233D03*
X47424744Y-67526233D03*
%TD*%
D30*
%TO.C,L8*%
X103889744Y-67276233D03*
X104859744Y-67276233D03*
%TD*%
D14*
%TO.C,C7*%
X36824744Y-74226233D03*
X36824744Y-73266233D03*
%TD*%
D26*
%TO.C,R26*%
X64017244Y-106051233D03*
X65037244Y-106051233D03*
%TD*%
D14*
%TO.C,C70*%
X117054744Y-79526233D03*
X117054744Y-78566233D03*
%TD*%
D25*
%TO.C,C58*%
X105874744Y-64276233D03*
X106834744Y-64276233D03*
%TD*%
%TO.C,C28*%
X112414744Y-115176233D03*
X113374744Y-115176233D03*
%TD*%
D31*
%TO.C,Q1*%
X84037244Y-92176233D03*
X84037244Y-94076233D03*
X85912244Y-93126233D03*
%TD*%
D18*
%TO.C,C67*%
X111904744Y-67316233D03*
X111904744Y-68276233D03*
%TD*%
D32*
%TO.C,U5*%
X41524744Y-72803733D03*
X41524744Y-73438733D03*
X41524744Y-74073733D03*
X41524744Y-74708733D03*
X41524744Y-75343733D03*
X41524744Y-75978733D03*
X41524744Y-76613733D03*
X41524744Y-77248733D03*
X46724744Y-77248733D03*
X46724744Y-76613733D03*
X46724744Y-75978733D03*
X46724744Y-75343733D03*
X46724744Y-74708733D03*
X46724744Y-74073733D03*
X46724744Y-73438733D03*
X46724744Y-72803733D03*
%TD*%
D18*
%TO.C,C19*%
X123224744Y-96146233D03*
X123224744Y-97106233D03*
%TD*%
D26*
%TO.C,R24*%
X64327244Y-98551233D03*
X65347244Y-98551233D03*
%TD*%
D25*
%TO.C,C22*%
X120894744Y-104226233D03*
X121854744Y-104226233D03*
%TD*%
D33*
%TO.C,J2*%
X33934744Y-74826233D03*
X33934744Y-75476233D03*
X33934744Y-76126233D03*
X33934744Y-76776233D03*
X33934744Y-77426233D03*
D34*
X33849744Y-73638733D03*
D35*
X31274744Y-72751233D03*
X31274744Y-79501233D03*
D36*
X31274744Y-77676233D03*
D37*
X31274744Y-74976233D03*
D34*
X33849744Y-78613733D03*
%TD*%
D14*
%TO.C,C34*%
X115624744Y-64481233D03*
X115624744Y-63521233D03*
%TD*%
D38*
%TO.C,J6*%
X34974744Y-83666233D03*
D39*
X37514744Y-83666233D03*
%TD*%
D25*
%TO.C,C65*%
X109924744Y-68276233D03*
X110884744Y-68276233D03*
%TD*%
D22*
%TO.C,C4*%
X51574744Y-25226233D03*
X51574744Y-30826233D03*
%TD*%
D25*
%TO.C,C62*%
X107294744Y-76776233D03*
X108254744Y-76776233D03*
%TD*%
D40*
%TO.C,C2*%
X41984744Y-105576233D03*
X41024744Y-105576233D03*
%TD*%
D41*
%TO.C,R1*%
X42024744Y-102076233D03*
X41004744Y-102076233D03*
%TD*%
D26*
%TO.C,R8*%
X36874744Y-76376233D03*
X37894744Y-76376233D03*
%TD*%
D42*
%TO.C,L4*%
X99374744Y-66996233D03*
X99374744Y-66026233D03*
%TD*%
D23*
%TO.C,R4*%
X42974744Y-32026233D03*
X42974744Y-31006233D03*
%TD*%
D18*
%TO.C,C63*%
X108874744Y-67296233D03*
X108874744Y-68256233D03*
%TD*%
D41*
%TO.C,R14*%
X95244744Y-116376233D03*
X94224744Y-116376233D03*
%TD*%
D38*
%TO.C,J7*%
X34974744Y-86166233D03*
D39*
X37514744Y-86166233D03*
%TD*%
D14*
%TO.C,C17*%
X49624744Y-87206233D03*
X49624744Y-86246233D03*
%TD*%
D43*
%TO.C,U12*%
X113674744Y-77876233D03*
X113674744Y-78526233D03*
X113674744Y-79176233D03*
X115574744Y-79176233D03*
X115574744Y-78526233D03*
X115574744Y-77876233D03*
%TD*%
D25*
%TO.C,C50*%
X105874744Y-70276233D03*
X106834744Y-70276233D03*
%TD*%
D30*
%TO.C,L13*%
X110289744Y-77776233D03*
X111259744Y-77776233D03*
%TD*%
D38*
%TO.C,J4*%
X44724744Y-25836233D03*
D39*
X44724744Y-28376233D03*
%TD*%
D40*
%TO.C,C13*%
X41504744Y-78826233D03*
X40544744Y-78826233D03*
%TD*%
D25*
%TO.C,C72*%
X122114744Y-82101233D03*
X123074744Y-82101233D03*
%TD*%
D14*
%TO.C,C30*%
X98274744Y-67776233D03*
X98274744Y-66816233D03*
%TD*%
D44*
%TO.C,L7*%
X104259744Y-75776233D03*
X103289744Y-75776233D03*
%TD*%
D45*
%TO.C,J13*%
X124799744Y-59551233D03*
D46*
X126324744Y-58076233D03*
X126324744Y-61026233D03*
%TD*%
D47*
%TO.C,D2*%
X76974744Y-118626233D03*
X76974744Y-119576233D03*
X76974744Y-120526233D03*
X79249744Y-120526233D03*
X79249744Y-119576233D03*
X79249744Y-118626233D03*
%TD*%
D14*
%TO.C,C47*%
X101124744Y-64276233D03*
X101124744Y-63316233D03*
%TD*%
D18*
%TO.C,C48*%
X101124744Y-80546233D03*
X101124744Y-81506233D03*
%TD*%
D48*
%TO.C,U2*%
X70049744Y-27976233D03*
D49*
X70049744Y-52976233D03*
D50*
X65949744Y-28676233D03*
X74149744Y-29076233D03*
X65949744Y-29476233D03*
X74149744Y-29876233D03*
X65949744Y-30276233D03*
X74149744Y-30676233D03*
X65949744Y-31076233D03*
X74149744Y-31476233D03*
X65949744Y-31876233D03*
X74149744Y-32276233D03*
X65949744Y-32676233D03*
X74149744Y-33076233D03*
X65949744Y-33476233D03*
X74149744Y-33876233D03*
X65949744Y-34276233D03*
X74149744Y-34676233D03*
X65949744Y-38276233D03*
X74149744Y-38676233D03*
X65949744Y-39076233D03*
X74149744Y-39476233D03*
X65949744Y-39876233D03*
X74149744Y-40276233D03*
X65949744Y-40676233D03*
X74149744Y-41076233D03*
X65949744Y-41476233D03*
X74149744Y-41876233D03*
X65949744Y-42276233D03*
X74149744Y-42676233D03*
X65949744Y-43076233D03*
X74149744Y-43476233D03*
X65949744Y-43876233D03*
X74149744Y-44276233D03*
X65949744Y-44676233D03*
X74149744Y-45076233D03*
X65949744Y-45476233D03*
X74149744Y-45876233D03*
X65949744Y-46276233D03*
X74149744Y-46676233D03*
X65949744Y-47076233D03*
X74149744Y-47476233D03*
X65949744Y-47876233D03*
X74149744Y-48276233D03*
X65949744Y-48676233D03*
X74149744Y-49076233D03*
X65949744Y-49476233D03*
X74149744Y-49876233D03*
X65949744Y-50276233D03*
X74149744Y-50676233D03*
X65949744Y-51076233D03*
X74149744Y-51476233D03*
X65949744Y-51876233D03*
X74149744Y-52276233D03*
D51*
X66549744Y-55126233D03*
X66549744Y-25826233D03*
%TD*%
D18*
%TO.C,C57*%
X105849744Y-67276233D03*
X105849744Y-68236233D03*
%TD*%
D41*
%TO.C,R19*%
X104484744Y-120626233D03*
X103464744Y-120626233D03*
%TD*%
D15*
%TO.C,RN2*%
X84524744Y-70526233D03*
X84524744Y-71866233D03*
X84524744Y-73186233D03*
X84524744Y-74526233D03*
X87524744Y-74526233D03*
X87524744Y-73186233D03*
X87524744Y-71866233D03*
X87524744Y-70526233D03*
%TD*%
D25*
%TO.C,C74*%
X122139744Y-85051233D03*
X123099744Y-85051233D03*
%TD*%
%TO.C,C51*%
X102894744Y-69276233D03*
X103854744Y-69276233D03*
%TD*%
D30*
%TO.C,L12*%
X109904744Y-67276233D03*
X110874744Y-67276233D03*
%TD*%
D25*
%TO.C,C61*%
X106889744Y-68276233D03*
X107849744Y-68276233D03*
%TD*%
%TO.C,C24*%
X120894744Y-106226233D03*
X121854744Y-106226233D03*
%TD*%
D52*
%TO.C,H1*%
X124974744Y-28626233D03*
%TD*%
D53*
%TO.C,U7*%
X46024744Y-94476233D03*
X46024744Y-94976233D03*
X46024744Y-95476233D03*
X46024744Y-95976233D03*
X49124744Y-95976233D03*
X49124744Y-95476233D03*
X49124744Y-94976233D03*
X49124744Y-94476233D03*
%TD*%
D41*
%TO.C,R20*%
X104494744Y-119626233D03*
X103474744Y-119626233D03*
%TD*%
D40*
%TO.C,C45*%
X95004744Y-82776233D03*
X94044744Y-82776233D03*
%TD*%
D18*
%TO.C,C53*%
X102174744Y-76796233D03*
X102174744Y-77756233D03*
%TD*%
D25*
%TO.C,C46*%
X100044744Y-78026233D03*
X101004744Y-78026233D03*
%TD*%
D45*
%TO.C,J10*%
X124949744Y-96101233D03*
D46*
X126474744Y-94626233D03*
X126474744Y-97576233D03*
%TD*%
D54*
%TO.C,U10*%
X93574744Y-80126233D03*
X93574744Y-80776233D03*
X93574744Y-81426233D03*
X95474744Y-81426233D03*
X95474744Y-80126233D03*
%TD*%
D14*
%TO.C,C27*%
X86974744Y-118086233D03*
X86974744Y-117126233D03*
%TD*%
D55*
%TO.C,R5*%
X45074744Y-40806233D03*
X45074744Y-41826233D03*
%TD*%
D25*
%TO.C,C73*%
X122364744Y-60526233D03*
X123324744Y-60526233D03*
%TD*%
D14*
%TO.C,C29*%
X85974744Y-118106233D03*
X85974744Y-117146233D03*
%TD*%
D30*
%TO.C,L11*%
X107289744Y-77776233D03*
X108259744Y-77776233D03*
%TD*%
D26*
%TO.C,R25*%
X62327244Y-98551233D03*
X63347244Y-98551233D03*
%TD*%
D56*
%TO.C,J11*%
X77219744Y-111746233D03*
X79759744Y-111746233D03*
X82299744Y-111746233D03*
X75949744Y-111746233D03*
X78489744Y-111746233D03*
X81029744Y-111746233D03*
D57*
X77429744Y-98596233D03*
D58*
X86244744Y-107576233D03*
X73704744Y-107576233D03*
D57*
X82509744Y-98596233D03*
D59*
X73869744Y-98016233D03*
D58*
X73704744Y-109576233D03*
X86244744Y-109576233D03*
D59*
X86079744Y-98016233D03*
%TD*%
D44*
%TO.C,L2*%
X100344744Y-68276233D03*
X99374744Y-68276233D03*
%TD*%
D30*
%TO.C,L10*%
X106864744Y-67276233D03*
X107834744Y-67276233D03*
%TD*%
D60*
%TO.C,U9*%
X98974744Y-69538733D03*
X98324744Y-69538733D03*
X97674744Y-69538733D03*
X97024744Y-69538733D03*
X96374744Y-69538733D03*
X95724744Y-69538733D03*
X95074744Y-69538733D03*
D61*
X94037244Y-70576233D03*
X94037244Y-71226233D03*
X94037244Y-71876233D03*
X94037244Y-72526233D03*
X94037244Y-73176233D03*
X94037244Y-73826233D03*
X94037244Y-74476233D03*
D60*
X95074744Y-75513733D03*
X95724744Y-75513733D03*
X96374744Y-75513733D03*
X97024744Y-75513733D03*
X97674744Y-75513733D03*
X98324744Y-75513733D03*
X98974744Y-75513733D03*
D61*
X100012244Y-74476233D03*
X100012244Y-73826233D03*
X100012244Y-73176233D03*
X100012244Y-72526233D03*
X100012244Y-71876233D03*
X100012244Y-71226233D03*
X100012244Y-70576233D03*
D62*
X97024744Y-72526233D03*
%TD*%
D23*
%TO.C,R10*%
X82287244Y-92696233D03*
X82287244Y-91676233D03*
%TD*%
D45*
%TO.C,J14*%
X124799744Y-86026233D03*
D46*
X126324744Y-87501233D03*
X126324744Y-84551233D03*
%TD*%
D16*
%TO.C,L1*%
X40224744Y-69806233D03*
X40224744Y-70776233D03*
%TD*%
D41*
%TO.C,R18*%
X104494744Y-118626233D03*
X103474744Y-118626233D03*
%TD*%
D18*
%TO.C,C9*%
X36874744Y-77396233D03*
X36874744Y-78356233D03*
%TD*%
D41*
%TO.C,R11*%
X93224744Y-115126233D03*
X92204744Y-115126233D03*
%TD*%
D52*
%TO.C,H3*%
X34974744Y-28626233D03*
%TD*%
D25*
%TO.C,C56*%
X103894744Y-74776233D03*
X104854744Y-74776233D03*
%TD*%
D43*
%TO.C,U11*%
X113674744Y-66001233D03*
X113674744Y-66651233D03*
X113674744Y-67301233D03*
X115574744Y-67301233D03*
X115574744Y-66651233D03*
X115574744Y-66001233D03*
%TD*%
D25*
%TO.C,C71*%
X122364744Y-63526233D03*
X123324744Y-63526233D03*
%TD*%
D40*
%TO.C,C32*%
X93854744Y-63276233D03*
X92894744Y-63276233D03*
%TD*%
D63*
%TO.C,R15*%
X51399744Y-121376233D03*
X53224744Y-121376233D03*
%TD*%
D17*
%TO.C,C18*%
X46774744Y-110376233D03*
X41174744Y-110376233D03*
%TD*%
D24*
%TO.C,U3*%
X44912244Y-45176233D03*
X44912244Y-44226233D03*
X44912244Y-43276233D03*
X42637244Y-43276233D03*
X42637244Y-44226233D03*
X42637244Y-45176233D03*
%TD*%
D55*
%TO.C,R27*%
X97774744Y-78006233D03*
X97774744Y-79026233D03*
%TD*%
D38*
%TO.C,J5*%
X40974744Y-25796233D03*
D39*
X40974744Y-28336233D03*
%TD*%
D41*
%TO.C,R23*%
X67457244Y-106026233D03*
X66437244Y-106026233D03*
%TD*%
D40*
%TO.C,C10*%
X44934744Y-48676233D03*
X43974744Y-48676233D03*
%TD*%
D25*
%TO.C,C36*%
X101394744Y-73026233D03*
X102354744Y-73026233D03*
%TD*%
D26*
%TO.C,R21*%
X68927244Y-98551233D03*
X69947244Y-98551233D03*
%TD*%
D14*
%TO.C,C64*%
X109274744Y-77776233D03*
X109274744Y-76816233D03*
%TD*%
D64*
%TO.C,C12*%
X45834744Y-50966233D03*
D65*
X43974744Y-50166233D03*
X43934744Y-51776233D03*
D64*
X42054744Y-50966233D03*
%TD*%
D14*
%TO.C,C59*%
X106274744Y-77776233D03*
X106274744Y-76816233D03*
%TD*%
D66*
%TO.C,U6*%
X52449744Y-110726233D03*
X52449744Y-112426233D03*
D67*
X61599744Y-114126233D03*
D66*
X52449744Y-114126233D03*
X52449744Y-115826233D03*
X52449744Y-117526233D03*
%TD*%
D26*
%TO.C,R22*%
X66927244Y-98551233D03*
X67947244Y-98551233D03*
%TD*%
D14*
%TO.C,C38*%
X97524744Y-64256233D03*
X97524744Y-63296233D03*
%TD*%
D41*
%TO.C,R6*%
X47784744Y-33726233D03*
X46764744Y-33726233D03*
%TD*%
D25*
%TO.C,C55*%
X103294744Y-76776233D03*
X104254744Y-76776233D03*
%TD*%
D63*
%TO.C,R16*%
X55562244Y-121376233D03*
X57387244Y-121376233D03*
%TD*%
D14*
%TO.C,C54*%
X102874744Y-68256233D03*
X102874744Y-67296233D03*
%TD*%
D23*
%TO.C,R12*%
X82287244Y-94676233D03*
X82287244Y-93656233D03*
%TD*%
D52*
%TO.C,H2*%
X124974744Y-118626233D03*
%TD*%
D14*
%TO.C,C41*%
X115599744Y-76526233D03*
X115599744Y-75566233D03*
%TD*%
D42*
%TO.C,L15*%
X122099744Y-84076233D03*
X122099744Y-83106233D03*
%TD*%
D25*
%TO.C,C23*%
X120894744Y-105226233D03*
X121854744Y-105226233D03*
%TD*%
%TO.C,C1*%
X41064744Y-103076233D03*
X42024744Y-103076233D03*
%TD*%
D16*
%TO.C,L5*%
X99024744Y-78026233D03*
X99024744Y-78996233D03*
%TD*%
D25*
%TO.C,C66*%
X110294744Y-76776233D03*
X111254744Y-76776233D03*
%TD*%
D52*
%TO.C,H4*%
X34974744Y-118626233D03*
%TD*%
D18*
%TO.C,C69*%
X117524744Y-65566233D03*
X117524744Y-66526233D03*
%TD*%
D25*
%TO.C,C52*%
X102144744Y-80526233D03*
X103104744Y-80526233D03*
%TD*%
D68*
%TO.C,D3*%
X64612244Y-104151233D03*
X62737244Y-104151233D03*
%TD*%
%TO.C,D1*%
X69312244Y-104226233D03*
X67437244Y-104226233D03*
%TD*%
D53*
%TO.C,U1*%
X46024744Y-89276233D03*
X46024744Y-89776233D03*
X46024744Y-90276233D03*
X46024744Y-90776233D03*
X49124744Y-90776233D03*
X49124744Y-90276233D03*
X49124744Y-89776233D03*
X49124744Y-89276233D03*
%TD*%
D69*
%TO.C,J15*%
X81374744Y-61301233D03*
X119274744Y-83751233D03*
D70*
X94324744Y-85126233D03*
X88324744Y-85126233D03*
X112324744Y-59926233D03*
D71*
X81374744Y-85126233D03*
D72*
X119274744Y-72526233D03*
D70*
X100324744Y-85126233D03*
D72*
X81374744Y-72526233D03*
D73*
X117724744Y-59926233D03*
X82924744Y-59926233D03*
D70*
X100324744Y-59926233D03*
D72*
X81374744Y-66526233D03*
X81374744Y-78526233D03*
D71*
X119274744Y-85126233D03*
D70*
X106324744Y-85126233D03*
D71*
X119274744Y-59926233D03*
D69*
X119274744Y-61301233D03*
X81374744Y-83751233D03*
D70*
X94324744Y-59926233D03*
D73*
X82924744Y-85126233D03*
D72*
X119274744Y-66526233D03*
D73*
X117724744Y-85126233D03*
D70*
X112324744Y-85126233D03*
D72*
X119274744Y-78526233D03*
D71*
X81374744Y-59926233D03*
D70*
X106324744Y-59926233D03*
X88324744Y-59926233D03*
%TD*%
D14*
%TO.C,C68*%
X112274744Y-77756233D03*
X112274744Y-76796233D03*
%TD*%
D18*
%TO.C,C20*%
X120224744Y-96146233D03*
X120224744Y-97106233D03*
%TD*%
D19*
%TO.C,C3*%
X51574744Y-42026233D03*
X51574744Y-36426233D03*
%TD*%
D18*
%TO.C,C42*%
X92524744Y-75796233D03*
X92524744Y-76756233D03*
%TD*%
D74*
%TO.C,Y1*%
X92424744Y-64826233D03*
X92424744Y-67026233D03*
X94124744Y-67026233D03*
X94124744Y-64826233D03*
%TD*%
D38*
%TO.C,J1*%
X34934744Y-102086233D03*
D39*
X37474744Y-102086233D03*
X34934744Y-104626233D03*
X37474744Y-104626233D03*
X34934744Y-107166233D03*
X37474744Y-107166233D03*
%TD*%
D30*
%TO.C,L6*%
X103874744Y-70276233D03*
X104844744Y-70276233D03*
%TD*%
D38*
%TO.C,J9*%
X34934744Y-53466233D03*
D39*
X37474744Y-53466233D03*
X34934744Y-56006233D03*
X37474744Y-56006233D03*
X34934744Y-58546233D03*
X37474744Y-58546233D03*
X34934744Y-61086233D03*
X37474744Y-61086233D03*
X34934744Y-63626233D03*
X37474744Y-63626233D03*
X34934744Y-66166233D03*
X37474744Y-66166233D03*
%TD*%
D75*
%TO.C,R29*%
X104987244Y-80526233D03*
X105802244Y-80526233D03*
%TD*%
D30*
%TO.C,L3*%
X101874744Y-70276233D03*
X102844744Y-70276233D03*
%TD*%
D25*
%TO.C,C35*%
X101394744Y-74026233D03*
X102354744Y-74026233D03*
%TD*%
D28*
%TO.C,Q3*%
X64787244Y-100113733D03*
X62887244Y-100113733D03*
X63837244Y-101988733D03*
%TD*%
D38*
%TO.C,J3*%
X34974744Y-90576233D03*
D39*
X37514744Y-90576233D03*
X34974744Y-93116233D03*
X37514744Y-93116233D03*
X34974744Y-95656233D03*
X37514744Y-95656233D03*
X34974744Y-98196233D03*
X37514744Y-98196233D03*
%TD*%
D26*
%TO.C,R9*%
X121214744Y-96126233D03*
X122234744Y-96126233D03*
%TD*%
D25*
%TO.C,C44*%
X101394744Y-72026233D03*
X102354744Y-72026233D03*
%TD*%
D15*
%TO.C,RN3*%
X84524744Y-78776233D03*
X84524744Y-80116233D03*
X84524744Y-81436233D03*
X84524744Y-82776233D03*
X87524744Y-82776233D03*
X87524744Y-81436233D03*
X87524744Y-80116233D03*
X87524744Y-78776233D03*
%TD*%
D16*
%TO.C,L14*%
X122324744Y-61541233D03*
X122324744Y-62511233D03*
%TD*%
D40*
%TO.C,C11*%
X63034744Y-48876233D03*
X62074744Y-48876233D03*
%TD*%
D76*
%TO.C,R28*%
X104124744Y-64276233D03*
X104764744Y-64276233D03*
%TD*%
D38*
%TO.C,J8*%
X34934744Y-35966233D03*
D39*
X37474744Y-35966233D03*
X34934744Y-38506233D03*
X37474744Y-38506233D03*
X34934744Y-41046233D03*
X37474744Y-41046233D03*
X34934744Y-43586233D03*
X37474744Y-43586233D03*
X34934744Y-46126233D03*
X37474744Y-46126233D03*
X34934744Y-48666233D03*
X37474744Y-48666233D03*
%TD*%
D18*
%TO.C,C40*%
X92274744Y-81316233D03*
X92274744Y-82276233D03*
%TD*%
%TO.C,C31*%
X95774744Y-66796233D03*
X95774744Y-67756233D03*
%TD*%
D41*
%TO.C,R13*%
X95244744Y-115126233D03*
X94224744Y-115126233D03*
%TD*%
D14*
%TO.C,C33*%
X96774744Y-67776233D03*
X96774744Y-66816233D03*
%TD*%
D18*
%TO.C,C37*%
X91524744Y-75796233D03*
X91524744Y-76756233D03*
%TD*%
M02*
