%TF.GenerationSoftware,KiCad,Pcbnew,6.0.4-6f826c9f35~116~ubuntu18.04.1*%
%TF.CreationDate,2022-03-28T11:59:59-03:00*%
%TF.ProjectId,CommBoard,436f6d6d-426f-4617-9264-2e6b69636164,rev?*%
%TF.SameCoordinates,Original*%
%TF.FileFunction,Soldermask,Bot*%
%TF.FilePolarity,Negative*%
%FSLAX46Y46*%
G04 Gerber Fmt 4.6, Leading zero omitted, Abs format (unit mm)*
G04 Created by KiCad (PCBNEW 6.0.4-6f826c9f35~116~ubuntu18.04.1) date 2022-03-28 11:59:59*
%MOMM*%
%LPD*%
G01*
G04 APERTURE LIST*
%ADD10R,1.700000X1.700000*%
%ADD11O,1.700000X1.700000*%
%ADD12C,1.600000*%
%ADD13C,1.100000*%
%ADD14C,2.500000*%
G04 APERTURE END LIST*
D10*
%TO.C,J6*%
X34974744Y-83666233D03*
D11*
X37514744Y-83666233D03*
%TD*%
D10*
%TO.C,J7*%
X34974744Y-86166233D03*
D11*
X37514744Y-86166233D03*
%TD*%
D10*
%TO.C,J4*%
X44724744Y-25836233D03*
D11*
X44724744Y-28376233D03*
%TD*%
D12*
%TO.C,U2*%
X70049744Y-27976233D03*
D13*
X70049744Y-52976233D03*
%TD*%
D14*
%TO.C,H1*%
X124974744Y-28626233D03*
%TD*%
%TO.C,H3*%
X34974744Y-28626233D03*
%TD*%
D10*
%TO.C,J5*%
X40974744Y-25796233D03*
D11*
X40974744Y-28336233D03*
%TD*%
D14*
%TO.C,H2*%
X124974744Y-118626233D03*
%TD*%
%TO.C,H4*%
X34974744Y-118626233D03*
%TD*%
D10*
%TO.C,J1*%
X34934744Y-102086233D03*
D11*
X37474744Y-102086233D03*
X34934744Y-104626233D03*
X37474744Y-104626233D03*
X34934744Y-107166233D03*
X37474744Y-107166233D03*
%TD*%
D10*
%TO.C,J9*%
X34934744Y-53466233D03*
D11*
X37474744Y-53466233D03*
X34934744Y-56006233D03*
X37474744Y-56006233D03*
X34934744Y-58546233D03*
X37474744Y-58546233D03*
X34934744Y-61086233D03*
X37474744Y-61086233D03*
X34934744Y-63626233D03*
X37474744Y-63626233D03*
X34934744Y-66166233D03*
X37474744Y-66166233D03*
%TD*%
D10*
%TO.C,J3*%
X34974744Y-90576233D03*
D11*
X37514744Y-90576233D03*
X34974744Y-93116233D03*
X37514744Y-93116233D03*
X34974744Y-95656233D03*
X37514744Y-95656233D03*
X34974744Y-98196233D03*
X37514744Y-98196233D03*
%TD*%
D10*
%TO.C,J8*%
X34934744Y-35966233D03*
D11*
X37474744Y-35966233D03*
X34934744Y-38506233D03*
X37474744Y-38506233D03*
X34934744Y-41046233D03*
X37474744Y-41046233D03*
X34934744Y-43586233D03*
X37474744Y-43586233D03*
X34934744Y-46126233D03*
X37474744Y-46126233D03*
X34934744Y-48666233D03*
X37474744Y-48666233D03*
%TD*%
M02*
