%FSLAX45Y45*%
G04 Gerber Fmt 4.5, Leading zero omitted, Abs format (unit mm)*
G04 Created by KiCad (PCBNEW 6.0.4-6f826c9f35~116~ubuntu18.04.1) date 2022-03-28 12:00:20*
%MOMM*%
%LPD*%
G01*
G04 APERTURE LIST*
%TA.AperFunction,Profile*%
%ADD10C,0.100000*%
%TD*%
%ADD11C,0.200000*%
%ADD12C,0.110000*%
%ADD13C,0.160000*%
%ADD14C,0.250000*%
G04 APERTURE END LIST*
D10*
X2997474Y-2312623D02*
X12997474Y-2312623D01*
X12997474Y-2312623D02*
X12997474Y-12312623D01*
X12997474Y-12312623D02*
X2997474Y-12312623D01*
X2997474Y-12312623D02*
X2997474Y-2312623D01*
D11*
D12*
X6949974Y-5242623D02*
X7059974Y-5352623D01*
X7059974Y-5242623D02*
X6949974Y-5352623D01*
D13*
X7084974Y-2797623D02*
G75*
G03*
X7084974Y-2797623I-80000J0D01*
G01*
D14*
X3497474Y-2737623D02*
X3497474Y-2987623D01*
X3372474Y-2862623D02*
X3622474Y-2862623D01*
X3497474Y-11737623D02*
X3497474Y-11987623D01*
X3372474Y-11862623D02*
X3622474Y-11862623D01*
X12497474Y-2737623D02*
X12497474Y-2987623D01*
X12372474Y-2862623D02*
X12622474Y-2862623D01*
X12497474Y-11737623D02*
X12497474Y-11987623D01*
X12372474Y-11862623D02*
X12622474Y-11862623D01*
D11*
X3250093Y-12628099D02*
X3250093Y-12428099D01*
X3297712Y-12428099D01*
X3326284Y-12437623D01*
X3345331Y-12456671D01*
X3354855Y-12475718D01*
X3364379Y-12513814D01*
X3364379Y-12542385D01*
X3354855Y-12580480D01*
X3345331Y-12599528D01*
X3326284Y-12618576D01*
X3297712Y-12628099D01*
X3250093Y-12628099D01*
X3450093Y-12628099D02*
X3450093Y-12494766D01*
X3450093Y-12532861D02*
X3459617Y-12513814D01*
X3469141Y-12504290D01*
X3488189Y-12494766D01*
X3507236Y-12494766D01*
X3573903Y-12628099D02*
X3573903Y-12494766D01*
X3573903Y-12428099D02*
X3564379Y-12437623D01*
X3573903Y-12447147D01*
X3583427Y-12437623D01*
X3573903Y-12428099D01*
X3573903Y-12447147D01*
X3697712Y-12628099D02*
X3678665Y-12618576D01*
X3669141Y-12599528D01*
X3669141Y-12428099D01*
X3802474Y-12628099D02*
X3783427Y-12618576D01*
X3773903Y-12599528D01*
X3773903Y-12428099D01*
X4031046Y-12628099D02*
X4031046Y-12428099D01*
X4097712Y-12570957D01*
X4164379Y-12428099D01*
X4164379Y-12628099D01*
X4345332Y-12628099D02*
X4345332Y-12523337D01*
X4335808Y-12504290D01*
X4316760Y-12494766D01*
X4278665Y-12494766D01*
X4259617Y-12504290D01*
X4345332Y-12618576D02*
X4326284Y-12628099D01*
X4278665Y-12628099D01*
X4259617Y-12618576D01*
X4250093Y-12599528D01*
X4250093Y-12580480D01*
X4259617Y-12561433D01*
X4278665Y-12551909D01*
X4326284Y-12551909D01*
X4345332Y-12542385D01*
X4440570Y-12494766D02*
X4440570Y-12694766D01*
X4440570Y-12504290D02*
X4459617Y-12494766D01*
X4497712Y-12494766D01*
X4516760Y-12504290D01*
X4526284Y-12513814D01*
X4535808Y-12532861D01*
X4535808Y-12590004D01*
X4526284Y-12609052D01*
X4516760Y-12618576D01*
X4497712Y-12628099D01*
X4459617Y-12628099D01*
X4440570Y-12618576D01*
X4621522Y-12609052D02*
X4631046Y-12618576D01*
X4621522Y-12628099D01*
X4611998Y-12618576D01*
X4621522Y-12609052D01*
X4621522Y-12628099D01*
X4621522Y-12504290D02*
X4631046Y-12513814D01*
X4621522Y-12523337D01*
X4611998Y-12513814D01*
X4621522Y-12504290D01*
X4621522Y-12523337D01*
D12*
X2882474Y-12902623D02*
X2992474Y-13012623D01*
X2992474Y-12902623D02*
X2882474Y-13012623D01*
D11*
X3354855Y-13048099D02*
X3240570Y-13048099D01*
X3297712Y-13048099D02*
X3297712Y-12848099D01*
X3278665Y-12876671D01*
X3259617Y-12895718D01*
X3240570Y-12905242D01*
X3440570Y-13029052D02*
X3450093Y-13038576D01*
X3440570Y-13048099D01*
X3431046Y-13038576D01*
X3440570Y-13029052D01*
X3440570Y-13048099D01*
X3640570Y-13048099D02*
X3526284Y-13048099D01*
X3583427Y-13048099D02*
X3583427Y-12848099D01*
X3564379Y-12876671D01*
X3545331Y-12895718D01*
X3526284Y-12905242D01*
X3764379Y-12848099D02*
X3783427Y-12848099D01*
X3802474Y-12857623D01*
X3811998Y-12867147D01*
X3821522Y-12886195D01*
X3831046Y-12924290D01*
X3831046Y-12971909D01*
X3821522Y-13010004D01*
X3811998Y-13029052D01*
X3802474Y-13038576D01*
X3783427Y-13048099D01*
X3764379Y-13048099D01*
X3745331Y-13038576D01*
X3735808Y-13029052D01*
X3726284Y-13010004D01*
X3716760Y-12971909D01*
X3716760Y-12924290D01*
X3726284Y-12886195D01*
X3735808Y-12867147D01*
X3745331Y-12857623D01*
X3764379Y-12848099D01*
X3954855Y-12848099D02*
X3973903Y-12848099D01*
X3992950Y-12857623D01*
X4002474Y-12867147D01*
X4011998Y-12886195D01*
X4021522Y-12924290D01*
X4021522Y-12971909D01*
X4011998Y-13010004D01*
X4002474Y-13029052D01*
X3992950Y-13038576D01*
X3973903Y-13048099D01*
X3954855Y-13048099D01*
X3935808Y-13038576D01*
X3926284Y-13029052D01*
X3916760Y-13010004D01*
X3907236Y-12971909D01*
X3907236Y-12924290D01*
X3916760Y-12886195D01*
X3926284Y-12867147D01*
X3935808Y-12857623D01*
X3954855Y-12848099D01*
X4107236Y-13048099D02*
X4107236Y-12914766D01*
X4107236Y-12933814D02*
X4116760Y-12924290D01*
X4135808Y-12914766D01*
X4164379Y-12914766D01*
X4183427Y-12924290D01*
X4192950Y-12943337D01*
X4192950Y-13048099D01*
X4192950Y-12943337D02*
X4202474Y-12924290D01*
X4221522Y-12914766D01*
X4250093Y-12914766D01*
X4269141Y-12924290D01*
X4278665Y-12943337D01*
X4278665Y-13048099D01*
X4373903Y-13048099D02*
X4373903Y-12914766D01*
X4373903Y-12933814D02*
X4383427Y-12924290D01*
X4402474Y-12914766D01*
X4431046Y-12914766D01*
X4450093Y-12924290D01*
X4459617Y-12943337D01*
X4459617Y-13048099D01*
X4459617Y-12943337D02*
X4469141Y-12924290D01*
X4488189Y-12914766D01*
X4516760Y-12914766D01*
X4535808Y-12924290D01*
X4545332Y-12943337D01*
X4545332Y-13048099D01*
X4935808Y-12838576D02*
X4764379Y-13095718D01*
X5192951Y-12848099D02*
X5211998Y-12848099D01*
X5231046Y-12857623D01*
X5240570Y-12867147D01*
X5250093Y-12886195D01*
X5259617Y-12924290D01*
X5259617Y-12971909D01*
X5250093Y-13010004D01*
X5240570Y-13029052D01*
X5231046Y-13038576D01*
X5211998Y-13048099D01*
X5192951Y-13048099D01*
X5173903Y-13038576D01*
X5164379Y-13029052D01*
X5154855Y-13010004D01*
X5145332Y-12971909D01*
X5145332Y-12924290D01*
X5154855Y-12886195D01*
X5164379Y-12867147D01*
X5173903Y-12857623D01*
X5192951Y-12848099D01*
X5345332Y-13029052D02*
X5354855Y-13038576D01*
X5345332Y-13048099D01*
X5335808Y-13038576D01*
X5345332Y-13029052D01*
X5345332Y-13048099D01*
X5478665Y-12848099D02*
X5497712Y-12848099D01*
X5516760Y-12857623D01*
X5526284Y-12867147D01*
X5535808Y-12886195D01*
X5545332Y-12924290D01*
X5545332Y-12971909D01*
X5535808Y-13010004D01*
X5526284Y-13029052D01*
X5516760Y-13038576D01*
X5497712Y-13048099D01*
X5478665Y-13048099D01*
X5459617Y-13038576D01*
X5450093Y-13029052D01*
X5440570Y-13010004D01*
X5431046Y-12971909D01*
X5431046Y-12924290D01*
X5440570Y-12886195D01*
X5450093Y-12867147D01*
X5459617Y-12857623D01*
X5478665Y-12848099D01*
X5716760Y-12914766D02*
X5716760Y-13048099D01*
X5669141Y-12838576D02*
X5621522Y-12981433D01*
X5745331Y-12981433D01*
X5802474Y-12848099D02*
X5926284Y-12848099D01*
X5859617Y-12924290D01*
X5888189Y-12924290D01*
X5907236Y-12933814D01*
X5916760Y-12943337D01*
X5926284Y-12962385D01*
X5926284Y-13010004D01*
X5916760Y-13029052D01*
X5907236Y-13038576D01*
X5888189Y-13048099D01*
X5831046Y-13048099D01*
X5811998Y-13038576D01*
X5802474Y-13029052D01*
X5992950Y-12848099D02*
X6116760Y-12848099D01*
X6050093Y-12924290D01*
X6078665Y-12924290D01*
X6097712Y-12933814D01*
X6107236Y-12943337D01*
X6116760Y-12962385D01*
X6116760Y-13010004D01*
X6107236Y-13029052D01*
X6097712Y-13038576D01*
X6078665Y-13048099D01*
X6021522Y-13048099D01*
X6002474Y-13038576D01*
X5992950Y-13029052D01*
X6192950Y-12848099D02*
X6192950Y-12886195D01*
X6269141Y-12848099D02*
X6269141Y-12886195D01*
X6564379Y-13124290D02*
X6554855Y-13114766D01*
X6535808Y-13086195D01*
X6526284Y-13067147D01*
X6516760Y-13038576D01*
X6507236Y-12990957D01*
X6507236Y-12952861D01*
X6516760Y-12905242D01*
X6526284Y-12876671D01*
X6535808Y-12857623D01*
X6554855Y-12829052D01*
X6564379Y-12819528D01*
X6745331Y-13048099D02*
X6631046Y-13048099D01*
X6688189Y-13048099D02*
X6688189Y-12848099D01*
X6669141Y-12876671D01*
X6650093Y-12895718D01*
X6631046Y-12905242D01*
X6983427Y-13048099D02*
X6983427Y-12848099D01*
X7069141Y-13048099D02*
X7069141Y-12943337D01*
X7059617Y-12924290D01*
X7040570Y-12914766D01*
X7011998Y-12914766D01*
X6992950Y-12924290D01*
X6983427Y-12933814D01*
X7192950Y-13048099D02*
X7173903Y-13038576D01*
X7164379Y-13029052D01*
X7154855Y-13010004D01*
X7154855Y-12952861D01*
X7164379Y-12933814D01*
X7173903Y-12924290D01*
X7192950Y-12914766D01*
X7221522Y-12914766D01*
X7240570Y-12924290D01*
X7250093Y-12933814D01*
X7259617Y-12952861D01*
X7259617Y-13010004D01*
X7250093Y-13029052D01*
X7240570Y-13038576D01*
X7221522Y-13048099D01*
X7192950Y-13048099D01*
X7373903Y-13048099D02*
X7354855Y-13038576D01*
X7345331Y-13019528D01*
X7345331Y-12848099D01*
X7526284Y-13038576D02*
X7507236Y-13048099D01*
X7469141Y-13048099D01*
X7450093Y-13038576D01*
X7440570Y-13019528D01*
X7440570Y-12943337D01*
X7450093Y-12924290D01*
X7469141Y-12914766D01*
X7507236Y-12914766D01*
X7526284Y-12924290D01*
X7535808Y-12943337D01*
X7535808Y-12962385D01*
X7440570Y-12981433D01*
X7602474Y-13124290D02*
X7611998Y-13114766D01*
X7631046Y-13086195D01*
X7640570Y-13067147D01*
X7650093Y-13038576D01*
X7659617Y-12990957D01*
X7659617Y-12952861D01*
X7650093Y-12905242D01*
X7640570Y-12876671D01*
X7631046Y-12857623D01*
X7611998Y-12829052D01*
X7602474Y-12819528D01*
X7964379Y-13124290D02*
X7954855Y-13114766D01*
X7935808Y-13086195D01*
X7926284Y-13067147D01*
X7916760Y-13038576D01*
X7907236Y-12990957D01*
X7907236Y-12952861D01*
X7916760Y-12905242D01*
X7926284Y-12876671D01*
X7935808Y-12857623D01*
X7954855Y-12829052D01*
X7964379Y-12819528D01*
X8040570Y-12914766D02*
X8040570Y-13048099D01*
X8040570Y-12933814D02*
X8050093Y-12924290D01*
X8069141Y-12914766D01*
X8097712Y-12914766D01*
X8116760Y-12924290D01*
X8126284Y-12943337D01*
X8126284Y-13048099D01*
X8250093Y-13048099D02*
X8231046Y-13038576D01*
X8221522Y-13029052D01*
X8211998Y-13010004D01*
X8211998Y-12952861D01*
X8221522Y-12933814D01*
X8231046Y-12924290D01*
X8250093Y-12914766D01*
X8278665Y-12914766D01*
X8297712Y-12924290D01*
X8307236Y-12933814D01*
X8316760Y-12952861D01*
X8316760Y-13010004D01*
X8307236Y-13029052D01*
X8297712Y-13038576D01*
X8278665Y-13048099D01*
X8250093Y-13048099D01*
X8373903Y-12914766D02*
X8450093Y-12914766D01*
X8402474Y-12848099D02*
X8402474Y-13019528D01*
X8411998Y-13038576D01*
X8431046Y-13048099D01*
X8450093Y-13048099D01*
X8669141Y-12914766D02*
X8669141Y-13114766D01*
X8669141Y-12924290D02*
X8688189Y-12914766D01*
X8726284Y-12914766D01*
X8745332Y-12924290D01*
X8754855Y-12933814D01*
X8764379Y-12952861D01*
X8764379Y-13010004D01*
X8754855Y-13029052D01*
X8745332Y-13038576D01*
X8726284Y-13048099D01*
X8688189Y-13048099D01*
X8669141Y-13038576D01*
X8878665Y-13048099D02*
X8859617Y-13038576D01*
X8850093Y-13019528D01*
X8850093Y-12848099D01*
X9040570Y-13048099D02*
X9040570Y-12943337D01*
X9031046Y-12924290D01*
X9011998Y-12914766D01*
X8973903Y-12914766D01*
X8954855Y-12924290D01*
X9040570Y-13038576D02*
X9021522Y-13048099D01*
X8973903Y-13048099D01*
X8954855Y-13038576D01*
X8945332Y-13019528D01*
X8945332Y-13000480D01*
X8954855Y-12981433D01*
X8973903Y-12971909D01*
X9021522Y-12971909D01*
X9040570Y-12962385D01*
X9107236Y-12914766D02*
X9183427Y-12914766D01*
X9135808Y-12848099D02*
X9135808Y-13019528D01*
X9145332Y-13038576D01*
X9164379Y-13048099D01*
X9183427Y-13048099D01*
X9326284Y-13038576D02*
X9307236Y-13048099D01*
X9269141Y-13048099D01*
X9250093Y-13038576D01*
X9240570Y-13019528D01*
X9240570Y-12943337D01*
X9250093Y-12924290D01*
X9269141Y-12914766D01*
X9307236Y-12914766D01*
X9326284Y-12924290D01*
X9335808Y-12943337D01*
X9335808Y-12962385D01*
X9240570Y-12981433D01*
X9507236Y-13048099D02*
X9507236Y-12848099D01*
X9507236Y-13038576D02*
X9488189Y-13048099D01*
X9450093Y-13048099D01*
X9431046Y-13038576D01*
X9421522Y-13029052D01*
X9411998Y-13010004D01*
X9411998Y-12952861D01*
X9421522Y-12933814D01*
X9431046Y-12924290D01*
X9450093Y-12914766D01*
X9488189Y-12914766D01*
X9507236Y-12924290D01*
X9583427Y-13124290D02*
X9592951Y-13114766D01*
X9611998Y-13086195D01*
X9621522Y-13067147D01*
X9631046Y-13038576D01*
X9640570Y-12990957D01*
X9640570Y-12952861D01*
X9631046Y-12905242D01*
X9621522Y-12876671D01*
X9611998Y-12857623D01*
X9592951Y-12829052D01*
X9583427Y-12819528D01*
D13*
X2992474Y-13221623D02*
G75*
G03*
X2992474Y-13221623I-80000J0D01*
G01*
D11*
X3354855Y-13312099D02*
X3240570Y-13312099D01*
X3297712Y-13312099D02*
X3297712Y-13112099D01*
X3278665Y-13140671D01*
X3259617Y-13159718D01*
X3240570Y-13169242D01*
X3440570Y-13293052D02*
X3450093Y-13302576D01*
X3440570Y-13312099D01*
X3431046Y-13302576D01*
X3440570Y-13293052D01*
X3440570Y-13312099D01*
X3621522Y-13112099D02*
X3583427Y-13112099D01*
X3564379Y-13121623D01*
X3554855Y-13131147D01*
X3535808Y-13159718D01*
X3526284Y-13197814D01*
X3526284Y-13274004D01*
X3535808Y-13293052D01*
X3545331Y-13302576D01*
X3564379Y-13312099D01*
X3602474Y-13312099D01*
X3621522Y-13302576D01*
X3631046Y-13293052D01*
X3640570Y-13274004D01*
X3640570Y-13226385D01*
X3631046Y-13207337D01*
X3621522Y-13197814D01*
X3602474Y-13188290D01*
X3564379Y-13188290D01*
X3545331Y-13197814D01*
X3535808Y-13207337D01*
X3526284Y-13226385D01*
X3764379Y-13112099D02*
X3783427Y-13112099D01*
X3802474Y-13121623D01*
X3811998Y-13131147D01*
X3821522Y-13150195D01*
X3831046Y-13188290D01*
X3831046Y-13235909D01*
X3821522Y-13274004D01*
X3811998Y-13293052D01*
X3802474Y-13302576D01*
X3783427Y-13312099D01*
X3764379Y-13312099D01*
X3745331Y-13302576D01*
X3735808Y-13293052D01*
X3726284Y-13274004D01*
X3716760Y-13235909D01*
X3716760Y-13188290D01*
X3726284Y-13150195D01*
X3735808Y-13131147D01*
X3745331Y-13121623D01*
X3764379Y-13112099D01*
X3954855Y-13112099D02*
X3973903Y-13112099D01*
X3992950Y-13121623D01*
X4002474Y-13131147D01*
X4011998Y-13150195D01*
X4021522Y-13188290D01*
X4021522Y-13235909D01*
X4011998Y-13274004D01*
X4002474Y-13293052D01*
X3992950Y-13302576D01*
X3973903Y-13312099D01*
X3954855Y-13312099D01*
X3935808Y-13302576D01*
X3926284Y-13293052D01*
X3916760Y-13274004D01*
X3907236Y-13235909D01*
X3907236Y-13188290D01*
X3916760Y-13150195D01*
X3926284Y-13131147D01*
X3935808Y-13121623D01*
X3954855Y-13112099D01*
X4107236Y-13312099D02*
X4107236Y-13178766D01*
X4107236Y-13197814D02*
X4116760Y-13188290D01*
X4135808Y-13178766D01*
X4164379Y-13178766D01*
X4183427Y-13188290D01*
X4192950Y-13207337D01*
X4192950Y-13312099D01*
X4192950Y-13207337D02*
X4202474Y-13188290D01*
X4221522Y-13178766D01*
X4250093Y-13178766D01*
X4269141Y-13188290D01*
X4278665Y-13207337D01*
X4278665Y-13312099D01*
X4373903Y-13312099D02*
X4373903Y-13178766D01*
X4373903Y-13197814D02*
X4383427Y-13188290D01*
X4402474Y-13178766D01*
X4431046Y-13178766D01*
X4450093Y-13188290D01*
X4459617Y-13207337D01*
X4459617Y-13312099D01*
X4459617Y-13207337D02*
X4469141Y-13188290D01*
X4488189Y-13178766D01*
X4516760Y-13178766D01*
X4535808Y-13188290D01*
X4545332Y-13207337D01*
X4545332Y-13312099D01*
X4935808Y-13102576D02*
X4764379Y-13359718D01*
X5192951Y-13112099D02*
X5211998Y-13112099D01*
X5231046Y-13121623D01*
X5240570Y-13131147D01*
X5250093Y-13150195D01*
X5259617Y-13188290D01*
X5259617Y-13235909D01*
X5250093Y-13274004D01*
X5240570Y-13293052D01*
X5231046Y-13302576D01*
X5211998Y-13312099D01*
X5192951Y-13312099D01*
X5173903Y-13302576D01*
X5164379Y-13293052D01*
X5154855Y-13274004D01*
X5145332Y-13235909D01*
X5145332Y-13188290D01*
X5154855Y-13150195D01*
X5164379Y-13131147D01*
X5173903Y-13121623D01*
X5192951Y-13112099D01*
X5345332Y-13293052D02*
X5354855Y-13302576D01*
X5345332Y-13312099D01*
X5335808Y-13302576D01*
X5345332Y-13293052D01*
X5345332Y-13312099D01*
X5478665Y-13112099D02*
X5497712Y-13112099D01*
X5516760Y-13121623D01*
X5526284Y-13131147D01*
X5535808Y-13150195D01*
X5545332Y-13188290D01*
X5545332Y-13235909D01*
X5535808Y-13274004D01*
X5526284Y-13293052D01*
X5516760Y-13302576D01*
X5497712Y-13312099D01*
X5478665Y-13312099D01*
X5459617Y-13302576D01*
X5450093Y-13293052D01*
X5440570Y-13274004D01*
X5431046Y-13235909D01*
X5431046Y-13188290D01*
X5440570Y-13150195D01*
X5450093Y-13131147D01*
X5459617Y-13121623D01*
X5478665Y-13112099D01*
X5716760Y-13112099D02*
X5678665Y-13112099D01*
X5659617Y-13121623D01*
X5650093Y-13131147D01*
X5631046Y-13159718D01*
X5621522Y-13197814D01*
X5621522Y-13274004D01*
X5631046Y-13293052D01*
X5640570Y-13302576D01*
X5659617Y-13312099D01*
X5697712Y-13312099D01*
X5716760Y-13302576D01*
X5726284Y-13293052D01*
X5735808Y-13274004D01*
X5735808Y-13226385D01*
X5726284Y-13207337D01*
X5716760Y-13197814D01*
X5697712Y-13188290D01*
X5659617Y-13188290D01*
X5640570Y-13197814D01*
X5631046Y-13207337D01*
X5621522Y-13226385D01*
X5802474Y-13112099D02*
X5926284Y-13112099D01*
X5859617Y-13188290D01*
X5888189Y-13188290D01*
X5907236Y-13197814D01*
X5916760Y-13207337D01*
X5926284Y-13226385D01*
X5926284Y-13274004D01*
X5916760Y-13293052D01*
X5907236Y-13302576D01*
X5888189Y-13312099D01*
X5831046Y-13312099D01*
X5811998Y-13302576D01*
X5802474Y-13293052D01*
X6050093Y-13112099D02*
X6069141Y-13112099D01*
X6088189Y-13121623D01*
X6097712Y-13131147D01*
X6107236Y-13150195D01*
X6116760Y-13188290D01*
X6116760Y-13235909D01*
X6107236Y-13274004D01*
X6097712Y-13293052D01*
X6088189Y-13302576D01*
X6069141Y-13312099D01*
X6050093Y-13312099D01*
X6031046Y-13302576D01*
X6021522Y-13293052D01*
X6011998Y-13274004D01*
X6002474Y-13235909D01*
X6002474Y-13188290D01*
X6011998Y-13150195D01*
X6021522Y-13131147D01*
X6031046Y-13121623D01*
X6050093Y-13112099D01*
X6192950Y-13112099D02*
X6192950Y-13150195D01*
X6269141Y-13112099D02*
X6269141Y-13150195D01*
X6564379Y-13388290D02*
X6554855Y-13378766D01*
X6535808Y-13350195D01*
X6526284Y-13331147D01*
X6516760Y-13302576D01*
X6507236Y-13254957D01*
X6507236Y-13216861D01*
X6516760Y-13169242D01*
X6526284Y-13140671D01*
X6535808Y-13121623D01*
X6554855Y-13093052D01*
X6564379Y-13083528D01*
X6745331Y-13312099D02*
X6631046Y-13312099D01*
X6688189Y-13312099D02*
X6688189Y-13112099D01*
X6669141Y-13140671D01*
X6650093Y-13159718D01*
X6631046Y-13169242D01*
X6983427Y-13312099D02*
X6983427Y-13112099D01*
X7069141Y-13312099D02*
X7069141Y-13207337D01*
X7059617Y-13188290D01*
X7040570Y-13178766D01*
X7011998Y-13178766D01*
X6992950Y-13188290D01*
X6983427Y-13197814D01*
X7192950Y-13312099D02*
X7173903Y-13302576D01*
X7164379Y-13293052D01*
X7154855Y-13274004D01*
X7154855Y-13216861D01*
X7164379Y-13197814D01*
X7173903Y-13188290D01*
X7192950Y-13178766D01*
X7221522Y-13178766D01*
X7240570Y-13188290D01*
X7250093Y-13197814D01*
X7259617Y-13216861D01*
X7259617Y-13274004D01*
X7250093Y-13293052D01*
X7240570Y-13302576D01*
X7221522Y-13312099D01*
X7192950Y-13312099D01*
X7373903Y-13312099D02*
X7354855Y-13302576D01*
X7345331Y-13283528D01*
X7345331Y-13112099D01*
X7526284Y-13302576D02*
X7507236Y-13312099D01*
X7469141Y-13312099D01*
X7450093Y-13302576D01*
X7440570Y-13283528D01*
X7440570Y-13207337D01*
X7450093Y-13188290D01*
X7469141Y-13178766D01*
X7507236Y-13178766D01*
X7526284Y-13188290D01*
X7535808Y-13207337D01*
X7535808Y-13226385D01*
X7440570Y-13245433D01*
X7602474Y-13388290D02*
X7611998Y-13378766D01*
X7631046Y-13350195D01*
X7640570Y-13331147D01*
X7650093Y-13302576D01*
X7659617Y-13254957D01*
X7659617Y-13216861D01*
X7650093Y-13169242D01*
X7640570Y-13140671D01*
X7631046Y-13121623D01*
X7611998Y-13093052D01*
X7602474Y-13083528D01*
X7964379Y-13388290D02*
X7954855Y-13378766D01*
X7935808Y-13350195D01*
X7926284Y-13331147D01*
X7916760Y-13302576D01*
X7907236Y-13254957D01*
X7907236Y-13216861D01*
X7916760Y-13169242D01*
X7926284Y-13140671D01*
X7935808Y-13121623D01*
X7954855Y-13093052D01*
X7964379Y-13083528D01*
X8040570Y-13178766D02*
X8040570Y-13312099D01*
X8040570Y-13197814D02*
X8050093Y-13188290D01*
X8069141Y-13178766D01*
X8097712Y-13178766D01*
X8116760Y-13188290D01*
X8126284Y-13207337D01*
X8126284Y-13312099D01*
X8250093Y-13312099D02*
X8231046Y-13302576D01*
X8221522Y-13293052D01*
X8211998Y-13274004D01*
X8211998Y-13216861D01*
X8221522Y-13197814D01*
X8231046Y-13188290D01*
X8250093Y-13178766D01*
X8278665Y-13178766D01*
X8297712Y-13188290D01*
X8307236Y-13197814D01*
X8316760Y-13216861D01*
X8316760Y-13274004D01*
X8307236Y-13293052D01*
X8297712Y-13302576D01*
X8278665Y-13312099D01*
X8250093Y-13312099D01*
X8373903Y-13178766D02*
X8450093Y-13178766D01*
X8402474Y-13112099D02*
X8402474Y-13283528D01*
X8411998Y-13302576D01*
X8431046Y-13312099D01*
X8450093Y-13312099D01*
X8669141Y-13178766D02*
X8669141Y-13378766D01*
X8669141Y-13188290D02*
X8688189Y-13178766D01*
X8726284Y-13178766D01*
X8745332Y-13188290D01*
X8754855Y-13197814D01*
X8764379Y-13216861D01*
X8764379Y-13274004D01*
X8754855Y-13293052D01*
X8745332Y-13302576D01*
X8726284Y-13312099D01*
X8688189Y-13312099D01*
X8669141Y-13302576D01*
X8878665Y-13312099D02*
X8859617Y-13302576D01*
X8850093Y-13283528D01*
X8850093Y-13112099D01*
X9040570Y-13312099D02*
X9040570Y-13207337D01*
X9031046Y-13188290D01*
X9011998Y-13178766D01*
X8973903Y-13178766D01*
X8954855Y-13188290D01*
X9040570Y-13302576D02*
X9021522Y-13312099D01*
X8973903Y-13312099D01*
X8954855Y-13302576D01*
X8945332Y-13283528D01*
X8945332Y-13264480D01*
X8954855Y-13245433D01*
X8973903Y-13235909D01*
X9021522Y-13235909D01*
X9040570Y-13226385D01*
X9107236Y-13178766D02*
X9183427Y-13178766D01*
X9135808Y-13112099D02*
X9135808Y-13283528D01*
X9145332Y-13302576D01*
X9164379Y-13312099D01*
X9183427Y-13312099D01*
X9326284Y-13302576D02*
X9307236Y-13312099D01*
X9269141Y-13312099D01*
X9250093Y-13302576D01*
X9240570Y-13283528D01*
X9240570Y-13207337D01*
X9250093Y-13188290D01*
X9269141Y-13178766D01*
X9307236Y-13178766D01*
X9326284Y-13188290D01*
X9335808Y-13207337D01*
X9335808Y-13226385D01*
X9240570Y-13245433D01*
X9507236Y-13312099D02*
X9507236Y-13112099D01*
X9507236Y-13302576D02*
X9488189Y-13312099D01*
X9450093Y-13312099D01*
X9431046Y-13302576D01*
X9421522Y-13293052D01*
X9411998Y-13274004D01*
X9411998Y-13216861D01*
X9421522Y-13197814D01*
X9431046Y-13188290D01*
X9450093Y-13178766D01*
X9488189Y-13178766D01*
X9507236Y-13188290D01*
X9583427Y-13388290D02*
X9592951Y-13378766D01*
X9611998Y-13350195D01*
X9621522Y-13331147D01*
X9631046Y-13302576D01*
X9640570Y-13254957D01*
X9640570Y-13216861D01*
X9631046Y-13169242D01*
X9621522Y-13140671D01*
X9611998Y-13121623D01*
X9592951Y-13093052D01*
X9583427Y-13083528D01*
X2892474Y-13401623D02*
X2892474Y-13601623D01*
X2792474Y-13501623D02*
X2992474Y-13501623D01*
X3240570Y-13411147D02*
X3250093Y-13401623D01*
X3269141Y-13392099D01*
X3316760Y-13392099D01*
X3335808Y-13401623D01*
X3345331Y-13411147D01*
X3354855Y-13430195D01*
X3354855Y-13449242D01*
X3345331Y-13477814D01*
X3231046Y-13592099D01*
X3354855Y-13592099D01*
X3440570Y-13573052D02*
X3450093Y-13582576D01*
X3440570Y-13592099D01*
X3431046Y-13582576D01*
X3440570Y-13573052D01*
X3440570Y-13592099D01*
X3631046Y-13392099D02*
X3535808Y-13392099D01*
X3526284Y-13487337D01*
X3535808Y-13477814D01*
X3554855Y-13468290D01*
X3602474Y-13468290D01*
X3621522Y-13477814D01*
X3631046Y-13487337D01*
X3640570Y-13506385D01*
X3640570Y-13554004D01*
X3631046Y-13573052D01*
X3621522Y-13582576D01*
X3602474Y-13592099D01*
X3554855Y-13592099D01*
X3535808Y-13582576D01*
X3526284Y-13573052D01*
X3764379Y-13392099D02*
X3783427Y-13392099D01*
X3802474Y-13401623D01*
X3811998Y-13411147D01*
X3821522Y-13430195D01*
X3831046Y-13468290D01*
X3831046Y-13515909D01*
X3821522Y-13554004D01*
X3811998Y-13573052D01*
X3802474Y-13582576D01*
X3783427Y-13592099D01*
X3764379Y-13592099D01*
X3745331Y-13582576D01*
X3735808Y-13573052D01*
X3726284Y-13554004D01*
X3716760Y-13515909D01*
X3716760Y-13468290D01*
X3726284Y-13430195D01*
X3735808Y-13411147D01*
X3745331Y-13401623D01*
X3764379Y-13392099D01*
X3954855Y-13392099D02*
X3973903Y-13392099D01*
X3992950Y-13401623D01*
X4002474Y-13411147D01*
X4011998Y-13430195D01*
X4021522Y-13468290D01*
X4021522Y-13515909D01*
X4011998Y-13554004D01*
X4002474Y-13573052D01*
X3992950Y-13582576D01*
X3973903Y-13592099D01*
X3954855Y-13592099D01*
X3935808Y-13582576D01*
X3926284Y-13573052D01*
X3916760Y-13554004D01*
X3907236Y-13515909D01*
X3907236Y-13468290D01*
X3916760Y-13430195D01*
X3926284Y-13411147D01*
X3935808Y-13401623D01*
X3954855Y-13392099D01*
X4107236Y-13592099D02*
X4107236Y-13458766D01*
X4107236Y-13477814D02*
X4116760Y-13468290D01*
X4135808Y-13458766D01*
X4164379Y-13458766D01*
X4183427Y-13468290D01*
X4192950Y-13487337D01*
X4192950Y-13592099D01*
X4192950Y-13487337D02*
X4202474Y-13468290D01*
X4221522Y-13458766D01*
X4250093Y-13458766D01*
X4269141Y-13468290D01*
X4278665Y-13487337D01*
X4278665Y-13592099D01*
X4373903Y-13592099D02*
X4373903Y-13458766D01*
X4373903Y-13477814D02*
X4383427Y-13468290D01*
X4402474Y-13458766D01*
X4431046Y-13458766D01*
X4450093Y-13468290D01*
X4459617Y-13487337D01*
X4459617Y-13592099D01*
X4459617Y-13487337D02*
X4469141Y-13468290D01*
X4488189Y-13458766D01*
X4516760Y-13458766D01*
X4535808Y-13468290D01*
X4545332Y-13487337D01*
X4545332Y-13592099D01*
X4935808Y-13382576D02*
X4764379Y-13639718D01*
X5192951Y-13392099D02*
X5211998Y-13392099D01*
X5231046Y-13401623D01*
X5240570Y-13411147D01*
X5250093Y-13430195D01*
X5259617Y-13468290D01*
X5259617Y-13515909D01*
X5250093Y-13554004D01*
X5240570Y-13573052D01*
X5231046Y-13582576D01*
X5211998Y-13592099D01*
X5192951Y-13592099D01*
X5173903Y-13582576D01*
X5164379Y-13573052D01*
X5154855Y-13554004D01*
X5145332Y-13515909D01*
X5145332Y-13468290D01*
X5154855Y-13430195D01*
X5164379Y-13411147D01*
X5173903Y-13401623D01*
X5192951Y-13392099D01*
X5345332Y-13573052D02*
X5354855Y-13582576D01*
X5345332Y-13592099D01*
X5335808Y-13582576D01*
X5345332Y-13573052D01*
X5345332Y-13592099D01*
X5478665Y-13392099D02*
X5497712Y-13392099D01*
X5516760Y-13401623D01*
X5526284Y-13411147D01*
X5535808Y-13430195D01*
X5545332Y-13468290D01*
X5545332Y-13515909D01*
X5535808Y-13554004D01*
X5526284Y-13573052D01*
X5516760Y-13582576D01*
X5497712Y-13592099D01*
X5478665Y-13592099D01*
X5459617Y-13582576D01*
X5450093Y-13573052D01*
X5440570Y-13554004D01*
X5431046Y-13515909D01*
X5431046Y-13468290D01*
X5440570Y-13430195D01*
X5450093Y-13411147D01*
X5459617Y-13401623D01*
X5478665Y-13392099D01*
X5640570Y-13592099D02*
X5678665Y-13592099D01*
X5697712Y-13582576D01*
X5707236Y-13573052D01*
X5726284Y-13544480D01*
X5735808Y-13506385D01*
X5735808Y-13430195D01*
X5726284Y-13411147D01*
X5716760Y-13401623D01*
X5697712Y-13392099D01*
X5659617Y-13392099D01*
X5640570Y-13401623D01*
X5631046Y-13411147D01*
X5621522Y-13430195D01*
X5621522Y-13477814D01*
X5631046Y-13496861D01*
X5640570Y-13506385D01*
X5659617Y-13515909D01*
X5697712Y-13515909D01*
X5716760Y-13506385D01*
X5726284Y-13496861D01*
X5735808Y-13477814D01*
X5850093Y-13477814D02*
X5831046Y-13468290D01*
X5821522Y-13458766D01*
X5811998Y-13439718D01*
X5811998Y-13430195D01*
X5821522Y-13411147D01*
X5831046Y-13401623D01*
X5850093Y-13392099D01*
X5888189Y-13392099D01*
X5907236Y-13401623D01*
X5916760Y-13411147D01*
X5926284Y-13430195D01*
X5926284Y-13439718D01*
X5916760Y-13458766D01*
X5907236Y-13468290D01*
X5888189Y-13477814D01*
X5850093Y-13477814D01*
X5831046Y-13487337D01*
X5821522Y-13496861D01*
X5811998Y-13515909D01*
X5811998Y-13554004D01*
X5821522Y-13573052D01*
X5831046Y-13582576D01*
X5850093Y-13592099D01*
X5888189Y-13592099D01*
X5907236Y-13582576D01*
X5916760Y-13573052D01*
X5926284Y-13554004D01*
X5926284Y-13515909D01*
X5916760Y-13496861D01*
X5907236Y-13487337D01*
X5888189Y-13477814D01*
X6097712Y-13458766D02*
X6097712Y-13592099D01*
X6050093Y-13382576D02*
X6002474Y-13525433D01*
X6126284Y-13525433D01*
X6192950Y-13392099D02*
X6192950Y-13430195D01*
X6269141Y-13392099D02*
X6269141Y-13430195D01*
X6564379Y-13668290D02*
X6554855Y-13658766D01*
X6535808Y-13630195D01*
X6526284Y-13611147D01*
X6516760Y-13582576D01*
X6507236Y-13534957D01*
X6507236Y-13496861D01*
X6516760Y-13449242D01*
X6526284Y-13420671D01*
X6535808Y-13401623D01*
X6554855Y-13373052D01*
X6564379Y-13363528D01*
X6726284Y-13458766D02*
X6726284Y-13592099D01*
X6678665Y-13382576D02*
X6631046Y-13525433D01*
X6754855Y-13525433D01*
X6983427Y-13592099D02*
X6983427Y-13392099D01*
X7069141Y-13592099D02*
X7069141Y-13487337D01*
X7059617Y-13468290D01*
X7040570Y-13458766D01*
X7011998Y-13458766D01*
X6992950Y-13468290D01*
X6983427Y-13477814D01*
X7192950Y-13592099D02*
X7173903Y-13582576D01*
X7164379Y-13573052D01*
X7154855Y-13554004D01*
X7154855Y-13496861D01*
X7164379Y-13477814D01*
X7173903Y-13468290D01*
X7192950Y-13458766D01*
X7221522Y-13458766D01*
X7240570Y-13468290D01*
X7250093Y-13477814D01*
X7259617Y-13496861D01*
X7259617Y-13554004D01*
X7250093Y-13573052D01*
X7240570Y-13582576D01*
X7221522Y-13592099D01*
X7192950Y-13592099D01*
X7373903Y-13592099D02*
X7354855Y-13582576D01*
X7345331Y-13563528D01*
X7345331Y-13392099D01*
X7526284Y-13582576D02*
X7507236Y-13592099D01*
X7469141Y-13592099D01*
X7450093Y-13582576D01*
X7440570Y-13563528D01*
X7440570Y-13487337D01*
X7450093Y-13468290D01*
X7469141Y-13458766D01*
X7507236Y-13458766D01*
X7526284Y-13468290D01*
X7535808Y-13487337D01*
X7535808Y-13506385D01*
X7440570Y-13525433D01*
X7611998Y-13582576D02*
X7631046Y-13592099D01*
X7669141Y-13592099D01*
X7688189Y-13582576D01*
X7697712Y-13563528D01*
X7697712Y-13554004D01*
X7688189Y-13534957D01*
X7669141Y-13525433D01*
X7640570Y-13525433D01*
X7621522Y-13515909D01*
X7611998Y-13496861D01*
X7611998Y-13487337D01*
X7621522Y-13468290D01*
X7640570Y-13458766D01*
X7669141Y-13458766D01*
X7688189Y-13468290D01*
X7764379Y-13668290D02*
X7773903Y-13658766D01*
X7792950Y-13630195D01*
X7802474Y-13611147D01*
X7811998Y-13582576D01*
X7821522Y-13534957D01*
X7821522Y-13496861D01*
X7811998Y-13449242D01*
X7802474Y-13420671D01*
X7792950Y-13401623D01*
X7773903Y-13373052D01*
X7764379Y-13363528D01*
X8126284Y-13668290D02*
X8116760Y-13658766D01*
X8097712Y-13630195D01*
X8088189Y-13611147D01*
X8078665Y-13582576D01*
X8069141Y-13534957D01*
X8069141Y-13496861D01*
X8078665Y-13449242D01*
X8088189Y-13420671D01*
X8097712Y-13401623D01*
X8116760Y-13373052D01*
X8126284Y-13363528D01*
X8202474Y-13458766D02*
X8202474Y-13592099D01*
X8202474Y-13477814D02*
X8211998Y-13468290D01*
X8231046Y-13458766D01*
X8259617Y-13458766D01*
X8278665Y-13468290D01*
X8288189Y-13487337D01*
X8288189Y-13592099D01*
X8411998Y-13592099D02*
X8392951Y-13582576D01*
X8383427Y-13573052D01*
X8373903Y-13554004D01*
X8373903Y-13496861D01*
X8383427Y-13477814D01*
X8392951Y-13468290D01*
X8411998Y-13458766D01*
X8440570Y-13458766D01*
X8459617Y-13468290D01*
X8469141Y-13477814D01*
X8478665Y-13496861D01*
X8478665Y-13554004D01*
X8469141Y-13573052D01*
X8459617Y-13582576D01*
X8440570Y-13592099D01*
X8411998Y-13592099D01*
X8535808Y-13458766D02*
X8611998Y-13458766D01*
X8564379Y-13392099D02*
X8564379Y-13563528D01*
X8573903Y-13582576D01*
X8592951Y-13592099D01*
X8611998Y-13592099D01*
X8831046Y-13458766D02*
X8831046Y-13658766D01*
X8831046Y-13468290D02*
X8850093Y-13458766D01*
X8888189Y-13458766D01*
X8907236Y-13468290D01*
X8916760Y-13477814D01*
X8926284Y-13496861D01*
X8926284Y-13554004D01*
X8916760Y-13573052D01*
X8907236Y-13582576D01*
X8888189Y-13592099D01*
X8850093Y-13592099D01*
X8831046Y-13582576D01*
X9040570Y-13592099D02*
X9021522Y-13582576D01*
X9011998Y-13563528D01*
X9011998Y-13392099D01*
X9202474Y-13592099D02*
X9202474Y-13487337D01*
X9192951Y-13468290D01*
X9173903Y-13458766D01*
X9135808Y-13458766D01*
X9116760Y-13468290D01*
X9202474Y-13582576D02*
X9183427Y-13592099D01*
X9135808Y-13592099D01*
X9116760Y-13582576D01*
X9107236Y-13563528D01*
X9107236Y-13544480D01*
X9116760Y-13525433D01*
X9135808Y-13515909D01*
X9183427Y-13515909D01*
X9202474Y-13506385D01*
X9269141Y-13458766D02*
X9345332Y-13458766D01*
X9297712Y-13392099D02*
X9297712Y-13563528D01*
X9307236Y-13582576D01*
X9326284Y-13592099D01*
X9345332Y-13592099D01*
X9488189Y-13582576D02*
X9469141Y-13592099D01*
X9431046Y-13592099D01*
X9411998Y-13582576D01*
X9402474Y-13563528D01*
X9402474Y-13487337D01*
X9411998Y-13468290D01*
X9431046Y-13458766D01*
X9469141Y-13458766D01*
X9488189Y-13468290D01*
X9497712Y-13487337D01*
X9497712Y-13506385D01*
X9402474Y-13525433D01*
X9669141Y-13592099D02*
X9669141Y-13392099D01*
X9669141Y-13582576D02*
X9650093Y-13592099D01*
X9611998Y-13592099D01*
X9592951Y-13582576D01*
X9583427Y-13573052D01*
X9573903Y-13554004D01*
X9573903Y-13496861D01*
X9583427Y-13477814D01*
X9592951Y-13468290D01*
X9611998Y-13458766D01*
X9650093Y-13458766D01*
X9669141Y-13468290D01*
X9745332Y-13668290D02*
X9754855Y-13658766D01*
X9773903Y-13630195D01*
X9783427Y-13611147D01*
X9792951Y-13582576D01*
X9802474Y-13534957D01*
X9802474Y-13496861D01*
X9792951Y-13449242D01*
X9783427Y-13420671D01*
X9773903Y-13401623D01*
X9754855Y-13373052D01*
X9745332Y-13363528D01*
M02*
