%TF.GenerationSoftware,KiCad,Pcbnew,6.0.4-6f826c9f35~116~ubuntu18.04.1*%
%TF.CreationDate,2022-03-28T11:59:59-03:00*%
%TF.ProjectId,CommBoard,436f6d6d-426f-4617-9264-2e6b69636164,rev?*%
%TF.SameCoordinates,Original*%
%TF.FileFunction,Soldermask,Top*%
%TF.FilePolarity,Negative*%
%FSLAX46Y46*%
G04 Gerber Fmt 4.6, Leading zero omitted, Abs format (unit mm)*
G04 Created by KiCad (PCBNEW 6.0.4-6f826c9f35~116~ubuntu18.04.1) date 2022-03-28 11:59:59*
%MOMM*%
%LPD*%
G01*
G04 APERTURE LIST*
G04 Aperture macros list*
%AMRoundRect*
0 Rectangle with rounded corners*
0 $1 Rounding radius*
0 $2 $3 $4 $5 $6 $7 $8 $9 X,Y pos of 4 corners*
0 Add a 4 corners polygon primitive as box body*
4,1,4,$2,$3,$4,$5,$6,$7,$8,$9,$2,$3,0*
0 Add four circle primitives for the rounded corners*
1,1,$1+$1,$2,$3*
1,1,$1+$1,$4,$5*
1,1,$1+$1,$6,$7*
1,1,$1+$1,$8,$9*
0 Add four rect primitives between the rounded corners*
20,1,$1+$1,$2,$3,$4,$5,0*
20,1,$1+$1,$4,$5,$6,$7,0*
20,1,$1+$1,$6,$7,$8,$9,0*
20,1,$1+$1,$8,$9,$2,$3,0*%
G04 Aperture macros list end*
%ADD10RoundRect,0.140000X0.170000X-0.140000X0.170000X0.140000X-0.170000X0.140000X-0.170000X-0.140000X0*%
%ADD11R,0.900000X0.900000*%
%ADD12RoundRect,0.147500X-0.172500X0.147500X-0.172500X-0.147500X0.172500X-0.147500X0.172500X0.147500X0*%
%ADD13RoundRect,0.250000X1.500000X0.550000X-1.500000X0.550000X-1.500000X-0.550000X1.500000X-0.550000X0*%
%ADD14RoundRect,0.140000X-0.170000X0.140000X-0.170000X-0.140000X0.170000X-0.140000X0.170000X0.140000X0*%
%ADD15RoundRect,0.250000X0.550000X-1.500000X0.550000X1.500000X-0.550000X1.500000X-0.550000X-1.500000X0*%
%ADD16O,0.750000X2.400000*%
%ADD17O,2.400000X0.750000*%
%ADD18RoundRect,0.250000X-0.550000X1.500000X-0.550000X-1.500000X0.550000X-1.500000X0.550000X1.500000X0*%
%ADD19RoundRect,0.135000X0.185000X-0.135000X0.185000X0.135000X-0.185000X0.135000X-0.185000X-0.135000X0*%
%ADD20RoundRect,0.150000X0.512500X0.150000X-0.512500X0.150000X-0.512500X-0.150000X0.512500X-0.150000X0*%
%ADD21RoundRect,0.140000X-0.140000X-0.170000X0.140000X-0.170000X0.140000X0.170000X-0.140000X0.170000X0*%
%ADD22RoundRect,0.135000X-0.135000X-0.185000X0.135000X-0.185000X0.135000X0.185000X-0.135000X0.185000X0*%
%ADD23RoundRect,0.250000X0.262500X0.450000X-0.262500X0.450000X-0.262500X-0.450000X0.262500X-0.450000X0*%
%ADD24RoundRect,0.150000X-0.150000X0.587500X-0.150000X-0.587500X0.150000X-0.587500X0.150000X0.587500X0*%
%ADD25RoundRect,0.250000X-1.500000X-0.550000X1.500000X-0.550000X1.500000X0.550000X-1.500000X0.550000X0*%
%ADD26RoundRect,0.147500X-0.147500X-0.172500X0.147500X-0.172500X0.147500X0.172500X-0.147500X0.172500X0*%
%ADD27RoundRect,0.150000X-0.587500X-0.150000X0.587500X-0.150000X0.587500X0.150000X-0.587500X0.150000X0*%
%ADD28R,1.200000X0.400000*%
%ADD29R,1.380000X0.450000*%
%ADD30R,1.550000X1.425000*%
%ADD31R,1.300000X1.650000*%
%ADD32R,1.900000X1.000000*%
%ADD33R,1.900000X1.800000*%
%ADD34R,1.700000X1.700000*%
%ADD35O,1.700000X1.700000*%
%ADD36RoundRect,0.140000X0.140000X0.170000X-0.140000X0.170000X-0.140000X-0.170000X0.140000X-0.170000X0*%
%ADD37RoundRect,0.135000X0.135000X0.185000X-0.135000X0.185000X-0.135000X-0.185000X0.135000X-0.185000X0*%
%ADD38RoundRect,0.147500X0.172500X-0.147500X0.172500X0.147500X-0.172500X0.147500X-0.172500X-0.147500X0*%
%ADD39R,0.700000X0.400000*%
%ADD40RoundRect,0.147500X0.147500X0.172500X-0.147500X0.172500X-0.147500X-0.172500X0.147500X-0.172500X0*%
%ADD41R,1.050000X1.000000*%
%ADD42R,2.200000X1.050000*%
%ADD43RoundRect,0.150000X-0.512500X-0.150000X0.512500X-0.150000X0.512500X0.150000X-0.512500X0.150000X0*%
%ADD44C,1.600000*%
%ADD45C,1.100000*%
%ADD46R,2.000000X0.600000*%
%ADD47R,3.200000X2.300000*%
%ADD48C,2.500000*%
%ADD49R,0.750000X0.250000*%
%ADD50R,0.650000X0.400000*%
%ADD51RoundRect,0.135000X-0.185000X0.135000X-0.185000X-0.135000X0.185000X-0.135000X0.185000X0.135000X0*%
%ADD52R,0.650000X1.150000*%
%ADD53R,0.540000X0.800000*%
%ADD54R,0.450000X1.300000*%
%ADD55R,1.400000X1.700000*%
%ADD56RoundRect,0.075000X-0.075000X0.312500X-0.075000X-0.312500X0.075000X-0.312500X0.075000X0.312500X0*%
%ADD57RoundRect,0.075000X-0.312500X0.075000X-0.312500X-0.075000X0.312500X-0.075000X0.312500X0.075000X0*%
%ADD58R,4.800000X4.800000*%
%ADD59RoundRect,0.250000X-0.262500X-0.450000X0.262500X-0.450000X0.262500X0.450000X-0.262500X0.450000X0*%
%ADD60R,1.200000X1.300000*%
%ADD61R,1.400000X1.300000*%
%ADD62R,4.600000X1.100000*%
%ADD63R,9.400000X10.800000*%
%ADD64RoundRect,0.243750X0.243750X0.456250X-0.243750X0.456250X-0.243750X-0.456250X0.243750X-0.456250X0*%
%ADD65R,1.000000X1.750000*%
%ADD66R,3.300000X1.000000*%
%ADD67R,1.000000X1.000000*%
%ADD68R,1.000000X3.300000*%
%ADD69R,2.100000X1.000000*%
%ADD70R,1.200000X1.400000*%
%ADD71RoundRect,0.100000X-0.217500X-0.100000X0.217500X-0.100000X0.217500X0.100000X-0.217500X0.100000X0*%
%ADD72RoundRect,0.100000X-0.130000X-0.100000X0.130000X-0.100000X0.130000X0.100000X-0.130000X0.100000X0*%
G04 APERTURE END LIST*
D10*
%TO.C,C26*%
X87974744Y-118106233D03*
X87974744Y-117146233D03*
%TD*%
D11*
%TO.C,RN1*%
X84524744Y-62026233D03*
X84524744Y-63366233D03*
X84524744Y-64686233D03*
X84524744Y-66026233D03*
X87524744Y-66026233D03*
X87524744Y-64686233D03*
X87524744Y-63366233D03*
X87524744Y-62026233D03*
%TD*%
D12*
%TO.C,L9*%
X105274744Y-76806233D03*
X105274744Y-77776233D03*
%TD*%
D13*
%TO.C,C21*%
X46774744Y-117876233D03*
X41174744Y-117876233D03*
%TD*%
D14*
%TO.C,C43*%
X97524744Y-80566233D03*
X97524744Y-81526233D03*
%TD*%
D15*
%TO.C,C14*%
X51624744Y-52676233D03*
X51624744Y-47076233D03*
%TD*%
D16*
%TO.C,U8*%
X111724744Y-91326233D03*
X110624744Y-91326233D03*
X109524744Y-91326233D03*
X108424744Y-91326233D03*
X107324744Y-91326233D03*
X102324744Y-91326233D03*
X101224744Y-91326233D03*
X100124744Y-91326233D03*
X99024744Y-91326233D03*
X97924744Y-91326233D03*
X96824744Y-91326233D03*
D17*
X92574744Y-94776233D03*
X92574744Y-95876233D03*
X92574744Y-96976233D03*
X92574744Y-98076233D03*
X92574744Y-102776233D03*
X92574744Y-103876233D03*
X92574744Y-104976233D03*
X92574744Y-106076233D03*
X92574744Y-107176233D03*
D16*
X96824744Y-110926233D03*
X97924744Y-110926233D03*
X99024744Y-110926233D03*
X100124744Y-110926233D03*
X101224744Y-110926233D03*
X102324744Y-110926233D03*
X107324744Y-110926233D03*
X108424744Y-110926233D03*
X109524744Y-110926233D03*
X110624744Y-110926233D03*
X111724744Y-110926233D03*
D17*
X115874744Y-107176233D03*
X115874744Y-106076233D03*
X115874744Y-104976233D03*
X115874744Y-103876233D03*
X115874744Y-102776233D03*
X115874744Y-98076233D03*
X115874744Y-96976233D03*
X115874744Y-95876233D03*
X115874744Y-94776233D03*
X92574744Y-99776233D03*
X92574744Y-101076233D03*
%TD*%
D18*
%TO.C,C16*%
X51674744Y-57026233D03*
X51674744Y-62626233D03*
%TD*%
D10*
%TO.C,C39*%
X98524744Y-64276233D03*
X98524744Y-63316233D03*
%TD*%
D19*
%TO.C,R3*%
X46874744Y-32036233D03*
X46874744Y-31016233D03*
%TD*%
D20*
%TO.C,U4*%
X44812244Y-35676233D03*
X44812244Y-34726233D03*
X44812244Y-33776233D03*
X42537244Y-33776233D03*
X42537244Y-34726233D03*
X42537244Y-35676233D03*
%TD*%
D21*
%TO.C,C60*%
X107644744Y-80526233D03*
X108604744Y-80526233D03*
%TD*%
D22*
%TO.C,R2*%
X41014744Y-104476233D03*
X42034744Y-104476233D03*
%TD*%
D14*
%TO.C,C6*%
X37774744Y-69791233D03*
X37774744Y-70751233D03*
%TD*%
%TO.C,C5*%
X38974744Y-69811233D03*
X38974744Y-70771233D03*
%TD*%
D21*
%TO.C,C49*%
X102124744Y-64276233D03*
X103084744Y-64276233D03*
%TD*%
%TO.C,C25*%
X120894744Y-107226233D03*
X121854744Y-107226233D03*
%TD*%
D22*
%TO.C,R7*%
X36864744Y-75326233D03*
X37884744Y-75326233D03*
%TD*%
D23*
%TO.C,R17*%
X102137244Y-115626233D03*
X100312244Y-115626233D03*
%TD*%
D24*
%TO.C,Q2*%
X69387244Y-100113733D03*
X67487244Y-100113733D03*
X68437244Y-101988733D03*
%TD*%
D25*
%TO.C,C8*%
X41824744Y-67526233D03*
X47424744Y-67526233D03*
%TD*%
D26*
%TO.C,L8*%
X103889744Y-67276233D03*
X104859744Y-67276233D03*
%TD*%
D10*
%TO.C,C7*%
X36824744Y-74226233D03*
X36824744Y-73266233D03*
%TD*%
D22*
%TO.C,R26*%
X64017244Y-106051233D03*
X65037244Y-106051233D03*
%TD*%
D10*
%TO.C,C70*%
X117054744Y-79526233D03*
X117054744Y-78566233D03*
%TD*%
D21*
%TO.C,C58*%
X105874744Y-64276233D03*
X106834744Y-64276233D03*
%TD*%
%TO.C,C28*%
X112414744Y-115176233D03*
X113374744Y-115176233D03*
%TD*%
D27*
%TO.C,Q1*%
X84037244Y-92176233D03*
X84037244Y-94076233D03*
X85912244Y-93126233D03*
%TD*%
D14*
%TO.C,C67*%
X111904744Y-67316233D03*
X111904744Y-68276233D03*
%TD*%
D28*
%TO.C,U5*%
X41524744Y-72803733D03*
X41524744Y-73438733D03*
X41524744Y-74073733D03*
X41524744Y-74708733D03*
X41524744Y-75343733D03*
X41524744Y-75978733D03*
X41524744Y-76613733D03*
X41524744Y-77248733D03*
X46724744Y-77248733D03*
X46724744Y-76613733D03*
X46724744Y-75978733D03*
X46724744Y-75343733D03*
X46724744Y-74708733D03*
X46724744Y-74073733D03*
X46724744Y-73438733D03*
X46724744Y-72803733D03*
%TD*%
D14*
%TO.C,C19*%
X123224744Y-96146233D03*
X123224744Y-97106233D03*
%TD*%
D22*
%TO.C,R24*%
X64327244Y-98551233D03*
X65347244Y-98551233D03*
%TD*%
D21*
%TO.C,C22*%
X120894744Y-104226233D03*
X121854744Y-104226233D03*
%TD*%
D29*
%TO.C,J2*%
X33934744Y-74826233D03*
X33934744Y-75476233D03*
X33934744Y-76126233D03*
X33934744Y-76776233D03*
X33934744Y-77426233D03*
D30*
X33849744Y-73638733D03*
D31*
X31274744Y-72751233D03*
X31274744Y-79501233D03*
D32*
X31274744Y-77676233D03*
D33*
X31274744Y-74976233D03*
D30*
X33849744Y-78613733D03*
%TD*%
D10*
%TO.C,C34*%
X115624744Y-64481233D03*
X115624744Y-63521233D03*
%TD*%
D34*
%TO.C,J6*%
X34974744Y-83666233D03*
D35*
X37514744Y-83666233D03*
%TD*%
D21*
%TO.C,C65*%
X109924744Y-68276233D03*
X110884744Y-68276233D03*
%TD*%
D18*
%TO.C,C4*%
X51574744Y-25226233D03*
X51574744Y-30826233D03*
%TD*%
D21*
%TO.C,C62*%
X107294744Y-76776233D03*
X108254744Y-76776233D03*
%TD*%
D36*
%TO.C,C2*%
X41984744Y-105576233D03*
X41024744Y-105576233D03*
%TD*%
D37*
%TO.C,R1*%
X42024744Y-102076233D03*
X41004744Y-102076233D03*
%TD*%
D22*
%TO.C,R8*%
X36874744Y-76376233D03*
X37894744Y-76376233D03*
%TD*%
D38*
%TO.C,L4*%
X99374744Y-66996233D03*
X99374744Y-66026233D03*
%TD*%
D19*
%TO.C,R4*%
X42974744Y-32026233D03*
X42974744Y-31006233D03*
%TD*%
D14*
%TO.C,C63*%
X108874744Y-67296233D03*
X108874744Y-68256233D03*
%TD*%
D37*
%TO.C,R14*%
X95244744Y-116376233D03*
X94224744Y-116376233D03*
%TD*%
D34*
%TO.C,J7*%
X34974744Y-86166233D03*
D35*
X37514744Y-86166233D03*
%TD*%
D10*
%TO.C,C17*%
X49624744Y-87206233D03*
X49624744Y-86246233D03*
%TD*%
D39*
%TO.C,U12*%
X113674744Y-77876233D03*
X113674744Y-78526233D03*
X113674744Y-79176233D03*
X115574744Y-79176233D03*
X115574744Y-78526233D03*
X115574744Y-77876233D03*
%TD*%
D21*
%TO.C,C50*%
X105874744Y-70276233D03*
X106834744Y-70276233D03*
%TD*%
D26*
%TO.C,L13*%
X110289744Y-77776233D03*
X111259744Y-77776233D03*
%TD*%
D34*
%TO.C,J4*%
X44724744Y-25836233D03*
D35*
X44724744Y-28376233D03*
%TD*%
D36*
%TO.C,C13*%
X41504744Y-78826233D03*
X40544744Y-78826233D03*
%TD*%
D21*
%TO.C,C72*%
X122114744Y-82101233D03*
X123074744Y-82101233D03*
%TD*%
D10*
%TO.C,C30*%
X98274744Y-67776233D03*
X98274744Y-66816233D03*
%TD*%
D40*
%TO.C,L7*%
X104259744Y-75776233D03*
X103289744Y-75776233D03*
%TD*%
D41*
%TO.C,J13*%
X124799744Y-59551233D03*
D42*
X126324744Y-58076233D03*
X126324744Y-61026233D03*
%TD*%
D43*
%TO.C,D2*%
X76974744Y-118626233D03*
X76974744Y-119576233D03*
X76974744Y-120526233D03*
X79249744Y-120526233D03*
X79249744Y-119576233D03*
X79249744Y-118626233D03*
%TD*%
D10*
%TO.C,C47*%
X101124744Y-64276233D03*
X101124744Y-63316233D03*
%TD*%
D14*
%TO.C,C48*%
X101124744Y-80546233D03*
X101124744Y-81506233D03*
%TD*%
D44*
%TO.C,U2*%
X70049744Y-27976233D03*
D45*
X70049744Y-52976233D03*
D46*
X65949744Y-28676233D03*
X74149744Y-29076233D03*
X65949744Y-29476233D03*
X74149744Y-29876233D03*
X65949744Y-30276233D03*
X74149744Y-30676233D03*
X65949744Y-31076233D03*
X74149744Y-31476233D03*
X65949744Y-31876233D03*
X74149744Y-32276233D03*
X65949744Y-32676233D03*
X74149744Y-33076233D03*
X65949744Y-33476233D03*
X74149744Y-33876233D03*
X65949744Y-34276233D03*
X74149744Y-34676233D03*
X65949744Y-38276233D03*
X74149744Y-38676233D03*
X65949744Y-39076233D03*
X74149744Y-39476233D03*
X65949744Y-39876233D03*
X74149744Y-40276233D03*
X65949744Y-40676233D03*
X74149744Y-41076233D03*
X65949744Y-41476233D03*
X74149744Y-41876233D03*
X65949744Y-42276233D03*
X74149744Y-42676233D03*
X65949744Y-43076233D03*
X74149744Y-43476233D03*
X65949744Y-43876233D03*
X74149744Y-44276233D03*
X65949744Y-44676233D03*
X74149744Y-45076233D03*
X65949744Y-45476233D03*
X74149744Y-45876233D03*
X65949744Y-46276233D03*
X74149744Y-46676233D03*
X65949744Y-47076233D03*
X74149744Y-47476233D03*
X65949744Y-47876233D03*
X74149744Y-48276233D03*
X65949744Y-48676233D03*
X74149744Y-49076233D03*
X65949744Y-49476233D03*
X74149744Y-49876233D03*
X65949744Y-50276233D03*
X74149744Y-50676233D03*
X65949744Y-51076233D03*
X74149744Y-51476233D03*
X65949744Y-51876233D03*
X74149744Y-52276233D03*
D47*
X66549744Y-55126233D03*
X66549744Y-25826233D03*
%TD*%
D14*
%TO.C,C57*%
X105849744Y-67276233D03*
X105849744Y-68236233D03*
%TD*%
D37*
%TO.C,R19*%
X104484744Y-120626233D03*
X103464744Y-120626233D03*
%TD*%
D11*
%TO.C,RN2*%
X84524744Y-70526233D03*
X84524744Y-71866233D03*
X84524744Y-73186233D03*
X84524744Y-74526233D03*
X87524744Y-74526233D03*
X87524744Y-73186233D03*
X87524744Y-71866233D03*
X87524744Y-70526233D03*
%TD*%
D21*
%TO.C,C74*%
X122139744Y-85051233D03*
X123099744Y-85051233D03*
%TD*%
%TO.C,C51*%
X102894744Y-69276233D03*
X103854744Y-69276233D03*
%TD*%
D26*
%TO.C,L12*%
X109904744Y-67276233D03*
X110874744Y-67276233D03*
%TD*%
D21*
%TO.C,C61*%
X106889744Y-68276233D03*
X107849744Y-68276233D03*
%TD*%
%TO.C,C24*%
X120894744Y-106226233D03*
X121854744Y-106226233D03*
%TD*%
D48*
%TO.C,H1*%
X124974744Y-28626233D03*
%TD*%
D49*
%TO.C,U7*%
X46024744Y-94476233D03*
X46024744Y-94976233D03*
X46024744Y-95476233D03*
X46024744Y-95976233D03*
X49124744Y-95976233D03*
X49124744Y-95476233D03*
X49124744Y-94976233D03*
X49124744Y-94476233D03*
%TD*%
D37*
%TO.C,R20*%
X104494744Y-119626233D03*
X103474744Y-119626233D03*
%TD*%
D36*
%TO.C,C45*%
X95004744Y-82776233D03*
X94044744Y-82776233D03*
%TD*%
D14*
%TO.C,C53*%
X102174744Y-76796233D03*
X102174744Y-77756233D03*
%TD*%
D21*
%TO.C,C46*%
X100044744Y-78026233D03*
X101004744Y-78026233D03*
%TD*%
D41*
%TO.C,J10*%
X124949744Y-96101233D03*
D42*
X126474744Y-94626233D03*
X126474744Y-97576233D03*
%TD*%
D50*
%TO.C,U10*%
X93574744Y-80126233D03*
X93574744Y-80776233D03*
X93574744Y-81426233D03*
X95474744Y-81426233D03*
X95474744Y-80126233D03*
%TD*%
D10*
%TO.C,C27*%
X86974744Y-118086233D03*
X86974744Y-117126233D03*
%TD*%
D51*
%TO.C,R5*%
X45074744Y-40806233D03*
X45074744Y-41826233D03*
%TD*%
D21*
%TO.C,C73*%
X122364744Y-60526233D03*
X123324744Y-60526233D03*
%TD*%
D10*
%TO.C,C29*%
X85974744Y-118106233D03*
X85974744Y-117146233D03*
%TD*%
D26*
%TO.C,L11*%
X107289744Y-77776233D03*
X108259744Y-77776233D03*
%TD*%
D22*
%TO.C,R25*%
X62327244Y-98551233D03*
X63347244Y-98551233D03*
%TD*%
D52*
%TO.C,J11*%
X77219744Y-111746233D03*
X79759744Y-111746233D03*
X82299744Y-111746233D03*
X75949744Y-111746233D03*
X78489744Y-111746233D03*
X81029744Y-111746233D03*
D53*
X77429744Y-98596233D03*
D54*
X86244744Y-107576233D03*
X73704744Y-107576233D03*
D53*
X82509744Y-98596233D03*
D55*
X73869744Y-98016233D03*
D54*
X73704744Y-109576233D03*
X86244744Y-109576233D03*
D55*
X86079744Y-98016233D03*
%TD*%
D40*
%TO.C,L2*%
X100344744Y-68276233D03*
X99374744Y-68276233D03*
%TD*%
D26*
%TO.C,L10*%
X106864744Y-67276233D03*
X107834744Y-67276233D03*
%TD*%
D56*
%TO.C,U9*%
X98974744Y-69538733D03*
X98324744Y-69538733D03*
X97674744Y-69538733D03*
X97024744Y-69538733D03*
X96374744Y-69538733D03*
X95724744Y-69538733D03*
X95074744Y-69538733D03*
D57*
X94037244Y-70576233D03*
X94037244Y-71226233D03*
X94037244Y-71876233D03*
X94037244Y-72526233D03*
X94037244Y-73176233D03*
X94037244Y-73826233D03*
X94037244Y-74476233D03*
D56*
X95074744Y-75513733D03*
X95724744Y-75513733D03*
X96374744Y-75513733D03*
X97024744Y-75513733D03*
X97674744Y-75513733D03*
X98324744Y-75513733D03*
X98974744Y-75513733D03*
D57*
X100012244Y-74476233D03*
X100012244Y-73826233D03*
X100012244Y-73176233D03*
X100012244Y-72526233D03*
X100012244Y-71876233D03*
X100012244Y-71226233D03*
X100012244Y-70576233D03*
D58*
X97024744Y-72526233D03*
%TD*%
D19*
%TO.C,R10*%
X82287244Y-92696233D03*
X82287244Y-91676233D03*
%TD*%
D41*
%TO.C,J14*%
X124799744Y-86026233D03*
D42*
X126324744Y-87501233D03*
X126324744Y-84551233D03*
%TD*%
D12*
%TO.C,L1*%
X40224744Y-69806233D03*
X40224744Y-70776233D03*
%TD*%
D37*
%TO.C,R18*%
X104494744Y-118626233D03*
X103474744Y-118626233D03*
%TD*%
D14*
%TO.C,C9*%
X36874744Y-77396233D03*
X36874744Y-78356233D03*
%TD*%
D37*
%TO.C,R11*%
X93224744Y-115126233D03*
X92204744Y-115126233D03*
%TD*%
D48*
%TO.C,H3*%
X34974744Y-28626233D03*
%TD*%
D21*
%TO.C,C56*%
X103894744Y-74776233D03*
X104854744Y-74776233D03*
%TD*%
D39*
%TO.C,U11*%
X113674744Y-66001233D03*
X113674744Y-66651233D03*
X113674744Y-67301233D03*
X115574744Y-67301233D03*
X115574744Y-66651233D03*
X115574744Y-66001233D03*
%TD*%
D21*
%TO.C,C71*%
X122364744Y-63526233D03*
X123324744Y-63526233D03*
%TD*%
D36*
%TO.C,C32*%
X93854744Y-63276233D03*
X92894744Y-63276233D03*
%TD*%
D59*
%TO.C,R15*%
X51399744Y-121376233D03*
X53224744Y-121376233D03*
%TD*%
D13*
%TO.C,C18*%
X46774744Y-110376233D03*
X41174744Y-110376233D03*
%TD*%
D20*
%TO.C,U3*%
X44912244Y-45176233D03*
X44912244Y-44226233D03*
X44912244Y-43276233D03*
X42637244Y-43276233D03*
X42637244Y-44226233D03*
X42637244Y-45176233D03*
%TD*%
D51*
%TO.C,R27*%
X97774744Y-78006233D03*
X97774744Y-79026233D03*
%TD*%
D34*
%TO.C,J5*%
X40974744Y-25796233D03*
D35*
X40974744Y-28336233D03*
%TD*%
D37*
%TO.C,R23*%
X67457244Y-106026233D03*
X66437244Y-106026233D03*
%TD*%
D36*
%TO.C,C10*%
X44934744Y-48676233D03*
X43974744Y-48676233D03*
%TD*%
D21*
%TO.C,C36*%
X101394744Y-73026233D03*
X102354744Y-73026233D03*
%TD*%
D22*
%TO.C,R21*%
X68927244Y-98551233D03*
X69947244Y-98551233D03*
%TD*%
D10*
%TO.C,C64*%
X109274744Y-77776233D03*
X109274744Y-76816233D03*
%TD*%
D60*
%TO.C,C12*%
X45834744Y-50966233D03*
D61*
X43974744Y-50166233D03*
X43934744Y-51776233D03*
D60*
X42054744Y-50966233D03*
%TD*%
D10*
%TO.C,C59*%
X106274744Y-77776233D03*
X106274744Y-76816233D03*
%TD*%
D62*
%TO.C,U6*%
X52449744Y-110726233D03*
X52449744Y-112426233D03*
D63*
X61599744Y-114126233D03*
D62*
X52449744Y-114126233D03*
X52449744Y-115826233D03*
X52449744Y-117526233D03*
%TD*%
D22*
%TO.C,R22*%
X66927244Y-98551233D03*
X67947244Y-98551233D03*
%TD*%
D10*
%TO.C,C38*%
X97524744Y-64256233D03*
X97524744Y-63296233D03*
%TD*%
D37*
%TO.C,R6*%
X47784744Y-33726233D03*
X46764744Y-33726233D03*
%TD*%
D21*
%TO.C,C55*%
X103294744Y-76776233D03*
X104254744Y-76776233D03*
%TD*%
D59*
%TO.C,R16*%
X55562244Y-121376233D03*
X57387244Y-121376233D03*
%TD*%
D10*
%TO.C,C54*%
X102874744Y-68256233D03*
X102874744Y-67296233D03*
%TD*%
D19*
%TO.C,R12*%
X82287244Y-94676233D03*
X82287244Y-93656233D03*
%TD*%
D48*
%TO.C,H2*%
X124974744Y-118626233D03*
%TD*%
D10*
%TO.C,C41*%
X115599744Y-76526233D03*
X115599744Y-75566233D03*
%TD*%
D38*
%TO.C,L15*%
X122099744Y-84076233D03*
X122099744Y-83106233D03*
%TD*%
D21*
%TO.C,C23*%
X120894744Y-105226233D03*
X121854744Y-105226233D03*
%TD*%
%TO.C,C1*%
X41064744Y-103076233D03*
X42024744Y-103076233D03*
%TD*%
D12*
%TO.C,L5*%
X99024744Y-78026233D03*
X99024744Y-78996233D03*
%TD*%
D21*
%TO.C,C66*%
X110294744Y-76776233D03*
X111254744Y-76776233D03*
%TD*%
D48*
%TO.C,H4*%
X34974744Y-118626233D03*
%TD*%
D14*
%TO.C,C69*%
X117524744Y-65566233D03*
X117524744Y-66526233D03*
%TD*%
D21*
%TO.C,C52*%
X102144744Y-80526233D03*
X103104744Y-80526233D03*
%TD*%
D64*
%TO.C,D3*%
X64612244Y-104151233D03*
X62737244Y-104151233D03*
%TD*%
%TO.C,D1*%
X69312244Y-104226233D03*
X67437244Y-104226233D03*
%TD*%
D49*
%TO.C,U1*%
X46024744Y-89276233D03*
X46024744Y-89776233D03*
X46024744Y-90276233D03*
X46024744Y-90776233D03*
X49124744Y-90776233D03*
X49124744Y-90276233D03*
X49124744Y-89776233D03*
X49124744Y-89276233D03*
%TD*%
D65*
%TO.C,J15*%
X81374744Y-61301233D03*
X119274744Y-83751233D03*
D66*
X94324744Y-85126233D03*
X88324744Y-85126233D03*
X112324744Y-59926233D03*
D67*
X81374744Y-85126233D03*
D68*
X119274744Y-72526233D03*
D66*
X100324744Y-85126233D03*
D68*
X81374744Y-72526233D03*
D69*
X117724744Y-59926233D03*
X82924744Y-59926233D03*
D66*
X100324744Y-59926233D03*
D68*
X81374744Y-66526233D03*
X81374744Y-78526233D03*
D67*
X119274744Y-85126233D03*
D66*
X106324744Y-85126233D03*
D67*
X119274744Y-59926233D03*
D65*
X119274744Y-61301233D03*
X81374744Y-83751233D03*
D66*
X94324744Y-59926233D03*
D69*
X82924744Y-85126233D03*
D68*
X119274744Y-66526233D03*
D69*
X117724744Y-85126233D03*
D66*
X112324744Y-85126233D03*
D68*
X119274744Y-78526233D03*
D67*
X81374744Y-59926233D03*
D66*
X106324744Y-59926233D03*
X88324744Y-59926233D03*
%TD*%
D10*
%TO.C,C68*%
X112274744Y-77756233D03*
X112274744Y-76796233D03*
%TD*%
D14*
%TO.C,C20*%
X120224744Y-96146233D03*
X120224744Y-97106233D03*
%TD*%
D15*
%TO.C,C3*%
X51574744Y-42026233D03*
X51574744Y-36426233D03*
%TD*%
D14*
%TO.C,C42*%
X92524744Y-75796233D03*
X92524744Y-76756233D03*
%TD*%
D70*
%TO.C,Y1*%
X92424744Y-64826233D03*
X92424744Y-67026233D03*
X94124744Y-67026233D03*
X94124744Y-64826233D03*
%TD*%
D34*
%TO.C,J1*%
X34934744Y-102086233D03*
D35*
X37474744Y-102086233D03*
X34934744Y-104626233D03*
X37474744Y-104626233D03*
X34934744Y-107166233D03*
X37474744Y-107166233D03*
%TD*%
D26*
%TO.C,L6*%
X103874744Y-70276233D03*
X104844744Y-70276233D03*
%TD*%
D34*
%TO.C,J9*%
X34934744Y-53466233D03*
D35*
X37474744Y-53466233D03*
X34934744Y-56006233D03*
X37474744Y-56006233D03*
X34934744Y-58546233D03*
X37474744Y-58546233D03*
X34934744Y-61086233D03*
X37474744Y-61086233D03*
X34934744Y-63626233D03*
X37474744Y-63626233D03*
X34934744Y-66166233D03*
X37474744Y-66166233D03*
%TD*%
D71*
%TO.C,R29*%
X104987244Y-80526233D03*
X105802244Y-80526233D03*
%TD*%
D26*
%TO.C,L3*%
X101874744Y-70276233D03*
X102844744Y-70276233D03*
%TD*%
D21*
%TO.C,C35*%
X101394744Y-74026233D03*
X102354744Y-74026233D03*
%TD*%
D24*
%TO.C,Q3*%
X64787244Y-100113733D03*
X62887244Y-100113733D03*
X63837244Y-101988733D03*
%TD*%
D34*
%TO.C,J3*%
X34974744Y-90576233D03*
D35*
X37514744Y-90576233D03*
X34974744Y-93116233D03*
X37514744Y-93116233D03*
X34974744Y-95656233D03*
X37514744Y-95656233D03*
X34974744Y-98196233D03*
X37514744Y-98196233D03*
%TD*%
D22*
%TO.C,R9*%
X121214744Y-96126233D03*
X122234744Y-96126233D03*
%TD*%
D21*
%TO.C,C44*%
X101394744Y-72026233D03*
X102354744Y-72026233D03*
%TD*%
D11*
%TO.C,RN3*%
X84524744Y-78776233D03*
X84524744Y-80116233D03*
X84524744Y-81436233D03*
X84524744Y-82776233D03*
X87524744Y-82776233D03*
X87524744Y-81436233D03*
X87524744Y-80116233D03*
X87524744Y-78776233D03*
%TD*%
D12*
%TO.C,L14*%
X122324744Y-61541233D03*
X122324744Y-62511233D03*
%TD*%
D36*
%TO.C,C11*%
X63034744Y-48876233D03*
X62074744Y-48876233D03*
%TD*%
D72*
%TO.C,R28*%
X104124744Y-64276233D03*
X104764744Y-64276233D03*
%TD*%
D34*
%TO.C,J8*%
X34934744Y-35966233D03*
D35*
X37474744Y-35966233D03*
X34934744Y-38506233D03*
X37474744Y-38506233D03*
X34934744Y-41046233D03*
X37474744Y-41046233D03*
X34934744Y-43586233D03*
X37474744Y-43586233D03*
X34934744Y-46126233D03*
X37474744Y-46126233D03*
X34934744Y-48666233D03*
X37474744Y-48666233D03*
%TD*%
D14*
%TO.C,C40*%
X92274744Y-81316233D03*
X92274744Y-82276233D03*
%TD*%
%TO.C,C31*%
X95774744Y-66796233D03*
X95774744Y-67756233D03*
%TD*%
D37*
%TO.C,R13*%
X95244744Y-115126233D03*
X94224744Y-115126233D03*
%TD*%
D10*
%TO.C,C33*%
X96774744Y-67776233D03*
X96774744Y-66816233D03*
%TD*%
D14*
%TO.C,C37*%
X91524744Y-75796233D03*
X91524744Y-76756233D03*
%TD*%
M02*
